%TF.GenerationSoftware,KiCad,Pcbnew,(5.1.8)-1*%
%TF.CreationDate,2021-03-14T10:01:35+01:00*%
%TF.ProjectId,Telerupteur_Emetteur_RF433_V2,54656c65-7275-4707-9465-75725f456d65,rev?*%
%TF.SameCoordinates,Original*%
%TF.FileFunction,Other,User*%
%FSLAX46Y46*%
G04 Gerber Fmt 4.6, Leading zero omitted, Abs format (unit mm)*
G04 Created by KiCad (PCBNEW (5.1.8)-1) date 2021-03-14 10:01:35*
%MOMM*%
%LPD*%
G01*
G04 APERTURE LIST*
%TA.AperFunction,Profile*%
%ADD10C,0.050000*%
%TD*%
%TA.AperFunction,Profile*%
%ADD11C,0.100000*%
%TD*%
%ADD12C,0.050000*%
%ADD13C,0.120000*%
G04 APERTURE END LIST*
D10*
X50666666Y-49950000D02*
G75*
G03*
X50666666Y-49950000I-1666666J0D01*
G01*
X46500000Y-49950000D02*
X51500000Y-49950000D01*
X49000000Y-47450000D02*
X49000000Y-52450000D01*
D11*
X49000000Y-49950000D02*
X155000000Y-49975000D01*
D10*
X49000000Y-120000000D02*
X155000000Y-120000000D01*
X155000000Y-49975000D02*
X155000000Y-120000000D01*
D11*
X49000000Y-49950000D02*
X49000000Y-120000000D01*
D12*
%TO.C,REF4*%
X154775000Y-117125000D02*
G75*
G03*
X154775000Y-117125000I-2750000J0D01*
G01*
%TO.C,REF2*%
X154775000Y-52965000D02*
G75*
G03*
X154775000Y-52965000I-2750000J0D01*
G01*
%TO.C,REF3*%
X54700000Y-116975000D02*
G75*
G03*
X54700000Y-116975000I-2750000J0D01*
G01*
%TO.C,REF1*%
X54730000Y-52950000D02*
G75*
G03*
X54730000Y-52950000I-2750000J0D01*
G01*
%TO.C,C1*%
X112950000Y-60160000D02*
G75*
G03*
X112950000Y-60160000I-8750000J0D01*
G01*
%TO.C,C2*%
X96420000Y-74820000D02*
X96420000Y-65820000D01*
X96420000Y-65820000D02*
X79320000Y-65820000D01*
X79320000Y-65820000D02*
X79320000Y-74820000D01*
X79320000Y-74820000D02*
X96420000Y-74820000D01*
%TO.C,C3*%
X105720000Y-114540000D02*
X100220000Y-114540000D01*
X105720000Y-117540000D02*
X105720000Y-114540000D01*
X100220000Y-117540000D02*
X105720000Y-117540000D01*
X100220000Y-114540000D02*
X100220000Y-117540000D01*
%TO.C,D2*%
X103680000Y-74690000D02*
X97230000Y-74690000D01*
X103680000Y-81190000D02*
X103680000Y-74690000D01*
X97230000Y-81190000D02*
X103680000Y-81190000D01*
X97230000Y-74690000D02*
X97230000Y-81190000D01*
%TO.C,D3*%
X111200000Y-86120000D02*
X111200000Y-92620000D01*
X111200000Y-92620000D02*
X117650000Y-92620000D01*
X117650000Y-92620000D02*
X117650000Y-86120000D01*
X117650000Y-86120000D02*
X111200000Y-86120000D01*
%TO.C,D4*%
X117650000Y-96280000D02*
X111200000Y-96280000D01*
X117650000Y-102780000D02*
X117650000Y-96280000D01*
X111200000Y-102780000D02*
X117650000Y-102780000D01*
X111200000Y-96280000D02*
X111200000Y-102780000D01*
%TO.C,D5*%
X145490000Y-89930000D02*
X145490000Y-96430000D01*
X145490000Y-96430000D02*
X151940000Y-96430000D01*
X151940000Y-96430000D02*
X151940000Y-89930000D01*
X151940000Y-89930000D02*
X145490000Y-89930000D01*
%TO.C,F1*%
X67460000Y-91430000D02*
X77560000Y-91430000D01*
X67460000Y-117430000D02*
X67460000Y-91430000D01*
X77560000Y-91430000D02*
X77560000Y-117430000D01*
X77560000Y-117430000D02*
X67460000Y-117430000D01*
%TO.C,J2*%
X138020000Y-55610000D02*
X144170000Y-55610000D01*
X144170000Y-55610000D02*
X144170000Y-52010000D01*
X144170000Y-52010000D02*
X138020000Y-52010000D01*
X138020000Y-52010000D02*
X138020000Y-55610000D01*
%TO.C,J3*%
X151780000Y-83760000D02*
X148180000Y-83760000D01*
X151780000Y-87360000D02*
X151780000Y-83760000D01*
X148180000Y-87360000D02*
X151780000Y-87360000D01*
X148180000Y-83760000D02*
X148180000Y-87360000D01*
%TO.C,J4*%
X106270000Y-71060000D02*
X106270000Y-79710000D01*
X106270000Y-79710000D02*
X109870000Y-79710000D01*
X109870000Y-79710000D02*
X109870000Y-71060000D01*
X109870000Y-71060000D02*
X106270000Y-71060000D01*
%TO.C,R1*%
X80350000Y-76440000D02*
X80350000Y-79440000D01*
X80350000Y-79440000D02*
X90070000Y-79440000D01*
X90070000Y-79440000D02*
X90070000Y-76440000D01*
X90070000Y-76440000D02*
X80350000Y-76440000D01*
%TO.C,R2*%
X114190000Y-52760000D02*
X114190000Y-62480000D01*
X117190000Y-52760000D02*
X114190000Y-52760000D01*
X117190000Y-62480000D02*
X117190000Y-52760000D01*
X114190000Y-62480000D02*
X117190000Y-62480000D01*
%TO.C,R3*%
X108510000Y-106875000D02*
X108510000Y-109875000D01*
X108510000Y-109875000D02*
X118230000Y-109875000D01*
X118230000Y-109875000D02*
X118230000Y-106875000D01*
X118230000Y-106875000D02*
X108510000Y-106875000D01*
%TO.C,R4*%
X117190000Y-75180000D02*
X117190000Y-65460000D01*
X114190000Y-75180000D02*
X117190000Y-75180000D01*
X114190000Y-65460000D02*
X114190000Y-75180000D01*
X117190000Y-65460000D02*
X114190000Y-65460000D01*
%TO.C,R5*%
X108510000Y-110925000D02*
X108510000Y-113925000D01*
X108510000Y-113925000D02*
X118230000Y-113925000D01*
X118230000Y-113925000D02*
X118230000Y-110925000D01*
X118230000Y-110925000D02*
X108510000Y-110925000D01*
%TO.C,R6*%
X136230000Y-106920000D02*
X136230000Y-109920000D01*
X136230000Y-109920000D02*
X145950000Y-109920000D01*
X145950000Y-109920000D02*
X145950000Y-106920000D01*
X145950000Y-106920000D02*
X136230000Y-106920000D01*
%TO.C,R7*%
X145950000Y-112000000D02*
X136230000Y-112000000D01*
X145950000Y-115000000D02*
X145950000Y-112000000D01*
X136230000Y-115000000D02*
X145950000Y-115000000D01*
X136230000Y-112000000D02*
X136230000Y-115000000D01*
%TO.C,R8*%
X139590000Y-85780000D02*
X139590000Y-95500000D01*
X142590000Y-85780000D02*
X139590000Y-85780000D01*
X142590000Y-95500000D02*
X142590000Y-85780000D01*
X139590000Y-95500000D02*
X142590000Y-95500000D01*
%TO.C,TR1*%
X50980000Y-56770000D02*
X78480000Y-56770000D01*
X50980000Y-56770000D02*
X50980000Y-89270000D01*
X78480000Y-89270000D02*
X78480000Y-56770000D01*
X78480000Y-89270000D02*
X50980000Y-89270000D01*
D13*
%TO.C,U1*%
X87440000Y-96640000D02*
X97990000Y-96640000D01*
X98015000Y-96640000D02*
X98015000Y-112165000D01*
X97965000Y-112165000D02*
X87415000Y-112165000D01*
X87415000Y-112115000D02*
X87415000Y-96640000D01*
D12*
%TO.C,U2*%
X132010000Y-105600000D02*
X122210000Y-105600000D01*
X132010000Y-116300000D02*
X132010000Y-105600000D01*
X122210000Y-116300000D02*
X132010000Y-116300000D01*
X122210000Y-105600000D02*
X122210000Y-116300000D01*
%TO.C,U3*%
X137520000Y-102320000D02*
X119240000Y-102320000D01*
X137520000Y-102320000D02*
X137520000Y-56100000D01*
X119240000Y-56100000D02*
X119240000Y-102320000D01*
X119240000Y-56100000D02*
X137520000Y-56100000D01*
D13*
%TO.C,U4*%
X152560000Y-60705000D02*
X139810000Y-60705000D01*
X139810000Y-60705000D02*
X139810000Y-80390000D01*
X152560000Y-60705000D02*
X152560000Y-80390000D01*
X152560000Y-80390000D02*
X139810000Y-80390000D01*
D12*
%TO.C,J1*%
X55240000Y-95190000D02*
X55240000Y-111440000D01*
X66050000Y-95190000D02*
X55240000Y-95190000D01*
X66050000Y-111440000D02*
X66050000Y-95190000D01*
X55240000Y-111440000D02*
X66050000Y-111440000D01*
D13*
%TO.C,D1*%
X82064724Y-62510280D02*
X90925000Y-62500000D01*
X82064723Y-62510280D02*
G75*
G02*
X90925000Y-62500000I4425009J4426479D01*
G01*
%TD*%
M02*
