%TF.GenerationSoftware,KiCad,Pcbnew,(5.1.8)-1*%
%TF.CreationDate,2021-03-14T10:01:34+01:00*%
%TF.ProjectId,Telerupteur_Emetteur_RF433_V2,54656c65-7275-4707-9465-75725f456d65,rev?*%
%TF.SameCoordinates,Original*%
%TF.FileFunction,OtherDrawing,Comment*%
%FSLAX46Y46*%
G04 Gerber Fmt 4.6, Leading zero omitted, Abs format (unit mm)*
G04 Created by KiCad (PCBNEW (5.1.8)-1) date 2021-03-14 10:01:34*
%MOMM*%
%LPD*%
G01*
G04 APERTURE LIST*
%TA.AperFunction,Profile*%
%ADD10C,0.050000*%
%TD*%
%ADD11C,0.150000*%
%TA.AperFunction,Profile*%
%ADD12C,0.100000*%
%TD*%
G04 APERTURE END LIST*
D10*
X50666666Y-49950000D02*
G75*
G03*
X50666666Y-49950000I-1666666J0D01*
G01*
X46500000Y-49950000D02*
X51500000Y-49950000D01*
X49000000Y-47450000D02*
X49000000Y-52450000D01*
D11*
X101270833Y-36777380D02*
X100699404Y-36777380D01*
X100985119Y-36777380D02*
X100985119Y-35777380D01*
X100889880Y-35920238D01*
X100794642Y-36015476D01*
X100699404Y-36063095D01*
X101889880Y-35777380D02*
X101985119Y-35777380D01*
X102080357Y-35825000D01*
X102127976Y-35872619D01*
X102175595Y-35967857D01*
X102223214Y-36158333D01*
X102223214Y-36396428D01*
X102175595Y-36586904D01*
X102127976Y-36682142D01*
X102080357Y-36729761D01*
X101985119Y-36777380D01*
X101889880Y-36777380D01*
X101794642Y-36729761D01*
X101747023Y-36682142D01*
X101699404Y-36586904D01*
X101651785Y-36396428D01*
X101651785Y-36158333D01*
X101699404Y-35967857D01*
X101747023Y-35872619D01*
X101794642Y-35825000D01*
X101889880Y-35777380D01*
X103080357Y-35777380D02*
X102889880Y-35777380D01*
X102794642Y-35825000D01*
X102747023Y-35872619D01*
X102651785Y-36015476D01*
X102604166Y-36205952D01*
X102604166Y-36586904D01*
X102651785Y-36682142D01*
X102699404Y-36729761D01*
X102794642Y-36777380D01*
X102985119Y-36777380D01*
X103080357Y-36729761D01*
X103127976Y-36682142D01*
X103175595Y-36586904D01*
X103175595Y-36348809D01*
X103127976Y-36253571D01*
X103080357Y-36205952D01*
X102985119Y-36158333D01*
X102794642Y-36158333D01*
X102699404Y-36205952D01*
X102651785Y-36253571D01*
X102604166Y-36348809D01*
X49000000Y-35025000D02*
X154875000Y-35025000D01*
X49000000Y-35025000D02*
X49000000Y-35611421D01*
X154875000Y-35025000D02*
X154875000Y-35611421D01*
X154875000Y-35025000D02*
X153748496Y-35611421D01*
X154875000Y-35025000D02*
X153748496Y-34438579D01*
X49000000Y-35025000D02*
X50126504Y-35611421D01*
X49000000Y-35025000D02*
X50126504Y-34438579D01*
X101458333Y-44402380D02*
X100886904Y-44402380D01*
X101172619Y-44402380D02*
X101172619Y-43402380D01*
X101077380Y-43545238D01*
X100982142Y-43640476D01*
X100886904Y-43688095D01*
X102077380Y-43402380D02*
X102172619Y-43402380D01*
X102267857Y-43450000D01*
X102315476Y-43497619D01*
X102363095Y-43592857D01*
X102410714Y-43783333D01*
X102410714Y-44021428D01*
X102363095Y-44211904D01*
X102315476Y-44307142D01*
X102267857Y-44354761D01*
X102172619Y-44402380D01*
X102077380Y-44402380D01*
X101982142Y-44354761D01*
X101934523Y-44307142D01*
X101886904Y-44211904D01*
X101839285Y-44021428D01*
X101839285Y-43783333D01*
X101886904Y-43592857D01*
X101934523Y-43497619D01*
X101982142Y-43450000D01*
X102077380Y-43402380D01*
X103029761Y-43402380D02*
X103125000Y-43402380D01*
X103220238Y-43450000D01*
X103267857Y-43497619D01*
X103315476Y-43592857D01*
X103363095Y-43783333D01*
X103363095Y-44021428D01*
X103315476Y-44211904D01*
X103267857Y-44307142D01*
X103220238Y-44354761D01*
X103125000Y-44402380D01*
X103029761Y-44402380D01*
X102934523Y-44354761D01*
X102886904Y-44307142D01*
X102839285Y-44211904D01*
X102791666Y-44021428D01*
X102791666Y-43783333D01*
X102839285Y-43592857D01*
X102886904Y-43497619D01*
X102934523Y-43450000D01*
X103029761Y-43402380D01*
X52100000Y-42650000D02*
X152150000Y-42650000D01*
X52100000Y-42650000D02*
X52100000Y-43236421D01*
X152150000Y-42650000D02*
X152150000Y-43236421D01*
X152150000Y-42650000D02*
X151023496Y-43236421D01*
X152150000Y-42650000D02*
X151023496Y-42063579D01*
X52100000Y-42650000D02*
X53226504Y-43236421D01*
X52100000Y-42650000D02*
X53226504Y-42063579D01*
X163897619Y-84127976D02*
X163897619Y-84794642D01*
X162897619Y-84366071D01*
X163897619Y-85366071D02*
X163897619Y-85461309D01*
X163850000Y-85556547D01*
X163802380Y-85604166D01*
X163707142Y-85651785D01*
X163516666Y-85699404D01*
X163278571Y-85699404D01*
X163088095Y-85651785D01*
X162992857Y-85604166D01*
X162945238Y-85556547D01*
X162897619Y-85461309D01*
X162897619Y-85366071D01*
X162945238Y-85270833D01*
X162992857Y-85223214D01*
X163088095Y-85175595D01*
X163278571Y-85127976D01*
X163516666Y-85127976D01*
X163707142Y-85175595D01*
X163802380Y-85223214D01*
X163850000Y-85270833D01*
X163897619Y-85366071D01*
X164650000Y-50000000D02*
X164650000Y-119875000D01*
X164650000Y-50000000D02*
X164063579Y-50000000D01*
X164650000Y-119875000D02*
X164063579Y-119875000D01*
X164650000Y-119875000D02*
X164063579Y-118748496D01*
X164650000Y-119875000D02*
X165236421Y-118748496D01*
X164650000Y-50000000D02*
X164063579Y-51126504D01*
X164650000Y-50000000D02*
X165236421Y-51126504D01*
X159222619Y-84714285D02*
X159222619Y-84523809D01*
X159175000Y-84428571D01*
X159127380Y-84380952D01*
X158984523Y-84285714D01*
X158794047Y-84238095D01*
X158413095Y-84238095D01*
X158317857Y-84285714D01*
X158270238Y-84333333D01*
X158222619Y-84428571D01*
X158222619Y-84619047D01*
X158270238Y-84714285D01*
X158317857Y-84761904D01*
X158413095Y-84809523D01*
X158651190Y-84809523D01*
X158746428Y-84761904D01*
X158794047Y-84714285D01*
X158841666Y-84619047D01*
X158841666Y-84428571D01*
X158794047Y-84333333D01*
X158746428Y-84285714D01*
X158651190Y-84238095D01*
X159222619Y-85714285D02*
X159222619Y-85238095D01*
X158746428Y-85190476D01*
X158794047Y-85238095D01*
X158841666Y-85333333D01*
X158841666Y-85571428D01*
X158794047Y-85666666D01*
X158746428Y-85714285D01*
X158651190Y-85761904D01*
X158413095Y-85761904D01*
X158317857Y-85714285D01*
X158270238Y-85666666D01*
X158222619Y-85571428D01*
X158222619Y-85333333D01*
X158270238Y-85238095D01*
X158317857Y-85190476D01*
X159975000Y-52975000D02*
X159975000Y-117025000D01*
X159975000Y-52975000D02*
X159388579Y-52975000D01*
X159975000Y-117025000D02*
X159388579Y-117025000D01*
X159975000Y-117025000D02*
X159388579Y-115898496D01*
X159975000Y-117025000D02*
X160561421Y-115898496D01*
X159975000Y-52975000D02*
X159388579Y-54101504D01*
X159975000Y-52975000D02*
X160561421Y-54101504D01*
D12*
X49000000Y-49950000D02*
X155000000Y-49975000D01*
D10*
X49000000Y-120000000D02*
X155000000Y-120000000D01*
X155000000Y-49975000D02*
X155000000Y-120000000D01*
D12*
X49000000Y-49950000D02*
X49000000Y-120000000D01*
M02*
