%TF.GenerationSoftware,KiCad,Pcbnew,(5.1.8)-1*%
%TF.CreationDate,2021-03-14T10:01:34+01:00*%
%TF.ProjectId,Telerupteur_Emetteur_RF433_V2,54656c65-7275-4707-9465-75725f456d65,rev?*%
%TF.SameCoordinates,Original*%
%TF.FileFunction,Soldermask,Bot*%
%TF.FilePolarity,Negative*%
%FSLAX46Y46*%
G04 Gerber Fmt 4.6, Leading zero omitted, Abs format (unit mm)*
G04 Created by KiCad (PCBNEW (5.1.8)-1) date 2021-03-14 10:01:34*
%MOMM*%
%LPD*%
G01*
G04 APERTURE LIST*
%TA.AperFunction,Profile*%
%ADD10C,0.050000*%
%TD*%
%TA.AperFunction,Profile*%
%ADD11C,0.100000*%
%TD*%
%ADD12C,5.000000*%
%ADD13R,2.000000X2.000000*%
%ADD14C,2.000000*%
%ADD15C,1.600000*%
%ADD16R,1.600000X1.600000*%
%ADD17O,3.500000X2.500000*%
%ADD18R,1.760000X1.760000*%
%ADD19O,1.760000X2.400000*%
%ADD20O,2.400000X1.760000*%
%ADD21C,3.750000*%
%ADD22O,3.500000X3.500000*%
%ADD23R,1.900000X2.500000*%
%ADD24O,1.900000X2.500000*%
%ADD25O,2.000000X1.600000*%
%ADD26R,2.500000X1.700000*%
%ADD27O,2.500000X1.700000*%
%ADD28C,1.760000*%
%ADD29R,2.600000X2.600000*%
%ADD30C,2.600000*%
%ADD31C,2.500000*%
%ADD32R,2.500000X2.500000*%
G04 APERTURE END LIST*
D10*
X50666666Y-49950000D02*
G75*
G03*
X50666666Y-49950000I-1666666J0D01*
G01*
X46500000Y-49950000D02*
X51500000Y-49950000D01*
X49000000Y-47450000D02*
X49000000Y-52450000D01*
D11*
X49000000Y-49950000D02*
X155000000Y-49975000D01*
D10*
X49000000Y-120000000D02*
X155000000Y-120000000D01*
X155000000Y-49975000D02*
X155000000Y-120000000D01*
D11*
X49000000Y-49950000D02*
X49000000Y-120000000D01*
D12*
%TO.C,REF4*%
X152025000Y-117025000D03*
%TD*%
%TO.C,REF2*%
X152025000Y-52975000D03*
%TD*%
%TO.C,REF3*%
X51950000Y-116975000D03*
%TD*%
%TO.C,REF1*%
X52000000Y-52950000D03*
%TD*%
D13*
%TO.C,C1*%
X100450000Y-60160000D03*
D14*
X107950000Y-60160000D03*
%TD*%
%TO.C,C2*%
X95370000Y-70320000D03*
X80370000Y-70320000D03*
%TD*%
D15*
%TO.C,C3*%
X101720000Y-116040000D03*
X104220000Y-116040000D03*
%TD*%
%TO.C,D2*%
X101720000Y-77940000D03*
D16*
X99180000Y-77940000D03*
%TD*%
%TO.C,D3*%
X113150000Y-89370000D03*
D15*
X115690000Y-89370000D03*
%TD*%
%TO.C,D4*%
X115690000Y-99530000D03*
D16*
X113150000Y-99530000D03*
%TD*%
%TO.C,D5*%
X147440000Y-93180000D03*
D15*
X149980000Y-93180000D03*
%TD*%
D17*
%TO.C,F1*%
X72510000Y-93180000D03*
X72510000Y-115680000D03*
%TD*%
D18*
%TO.C,J2*%
X139820000Y-53810000D03*
D19*
X142360000Y-53810000D03*
%TD*%
D18*
%TO.C,J3*%
X149980000Y-85560000D03*
%TD*%
%TO.C,J4*%
X108070000Y-72860000D03*
D20*
X108070000Y-75400000D03*
X108070000Y-77940000D03*
%TD*%
D14*
%TO.C,R1*%
X81400000Y-77940000D03*
X89020000Y-77940000D03*
%TD*%
%TO.C,R2*%
X115690000Y-53810000D03*
X115690000Y-61430000D03*
%TD*%
%TO.C,R3*%
X109560000Y-108375000D03*
X117180000Y-108375000D03*
%TD*%
%TO.C,R4*%
X115690000Y-74130000D03*
X115690000Y-66510000D03*
%TD*%
%TO.C,R5*%
X109560000Y-112425000D03*
X117180000Y-112425000D03*
%TD*%
%TO.C,R6*%
X137280000Y-108420000D03*
X144900000Y-108420000D03*
%TD*%
%TO.C,R7*%
X144900000Y-113500000D03*
X137280000Y-113500000D03*
%TD*%
%TO.C,R8*%
X141090000Y-86830000D03*
X141090000Y-94450000D03*
%TD*%
D21*
%TO.C,TR1*%
X54730000Y-83020000D03*
X54730000Y-63020000D03*
X74730000Y-68020000D03*
X74730000Y-78020000D03*
%TD*%
D22*
%TO.C,U1*%
X92830000Y-99840000D03*
D23*
X90290000Y-116040000D03*
D24*
X92830000Y-116040000D03*
X95370000Y-116040000D03*
%TD*%
D16*
%TO.C,U2*%
X123310000Y-107150000D03*
D25*
X130930000Y-114770000D03*
X123310000Y-109690000D03*
X130930000Y-112230000D03*
X123310000Y-112230000D03*
X130930000Y-109690000D03*
X123310000Y-114770000D03*
X130930000Y-107150000D03*
%TD*%
D26*
%TO.C,U3*%
X120770000Y-60160000D03*
D27*
X136010000Y-93180000D03*
X120770000Y-62700000D03*
X136010000Y-90640000D03*
X120770000Y-65240000D03*
X136010000Y-88100000D03*
X120770000Y-67780000D03*
X136010000Y-85560000D03*
X120770000Y-70320000D03*
X136010000Y-83020000D03*
X120770000Y-72860000D03*
X136010000Y-80480000D03*
X120770000Y-75400000D03*
X136010000Y-77940000D03*
X120770000Y-77940000D03*
X136010000Y-75400000D03*
X120770000Y-80480000D03*
X136010000Y-72860000D03*
X120770000Y-83020000D03*
X136010000Y-70320000D03*
X120770000Y-85560000D03*
X136010000Y-67780000D03*
X120770000Y-88100000D03*
X136010000Y-65240000D03*
X120770000Y-90640000D03*
X136010000Y-62700000D03*
X120770000Y-93180000D03*
X136010000Y-60160000D03*
X120770000Y-95720000D03*
X136010000Y-95720000D03*
%TD*%
D28*
%TO.C,U4*%
X149970000Y-77850000D03*
X147430000Y-77850000D03*
X144890000Y-77850000D03*
D18*
X142350000Y-77850000D03*
%TD*%
D29*
%TO.C,J1*%
X60950000Y-108400000D03*
D30*
X60950000Y-103320000D03*
X60950000Y-98240000D03*
%TD*%
D31*
%TO.C,D1*%
X89550000Y-55000000D03*
D32*
X83950000Y-60600000D03*
D31*
X89550000Y-60600000D03*
X83950000Y-55000000D03*
%TD*%
M02*
