%TF.GenerationSoftware,KiCad,Pcbnew,(5.1.8)-1*%
%TF.CreationDate,2021-03-14T10:01:35+01:00*%
%TF.ProjectId,Telerupteur_Emetteur_RF433_V2,54656c65-7275-4707-9465-75725f456d65,rev?*%
%TF.SameCoordinates,Original*%
%TF.FileFunction,Other,Fab,Top*%
%FSLAX46Y46*%
G04 Gerber Fmt 4.6, Leading zero omitted, Abs format (unit mm)*
G04 Created by KiCad (PCBNEW (5.1.8)-1) date 2021-03-14 10:01:35*
%MOMM*%
%LPD*%
G01*
G04 APERTURE LIST*
%TA.AperFunction,Profile*%
%ADD10C,0.050000*%
%TD*%
%TA.AperFunction,Profile*%
%ADD11C,0.100000*%
%TD*%
%ADD12C,0.100000*%
%ADD13C,0.120000*%
%ADD14C,0.150000*%
%ADD15C,0.200000*%
G04 APERTURE END LIST*
D10*
X50666666Y-49950000D02*
G75*
G03*
X50666666Y-49950000I-1666666J0D01*
G01*
X46500000Y-49950000D02*
X51500000Y-49950000D01*
X49000000Y-47450000D02*
X49000000Y-52450000D01*
D11*
X49000000Y-49950000D02*
X155000000Y-49975000D01*
D10*
X49000000Y-120000000D02*
X155000000Y-120000000D01*
X155000000Y-49975000D02*
X155000000Y-120000000D01*
D11*
X49000000Y-49950000D02*
X49000000Y-120000000D01*
D12*
%TO.C,C1*%
X112700000Y-60160000D02*
G75*
G03*
X112700000Y-60160000I-8500000J0D01*
G01*
X96893781Y-56432500D02*
X98593781Y-56432500D01*
X97743781Y-55582500D02*
X97743781Y-57282500D01*
%TO.C,C2*%
X93870000Y-74570000D02*
X93870000Y-66070000D01*
X93870000Y-66070000D02*
X81870000Y-66070000D01*
X81870000Y-66070000D02*
X81870000Y-74570000D01*
X81870000Y-74570000D02*
X93870000Y-74570000D01*
X95370000Y-70320000D02*
X93870000Y-70320000D01*
X80370000Y-70320000D02*
X81870000Y-70320000D01*
%TO.C,C3*%
X105470000Y-114790000D02*
X100470000Y-114790000D01*
X105470000Y-117290000D02*
X105470000Y-114790000D01*
X100470000Y-117290000D02*
X105470000Y-117290000D01*
X100470000Y-114790000D02*
X100470000Y-117290000D01*
%TO.C,D2*%
X97950000Y-76470306D02*
X97950000Y-79409694D01*
X102950000Y-77940000D02*
G75*
G03*
X102950000Y-77940000I-2500000J0D01*
G01*
X97949984Y-79409666D02*
G75*
G03*
X97950000Y-76470306I2500016J1469666D01*
G01*
%TO.C,D3*%
X116920000Y-89370000D02*
G75*
G03*
X116920000Y-89370000I-2500000J0D01*
G01*
X111920000Y-87900306D02*
X111920000Y-90839694D01*
X111919984Y-90839666D02*
G75*
G03*
X111920000Y-87900306I2500016J1469666D01*
G01*
%TO.C,D4*%
X111920000Y-98060306D02*
X111920000Y-100999694D01*
X116920000Y-99530000D02*
G75*
G03*
X116920000Y-99530000I-2500000J0D01*
G01*
X111919984Y-100999666D02*
G75*
G03*
X111920000Y-98060306I2500016J1469666D01*
G01*
%TO.C,D5*%
X151210000Y-93180000D02*
G75*
G03*
X151210000Y-93180000I-2500000J0D01*
G01*
X146210000Y-91710306D02*
X146210000Y-94649694D01*
X146209984Y-94649666D02*
G75*
G03*
X146210000Y-91710306I2500016J1469666D01*
G01*
%TO.C,F1*%
X77310000Y-93180000D02*
X67710000Y-93180000D01*
X67710000Y-93180000D02*
X67710000Y-115680000D01*
X67710000Y-115680000D02*
X77310000Y-115680000D01*
X77310000Y-115680000D02*
X77310000Y-93180000D01*
%TO.C,J2*%
X138550000Y-54445000D02*
X138550000Y-52540000D01*
X138550000Y-52540000D02*
X143630000Y-52540000D01*
X143630000Y-52540000D02*
X143630000Y-55080000D01*
X143630000Y-55080000D02*
X139185000Y-55080000D01*
X139185000Y-55080000D02*
X138550000Y-54445000D01*
%TO.C,J3*%
X148710000Y-84925000D02*
X149345000Y-84290000D01*
X148710000Y-86830000D02*
X148710000Y-84925000D01*
X151250000Y-86830000D02*
X148710000Y-86830000D01*
X151250000Y-84290000D02*
X151250000Y-86830000D01*
X149345000Y-84290000D02*
X151250000Y-84290000D01*
%TO.C,J4*%
X107435000Y-71590000D02*
X109340000Y-71590000D01*
X109340000Y-71590000D02*
X109340000Y-79210000D01*
X109340000Y-79210000D02*
X106800000Y-79210000D01*
X106800000Y-79210000D02*
X106800000Y-72225000D01*
X106800000Y-72225000D02*
X107435000Y-71590000D01*
%TO.C,R1*%
X82060000Y-76690000D02*
X82060000Y-79190000D01*
X82060000Y-79190000D02*
X88360000Y-79190000D01*
X88360000Y-79190000D02*
X88360000Y-76690000D01*
X88360000Y-76690000D02*
X82060000Y-76690000D01*
X81400000Y-77940000D02*
X82060000Y-77940000D01*
X89020000Y-77940000D02*
X88360000Y-77940000D01*
%TO.C,R2*%
X115690000Y-53810000D02*
X115690000Y-54470000D01*
X115690000Y-61430000D02*
X115690000Y-60770000D01*
X114440000Y-54470000D02*
X114440000Y-60770000D01*
X116940000Y-54470000D02*
X114440000Y-54470000D01*
X116940000Y-60770000D02*
X116940000Y-54470000D01*
X114440000Y-60770000D02*
X116940000Y-60770000D01*
%TO.C,R3*%
X110220000Y-107125000D02*
X110220000Y-109625000D01*
X110220000Y-109625000D02*
X116520000Y-109625000D01*
X116520000Y-109625000D02*
X116520000Y-107125000D01*
X116520000Y-107125000D02*
X110220000Y-107125000D01*
X109560000Y-108375000D02*
X110220000Y-108375000D01*
X117180000Y-108375000D02*
X116520000Y-108375000D01*
%TO.C,R4*%
X115690000Y-74130000D02*
X115690000Y-73470000D01*
X115690000Y-66510000D02*
X115690000Y-67170000D01*
X116940000Y-73470000D02*
X116940000Y-67170000D01*
X114440000Y-73470000D02*
X116940000Y-73470000D01*
X114440000Y-67170000D02*
X114440000Y-73470000D01*
X116940000Y-67170000D02*
X114440000Y-67170000D01*
%TO.C,R5*%
X110220000Y-111175000D02*
X110220000Y-113675000D01*
X110220000Y-113675000D02*
X116520000Y-113675000D01*
X116520000Y-113675000D02*
X116520000Y-111175000D01*
X116520000Y-111175000D02*
X110220000Y-111175000D01*
X109560000Y-112425000D02*
X110220000Y-112425000D01*
X117180000Y-112425000D02*
X116520000Y-112425000D01*
%TO.C,R6*%
X137940000Y-107170000D02*
X137940000Y-109670000D01*
X137940000Y-109670000D02*
X144240000Y-109670000D01*
X144240000Y-109670000D02*
X144240000Y-107170000D01*
X144240000Y-107170000D02*
X137940000Y-107170000D01*
X137280000Y-108420000D02*
X137940000Y-108420000D01*
X144900000Y-108420000D02*
X144240000Y-108420000D01*
%TO.C,R7*%
X144900000Y-113500000D02*
X144240000Y-113500000D01*
X137280000Y-113500000D02*
X137940000Y-113500000D01*
X144240000Y-112250000D02*
X137940000Y-112250000D01*
X144240000Y-114750000D02*
X144240000Y-112250000D01*
X137940000Y-114750000D02*
X144240000Y-114750000D01*
X137940000Y-112250000D02*
X137940000Y-114750000D01*
%TO.C,R8*%
X141090000Y-86830000D02*
X141090000Y-87490000D01*
X141090000Y-94450000D02*
X141090000Y-93790000D01*
X139840000Y-87490000D02*
X139840000Y-93790000D01*
X142340000Y-87490000D02*
X139840000Y-87490000D01*
X142340000Y-93790000D02*
X142340000Y-87490000D01*
X139840000Y-93790000D02*
X142340000Y-93790000D01*
%TO.C,TR1*%
X66730000Y-77020000D02*
X69730000Y-77020000D01*
X69730000Y-76020000D02*
X66730000Y-76020000D01*
X66730000Y-75020000D02*
X69730000Y-75020000D01*
X69730000Y-74020000D02*
X66730000Y-74020000D01*
X66730000Y-73020000D02*
X69730000Y-73020000D01*
X69730000Y-72020000D02*
X66730000Y-72020000D01*
X66730000Y-71020000D02*
X69730000Y-71020000D01*
X69730000Y-70020000D02*
X66730000Y-70020000D01*
X66730000Y-69020000D02*
X69730000Y-69020000D01*
X67730000Y-68020000D02*
X66730000Y-68020000D01*
X66730000Y-68020000D02*
X66730000Y-78020000D01*
X66730000Y-78020000D02*
X67730000Y-78020000D01*
X68730000Y-68020000D02*
X67730000Y-68020000D01*
X67730000Y-68020000D02*
X67730000Y-78020000D01*
X67730000Y-78020000D02*
X68730000Y-78020000D01*
X69730000Y-68020000D02*
X68730000Y-68020000D01*
X68730000Y-68020000D02*
X68730000Y-78020000D01*
X68730000Y-78020000D02*
X69730000Y-78020000D01*
X71730000Y-68020000D02*
X69730000Y-68020000D01*
X69730000Y-68020000D02*
X69730000Y-78020000D01*
X69730000Y-78020000D02*
X71730000Y-78020000D01*
X59730000Y-82020000D02*
X62730000Y-82020000D01*
X62730000Y-81020000D02*
X59730000Y-81020000D01*
X59730000Y-80020000D02*
X62730000Y-80020000D01*
X62730000Y-79020000D02*
X59730000Y-79020000D01*
X59730000Y-78020000D02*
X62730000Y-78020000D01*
X62730000Y-77020000D02*
X59730000Y-77020000D01*
X59730000Y-76020000D02*
X62730000Y-76020000D01*
X62730000Y-75020000D02*
X59730000Y-75020000D01*
X59730000Y-74020000D02*
X62730000Y-74020000D01*
X62730000Y-73020000D02*
X59730000Y-73020000D01*
X59730000Y-72020000D02*
X62730000Y-72020000D01*
X62730000Y-71020000D02*
X59730000Y-71020000D01*
X59730000Y-70020000D02*
X62730000Y-70020000D01*
X62730000Y-69020000D02*
X59730000Y-69020000D01*
X59730000Y-68020000D02*
X62730000Y-68020000D01*
X62730000Y-67020000D02*
X59730000Y-67020000D01*
X59730000Y-66020000D02*
X62730000Y-66020000D01*
X62730000Y-65020000D02*
X59730000Y-65020000D01*
X59730000Y-64020000D02*
X62730000Y-64020000D01*
X61730000Y-63020000D02*
X62730000Y-63020000D01*
X62730000Y-63020000D02*
X62730000Y-83020000D01*
X62730000Y-83020000D02*
X61730000Y-83020000D01*
X60730000Y-63020000D02*
X61730000Y-63020000D01*
X61730000Y-63020000D02*
X61730000Y-83020000D01*
X61730000Y-83020000D02*
X60730000Y-83020000D01*
X59730000Y-63020000D02*
X60730000Y-63020000D01*
X60730000Y-63020000D02*
X60730000Y-83020000D01*
X60730000Y-83020000D02*
X59730000Y-83020000D01*
X57730000Y-63020000D02*
X59730000Y-63020000D01*
X59730000Y-63020000D02*
X59730000Y-83020000D01*
X59730000Y-83020000D02*
X57730000Y-83020000D01*
X51230000Y-89020000D02*
X78230000Y-89020000D01*
X78230000Y-89020000D02*
X78230000Y-57020000D01*
X78230000Y-57020000D02*
X51230000Y-57020000D01*
X51230000Y-57020000D02*
X51230000Y-89020000D01*
D13*
%TO.C,U1*%
X97665000Y-97040000D02*
X97665000Y-111815000D01*
X87765000Y-97040000D02*
X87765000Y-111815000D01*
X87765000Y-97040000D02*
X97665000Y-97040000D01*
X87765000Y-111815000D02*
X97665000Y-111815000D01*
D12*
X94665000Y-99815000D02*
G75*
G03*
X94665000Y-99815000I-1850000J0D01*
G01*
%TO.C,U2*%
X123945000Y-106880000D02*
X124945000Y-105880000D01*
X123945000Y-116040000D02*
X123945000Y-106880000D01*
X130295000Y-116040000D02*
X123945000Y-116040000D01*
X130295000Y-105880000D02*
X130295000Y-116040000D01*
X124945000Y-105880000D02*
X130295000Y-105880000D01*
%TO.C,U3*%
X137280000Y-56350000D02*
X137280000Y-99530000D01*
X120770000Y-56350000D02*
X137280000Y-56350000D01*
X119500000Y-57620000D02*
X120770000Y-56350000D01*
X119500000Y-99530000D02*
X119500000Y-57620000D01*
X137280000Y-99530000D02*
X119500000Y-99530000D01*
X124580000Y-102070000D02*
X124580000Y-91910000D01*
X132200000Y-102070000D02*
X124580000Y-102070000D01*
X132200000Y-91910000D02*
X132200000Y-102070000D01*
X124580000Y-91910000D02*
X132200000Y-91910000D01*
D13*
%TO.C,U4*%
X152110000Y-79990000D02*
X140210000Y-79990000D01*
X152210000Y-61090000D02*
X152210000Y-79990000D01*
X152110000Y-61090000D02*
X140210000Y-61090000D01*
X140210000Y-61190000D02*
X140210000Y-79990000D01*
D12*
%TO.C,J1*%
X59812000Y-97285000D02*
X61905000Y-99377000D01*
X59995000Y-97102000D02*
X62088000Y-99194000D01*
X59812000Y-102365000D02*
X61905000Y-104457000D01*
X59995000Y-102182000D02*
X62088000Y-104274000D01*
X59812000Y-107445000D02*
X61905000Y-109538000D01*
X59995000Y-107262000D02*
X62088000Y-109355000D01*
X58650000Y-110940000D02*
X58650000Y-95700000D01*
X63550000Y-110940000D02*
X63550000Y-95700000D01*
X65050000Y-110940000D02*
X65050000Y-95700000D01*
X65050000Y-110940000D02*
X55750000Y-110940000D01*
X65550000Y-110440000D02*
X65050000Y-110940000D01*
X65550000Y-95700000D02*
X65550000Y-110440000D01*
X55750000Y-95700000D02*
X65550000Y-95700000D01*
X55750000Y-110940000D02*
X55750000Y-95700000D01*
X62450000Y-98240000D02*
G75*
G03*
X62450000Y-98240000I-1500000J0D01*
G01*
X62450000Y-103320000D02*
G75*
G03*
X62450000Y-103320000I-1500000J0D01*
G01*
X62450000Y-108400000D02*
G75*
G03*
X62450000Y-108400000I-1500000J0D01*
G01*
D13*
%TO.C,D1*%
X82050000Y-62100000D02*
X90850000Y-62100000D01*
X82050000Y-62100000D02*
G75*
G02*
X90850000Y-62100000I4400000J4000000D01*
G01*
%TD*%
%TO.C,REF4*%
D14*
X142548809Y-121077380D02*
X142548809Y-120077380D01*
X142882142Y-120791666D01*
X143215476Y-120077380D01*
X143215476Y-121077380D01*
X143834523Y-121077380D02*
X143739285Y-121029761D01*
X143691666Y-120982142D01*
X143644047Y-120886904D01*
X143644047Y-120601190D01*
X143691666Y-120505952D01*
X143739285Y-120458333D01*
X143834523Y-120410714D01*
X143977380Y-120410714D01*
X144072619Y-120458333D01*
X144120238Y-120505952D01*
X144167857Y-120601190D01*
X144167857Y-120886904D01*
X144120238Y-120982142D01*
X144072619Y-121029761D01*
X143977380Y-121077380D01*
X143834523Y-121077380D01*
X145025000Y-120410714D02*
X145025000Y-121077380D01*
X144596428Y-120410714D02*
X144596428Y-120934523D01*
X144644047Y-121029761D01*
X144739285Y-121077380D01*
X144882142Y-121077380D01*
X144977380Y-121029761D01*
X145025000Y-120982142D01*
X145501190Y-120410714D02*
X145501190Y-121077380D01*
X145501190Y-120505952D02*
X145548809Y-120458333D01*
X145644047Y-120410714D01*
X145786904Y-120410714D01*
X145882142Y-120458333D01*
X145929761Y-120553571D01*
X145929761Y-121077380D01*
X146263095Y-120410714D02*
X146644047Y-120410714D01*
X146405952Y-120077380D02*
X146405952Y-120934523D01*
X146453571Y-121029761D01*
X146548809Y-121077380D01*
X146644047Y-121077380D01*
X146977380Y-121077380D02*
X146977380Y-120410714D01*
X146977380Y-120077380D02*
X146929761Y-120125000D01*
X146977380Y-120172619D01*
X147025000Y-120125000D01*
X146977380Y-120077380D01*
X146977380Y-120172619D01*
X147453571Y-120410714D02*
X147453571Y-121077380D01*
X147453571Y-120505952D02*
X147501190Y-120458333D01*
X147596428Y-120410714D01*
X147739285Y-120410714D01*
X147834523Y-120458333D01*
X147882142Y-120553571D01*
X147882142Y-121077380D01*
X148786904Y-120410714D02*
X148786904Y-121220238D01*
X148739285Y-121315476D01*
X148691666Y-121363095D01*
X148596428Y-121410714D01*
X148453571Y-121410714D01*
X148358333Y-121363095D01*
X148786904Y-121029761D02*
X148691666Y-121077380D01*
X148501190Y-121077380D01*
X148405952Y-121029761D01*
X148358333Y-120982142D01*
X148310714Y-120886904D01*
X148310714Y-120601190D01*
X148358333Y-120505952D01*
X148405952Y-120458333D01*
X148501190Y-120410714D01*
X148691666Y-120410714D01*
X148786904Y-120458333D01*
X149263095Y-121077380D02*
X149263095Y-120077380D01*
X149263095Y-120553571D02*
X149834523Y-120553571D01*
X149834523Y-121077380D02*
X149834523Y-120077380D01*
X150453571Y-121077380D02*
X150358333Y-121029761D01*
X150310714Y-120982142D01*
X150263095Y-120886904D01*
X150263095Y-120601190D01*
X150310714Y-120505952D01*
X150358333Y-120458333D01*
X150453571Y-120410714D01*
X150596428Y-120410714D01*
X150691666Y-120458333D01*
X150739285Y-120505952D01*
X150786904Y-120601190D01*
X150786904Y-120886904D01*
X150739285Y-120982142D01*
X150691666Y-121029761D01*
X150596428Y-121077380D01*
X150453571Y-121077380D01*
X151358333Y-121077380D02*
X151263095Y-121029761D01*
X151215476Y-120934523D01*
X151215476Y-120077380D01*
X152120238Y-121029761D02*
X152025000Y-121077380D01*
X151834523Y-121077380D01*
X151739285Y-121029761D01*
X151691666Y-120934523D01*
X151691666Y-120553571D01*
X151739285Y-120458333D01*
X151834523Y-120410714D01*
X152025000Y-120410714D01*
X152120238Y-120458333D01*
X152167857Y-120553571D01*
X152167857Y-120648809D01*
X151691666Y-120744047D01*
X152358333Y-121172619D02*
X153120238Y-121172619D01*
X153310714Y-120172619D02*
X153358333Y-120125000D01*
X153453571Y-120077380D01*
X153691666Y-120077380D01*
X153786904Y-120125000D01*
X153834523Y-120172619D01*
X153882142Y-120267857D01*
X153882142Y-120363095D01*
X153834523Y-120505952D01*
X153263095Y-121077380D01*
X153882142Y-121077380D01*
X154310714Y-120982142D02*
X154358333Y-121029761D01*
X154310714Y-121077380D01*
X154263095Y-121029761D01*
X154310714Y-120982142D01*
X154310714Y-121077380D01*
X155263095Y-120077380D02*
X154786904Y-120077380D01*
X154739285Y-120553571D01*
X154786904Y-120505952D01*
X154882142Y-120458333D01*
X155120238Y-120458333D01*
X155215476Y-120505952D01*
X155263095Y-120553571D01*
X155310714Y-120648809D01*
X155310714Y-120886904D01*
X155263095Y-120982142D01*
X155215476Y-121029761D01*
X155120238Y-121077380D01*
X154882142Y-121077380D01*
X154786904Y-121029761D01*
X154739285Y-120982142D01*
X155739285Y-121077380D02*
X155739285Y-120410714D01*
X155739285Y-120505952D02*
X155786904Y-120458333D01*
X155882142Y-120410714D01*
X156025000Y-120410714D01*
X156120238Y-120458333D01*
X156167857Y-120553571D01*
X156167857Y-121077380D01*
X156167857Y-120553571D02*
X156215476Y-120458333D01*
X156310714Y-120410714D01*
X156453571Y-120410714D01*
X156548809Y-120458333D01*
X156596428Y-120553571D01*
X156596428Y-121077380D01*
X157072619Y-121077380D02*
X157072619Y-120410714D01*
X157072619Y-120505952D02*
X157120238Y-120458333D01*
X157215476Y-120410714D01*
X157358333Y-120410714D01*
X157453571Y-120458333D01*
X157501190Y-120553571D01*
X157501190Y-121077380D01*
X157501190Y-120553571D02*
X157548809Y-120458333D01*
X157644047Y-120410714D01*
X157786904Y-120410714D01*
X157882142Y-120458333D01*
X157929761Y-120553571D01*
X157929761Y-121077380D01*
X158167857Y-121172619D02*
X158929761Y-121172619D01*
X159167857Y-121077380D02*
X159167857Y-120077380D01*
X159548809Y-120077380D01*
X159644047Y-120125000D01*
X159691666Y-120172619D01*
X159739285Y-120267857D01*
X159739285Y-120410714D01*
X159691666Y-120505952D01*
X159644047Y-120553571D01*
X159548809Y-120601190D01*
X159167857Y-120601190D01*
X160596428Y-121077380D02*
X160596428Y-120553571D01*
X160548809Y-120458333D01*
X160453571Y-120410714D01*
X160263095Y-120410714D01*
X160167857Y-120458333D01*
X160596428Y-121029761D02*
X160501190Y-121077380D01*
X160263095Y-121077380D01*
X160167857Y-121029761D01*
X160120238Y-120934523D01*
X160120238Y-120839285D01*
X160167857Y-120744047D01*
X160263095Y-120696428D01*
X160501190Y-120696428D01*
X160596428Y-120648809D01*
X161501190Y-121077380D02*
X161501190Y-120077380D01*
X161501190Y-121029761D02*
X161405952Y-121077380D01*
X161215476Y-121077380D01*
X161120238Y-121029761D01*
X161072619Y-120982142D01*
X161025000Y-120886904D01*
X161025000Y-120601190D01*
X161072619Y-120505952D01*
X161120238Y-120458333D01*
X161215476Y-120410714D01*
X161405952Y-120410714D01*
X161501190Y-120458333D01*
X151277380Y-117577380D02*
X150944047Y-117101190D01*
X150705952Y-117577380D02*
X150705952Y-116577380D01*
X151086904Y-116577380D01*
X151182142Y-116625000D01*
X151229761Y-116672619D01*
X151277380Y-116767857D01*
X151277380Y-116910714D01*
X151229761Y-117005952D01*
X151182142Y-117053571D01*
X151086904Y-117101190D01*
X150705952Y-117101190D01*
X151705952Y-117053571D02*
X152039285Y-117053571D01*
X152182142Y-117577380D02*
X151705952Y-117577380D01*
X151705952Y-116577380D01*
X152182142Y-116577380D01*
X152944047Y-117053571D02*
X152610714Y-117053571D01*
X152610714Y-117577380D02*
X152610714Y-116577380D01*
X153086904Y-116577380D01*
X153896428Y-116910714D02*
X153896428Y-117577380D01*
X153658333Y-116529761D02*
X153420238Y-117244047D01*
X154039285Y-117244047D01*
%TO.C,REF2*%
X142548809Y-56917380D02*
X142548809Y-55917380D01*
X142882142Y-56631666D01*
X143215476Y-55917380D01*
X143215476Y-56917380D01*
X143834523Y-56917380D02*
X143739285Y-56869761D01*
X143691666Y-56822142D01*
X143644047Y-56726904D01*
X143644047Y-56441190D01*
X143691666Y-56345952D01*
X143739285Y-56298333D01*
X143834523Y-56250714D01*
X143977380Y-56250714D01*
X144072619Y-56298333D01*
X144120238Y-56345952D01*
X144167857Y-56441190D01*
X144167857Y-56726904D01*
X144120238Y-56822142D01*
X144072619Y-56869761D01*
X143977380Y-56917380D01*
X143834523Y-56917380D01*
X145025000Y-56250714D02*
X145025000Y-56917380D01*
X144596428Y-56250714D02*
X144596428Y-56774523D01*
X144644047Y-56869761D01*
X144739285Y-56917380D01*
X144882142Y-56917380D01*
X144977380Y-56869761D01*
X145025000Y-56822142D01*
X145501190Y-56250714D02*
X145501190Y-56917380D01*
X145501190Y-56345952D02*
X145548809Y-56298333D01*
X145644047Y-56250714D01*
X145786904Y-56250714D01*
X145882142Y-56298333D01*
X145929761Y-56393571D01*
X145929761Y-56917380D01*
X146263095Y-56250714D02*
X146644047Y-56250714D01*
X146405952Y-55917380D02*
X146405952Y-56774523D01*
X146453571Y-56869761D01*
X146548809Y-56917380D01*
X146644047Y-56917380D01*
X146977380Y-56917380D02*
X146977380Y-56250714D01*
X146977380Y-55917380D02*
X146929761Y-55965000D01*
X146977380Y-56012619D01*
X147025000Y-55965000D01*
X146977380Y-55917380D01*
X146977380Y-56012619D01*
X147453571Y-56250714D02*
X147453571Y-56917380D01*
X147453571Y-56345952D02*
X147501190Y-56298333D01*
X147596428Y-56250714D01*
X147739285Y-56250714D01*
X147834523Y-56298333D01*
X147882142Y-56393571D01*
X147882142Y-56917380D01*
X148786904Y-56250714D02*
X148786904Y-57060238D01*
X148739285Y-57155476D01*
X148691666Y-57203095D01*
X148596428Y-57250714D01*
X148453571Y-57250714D01*
X148358333Y-57203095D01*
X148786904Y-56869761D02*
X148691666Y-56917380D01*
X148501190Y-56917380D01*
X148405952Y-56869761D01*
X148358333Y-56822142D01*
X148310714Y-56726904D01*
X148310714Y-56441190D01*
X148358333Y-56345952D01*
X148405952Y-56298333D01*
X148501190Y-56250714D01*
X148691666Y-56250714D01*
X148786904Y-56298333D01*
X149263095Y-56917380D02*
X149263095Y-55917380D01*
X149263095Y-56393571D02*
X149834523Y-56393571D01*
X149834523Y-56917380D02*
X149834523Y-55917380D01*
X150453571Y-56917380D02*
X150358333Y-56869761D01*
X150310714Y-56822142D01*
X150263095Y-56726904D01*
X150263095Y-56441190D01*
X150310714Y-56345952D01*
X150358333Y-56298333D01*
X150453571Y-56250714D01*
X150596428Y-56250714D01*
X150691666Y-56298333D01*
X150739285Y-56345952D01*
X150786904Y-56441190D01*
X150786904Y-56726904D01*
X150739285Y-56822142D01*
X150691666Y-56869761D01*
X150596428Y-56917380D01*
X150453571Y-56917380D01*
X151358333Y-56917380D02*
X151263095Y-56869761D01*
X151215476Y-56774523D01*
X151215476Y-55917380D01*
X152120238Y-56869761D02*
X152025000Y-56917380D01*
X151834523Y-56917380D01*
X151739285Y-56869761D01*
X151691666Y-56774523D01*
X151691666Y-56393571D01*
X151739285Y-56298333D01*
X151834523Y-56250714D01*
X152025000Y-56250714D01*
X152120238Y-56298333D01*
X152167857Y-56393571D01*
X152167857Y-56488809D01*
X151691666Y-56584047D01*
X152358333Y-57012619D02*
X153120238Y-57012619D01*
X153310714Y-56012619D02*
X153358333Y-55965000D01*
X153453571Y-55917380D01*
X153691666Y-55917380D01*
X153786904Y-55965000D01*
X153834523Y-56012619D01*
X153882142Y-56107857D01*
X153882142Y-56203095D01*
X153834523Y-56345952D01*
X153263095Y-56917380D01*
X153882142Y-56917380D01*
X154310714Y-56822142D02*
X154358333Y-56869761D01*
X154310714Y-56917380D01*
X154263095Y-56869761D01*
X154310714Y-56822142D01*
X154310714Y-56917380D01*
X155263095Y-55917380D02*
X154786904Y-55917380D01*
X154739285Y-56393571D01*
X154786904Y-56345952D01*
X154882142Y-56298333D01*
X155120238Y-56298333D01*
X155215476Y-56345952D01*
X155263095Y-56393571D01*
X155310714Y-56488809D01*
X155310714Y-56726904D01*
X155263095Y-56822142D01*
X155215476Y-56869761D01*
X155120238Y-56917380D01*
X154882142Y-56917380D01*
X154786904Y-56869761D01*
X154739285Y-56822142D01*
X155739285Y-56917380D02*
X155739285Y-56250714D01*
X155739285Y-56345952D02*
X155786904Y-56298333D01*
X155882142Y-56250714D01*
X156025000Y-56250714D01*
X156120238Y-56298333D01*
X156167857Y-56393571D01*
X156167857Y-56917380D01*
X156167857Y-56393571D02*
X156215476Y-56298333D01*
X156310714Y-56250714D01*
X156453571Y-56250714D01*
X156548809Y-56298333D01*
X156596428Y-56393571D01*
X156596428Y-56917380D01*
X157072619Y-56917380D02*
X157072619Y-56250714D01*
X157072619Y-56345952D02*
X157120238Y-56298333D01*
X157215476Y-56250714D01*
X157358333Y-56250714D01*
X157453571Y-56298333D01*
X157501190Y-56393571D01*
X157501190Y-56917380D01*
X157501190Y-56393571D02*
X157548809Y-56298333D01*
X157644047Y-56250714D01*
X157786904Y-56250714D01*
X157882142Y-56298333D01*
X157929761Y-56393571D01*
X157929761Y-56917380D01*
X158167857Y-57012619D02*
X158929761Y-57012619D01*
X159167857Y-56917380D02*
X159167857Y-55917380D01*
X159548809Y-55917380D01*
X159644047Y-55965000D01*
X159691666Y-56012619D01*
X159739285Y-56107857D01*
X159739285Y-56250714D01*
X159691666Y-56345952D01*
X159644047Y-56393571D01*
X159548809Y-56441190D01*
X159167857Y-56441190D01*
X160596428Y-56917380D02*
X160596428Y-56393571D01*
X160548809Y-56298333D01*
X160453571Y-56250714D01*
X160263095Y-56250714D01*
X160167857Y-56298333D01*
X160596428Y-56869761D02*
X160501190Y-56917380D01*
X160263095Y-56917380D01*
X160167857Y-56869761D01*
X160120238Y-56774523D01*
X160120238Y-56679285D01*
X160167857Y-56584047D01*
X160263095Y-56536428D01*
X160501190Y-56536428D01*
X160596428Y-56488809D01*
X161501190Y-56917380D02*
X161501190Y-55917380D01*
X161501190Y-56869761D02*
X161405952Y-56917380D01*
X161215476Y-56917380D01*
X161120238Y-56869761D01*
X161072619Y-56822142D01*
X161025000Y-56726904D01*
X161025000Y-56441190D01*
X161072619Y-56345952D01*
X161120238Y-56298333D01*
X161215476Y-56250714D01*
X161405952Y-56250714D01*
X161501190Y-56298333D01*
X151277380Y-53417380D02*
X150944047Y-52941190D01*
X150705952Y-53417380D02*
X150705952Y-52417380D01*
X151086904Y-52417380D01*
X151182142Y-52465000D01*
X151229761Y-52512619D01*
X151277380Y-52607857D01*
X151277380Y-52750714D01*
X151229761Y-52845952D01*
X151182142Y-52893571D01*
X151086904Y-52941190D01*
X150705952Y-52941190D01*
X151705952Y-52893571D02*
X152039285Y-52893571D01*
X152182142Y-53417380D02*
X151705952Y-53417380D01*
X151705952Y-52417380D01*
X152182142Y-52417380D01*
X152944047Y-52893571D02*
X152610714Y-52893571D01*
X152610714Y-53417380D02*
X152610714Y-52417380D01*
X153086904Y-52417380D01*
X153420238Y-52512619D02*
X153467857Y-52465000D01*
X153563095Y-52417380D01*
X153801190Y-52417380D01*
X153896428Y-52465000D01*
X153944047Y-52512619D01*
X153991666Y-52607857D01*
X153991666Y-52703095D01*
X153944047Y-52845952D01*
X153372619Y-53417380D01*
X153991666Y-53417380D01*
%TO.C,REF3*%
X42473809Y-120927380D02*
X42473809Y-119927380D01*
X42807142Y-120641666D01*
X43140476Y-119927380D01*
X43140476Y-120927380D01*
X43759523Y-120927380D02*
X43664285Y-120879761D01*
X43616666Y-120832142D01*
X43569047Y-120736904D01*
X43569047Y-120451190D01*
X43616666Y-120355952D01*
X43664285Y-120308333D01*
X43759523Y-120260714D01*
X43902380Y-120260714D01*
X43997619Y-120308333D01*
X44045238Y-120355952D01*
X44092857Y-120451190D01*
X44092857Y-120736904D01*
X44045238Y-120832142D01*
X43997619Y-120879761D01*
X43902380Y-120927380D01*
X43759523Y-120927380D01*
X44950000Y-120260714D02*
X44950000Y-120927380D01*
X44521428Y-120260714D02*
X44521428Y-120784523D01*
X44569047Y-120879761D01*
X44664285Y-120927380D01*
X44807142Y-120927380D01*
X44902380Y-120879761D01*
X44950000Y-120832142D01*
X45426190Y-120260714D02*
X45426190Y-120927380D01*
X45426190Y-120355952D02*
X45473809Y-120308333D01*
X45569047Y-120260714D01*
X45711904Y-120260714D01*
X45807142Y-120308333D01*
X45854761Y-120403571D01*
X45854761Y-120927380D01*
X46188095Y-120260714D02*
X46569047Y-120260714D01*
X46330952Y-119927380D02*
X46330952Y-120784523D01*
X46378571Y-120879761D01*
X46473809Y-120927380D01*
X46569047Y-120927380D01*
X46902380Y-120927380D02*
X46902380Y-120260714D01*
X46902380Y-119927380D02*
X46854761Y-119975000D01*
X46902380Y-120022619D01*
X46950000Y-119975000D01*
X46902380Y-119927380D01*
X46902380Y-120022619D01*
X47378571Y-120260714D02*
X47378571Y-120927380D01*
X47378571Y-120355952D02*
X47426190Y-120308333D01*
X47521428Y-120260714D01*
X47664285Y-120260714D01*
X47759523Y-120308333D01*
X47807142Y-120403571D01*
X47807142Y-120927380D01*
X48711904Y-120260714D02*
X48711904Y-121070238D01*
X48664285Y-121165476D01*
X48616666Y-121213095D01*
X48521428Y-121260714D01*
X48378571Y-121260714D01*
X48283333Y-121213095D01*
X48711904Y-120879761D02*
X48616666Y-120927380D01*
X48426190Y-120927380D01*
X48330952Y-120879761D01*
X48283333Y-120832142D01*
X48235714Y-120736904D01*
X48235714Y-120451190D01*
X48283333Y-120355952D01*
X48330952Y-120308333D01*
X48426190Y-120260714D01*
X48616666Y-120260714D01*
X48711904Y-120308333D01*
X49188095Y-120927380D02*
X49188095Y-119927380D01*
X49188095Y-120403571D02*
X49759523Y-120403571D01*
X49759523Y-120927380D02*
X49759523Y-119927380D01*
X50378571Y-120927380D02*
X50283333Y-120879761D01*
X50235714Y-120832142D01*
X50188095Y-120736904D01*
X50188095Y-120451190D01*
X50235714Y-120355952D01*
X50283333Y-120308333D01*
X50378571Y-120260714D01*
X50521428Y-120260714D01*
X50616666Y-120308333D01*
X50664285Y-120355952D01*
X50711904Y-120451190D01*
X50711904Y-120736904D01*
X50664285Y-120832142D01*
X50616666Y-120879761D01*
X50521428Y-120927380D01*
X50378571Y-120927380D01*
X51283333Y-120927380D02*
X51188095Y-120879761D01*
X51140476Y-120784523D01*
X51140476Y-119927380D01*
X52045238Y-120879761D02*
X51950000Y-120927380D01*
X51759523Y-120927380D01*
X51664285Y-120879761D01*
X51616666Y-120784523D01*
X51616666Y-120403571D01*
X51664285Y-120308333D01*
X51759523Y-120260714D01*
X51950000Y-120260714D01*
X52045238Y-120308333D01*
X52092857Y-120403571D01*
X52092857Y-120498809D01*
X51616666Y-120594047D01*
X52283333Y-121022619D02*
X53045238Y-121022619D01*
X53235714Y-120022619D02*
X53283333Y-119975000D01*
X53378571Y-119927380D01*
X53616666Y-119927380D01*
X53711904Y-119975000D01*
X53759523Y-120022619D01*
X53807142Y-120117857D01*
X53807142Y-120213095D01*
X53759523Y-120355952D01*
X53188095Y-120927380D01*
X53807142Y-120927380D01*
X54235714Y-120832142D02*
X54283333Y-120879761D01*
X54235714Y-120927380D01*
X54188095Y-120879761D01*
X54235714Y-120832142D01*
X54235714Y-120927380D01*
X55188095Y-119927380D02*
X54711904Y-119927380D01*
X54664285Y-120403571D01*
X54711904Y-120355952D01*
X54807142Y-120308333D01*
X55045238Y-120308333D01*
X55140476Y-120355952D01*
X55188095Y-120403571D01*
X55235714Y-120498809D01*
X55235714Y-120736904D01*
X55188095Y-120832142D01*
X55140476Y-120879761D01*
X55045238Y-120927380D01*
X54807142Y-120927380D01*
X54711904Y-120879761D01*
X54664285Y-120832142D01*
X55664285Y-120927380D02*
X55664285Y-120260714D01*
X55664285Y-120355952D02*
X55711904Y-120308333D01*
X55807142Y-120260714D01*
X55949999Y-120260714D01*
X56045238Y-120308333D01*
X56092857Y-120403571D01*
X56092857Y-120927380D01*
X56092857Y-120403571D02*
X56140476Y-120308333D01*
X56235714Y-120260714D01*
X56378571Y-120260714D01*
X56473809Y-120308333D01*
X56521428Y-120403571D01*
X56521428Y-120927380D01*
X56997619Y-120927380D02*
X56997619Y-120260714D01*
X56997619Y-120355952D02*
X57045238Y-120308333D01*
X57140476Y-120260714D01*
X57283333Y-120260714D01*
X57378571Y-120308333D01*
X57426190Y-120403571D01*
X57426190Y-120927380D01*
X57426190Y-120403571D02*
X57473809Y-120308333D01*
X57569047Y-120260714D01*
X57711904Y-120260714D01*
X57807142Y-120308333D01*
X57854761Y-120403571D01*
X57854761Y-120927380D01*
X58092857Y-121022619D02*
X58854761Y-121022619D01*
X59092857Y-120927380D02*
X59092857Y-119927380D01*
X59473809Y-119927380D01*
X59569047Y-119975000D01*
X59616666Y-120022619D01*
X59664285Y-120117857D01*
X59664285Y-120260714D01*
X59616666Y-120355952D01*
X59569047Y-120403571D01*
X59473809Y-120451190D01*
X59092857Y-120451190D01*
X60521428Y-120927380D02*
X60521428Y-120403571D01*
X60473809Y-120308333D01*
X60378571Y-120260714D01*
X60188095Y-120260714D01*
X60092857Y-120308333D01*
X60521428Y-120879761D02*
X60426190Y-120927380D01*
X60188095Y-120927380D01*
X60092857Y-120879761D01*
X60045238Y-120784523D01*
X60045238Y-120689285D01*
X60092857Y-120594047D01*
X60188095Y-120546428D01*
X60426190Y-120546428D01*
X60521428Y-120498809D01*
X61426190Y-120927380D02*
X61426190Y-119927380D01*
X61426190Y-120879761D02*
X61330952Y-120927380D01*
X61140476Y-120927380D01*
X61045238Y-120879761D01*
X60997619Y-120832142D01*
X60949999Y-120736904D01*
X60949999Y-120451190D01*
X60997619Y-120355952D01*
X61045238Y-120308333D01*
X61140476Y-120260714D01*
X61330952Y-120260714D01*
X61426190Y-120308333D01*
X51202380Y-117427380D02*
X50869047Y-116951190D01*
X50630952Y-117427380D02*
X50630952Y-116427380D01*
X51011904Y-116427380D01*
X51107142Y-116475000D01*
X51154761Y-116522619D01*
X51202380Y-116617857D01*
X51202380Y-116760714D01*
X51154761Y-116855952D01*
X51107142Y-116903571D01*
X51011904Y-116951190D01*
X50630952Y-116951190D01*
X51630952Y-116903571D02*
X51964285Y-116903571D01*
X52107142Y-117427380D02*
X51630952Y-117427380D01*
X51630952Y-116427380D01*
X52107142Y-116427380D01*
X52869047Y-116903571D02*
X52535714Y-116903571D01*
X52535714Y-117427380D02*
X52535714Y-116427380D01*
X53011904Y-116427380D01*
X53297619Y-116427380D02*
X53916666Y-116427380D01*
X53583333Y-116808333D01*
X53726190Y-116808333D01*
X53821428Y-116855952D01*
X53869047Y-116903571D01*
X53916666Y-116998809D01*
X53916666Y-117236904D01*
X53869047Y-117332142D01*
X53821428Y-117379761D01*
X53726190Y-117427380D01*
X53440476Y-117427380D01*
X53345238Y-117379761D01*
X53297619Y-117332142D01*
%TO.C,REF1*%
X42503809Y-56902380D02*
X42503809Y-55902380D01*
X42837142Y-56616666D01*
X43170476Y-55902380D01*
X43170476Y-56902380D01*
X43789523Y-56902380D02*
X43694285Y-56854761D01*
X43646666Y-56807142D01*
X43599047Y-56711904D01*
X43599047Y-56426190D01*
X43646666Y-56330952D01*
X43694285Y-56283333D01*
X43789523Y-56235714D01*
X43932380Y-56235714D01*
X44027619Y-56283333D01*
X44075238Y-56330952D01*
X44122857Y-56426190D01*
X44122857Y-56711904D01*
X44075238Y-56807142D01*
X44027619Y-56854761D01*
X43932380Y-56902380D01*
X43789523Y-56902380D01*
X44980000Y-56235714D02*
X44980000Y-56902380D01*
X44551428Y-56235714D02*
X44551428Y-56759523D01*
X44599047Y-56854761D01*
X44694285Y-56902380D01*
X44837142Y-56902380D01*
X44932380Y-56854761D01*
X44980000Y-56807142D01*
X45456190Y-56235714D02*
X45456190Y-56902380D01*
X45456190Y-56330952D02*
X45503809Y-56283333D01*
X45599047Y-56235714D01*
X45741904Y-56235714D01*
X45837142Y-56283333D01*
X45884761Y-56378571D01*
X45884761Y-56902380D01*
X46218095Y-56235714D02*
X46599047Y-56235714D01*
X46360952Y-55902380D02*
X46360952Y-56759523D01*
X46408571Y-56854761D01*
X46503809Y-56902380D01*
X46599047Y-56902380D01*
X46932380Y-56902380D02*
X46932380Y-56235714D01*
X46932380Y-55902380D02*
X46884761Y-55950000D01*
X46932380Y-55997619D01*
X46980000Y-55950000D01*
X46932380Y-55902380D01*
X46932380Y-55997619D01*
X47408571Y-56235714D02*
X47408571Y-56902380D01*
X47408571Y-56330952D02*
X47456190Y-56283333D01*
X47551428Y-56235714D01*
X47694285Y-56235714D01*
X47789523Y-56283333D01*
X47837142Y-56378571D01*
X47837142Y-56902380D01*
X48741904Y-56235714D02*
X48741904Y-57045238D01*
X48694285Y-57140476D01*
X48646666Y-57188095D01*
X48551428Y-57235714D01*
X48408571Y-57235714D01*
X48313333Y-57188095D01*
X48741904Y-56854761D02*
X48646666Y-56902380D01*
X48456190Y-56902380D01*
X48360952Y-56854761D01*
X48313333Y-56807142D01*
X48265714Y-56711904D01*
X48265714Y-56426190D01*
X48313333Y-56330952D01*
X48360952Y-56283333D01*
X48456190Y-56235714D01*
X48646666Y-56235714D01*
X48741904Y-56283333D01*
X49218095Y-56902380D02*
X49218095Y-55902380D01*
X49218095Y-56378571D02*
X49789523Y-56378571D01*
X49789523Y-56902380D02*
X49789523Y-55902380D01*
X50408571Y-56902380D02*
X50313333Y-56854761D01*
X50265714Y-56807142D01*
X50218095Y-56711904D01*
X50218095Y-56426190D01*
X50265714Y-56330952D01*
X50313333Y-56283333D01*
X50408571Y-56235714D01*
X50551428Y-56235714D01*
X50646666Y-56283333D01*
X50694285Y-56330952D01*
X50741904Y-56426190D01*
X50741904Y-56711904D01*
X50694285Y-56807142D01*
X50646666Y-56854761D01*
X50551428Y-56902380D01*
X50408571Y-56902380D01*
X51313333Y-56902380D02*
X51218095Y-56854761D01*
X51170476Y-56759523D01*
X51170476Y-55902380D01*
X52075238Y-56854761D02*
X51980000Y-56902380D01*
X51789523Y-56902380D01*
X51694285Y-56854761D01*
X51646666Y-56759523D01*
X51646666Y-56378571D01*
X51694285Y-56283333D01*
X51789523Y-56235714D01*
X51980000Y-56235714D01*
X52075238Y-56283333D01*
X52122857Y-56378571D01*
X52122857Y-56473809D01*
X51646666Y-56569047D01*
X52313333Y-56997619D02*
X53075238Y-56997619D01*
X53265714Y-55997619D02*
X53313333Y-55950000D01*
X53408571Y-55902380D01*
X53646666Y-55902380D01*
X53741904Y-55950000D01*
X53789523Y-55997619D01*
X53837142Y-56092857D01*
X53837142Y-56188095D01*
X53789523Y-56330952D01*
X53218095Y-56902380D01*
X53837142Y-56902380D01*
X54265714Y-56807142D02*
X54313333Y-56854761D01*
X54265714Y-56902380D01*
X54218095Y-56854761D01*
X54265714Y-56807142D01*
X54265714Y-56902380D01*
X55218095Y-55902380D02*
X54741904Y-55902380D01*
X54694285Y-56378571D01*
X54741904Y-56330952D01*
X54837142Y-56283333D01*
X55075238Y-56283333D01*
X55170476Y-56330952D01*
X55218095Y-56378571D01*
X55265714Y-56473809D01*
X55265714Y-56711904D01*
X55218095Y-56807142D01*
X55170476Y-56854761D01*
X55075238Y-56902380D01*
X54837142Y-56902380D01*
X54741904Y-56854761D01*
X54694285Y-56807142D01*
X55694285Y-56902380D02*
X55694285Y-56235714D01*
X55694285Y-56330952D02*
X55741904Y-56283333D01*
X55837142Y-56235714D01*
X55979999Y-56235714D01*
X56075238Y-56283333D01*
X56122857Y-56378571D01*
X56122857Y-56902380D01*
X56122857Y-56378571D02*
X56170476Y-56283333D01*
X56265714Y-56235714D01*
X56408571Y-56235714D01*
X56503809Y-56283333D01*
X56551428Y-56378571D01*
X56551428Y-56902380D01*
X57027619Y-56902380D02*
X57027619Y-56235714D01*
X57027619Y-56330952D02*
X57075238Y-56283333D01*
X57170476Y-56235714D01*
X57313333Y-56235714D01*
X57408571Y-56283333D01*
X57456190Y-56378571D01*
X57456190Y-56902380D01*
X57456190Y-56378571D02*
X57503809Y-56283333D01*
X57599047Y-56235714D01*
X57741904Y-56235714D01*
X57837142Y-56283333D01*
X57884761Y-56378571D01*
X57884761Y-56902380D01*
X58122857Y-56997619D02*
X58884761Y-56997619D01*
X59122857Y-56902380D02*
X59122857Y-55902380D01*
X59503809Y-55902380D01*
X59599047Y-55950000D01*
X59646666Y-55997619D01*
X59694285Y-56092857D01*
X59694285Y-56235714D01*
X59646666Y-56330952D01*
X59599047Y-56378571D01*
X59503809Y-56426190D01*
X59122857Y-56426190D01*
X60551428Y-56902380D02*
X60551428Y-56378571D01*
X60503809Y-56283333D01*
X60408571Y-56235714D01*
X60218095Y-56235714D01*
X60122857Y-56283333D01*
X60551428Y-56854761D02*
X60456190Y-56902380D01*
X60218095Y-56902380D01*
X60122857Y-56854761D01*
X60075238Y-56759523D01*
X60075238Y-56664285D01*
X60122857Y-56569047D01*
X60218095Y-56521428D01*
X60456190Y-56521428D01*
X60551428Y-56473809D01*
X61456190Y-56902380D02*
X61456190Y-55902380D01*
X61456190Y-56854761D02*
X61360952Y-56902380D01*
X61170476Y-56902380D01*
X61075238Y-56854761D01*
X61027619Y-56807142D01*
X60979999Y-56711904D01*
X60979999Y-56426190D01*
X61027619Y-56330952D01*
X61075238Y-56283333D01*
X61170476Y-56235714D01*
X61360952Y-56235714D01*
X61456190Y-56283333D01*
X51232380Y-53402380D02*
X50899047Y-52926190D01*
X50660952Y-53402380D02*
X50660952Y-52402380D01*
X51041904Y-52402380D01*
X51137142Y-52450000D01*
X51184761Y-52497619D01*
X51232380Y-52592857D01*
X51232380Y-52735714D01*
X51184761Y-52830952D01*
X51137142Y-52878571D01*
X51041904Y-52926190D01*
X50660952Y-52926190D01*
X51660952Y-52878571D02*
X51994285Y-52878571D01*
X52137142Y-53402380D02*
X51660952Y-53402380D01*
X51660952Y-52402380D01*
X52137142Y-52402380D01*
X52899047Y-52878571D02*
X52565714Y-52878571D01*
X52565714Y-53402380D02*
X52565714Y-52402380D01*
X53041904Y-52402380D01*
X53946666Y-53402380D02*
X53375238Y-53402380D01*
X53660952Y-53402380D02*
X53660952Y-52402380D01*
X53565714Y-52545238D01*
X53470476Y-52640476D01*
X53375238Y-52688095D01*
%TO.C,C1*%
X101747619Y-69457619D02*
X101795238Y-69410000D01*
X101890476Y-69362380D01*
X102128571Y-69362380D01*
X102223809Y-69410000D01*
X102271428Y-69457619D01*
X102319047Y-69552857D01*
X102319047Y-69648095D01*
X102271428Y-69790952D01*
X101700000Y-70362380D01*
X102319047Y-70362380D01*
X102700000Y-69457619D02*
X102747619Y-69410000D01*
X102842857Y-69362380D01*
X103080952Y-69362380D01*
X103176190Y-69410000D01*
X103223809Y-69457619D01*
X103271428Y-69552857D01*
X103271428Y-69648095D01*
X103223809Y-69790952D01*
X102652380Y-70362380D01*
X103271428Y-70362380D01*
X103890476Y-69362380D02*
X103985714Y-69362380D01*
X104080952Y-69410000D01*
X104128571Y-69457619D01*
X104176190Y-69552857D01*
X104223809Y-69743333D01*
X104223809Y-69981428D01*
X104176190Y-70171904D01*
X104128571Y-70267142D01*
X104080952Y-70314761D01*
X103985714Y-70362380D01*
X103890476Y-70362380D01*
X103795238Y-70314761D01*
X103747619Y-70267142D01*
X103700000Y-70171904D01*
X103652380Y-69981428D01*
X103652380Y-69743333D01*
X103700000Y-69552857D01*
X103747619Y-69457619D01*
X103795238Y-69410000D01*
X103890476Y-69362380D01*
X104842857Y-69362380D02*
X104938095Y-69362380D01*
X105033333Y-69410000D01*
X105080952Y-69457619D01*
X105128571Y-69552857D01*
X105176190Y-69743333D01*
X105176190Y-69981428D01*
X105128571Y-70171904D01*
X105080952Y-70267142D01*
X105033333Y-70314761D01*
X104938095Y-70362380D01*
X104842857Y-70362380D01*
X104747619Y-70314761D01*
X104700000Y-70267142D01*
X104652380Y-70171904D01*
X104604761Y-69981428D01*
X104604761Y-69743333D01*
X104652380Y-69552857D01*
X104700000Y-69457619D01*
X104747619Y-69410000D01*
X104842857Y-69362380D01*
X106033333Y-69695714D02*
X106033333Y-70362380D01*
X105604761Y-69695714D02*
X105604761Y-70219523D01*
X105652380Y-70314761D01*
X105747619Y-70362380D01*
X105890476Y-70362380D01*
X105985714Y-70314761D01*
X106033333Y-70267142D01*
X106366666Y-69695714D02*
X106747619Y-69695714D01*
X106509523Y-70362380D02*
X106509523Y-69505238D01*
X106557142Y-69410000D01*
X106652380Y-69362380D01*
X106747619Y-69362380D01*
X104033333Y-60517142D02*
X103985714Y-60564761D01*
X103842857Y-60612380D01*
X103747619Y-60612380D01*
X103604761Y-60564761D01*
X103509523Y-60469523D01*
X103461904Y-60374285D01*
X103414285Y-60183809D01*
X103414285Y-60040952D01*
X103461904Y-59850476D01*
X103509523Y-59755238D01*
X103604761Y-59660000D01*
X103747619Y-59612380D01*
X103842857Y-59612380D01*
X103985714Y-59660000D01*
X104033333Y-59707619D01*
X104985714Y-60612380D02*
X104414285Y-60612380D01*
X104700000Y-60612380D02*
X104700000Y-59612380D01*
X104604761Y-59755238D01*
X104509523Y-59850476D01*
X104414285Y-59898095D01*
%TO.C,C2*%
X85846190Y-64402380D02*
X86465238Y-64402380D01*
X86131904Y-64783333D01*
X86274761Y-64783333D01*
X86370000Y-64830952D01*
X86417619Y-64878571D01*
X86465238Y-64973809D01*
X86465238Y-65211904D01*
X86417619Y-65307142D01*
X86370000Y-65354761D01*
X86274761Y-65402380D01*
X85989047Y-65402380D01*
X85893809Y-65354761D01*
X85846190Y-65307142D01*
X86798571Y-64402380D02*
X87417619Y-64402380D01*
X87084285Y-64783333D01*
X87227142Y-64783333D01*
X87322380Y-64830952D01*
X87370000Y-64878571D01*
X87417619Y-64973809D01*
X87417619Y-65211904D01*
X87370000Y-65307142D01*
X87322380Y-65354761D01*
X87227142Y-65402380D01*
X86941428Y-65402380D01*
X86846190Y-65354761D01*
X86798571Y-65307142D01*
X88036666Y-64402380D02*
X88131904Y-64402380D01*
X88227142Y-64450000D01*
X88274761Y-64497619D01*
X88322380Y-64592857D01*
X88370000Y-64783333D01*
X88370000Y-65021428D01*
X88322380Y-65211904D01*
X88274761Y-65307142D01*
X88227142Y-65354761D01*
X88131904Y-65402380D01*
X88036666Y-65402380D01*
X87941428Y-65354761D01*
X87893809Y-65307142D01*
X87846190Y-65211904D01*
X87798571Y-65021428D01*
X87798571Y-64783333D01*
X87846190Y-64592857D01*
X87893809Y-64497619D01*
X87941428Y-64450000D01*
X88036666Y-64402380D01*
X88798571Y-64735714D02*
X88798571Y-65402380D01*
X88798571Y-64830952D02*
X88846190Y-64783333D01*
X88941428Y-64735714D01*
X89084285Y-64735714D01*
X89179523Y-64783333D01*
X89227142Y-64878571D01*
X89227142Y-65402380D01*
X89560476Y-64735714D02*
X89941428Y-64735714D01*
X89703333Y-65402380D02*
X89703333Y-64545238D01*
X89750952Y-64450000D01*
X89846190Y-64402380D01*
X89941428Y-64402380D01*
X87703333Y-70677142D02*
X87655714Y-70724761D01*
X87512857Y-70772380D01*
X87417619Y-70772380D01*
X87274761Y-70724761D01*
X87179523Y-70629523D01*
X87131904Y-70534285D01*
X87084285Y-70343809D01*
X87084285Y-70200952D01*
X87131904Y-70010476D01*
X87179523Y-69915238D01*
X87274761Y-69820000D01*
X87417619Y-69772380D01*
X87512857Y-69772380D01*
X87655714Y-69820000D01*
X87703333Y-69867619D01*
X88084285Y-69867619D02*
X88131904Y-69820000D01*
X88227142Y-69772380D01*
X88465238Y-69772380D01*
X88560476Y-69820000D01*
X88608095Y-69867619D01*
X88655714Y-69962857D01*
X88655714Y-70058095D01*
X88608095Y-70200952D01*
X88036666Y-70772380D01*
X88655714Y-70772380D01*
%TO.C,C3*%
X101565238Y-118992380D02*
X100993809Y-118992380D01*
X101279523Y-118992380D02*
X101279523Y-117992380D01*
X101184285Y-118135238D01*
X101089047Y-118230476D01*
X100993809Y-118278095D01*
X102184285Y-117992380D02*
X102279523Y-117992380D01*
X102374761Y-118040000D01*
X102422380Y-118087619D01*
X102470000Y-118182857D01*
X102517619Y-118373333D01*
X102517619Y-118611428D01*
X102470000Y-118801904D01*
X102422380Y-118897142D01*
X102374761Y-118944761D01*
X102279523Y-118992380D01*
X102184285Y-118992380D01*
X102089047Y-118944761D01*
X102041428Y-118897142D01*
X101993809Y-118801904D01*
X101946190Y-118611428D01*
X101946190Y-118373333D01*
X101993809Y-118182857D01*
X102041428Y-118087619D01*
X102089047Y-118040000D01*
X102184285Y-117992380D01*
X103136666Y-117992380D02*
X103231904Y-117992380D01*
X103327142Y-118040000D01*
X103374761Y-118087619D01*
X103422380Y-118182857D01*
X103470000Y-118373333D01*
X103470000Y-118611428D01*
X103422380Y-118801904D01*
X103374761Y-118897142D01*
X103327142Y-118944761D01*
X103231904Y-118992380D01*
X103136666Y-118992380D01*
X103041428Y-118944761D01*
X102993809Y-118897142D01*
X102946190Y-118801904D01*
X102898571Y-118611428D01*
X102898571Y-118373333D01*
X102946190Y-118182857D01*
X102993809Y-118087619D01*
X103041428Y-118040000D01*
X103136666Y-117992380D01*
X103898571Y-118325714D02*
X103898571Y-118992380D01*
X103898571Y-118420952D02*
X103946190Y-118373333D01*
X104041428Y-118325714D01*
X104184285Y-118325714D01*
X104279523Y-118373333D01*
X104327142Y-118468571D01*
X104327142Y-118992380D01*
X104660476Y-118325714D02*
X105041428Y-118325714D01*
X104803333Y-118992380D02*
X104803333Y-118135238D01*
X104850952Y-118040000D01*
X104946190Y-117992380D01*
X105041428Y-117992380D01*
X102803333Y-116397142D02*
X102755714Y-116444761D01*
X102612857Y-116492380D01*
X102517619Y-116492380D01*
X102374761Y-116444761D01*
X102279523Y-116349523D01*
X102231904Y-116254285D01*
X102184285Y-116063809D01*
X102184285Y-115920952D01*
X102231904Y-115730476D01*
X102279523Y-115635238D01*
X102374761Y-115540000D01*
X102517619Y-115492380D01*
X102612857Y-115492380D01*
X102755714Y-115540000D01*
X102803333Y-115587619D01*
X103136666Y-115492380D02*
X103755714Y-115492380D01*
X103422380Y-115873333D01*
X103565238Y-115873333D01*
X103660476Y-115920952D01*
X103708095Y-115968571D01*
X103755714Y-116063809D01*
X103755714Y-116301904D01*
X103708095Y-116397142D01*
X103660476Y-116444761D01*
X103565238Y-116492380D01*
X103279523Y-116492380D01*
X103184285Y-116444761D01*
X103136666Y-116397142D01*
%TO.C,D2*%
X98878571Y-81352380D02*
X99211904Y-82352380D01*
X99545238Y-81352380D01*
X100592857Y-81447619D02*
X100640476Y-81400000D01*
X100735714Y-81352380D01*
X100973809Y-81352380D01*
X101069047Y-81400000D01*
X101116666Y-81447619D01*
X101164285Y-81542857D01*
X101164285Y-81638095D01*
X101116666Y-81780952D01*
X100545238Y-82352380D01*
X101164285Y-82352380D01*
X101497619Y-81685714D02*
X101735714Y-82352380D01*
X101973809Y-81685714D01*
D15*
X99839523Y-78301904D02*
X99839523Y-77501904D01*
X100030000Y-77501904D01*
X100144285Y-77540000D01*
X100220476Y-77616190D01*
X100258571Y-77692380D01*
X100296666Y-77844761D01*
X100296666Y-77959047D01*
X100258571Y-78111428D01*
X100220476Y-78187619D01*
X100144285Y-78263809D01*
X100030000Y-78301904D01*
X99839523Y-78301904D01*
X100601428Y-77578095D02*
X100639523Y-77540000D01*
X100715714Y-77501904D01*
X100906190Y-77501904D01*
X100982380Y-77540000D01*
X101020476Y-77578095D01*
X101058571Y-77654285D01*
X101058571Y-77730476D01*
X101020476Y-77844761D01*
X100563333Y-78301904D01*
X101058571Y-78301904D01*
%TO.C,D3*%
D14*
X113491428Y-93782380D02*
X113158095Y-93306190D01*
X112920000Y-93782380D02*
X112920000Y-92782380D01*
X113300952Y-92782380D01*
X113396190Y-92830000D01*
X113443809Y-92877619D01*
X113491428Y-92972857D01*
X113491428Y-93115714D01*
X113443809Y-93210952D01*
X113396190Y-93258571D01*
X113300952Y-93306190D01*
X112920000Y-93306190D01*
X114634285Y-92877619D02*
X114681904Y-92830000D01*
X114777142Y-92782380D01*
X115015238Y-92782380D01*
X115110476Y-92830000D01*
X115158095Y-92877619D01*
X115205714Y-92972857D01*
X115205714Y-93068095D01*
X115158095Y-93210952D01*
X114586666Y-93782380D01*
X115205714Y-93782380D01*
X115539047Y-93115714D02*
X115777142Y-93782380D01*
X116015238Y-93115714D01*
D15*
X113809523Y-89731904D02*
X113809523Y-88931904D01*
X114000000Y-88931904D01*
X114114285Y-88970000D01*
X114190476Y-89046190D01*
X114228571Y-89122380D01*
X114266666Y-89274761D01*
X114266666Y-89389047D01*
X114228571Y-89541428D01*
X114190476Y-89617619D01*
X114114285Y-89693809D01*
X114000000Y-89731904D01*
X113809523Y-89731904D01*
X114533333Y-88931904D02*
X115028571Y-88931904D01*
X114761904Y-89236666D01*
X114876190Y-89236666D01*
X114952380Y-89274761D01*
X114990476Y-89312857D01*
X115028571Y-89389047D01*
X115028571Y-89579523D01*
X114990476Y-89655714D01*
X114952380Y-89693809D01*
X114876190Y-89731904D01*
X114647619Y-89731904D01*
X114571428Y-89693809D01*
X114533333Y-89655714D01*
%TO.C,D4*%
D14*
X113491428Y-103942380D02*
X113158095Y-103466190D01*
X112920000Y-103942380D02*
X112920000Y-102942380D01*
X113300952Y-102942380D01*
X113396190Y-102990000D01*
X113443809Y-103037619D01*
X113491428Y-103132857D01*
X113491428Y-103275714D01*
X113443809Y-103370952D01*
X113396190Y-103418571D01*
X113300952Y-103466190D01*
X112920000Y-103466190D01*
X114634285Y-103037619D02*
X114681904Y-102990000D01*
X114777142Y-102942380D01*
X115015238Y-102942380D01*
X115110476Y-102990000D01*
X115158095Y-103037619D01*
X115205714Y-103132857D01*
X115205714Y-103228095D01*
X115158095Y-103370952D01*
X114586666Y-103942380D01*
X115205714Y-103942380D01*
X115539047Y-103275714D02*
X115777142Y-103942380D01*
X116015238Y-103275714D01*
D15*
X113809523Y-99891904D02*
X113809523Y-99091904D01*
X114000000Y-99091904D01*
X114114285Y-99130000D01*
X114190476Y-99206190D01*
X114228571Y-99282380D01*
X114266666Y-99434761D01*
X114266666Y-99549047D01*
X114228571Y-99701428D01*
X114190476Y-99777619D01*
X114114285Y-99853809D01*
X114000000Y-99891904D01*
X113809523Y-99891904D01*
X114952380Y-99358571D02*
X114952380Y-99891904D01*
X114761904Y-99053809D02*
X114571428Y-99625238D01*
X115066666Y-99625238D01*
%TO.C,D5*%
D14*
X147781428Y-97592380D02*
X147448095Y-97116190D01*
X147210000Y-97592380D02*
X147210000Y-96592380D01*
X147590952Y-96592380D01*
X147686190Y-96640000D01*
X147733809Y-96687619D01*
X147781428Y-96782857D01*
X147781428Y-96925714D01*
X147733809Y-97020952D01*
X147686190Y-97068571D01*
X147590952Y-97116190D01*
X147210000Y-97116190D01*
X148924285Y-96687619D02*
X148971904Y-96640000D01*
X149067142Y-96592380D01*
X149305238Y-96592380D01*
X149400476Y-96640000D01*
X149448095Y-96687619D01*
X149495714Y-96782857D01*
X149495714Y-96878095D01*
X149448095Y-97020952D01*
X148876666Y-97592380D01*
X149495714Y-97592380D01*
X149829047Y-96925714D02*
X150067142Y-97592380D01*
X150305238Y-96925714D01*
D15*
X148099523Y-93541904D02*
X148099523Y-92741904D01*
X148290000Y-92741904D01*
X148404285Y-92780000D01*
X148480476Y-92856190D01*
X148518571Y-92932380D01*
X148556666Y-93084761D01*
X148556666Y-93199047D01*
X148518571Y-93351428D01*
X148480476Y-93427619D01*
X148404285Y-93503809D01*
X148290000Y-93541904D01*
X148099523Y-93541904D01*
X149280476Y-92741904D02*
X148899523Y-92741904D01*
X148861428Y-93122857D01*
X148899523Y-93084761D01*
X148975714Y-93046666D01*
X149166190Y-93046666D01*
X149242380Y-93084761D01*
X149280476Y-93122857D01*
X149318571Y-93199047D01*
X149318571Y-93389523D01*
X149280476Y-93465714D01*
X149242380Y-93503809D01*
X149166190Y-93541904D01*
X148975714Y-93541904D01*
X148899523Y-93503809D01*
X148861428Y-93465714D01*
%TO.C,F1*%
D14*
X65412380Y-106216904D02*
X65412380Y-106788333D01*
X65412380Y-106502619D02*
X64412380Y-106502619D01*
X64555238Y-106597857D01*
X64650476Y-106693095D01*
X64698095Y-106788333D01*
X64412380Y-105597857D02*
X64412380Y-105502619D01*
X64460000Y-105407380D01*
X64507619Y-105359761D01*
X64602857Y-105312142D01*
X64793333Y-105264523D01*
X65031428Y-105264523D01*
X65221904Y-105312142D01*
X65317142Y-105359761D01*
X65364761Y-105407380D01*
X65412380Y-105502619D01*
X65412380Y-105597857D01*
X65364761Y-105693095D01*
X65317142Y-105740714D01*
X65221904Y-105788333D01*
X65031428Y-105835952D01*
X64793333Y-105835952D01*
X64602857Y-105788333D01*
X64507619Y-105740714D01*
X64460000Y-105693095D01*
X64412380Y-105597857D01*
X64412380Y-104645476D02*
X64412380Y-104550238D01*
X64460000Y-104455000D01*
X64507619Y-104407380D01*
X64602857Y-104359761D01*
X64793333Y-104312142D01*
X65031428Y-104312142D01*
X65221904Y-104359761D01*
X65317142Y-104407380D01*
X65364761Y-104455000D01*
X65412380Y-104550238D01*
X65412380Y-104645476D01*
X65364761Y-104740714D01*
X65317142Y-104788333D01*
X65221904Y-104835952D01*
X65031428Y-104883571D01*
X64793333Y-104883571D01*
X64602857Y-104835952D01*
X64507619Y-104788333D01*
X64460000Y-104740714D01*
X64412380Y-104645476D01*
X65412380Y-103883571D02*
X64745714Y-103883571D01*
X64840952Y-103883571D02*
X64793333Y-103835952D01*
X64745714Y-103740714D01*
X64745714Y-103597857D01*
X64793333Y-103502619D01*
X64888571Y-103455000D01*
X65412380Y-103455000D01*
X64888571Y-103455000D02*
X64793333Y-103407380D01*
X64745714Y-103312142D01*
X64745714Y-103169285D01*
X64793333Y-103074047D01*
X64888571Y-103026428D01*
X65412380Y-103026428D01*
X65126666Y-102597857D02*
X65126666Y-102121666D01*
X65412380Y-102693095D02*
X64412380Y-102359761D01*
X65412380Y-102026428D01*
X68438571Y-104763333D02*
X68438571Y-105096666D01*
X68962380Y-105096666D02*
X67962380Y-105096666D01*
X67962380Y-104620476D01*
X68962380Y-103715714D02*
X68962380Y-104287142D01*
X68962380Y-104001428D02*
X67962380Y-104001428D01*
X68105238Y-104096666D01*
X68200476Y-104191904D01*
X68248095Y-104287142D01*
%TO.C,J2*%
X145142380Y-63452857D02*
X144142380Y-63452857D01*
X144142380Y-63071904D01*
X144190000Y-62976666D01*
X144237619Y-62929047D01*
X144332857Y-62881428D01*
X144475714Y-62881428D01*
X144570952Y-62929047D01*
X144618571Y-62976666D01*
X144666190Y-63071904D01*
X144666190Y-63452857D01*
X145142380Y-62452857D02*
X144475714Y-62452857D01*
X144142380Y-62452857D02*
X144190000Y-62500476D01*
X144237619Y-62452857D01*
X144190000Y-62405238D01*
X144142380Y-62452857D01*
X144237619Y-62452857D01*
X144475714Y-61976666D02*
X145142380Y-61976666D01*
X144570952Y-61976666D02*
X144523333Y-61929047D01*
X144475714Y-61833809D01*
X144475714Y-61690952D01*
X144523333Y-61595714D01*
X144618571Y-61548095D01*
X145142380Y-61548095D01*
X145142380Y-61071904D02*
X144142380Y-61071904D01*
X144618571Y-61071904D02*
X144618571Y-60500476D01*
X145142380Y-60500476D02*
X144142380Y-60500476D01*
X145094761Y-59643333D02*
X145142380Y-59738571D01*
X145142380Y-59929047D01*
X145094761Y-60024285D01*
X144999523Y-60071904D01*
X144618571Y-60071904D01*
X144523333Y-60024285D01*
X144475714Y-59929047D01*
X144475714Y-59738571D01*
X144523333Y-59643333D01*
X144618571Y-59595714D01*
X144713809Y-59595714D01*
X144809047Y-60071904D01*
X145142380Y-58738571D02*
X144618571Y-58738571D01*
X144523333Y-58786190D01*
X144475714Y-58881428D01*
X144475714Y-59071904D01*
X144523333Y-59167142D01*
X145094761Y-58738571D02*
X145142380Y-58833809D01*
X145142380Y-59071904D01*
X145094761Y-59167142D01*
X144999523Y-59214761D01*
X144904285Y-59214761D01*
X144809047Y-59167142D01*
X144761428Y-59071904D01*
X144761428Y-58833809D01*
X144713809Y-58738571D01*
X145142380Y-57833809D02*
X144142380Y-57833809D01*
X145094761Y-57833809D02*
X145142380Y-57929047D01*
X145142380Y-58119523D01*
X145094761Y-58214761D01*
X145047142Y-58262380D01*
X144951904Y-58310000D01*
X144666190Y-58310000D01*
X144570952Y-58262380D01*
X144523333Y-58214761D01*
X144475714Y-58119523D01*
X144475714Y-57929047D01*
X144523333Y-57833809D01*
X145094761Y-56976666D02*
X145142380Y-57071904D01*
X145142380Y-57262380D01*
X145094761Y-57357619D01*
X144999523Y-57405238D01*
X144618571Y-57405238D01*
X144523333Y-57357619D01*
X144475714Y-57262380D01*
X144475714Y-57071904D01*
X144523333Y-56976666D01*
X144618571Y-56929047D01*
X144713809Y-56929047D01*
X144809047Y-57405238D01*
X145142380Y-56500476D02*
X144475714Y-56500476D01*
X144666190Y-56500476D02*
X144570952Y-56452857D01*
X144523333Y-56405238D01*
X144475714Y-56310000D01*
X144475714Y-56214761D01*
X145237619Y-56119523D02*
X145237619Y-55357619D01*
X145142380Y-54595714D02*
X145142380Y-55167142D01*
X145142380Y-54881428D02*
X144142380Y-54881428D01*
X144285238Y-54976666D01*
X144380476Y-55071904D01*
X144428095Y-55167142D01*
X145142380Y-54262380D02*
X144475714Y-53738571D01*
X144475714Y-54262380D02*
X145142380Y-53738571D01*
X144142380Y-53167142D02*
X144142380Y-53071904D01*
X144190000Y-52976666D01*
X144237619Y-52929047D01*
X144332857Y-52881428D01*
X144523333Y-52833809D01*
X144761428Y-52833809D01*
X144951904Y-52881428D01*
X145047142Y-52929047D01*
X145094761Y-52976666D01*
X145142380Y-53071904D01*
X145142380Y-53167142D01*
X145094761Y-53262380D01*
X145047142Y-53310000D01*
X144951904Y-53357619D01*
X144761428Y-53405238D01*
X144523333Y-53405238D01*
X144332857Y-53357619D01*
X144237619Y-53310000D01*
X144190000Y-53262380D01*
X144142380Y-53167142D01*
X144237619Y-52452857D02*
X144190000Y-52405238D01*
X144142380Y-52310000D01*
X144142380Y-52071904D01*
X144190000Y-51976666D01*
X144237619Y-51929047D01*
X144332857Y-51881428D01*
X144428095Y-51881428D01*
X144570952Y-51929047D01*
X145142380Y-52500476D01*
X145142380Y-51881428D01*
X145237619Y-51690952D02*
X145237619Y-50929047D01*
X145142380Y-50690952D02*
X144142380Y-50690952D01*
X144142380Y-50310000D01*
X144190000Y-50214761D01*
X144237619Y-50167142D01*
X144332857Y-50119523D01*
X144475714Y-50119523D01*
X144570952Y-50167142D01*
X144618571Y-50214761D01*
X144666190Y-50310000D01*
X144666190Y-50690952D01*
X144237619Y-49738571D02*
X144190000Y-49690952D01*
X144142380Y-49595714D01*
X144142380Y-49357619D01*
X144190000Y-49262380D01*
X144237619Y-49214761D01*
X144332857Y-49167142D01*
X144428095Y-49167142D01*
X144570952Y-49214761D01*
X145142380Y-49786190D01*
X145142380Y-49167142D01*
X145047142Y-48738571D02*
X145094761Y-48690952D01*
X145142380Y-48738571D01*
X145094761Y-48786190D01*
X145047142Y-48738571D01*
X145142380Y-48738571D01*
X144142380Y-47786190D02*
X144142380Y-48262380D01*
X144618571Y-48310000D01*
X144570952Y-48262380D01*
X144523333Y-48167142D01*
X144523333Y-47929047D01*
X144570952Y-47833809D01*
X144618571Y-47786190D01*
X144713809Y-47738571D01*
X144951904Y-47738571D01*
X145047142Y-47786190D01*
X145094761Y-47833809D01*
X145142380Y-47929047D01*
X145142380Y-48167142D01*
X145094761Y-48262380D01*
X145047142Y-48310000D01*
X144475714Y-46881428D02*
X145142380Y-46881428D01*
X144094761Y-47119523D02*
X144809047Y-47357619D01*
X144809047Y-46738571D01*
X145142380Y-46357619D02*
X144475714Y-46357619D01*
X144570952Y-46357619D02*
X144523333Y-46310000D01*
X144475714Y-46214761D01*
X144475714Y-46071904D01*
X144523333Y-45976666D01*
X144618571Y-45929047D01*
X145142380Y-45929047D01*
X144618571Y-45929047D02*
X144523333Y-45881428D01*
X144475714Y-45786190D01*
X144475714Y-45643333D01*
X144523333Y-45548095D01*
X144618571Y-45500476D01*
X145142380Y-45500476D01*
X145142380Y-45024285D02*
X144475714Y-45024285D01*
X144570952Y-45024285D02*
X144523333Y-44976666D01*
X144475714Y-44881428D01*
X144475714Y-44738571D01*
X144523333Y-44643333D01*
X144618571Y-44595714D01*
X145142380Y-44595714D01*
X144618571Y-44595714D02*
X144523333Y-44548095D01*
X144475714Y-44452857D01*
X144475714Y-44310000D01*
X144523333Y-44214761D01*
X144618571Y-44167142D01*
X145142380Y-44167142D01*
X140756666Y-53262380D02*
X140756666Y-53976666D01*
X140709047Y-54119523D01*
X140613809Y-54214761D01*
X140470952Y-54262380D01*
X140375714Y-54262380D01*
X141185238Y-53357619D02*
X141232857Y-53310000D01*
X141328095Y-53262380D01*
X141566190Y-53262380D01*
X141661428Y-53310000D01*
X141709047Y-53357619D01*
X141756666Y-53452857D01*
X141756666Y-53548095D01*
X141709047Y-53690952D01*
X141137619Y-54262380D01*
X141756666Y-54262380D01*
%TO.C,J3*%
X140337142Y-88342380D02*
X140337142Y-87342380D01*
X140718095Y-87342380D01*
X140813333Y-87390000D01*
X140860952Y-87437619D01*
X140908571Y-87532857D01*
X140908571Y-87675714D01*
X140860952Y-87770952D01*
X140813333Y-87818571D01*
X140718095Y-87866190D01*
X140337142Y-87866190D01*
X141337142Y-88342380D02*
X141337142Y-87675714D01*
X141337142Y-87342380D02*
X141289523Y-87390000D01*
X141337142Y-87437619D01*
X141384761Y-87390000D01*
X141337142Y-87342380D01*
X141337142Y-87437619D01*
X141813333Y-87675714D02*
X141813333Y-88342380D01*
X141813333Y-87770952D02*
X141860952Y-87723333D01*
X141956190Y-87675714D01*
X142099047Y-87675714D01*
X142194285Y-87723333D01*
X142241904Y-87818571D01*
X142241904Y-88342380D01*
X142718095Y-88342380D02*
X142718095Y-87342380D01*
X142718095Y-87818571D02*
X143289523Y-87818571D01*
X143289523Y-88342380D02*
X143289523Y-87342380D01*
X144146666Y-88294761D02*
X144051428Y-88342380D01*
X143860952Y-88342380D01*
X143765714Y-88294761D01*
X143718095Y-88199523D01*
X143718095Y-87818571D01*
X143765714Y-87723333D01*
X143860952Y-87675714D01*
X144051428Y-87675714D01*
X144146666Y-87723333D01*
X144194285Y-87818571D01*
X144194285Y-87913809D01*
X143718095Y-88009047D01*
X145051428Y-88342380D02*
X145051428Y-87818571D01*
X145003809Y-87723333D01*
X144908571Y-87675714D01*
X144718095Y-87675714D01*
X144622857Y-87723333D01*
X145051428Y-88294761D02*
X144956190Y-88342380D01*
X144718095Y-88342380D01*
X144622857Y-88294761D01*
X144575238Y-88199523D01*
X144575238Y-88104285D01*
X144622857Y-88009047D01*
X144718095Y-87961428D01*
X144956190Y-87961428D01*
X145051428Y-87913809D01*
X145956190Y-88342380D02*
X145956190Y-87342380D01*
X145956190Y-88294761D02*
X145860952Y-88342380D01*
X145670476Y-88342380D01*
X145575238Y-88294761D01*
X145527619Y-88247142D01*
X145480000Y-88151904D01*
X145480000Y-87866190D01*
X145527619Y-87770952D01*
X145575238Y-87723333D01*
X145670476Y-87675714D01*
X145860952Y-87675714D01*
X145956190Y-87723333D01*
X146813333Y-88294761D02*
X146718095Y-88342380D01*
X146527619Y-88342380D01*
X146432380Y-88294761D01*
X146384761Y-88199523D01*
X146384761Y-87818571D01*
X146432380Y-87723333D01*
X146527619Y-87675714D01*
X146718095Y-87675714D01*
X146813333Y-87723333D01*
X146860952Y-87818571D01*
X146860952Y-87913809D01*
X146384761Y-88009047D01*
X147289523Y-88342380D02*
X147289523Y-87675714D01*
X147289523Y-87866190D02*
X147337142Y-87770952D01*
X147384761Y-87723333D01*
X147480000Y-87675714D01*
X147575238Y-87675714D01*
X147670476Y-88437619D02*
X148432380Y-88437619D01*
X149194285Y-88342380D02*
X148622857Y-88342380D01*
X148908571Y-88342380D02*
X148908571Y-87342380D01*
X148813333Y-87485238D01*
X148718095Y-87580476D01*
X148622857Y-87628095D01*
X149527619Y-88342380D02*
X150051428Y-87675714D01*
X149527619Y-87675714D02*
X150051428Y-88342380D01*
X150622857Y-87342380D02*
X150718095Y-87342380D01*
X150813333Y-87390000D01*
X150860952Y-87437619D01*
X150908571Y-87532857D01*
X150956190Y-87723333D01*
X150956190Y-87961428D01*
X150908571Y-88151904D01*
X150860952Y-88247142D01*
X150813333Y-88294761D01*
X150718095Y-88342380D01*
X150622857Y-88342380D01*
X150527619Y-88294761D01*
X150480000Y-88247142D01*
X150432380Y-88151904D01*
X150384761Y-87961428D01*
X150384761Y-87723333D01*
X150432380Y-87532857D01*
X150480000Y-87437619D01*
X150527619Y-87390000D01*
X150622857Y-87342380D01*
X151908571Y-88342380D02*
X151337142Y-88342380D01*
X151622857Y-88342380D02*
X151622857Y-87342380D01*
X151527619Y-87485238D01*
X151432380Y-87580476D01*
X151337142Y-87628095D01*
X152099047Y-88437619D02*
X152860952Y-88437619D01*
X153099047Y-88342380D02*
X153099047Y-87342380D01*
X153480000Y-87342380D01*
X153575238Y-87390000D01*
X153622857Y-87437619D01*
X153670476Y-87532857D01*
X153670476Y-87675714D01*
X153622857Y-87770952D01*
X153575238Y-87818571D01*
X153480000Y-87866190D01*
X153099047Y-87866190D01*
X154051428Y-87437619D02*
X154099047Y-87390000D01*
X154194285Y-87342380D01*
X154432380Y-87342380D01*
X154527619Y-87390000D01*
X154575238Y-87437619D01*
X154622857Y-87532857D01*
X154622857Y-87628095D01*
X154575238Y-87770952D01*
X154003809Y-88342380D01*
X154622857Y-88342380D01*
X155051428Y-88247142D02*
X155099047Y-88294761D01*
X155051428Y-88342380D01*
X155003809Y-88294761D01*
X155051428Y-88247142D01*
X155051428Y-88342380D01*
X156003809Y-87342380D02*
X155527619Y-87342380D01*
X155480000Y-87818571D01*
X155527619Y-87770952D01*
X155622857Y-87723333D01*
X155860952Y-87723333D01*
X155956190Y-87770952D01*
X156003809Y-87818571D01*
X156051428Y-87913809D01*
X156051428Y-88151904D01*
X156003809Y-88247142D01*
X155956190Y-88294761D01*
X155860952Y-88342380D01*
X155622857Y-88342380D01*
X155527619Y-88294761D01*
X155480000Y-88247142D01*
X156908571Y-87675714D02*
X156908571Y-88342380D01*
X156670476Y-87294761D02*
X156432380Y-88009047D01*
X157051428Y-88009047D01*
X157432380Y-88342380D02*
X157432380Y-87675714D01*
X157432380Y-87770952D02*
X157480000Y-87723333D01*
X157575238Y-87675714D01*
X157718095Y-87675714D01*
X157813333Y-87723333D01*
X157860952Y-87818571D01*
X157860952Y-88342380D01*
X157860952Y-87818571D02*
X157908571Y-87723333D01*
X158003809Y-87675714D01*
X158146666Y-87675714D01*
X158241904Y-87723333D01*
X158289523Y-87818571D01*
X158289523Y-88342380D01*
X158765714Y-88342380D02*
X158765714Y-87675714D01*
X158765714Y-87770952D02*
X158813333Y-87723333D01*
X158908571Y-87675714D01*
X159051428Y-87675714D01*
X159146666Y-87723333D01*
X159194285Y-87818571D01*
X159194285Y-88342380D01*
X159194285Y-87818571D02*
X159241904Y-87723333D01*
X159337142Y-87675714D01*
X159480000Y-87675714D01*
X159575238Y-87723333D01*
X159622857Y-87818571D01*
X159622857Y-88342380D01*
X149432380Y-85893333D02*
X150146666Y-85893333D01*
X150289523Y-85940952D01*
X150384761Y-86036190D01*
X150432380Y-86179047D01*
X150432380Y-86274285D01*
X149432380Y-85512380D02*
X149432380Y-84893333D01*
X149813333Y-85226666D01*
X149813333Y-85083809D01*
X149860952Y-84988571D01*
X149908571Y-84940952D01*
X150003809Y-84893333D01*
X150241904Y-84893333D01*
X150337142Y-84940952D01*
X150384761Y-84988571D01*
X150432380Y-85083809D01*
X150432380Y-85369523D01*
X150384761Y-85464761D01*
X150337142Y-85512380D01*
%TO.C,J4*%
X98427142Y-80722380D02*
X98427142Y-79722380D01*
X98808095Y-79722380D01*
X98903333Y-79770000D01*
X98950952Y-79817619D01*
X98998571Y-79912857D01*
X98998571Y-80055714D01*
X98950952Y-80150952D01*
X98903333Y-80198571D01*
X98808095Y-80246190D01*
X98427142Y-80246190D01*
X99427142Y-80722380D02*
X99427142Y-80055714D01*
X99427142Y-79722380D02*
X99379523Y-79770000D01*
X99427142Y-79817619D01*
X99474761Y-79770000D01*
X99427142Y-79722380D01*
X99427142Y-79817619D01*
X99903333Y-80055714D02*
X99903333Y-80722380D01*
X99903333Y-80150952D02*
X99950952Y-80103333D01*
X100046190Y-80055714D01*
X100189047Y-80055714D01*
X100284285Y-80103333D01*
X100331904Y-80198571D01*
X100331904Y-80722380D01*
X100808095Y-80722380D02*
X100808095Y-79722380D01*
X100808095Y-80198571D02*
X101379523Y-80198571D01*
X101379523Y-80722380D02*
X101379523Y-79722380D01*
X102236666Y-80674761D02*
X102141428Y-80722380D01*
X101950952Y-80722380D01*
X101855714Y-80674761D01*
X101808095Y-80579523D01*
X101808095Y-80198571D01*
X101855714Y-80103333D01*
X101950952Y-80055714D01*
X102141428Y-80055714D01*
X102236666Y-80103333D01*
X102284285Y-80198571D01*
X102284285Y-80293809D01*
X101808095Y-80389047D01*
X103141428Y-80722380D02*
X103141428Y-80198571D01*
X103093809Y-80103333D01*
X102998571Y-80055714D01*
X102808095Y-80055714D01*
X102712857Y-80103333D01*
X103141428Y-80674761D02*
X103046190Y-80722380D01*
X102808095Y-80722380D01*
X102712857Y-80674761D01*
X102665238Y-80579523D01*
X102665238Y-80484285D01*
X102712857Y-80389047D01*
X102808095Y-80341428D01*
X103046190Y-80341428D01*
X103141428Y-80293809D01*
X104046190Y-80722380D02*
X104046190Y-79722380D01*
X104046190Y-80674761D02*
X103950952Y-80722380D01*
X103760476Y-80722380D01*
X103665238Y-80674761D01*
X103617619Y-80627142D01*
X103570000Y-80531904D01*
X103570000Y-80246190D01*
X103617619Y-80150952D01*
X103665238Y-80103333D01*
X103760476Y-80055714D01*
X103950952Y-80055714D01*
X104046190Y-80103333D01*
X104903333Y-80674761D02*
X104808095Y-80722380D01*
X104617619Y-80722380D01*
X104522380Y-80674761D01*
X104474761Y-80579523D01*
X104474761Y-80198571D01*
X104522380Y-80103333D01*
X104617619Y-80055714D01*
X104808095Y-80055714D01*
X104903333Y-80103333D01*
X104950952Y-80198571D01*
X104950952Y-80293809D01*
X104474761Y-80389047D01*
X105379523Y-80722380D02*
X105379523Y-80055714D01*
X105379523Y-80246190D02*
X105427142Y-80150952D01*
X105474761Y-80103333D01*
X105570000Y-80055714D01*
X105665238Y-80055714D01*
X105760476Y-80817619D02*
X106522380Y-80817619D01*
X107284285Y-80722380D02*
X106712857Y-80722380D01*
X106998571Y-80722380D02*
X106998571Y-79722380D01*
X106903333Y-79865238D01*
X106808095Y-79960476D01*
X106712857Y-80008095D01*
X107617619Y-80722380D02*
X108141428Y-80055714D01*
X107617619Y-80055714D02*
X108141428Y-80722380D01*
X108712857Y-79722380D02*
X108808095Y-79722380D01*
X108903333Y-79770000D01*
X108950952Y-79817619D01*
X108998571Y-79912857D01*
X109046190Y-80103333D01*
X109046190Y-80341428D01*
X108998571Y-80531904D01*
X108950952Y-80627142D01*
X108903333Y-80674761D01*
X108808095Y-80722380D01*
X108712857Y-80722380D01*
X108617619Y-80674761D01*
X108570000Y-80627142D01*
X108522380Y-80531904D01*
X108474761Y-80341428D01*
X108474761Y-80103333D01*
X108522380Y-79912857D01*
X108570000Y-79817619D01*
X108617619Y-79770000D01*
X108712857Y-79722380D01*
X109379523Y-79722380D02*
X109998571Y-79722380D01*
X109665238Y-80103333D01*
X109808095Y-80103333D01*
X109903333Y-80150952D01*
X109950952Y-80198571D01*
X109998571Y-80293809D01*
X109998571Y-80531904D01*
X109950952Y-80627142D01*
X109903333Y-80674761D01*
X109808095Y-80722380D01*
X109522380Y-80722380D01*
X109427142Y-80674761D01*
X109379523Y-80627142D01*
X110189047Y-80817619D02*
X110950952Y-80817619D01*
X111189047Y-80722380D02*
X111189047Y-79722380D01*
X111570000Y-79722380D01*
X111665238Y-79770000D01*
X111712857Y-79817619D01*
X111760476Y-79912857D01*
X111760476Y-80055714D01*
X111712857Y-80150952D01*
X111665238Y-80198571D01*
X111570000Y-80246190D01*
X111189047Y-80246190D01*
X112141428Y-79817619D02*
X112189047Y-79770000D01*
X112284285Y-79722380D01*
X112522380Y-79722380D01*
X112617619Y-79770000D01*
X112665238Y-79817619D01*
X112712857Y-79912857D01*
X112712857Y-80008095D01*
X112665238Y-80150952D01*
X112093809Y-80722380D01*
X112712857Y-80722380D01*
X113141428Y-80627142D02*
X113189047Y-80674761D01*
X113141428Y-80722380D01*
X113093809Y-80674761D01*
X113141428Y-80627142D01*
X113141428Y-80722380D01*
X114093809Y-79722380D02*
X113617619Y-79722380D01*
X113570000Y-80198571D01*
X113617619Y-80150952D01*
X113712857Y-80103333D01*
X113950952Y-80103333D01*
X114046190Y-80150952D01*
X114093809Y-80198571D01*
X114141428Y-80293809D01*
X114141428Y-80531904D01*
X114093809Y-80627142D01*
X114046190Y-80674761D01*
X113950952Y-80722380D01*
X113712857Y-80722380D01*
X113617619Y-80674761D01*
X113570000Y-80627142D01*
X114998571Y-80055714D02*
X114998571Y-80722380D01*
X114760476Y-79674761D02*
X114522380Y-80389047D01*
X115141428Y-80389047D01*
X115522380Y-80722380D02*
X115522380Y-80055714D01*
X115522380Y-80150952D02*
X115570000Y-80103333D01*
X115665238Y-80055714D01*
X115808095Y-80055714D01*
X115903333Y-80103333D01*
X115950952Y-80198571D01*
X115950952Y-80722380D01*
X115950952Y-80198571D02*
X115998571Y-80103333D01*
X116093809Y-80055714D01*
X116236666Y-80055714D01*
X116331904Y-80103333D01*
X116379523Y-80198571D01*
X116379523Y-80722380D01*
X116855714Y-80722380D02*
X116855714Y-80055714D01*
X116855714Y-80150952D02*
X116903333Y-80103333D01*
X116998571Y-80055714D01*
X117141428Y-80055714D01*
X117236666Y-80103333D01*
X117284285Y-80198571D01*
X117284285Y-80722380D01*
X117284285Y-80198571D02*
X117331904Y-80103333D01*
X117427142Y-80055714D01*
X117570000Y-80055714D01*
X117665238Y-80103333D01*
X117712857Y-80198571D01*
X117712857Y-80722380D01*
X107522380Y-75733333D02*
X108236666Y-75733333D01*
X108379523Y-75780952D01*
X108474761Y-75876190D01*
X108522380Y-76019047D01*
X108522380Y-76114285D01*
X107855714Y-74828571D02*
X108522380Y-74828571D01*
X107474761Y-75066666D02*
X108189047Y-75304761D01*
X108189047Y-74685714D01*
%TO.C,R1*%
X84448095Y-80095714D02*
X84448095Y-80762380D01*
X84210000Y-79714761D02*
X83971904Y-80429047D01*
X84590952Y-80429047D01*
X84876666Y-79762380D02*
X85495714Y-79762380D01*
X85162380Y-80143333D01*
X85305238Y-80143333D01*
X85400476Y-80190952D01*
X85448095Y-80238571D01*
X85495714Y-80333809D01*
X85495714Y-80571904D01*
X85448095Y-80667142D01*
X85400476Y-80714761D01*
X85305238Y-80762380D01*
X85019523Y-80762380D01*
X84924285Y-80714761D01*
X84876666Y-80667142D01*
X86114761Y-79762380D02*
X86210000Y-79762380D01*
X86305238Y-79810000D01*
X86352857Y-79857619D01*
X86400476Y-79952857D01*
X86448095Y-80143333D01*
X86448095Y-80381428D01*
X86400476Y-80571904D01*
X86352857Y-80667142D01*
X86305238Y-80714761D01*
X86210000Y-80762380D01*
X86114761Y-80762380D01*
X86019523Y-80714761D01*
X85971904Y-80667142D01*
X85924285Y-80571904D01*
X85876666Y-80381428D01*
X85876666Y-80143333D01*
X85924285Y-79952857D01*
X85971904Y-79857619D01*
X86019523Y-79810000D01*
X86114761Y-79762380D01*
X85043333Y-78392380D02*
X84710000Y-77916190D01*
X84471904Y-78392380D02*
X84471904Y-77392380D01*
X84852857Y-77392380D01*
X84948095Y-77440000D01*
X84995714Y-77487619D01*
X85043333Y-77582857D01*
X85043333Y-77725714D01*
X84995714Y-77820952D01*
X84948095Y-77868571D01*
X84852857Y-77916190D01*
X84471904Y-77916190D01*
X85995714Y-78392380D02*
X85424285Y-78392380D01*
X85710000Y-78392380D02*
X85710000Y-77392380D01*
X85614761Y-77535238D01*
X85519523Y-77630476D01*
X85424285Y-77678095D01*
%TO.C,R2*%
X118512380Y-58215238D02*
X118512380Y-58786666D01*
X118512380Y-58500952D02*
X117512380Y-58500952D01*
X117655238Y-58596190D01*
X117750476Y-58691428D01*
X117798095Y-58786666D01*
X117512380Y-57596190D02*
X117512380Y-57500952D01*
X117560000Y-57405714D01*
X117607619Y-57358095D01*
X117702857Y-57310476D01*
X117893333Y-57262857D01*
X118131428Y-57262857D01*
X118321904Y-57310476D01*
X118417142Y-57358095D01*
X118464761Y-57405714D01*
X118512380Y-57500952D01*
X118512380Y-57596190D01*
X118464761Y-57691428D01*
X118417142Y-57739047D01*
X118321904Y-57786666D01*
X118131428Y-57834285D01*
X117893333Y-57834285D01*
X117702857Y-57786666D01*
X117607619Y-57739047D01*
X117560000Y-57691428D01*
X117512380Y-57596190D01*
X118512380Y-56834285D02*
X117512380Y-56834285D01*
X118131428Y-56739047D02*
X118512380Y-56453333D01*
X117845714Y-56453333D02*
X118226666Y-56834285D01*
X116142380Y-57786666D02*
X115666190Y-58120000D01*
X116142380Y-58358095D02*
X115142380Y-58358095D01*
X115142380Y-57977142D01*
X115190000Y-57881904D01*
X115237619Y-57834285D01*
X115332857Y-57786666D01*
X115475714Y-57786666D01*
X115570952Y-57834285D01*
X115618571Y-57881904D01*
X115666190Y-57977142D01*
X115666190Y-58358095D01*
X115237619Y-57405714D02*
X115190000Y-57358095D01*
X115142380Y-57262857D01*
X115142380Y-57024761D01*
X115190000Y-56929523D01*
X115237619Y-56881904D01*
X115332857Y-56834285D01*
X115428095Y-56834285D01*
X115570952Y-56881904D01*
X116142380Y-57453333D01*
X116142380Y-56834285D01*
%TO.C,R3*%
X112131904Y-110292619D02*
X112179523Y-110245000D01*
X112274761Y-110197380D01*
X112512857Y-110197380D01*
X112608095Y-110245000D01*
X112655714Y-110292619D01*
X112703333Y-110387857D01*
X112703333Y-110483095D01*
X112655714Y-110625952D01*
X112084285Y-111197380D01*
X112703333Y-111197380D01*
X113322380Y-110197380D02*
X113417619Y-110197380D01*
X113512857Y-110245000D01*
X113560476Y-110292619D01*
X113608095Y-110387857D01*
X113655714Y-110578333D01*
X113655714Y-110816428D01*
X113608095Y-111006904D01*
X113560476Y-111102142D01*
X113512857Y-111149761D01*
X113417619Y-111197380D01*
X113322380Y-111197380D01*
X113227142Y-111149761D01*
X113179523Y-111102142D01*
X113131904Y-111006904D01*
X113084285Y-110816428D01*
X113084285Y-110578333D01*
X113131904Y-110387857D01*
X113179523Y-110292619D01*
X113227142Y-110245000D01*
X113322380Y-110197380D01*
X114274761Y-110197380D02*
X114370000Y-110197380D01*
X114465238Y-110245000D01*
X114512857Y-110292619D01*
X114560476Y-110387857D01*
X114608095Y-110578333D01*
X114608095Y-110816428D01*
X114560476Y-111006904D01*
X114512857Y-111102142D01*
X114465238Y-111149761D01*
X114370000Y-111197380D01*
X114274761Y-111197380D01*
X114179523Y-111149761D01*
X114131904Y-111102142D01*
X114084285Y-111006904D01*
X114036666Y-110816428D01*
X114036666Y-110578333D01*
X114084285Y-110387857D01*
X114131904Y-110292619D01*
X114179523Y-110245000D01*
X114274761Y-110197380D01*
X113203333Y-108827380D02*
X112870000Y-108351190D01*
X112631904Y-108827380D02*
X112631904Y-107827380D01*
X113012857Y-107827380D01*
X113108095Y-107875000D01*
X113155714Y-107922619D01*
X113203333Y-108017857D01*
X113203333Y-108160714D01*
X113155714Y-108255952D01*
X113108095Y-108303571D01*
X113012857Y-108351190D01*
X112631904Y-108351190D01*
X113536666Y-107827380D02*
X114155714Y-107827380D01*
X113822380Y-108208333D01*
X113965238Y-108208333D01*
X114060476Y-108255952D01*
X114108095Y-108303571D01*
X114155714Y-108398809D01*
X114155714Y-108636904D01*
X114108095Y-108732142D01*
X114060476Y-108779761D01*
X113965238Y-108827380D01*
X113679523Y-108827380D01*
X113584285Y-108779761D01*
X113536666Y-108732142D01*
%TO.C,R4*%
X113772380Y-70915238D02*
X113772380Y-71486666D01*
X113772380Y-71200952D02*
X112772380Y-71200952D01*
X112915238Y-71296190D01*
X113010476Y-71391428D01*
X113058095Y-71486666D01*
X112772380Y-70296190D02*
X112772380Y-70200952D01*
X112820000Y-70105714D01*
X112867619Y-70058095D01*
X112962857Y-70010476D01*
X113153333Y-69962857D01*
X113391428Y-69962857D01*
X113581904Y-70010476D01*
X113677142Y-70058095D01*
X113724761Y-70105714D01*
X113772380Y-70200952D01*
X113772380Y-70296190D01*
X113724761Y-70391428D01*
X113677142Y-70439047D01*
X113581904Y-70486666D01*
X113391428Y-70534285D01*
X113153333Y-70534285D01*
X112962857Y-70486666D01*
X112867619Y-70439047D01*
X112820000Y-70391428D01*
X112772380Y-70296190D01*
X113772380Y-69534285D02*
X112772380Y-69534285D01*
X113391428Y-69439047D02*
X113772380Y-69153333D01*
X113105714Y-69153333D02*
X113486666Y-69534285D01*
X116142380Y-70486666D02*
X115666190Y-70820000D01*
X116142380Y-71058095D02*
X115142380Y-71058095D01*
X115142380Y-70677142D01*
X115190000Y-70581904D01*
X115237619Y-70534285D01*
X115332857Y-70486666D01*
X115475714Y-70486666D01*
X115570952Y-70534285D01*
X115618571Y-70581904D01*
X115666190Y-70677142D01*
X115666190Y-71058095D01*
X115475714Y-69629523D02*
X116142380Y-69629523D01*
X115094761Y-69867619D02*
X115809047Y-70105714D01*
X115809047Y-69486666D01*
%TO.C,R5*%
X112131904Y-114342619D02*
X112179523Y-114295000D01*
X112274761Y-114247380D01*
X112512857Y-114247380D01*
X112608095Y-114295000D01*
X112655714Y-114342619D01*
X112703333Y-114437857D01*
X112703333Y-114533095D01*
X112655714Y-114675952D01*
X112084285Y-115247380D01*
X112703333Y-115247380D01*
X113322380Y-114247380D02*
X113417619Y-114247380D01*
X113512857Y-114295000D01*
X113560476Y-114342619D01*
X113608095Y-114437857D01*
X113655714Y-114628333D01*
X113655714Y-114866428D01*
X113608095Y-115056904D01*
X113560476Y-115152142D01*
X113512857Y-115199761D01*
X113417619Y-115247380D01*
X113322380Y-115247380D01*
X113227142Y-115199761D01*
X113179523Y-115152142D01*
X113131904Y-115056904D01*
X113084285Y-114866428D01*
X113084285Y-114628333D01*
X113131904Y-114437857D01*
X113179523Y-114342619D01*
X113227142Y-114295000D01*
X113322380Y-114247380D01*
X114274761Y-114247380D02*
X114370000Y-114247380D01*
X114465238Y-114295000D01*
X114512857Y-114342619D01*
X114560476Y-114437857D01*
X114608095Y-114628333D01*
X114608095Y-114866428D01*
X114560476Y-115056904D01*
X114512857Y-115152142D01*
X114465238Y-115199761D01*
X114370000Y-115247380D01*
X114274761Y-115247380D01*
X114179523Y-115199761D01*
X114131904Y-115152142D01*
X114084285Y-115056904D01*
X114036666Y-114866428D01*
X114036666Y-114628333D01*
X114084285Y-114437857D01*
X114131904Y-114342619D01*
X114179523Y-114295000D01*
X114274761Y-114247380D01*
X113203333Y-112877380D02*
X112870000Y-112401190D01*
X112631904Y-112877380D02*
X112631904Y-111877380D01*
X113012857Y-111877380D01*
X113108095Y-111925000D01*
X113155714Y-111972619D01*
X113203333Y-112067857D01*
X113203333Y-112210714D01*
X113155714Y-112305952D01*
X113108095Y-112353571D01*
X113012857Y-112401190D01*
X112631904Y-112401190D01*
X114108095Y-111877380D02*
X113631904Y-111877380D01*
X113584285Y-112353571D01*
X113631904Y-112305952D01*
X113727142Y-112258333D01*
X113965238Y-112258333D01*
X114060476Y-112305952D01*
X114108095Y-112353571D01*
X114155714Y-112448809D01*
X114155714Y-112686904D01*
X114108095Y-112782142D01*
X114060476Y-112829761D01*
X113965238Y-112877380D01*
X113727142Y-112877380D01*
X113631904Y-112829761D01*
X113584285Y-112782142D01*
%TO.C,R6*%
X140161428Y-110575714D02*
X140161428Y-111242380D01*
X139923333Y-110194761D02*
X139685238Y-110909047D01*
X140304285Y-110909047D01*
X140685238Y-111147142D02*
X140732857Y-111194761D01*
X140685238Y-111242380D01*
X140637619Y-111194761D01*
X140685238Y-111147142D01*
X140685238Y-111242380D01*
X141066190Y-110242380D02*
X141732857Y-110242380D01*
X141304285Y-111242380D01*
X142113809Y-111242380D02*
X142113809Y-110242380D01*
X142209047Y-110861428D02*
X142494761Y-111242380D01*
X142494761Y-110575714D02*
X142113809Y-110956666D01*
X140923333Y-108872380D02*
X140590000Y-108396190D01*
X140351904Y-108872380D02*
X140351904Y-107872380D01*
X140732857Y-107872380D01*
X140828095Y-107920000D01*
X140875714Y-107967619D01*
X140923333Y-108062857D01*
X140923333Y-108205714D01*
X140875714Y-108300952D01*
X140828095Y-108348571D01*
X140732857Y-108396190D01*
X140351904Y-108396190D01*
X141780476Y-107872380D02*
X141590000Y-107872380D01*
X141494761Y-107920000D01*
X141447142Y-107967619D01*
X141351904Y-108110476D01*
X141304285Y-108300952D01*
X141304285Y-108681904D01*
X141351904Y-108777142D01*
X141399523Y-108824761D01*
X141494761Y-108872380D01*
X141685238Y-108872380D01*
X141780476Y-108824761D01*
X141828095Y-108777142D01*
X141875714Y-108681904D01*
X141875714Y-108443809D01*
X141828095Y-108348571D01*
X141780476Y-108300952D01*
X141685238Y-108253333D01*
X141494761Y-108253333D01*
X141399523Y-108300952D01*
X141351904Y-108348571D01*
X141304285Y-108443809D01*
%TO.C,R7*%
X140161428Y-115655714D02*
X140161428Y-116322380D01*
X139923333Y-115274761D02*
X139685238Y-115989047D01*
X140304285Y-115989047D01*
X140685238Y-116227142D02*
X140732857Y-116274761D01*
X140685238Y-116322380D01*
X140637619Y-116274761D01*
X140685238Y-116227142D01*
X140685238Y-116322380D01*
X141066190Y-115322380D02*
X141732857Y-115322380D01*
X141304285Y-116322380D01*
X142113809Y-116322380D02*
X142113809Y-115322380D01*
X142209047Y-115941428D02*
X142494761Y-116322380D01*
X142494761Y-115655714D02*
X142113809Y-116036666D01*
X140923333Y-113952380D02*
X140590000Y-113476190D01*
X140351904Y-113952380D02*
X140351904Y-112952380D01*
X140732857Y-112952380D01*
X140828095Y-113000000D01*
X140875714Y-113047619D01*
X140923333Y-113142857D01*
X140923333Y-113285714D01*
X140875714Y-113380952D01*
X140828095Y-113428571D01*
X140732857Y-113476190D01*
X140351904Y-113476190D01*
X141256666Y-112952380D02*
X141923333Y-112952380D01*
X141494761Y-113952380D01*
%TO.C,R8*%
X143912380Y-91473333D02*
X143912380Y-92044761D01*
X143912380Y-91759047D02*
X142912380Y-91759047D01*
X143055238Y-91854285D01*
X143150476Y-91949523D01*
X143198095Y-92044761D01*
X143817142Y-91044761D02*
X143864761Y-90997142D01*
X143912380Y-91044761D01*
X143864761Y-91092380D01*
X143817142Y-91044761D01*
X143912380Y-91044761D01*
X142912380Y-90092380D02*
X142912380Y-90568571D01*
X143388571Y-90616190D01*
X143340952Y-90568571D01*
X143293333Y-90473333D01*
X143293333Y-90235238D01*
X143340952Y-90140000D01*
X143388571Y-90092380D01*
X143483809Y-90044761D01*
X143721904Y-90044761D01*
X143817142Y-90092380D01*
X143864761Y-90140000D01*
X143912380Y-90235238D01*
X143912380Y-90473333D01*
X143864761Y-90568571D01*
X143817142Y-90616190D01*
X143912380Y-89616190D02*
X142912380Y-89616190D01*
X143531428Y-89520952D02*
X143912380Y-89235238D01*
X143245714Y-89235238D02*
X143626666Y-89616190D01*
X141542380Y-90806666D02*
X141066190Y-91140000D01*
X141542380Y-91378095D02*
X140542380Y-91378095D01*
X140542380Y-90997142D01*
X140590000Y-90901904D01*
X140637619Y-90854285D01*
X140732857Y-90806666D01*
X140875714Y-90806666D01*
X140970952Y-90854285D01*
X141018571Y-90901904D01*
X141066190Y-90997142D01*
X141066190Y-91378095D01*
X140970952Y-90235238D02*
X140923333Y-90330476D01*
X140875714Y-90378095D01*
X140780476Y-90425714D01*
X140732857Y-90425714D01*
X140637619Y-90378095D01*
X140590000Y-90330476D01*
X140542380Y-90235238D01*
X140542380Y-90044761D01*
X140590000Y-89949523D01*
X140637619Y-89901904D01*
X140732857Y-89854285D01*
X140780476Y-89854285D01*
X140875714Y-89901904D01*
X140923333Y-89949523D01*
X140970952Y-90044761D01*
X140970952Y-90235238D01*
X141018571Y-90330476D01*
X141066190Y-90378095D01*
X141161428Y-90425714D01*
X141351904Y-90425714D01*
X141447142Y-90378095D01*
X141494761Y-90330476D01*
X141542380Y-90235238D01*
X141542380Y-90044761D01*
X141494761Y-89949523D01*
X141447142Y-89901904D01*
X141351904Y-89854285D01*
X141161428Y-89854285D01*
X141066190Y-89901904D01*
X141018571Y-89949523D01*
X140970952Y-90044761D01*
%TO.C,TR1*%
X64658571Y-77400952D02*
X64706190Y-77258095D01*
X64753809Y-77210476D01*
X64849047Y-77162857D01*
X64991904Y-77162857D01*
X65087142Y-77210476D01*
X65134761Y-77258095D01*
X65182380Y-77353333D01*
X65182380Y-77734285D01*
X64182380Y-77734285D01*
X64182380Y-77400952D01*
X64230000Y-77305714D01*
X64277619Y-77258095D01*
X64372857Y-77210476D01*
X64468095Y-77210476D01*
X64563333Y-77258095D01*
X64610952Y-77305714D01*
X64658571Y-77400952D01*
X64658571Y-77734285D01*
X64182380Y-76877142D02*
X65182380Y-76543809D01*
X64182380Y-76210476D01*
X64658571Y-75877142D02*
X64658571Y-75543809D01*
X65182380Y-75400952D02*
X65182380Y-75877142D01*
X64182380Y-75877142D01*
X64182380Y-75400952D01*
X65182380Y-74972380D02*
X64182380Y-74972380D01*
X64182380Y-74591428D02*
X64182380Y-73972380D01*
X64563333Y-74305714D01*
X64563333Y-74162857D01*
X64610952Y-74067619D01*
X64658571Y-74020000D01*
X64753809Y-73972380D01*
X64991904Y-73972380D01*
X65087142Y-74020000D01*
X65134761Y-74067619D01*
X65182380Y-74162857D01*
X65182380Y-74448571D01*
X65134761Y-74543809D01*
X65087142Y-74591428D01*
X64182380Y-73353333D02*
X64182380Y-73258095D01*
X64230000Y-73162857D01*
X64277619Y-73115238D01*
X64372857Y-73067619D01*
X64563333Y-73020000D01*
X64801428Y-73020000D01*
X64991904Y-73067619D01*
X65087142Y-73115238D01*
X65134761Y-73162857D01*
X65182380Y-73258095D01*
X65182380Y-73353333D01*
X65134761Y-73448571D01*
X65087142Y-73496190D01*
X64991904Y-73543809D01*
X64801428Y-73591428D01*
X64563333Y-73591428D01*
X64372857Y-73543809D01*
X64277619Y-73496190D01*
X64230000Y-73448571D01*
X64182380Y-73353333D01*
X64277619Y-72639047D02*
X64230000Y-72591428D01*
X64182380Y-72496190D01*
X64182380Y-72258095D01*
X64230000Y-72162857D01*
X64277619Y-72115238D01*
X64372857Y-72067619D01*
X64468095Y-72067619D01*
X64610952Y-72115238D01*
X65182380Y-72686666D01*
X65182380Y-72067619D01*
X64277619Y-71686666D02*
X64230000Y-71639047D01*
X64182380Y-71543809D01*
X64182380Y-71305714D01*
X64230000Y-71210476D01*
X64277619Y-71162857D01*
X64372857Y-71115238D01*
X64468095Y-71115238D01*
X64610952Y-71162857D01*
X65182380Y-71734285D01*
X65182380Y-71115238D01*
X65182380Y-70639047D02*
X65182380Y-70448571D01*
X65134761Y-70353333D01*
X65087142Y-70305714D01*
X64944285Y-70210476D01*
X64753809Y-70162857D01*
X64372857Y-70162857D01*
X64277619Y-70210476D01*
X64230000Y-70258095D01*
X64182380Y-70353333D01*
X64182380Y-70543809D01*
X64230000Y-70639047D01*
X64277619Y-70686666D01*
X64372857Y-70734285D01*
X64610952Y-70734285D01*
X64706190Y-70686666D01*
X64753809Y-70639047D01*
X64801428Y-70543809D01*
X64801428Y-70353333D01*
X64753809Y-70258095D01*
X64706190Y-70210476D01*
X64610952Y-70162857D01*
X64182380Y-69829523D02*
X64182380Y-69210476D01*
X64563333Y-69543809D01*
X64563333Y-69400952D01*
X64610952Y-69305714D01*
X64658571Y-69258095D01*
X64753809Y-69210476D01*
X64991904Y-69210476D01*
X65087142Y-69258095D01*
X65134761Y-69305714D01*
X65182380Y-69400952D01*
X65182380Y-69686666D01*
X65134761Y-69781904D01*
X65087142Y-69829523D01*
X64610952Y-68639047D02*
X64563333Y-68734285D01*
X64515714Y-68781904D01*
X64420476Y-68829523D01*
X64372857Y-68829523D01*
X64277619Y-68781904D01*
X64230000Y-68734285D01*
X64182380Y-68639047D01*
X64182380Y-68448571D01*
X64230000Y-68353333D01*
X64277619Y-68305714D01*
X64372857Y-68258095D01*
X64420476Y-68258095D01*
X64515714Y-68305714D01*
X64563333Y-68353333D01*
X64610952Y-68448571D01*
X64610952Y-68639047D01*
X64658571Y-68734285D01*
X64706190Y-68781904D01*
X64801428Y-68829523D01*
X64991904Y-68829523D01*
X65087142Y-68781904D01*
X65134761Y-68734285D01*
X65182380Y-68639047D01*
X65182380Y-68448571D01*
X65134761Y-68353333D01*
X65087142Y-68305714D01*
X64991904Y-68258095D01*
X64801428Y-68258095D01*
X64706190Y-68305714D01*
X64658571Y-68353333D01*
X64610952Y-68448571D01*
X71182380Y-79210476D02*
X71182380Y-79020000D01*
X71134761Y-78924761D01*
X71087142Y-78877142D01*
X70944285Y-78781904D01*
X70753809Y-78734285D01*
X70372857Y-78734285D01*
X70277619Y-78781904D01*
X70230000Y-78829523D01*
X70182380Y-78924761D01*
X70182380Y-79115238D01*
X70230000Y-79210476D01*
X70277619Y-79258095D01*
X70372857Y-79305714D01*
X70610952Y-79305714D01*
X70706190Y-79258095D01*
X70753809Y-79210476D01*
X70801428Y-79115238D01*
X70801428Y-78924761D01*
X70753809Y-78829523D01*
X70706190Y-78781904D01*
X70610952Y-78734285D01*
X70182380Y-67353333D02*
X70182380Y-66686666D01*
X71182380Y-67115238D01*
X57182380Y-60781904D02*
X57182380Y-61258095D01*
X57658571Y-61305714D01*
X57610952Y-61258095D01*
X57563333Y-61162857D01*
X57563333Y-60924761D01*
X57610952Y-60829523D01*
X57658571Y-60781904D01*
X57753809Y-60734285D01*
X57991904Y-60734285D01*
X58087142Y-60781904D01*
X58134761Y-60829523D01*
X58182380Y-60924761D01*
X58182380Y-61162857D01*
X58134761Y-61258095D01*
X58087142Y-61305714D01*
X63468095Y-57972380D02*
X64039523Y-57972380D01*
X63753809Y-58972380D02*
X63753809Y-57972380D01*
X64944285Y-58972380D02*
X64610952Y-58496190D01*
X64372857Y-58972380D02*
X64372857Y-57972380D01*
X64753809Y-57972380D01*
X64849047Y-58020000D01*
X64896666Y-58067619D01*
X64944285Y-58162857D01*
X64944285Y-58305714D01*
X64896666Y-58400952D01*
X64849047Y-58448571D01*
X64753809Y-58496190D01*
X64372857Y-58496190D01*
X65896666Y-58972380D02*
X65325238Y-58972380D01*
X65610952Y-58972380D02*
X65610952Y-57972380D01*
X65515714Y-58115238D01*
X65420476Y-58210476D01*
X65325238Y-58258095D01*
%TO.C,U1*%
X91244761Y-119892380D02*
X90768571Y-119892380D01*
X90768571Y-118892380D01*
X91482857Y-118892380D02*
X92149523Y-118892380D01*
X91720952Y-119892380D01*
X92673333Y-119320952D02*
X92578095Y-119273333D01*
X92530476Y-119225714D01*
X92482857Y-119130476D01*
X92482857Y-119082857D01*
X92530476Y-118987619D01*
X92578095Y-118940000D01*
X92673333Y-118892380D01*
X92863809Y-118892380D01*
X92959047Y-118940000D01*
X93006666Y-118987619D01*
X93054285Y-119082857D01*
X93054285Y-119130476D01*
X93006666Y-119225714D01*
X92959047Y-119273333D01*
X92863809Y-119320952D01*
X92673333Y-119320952D01*
X92578095Y-119368571D01*
X92530476Y-119416190D01*
X92482857Y-119511428D01*
X92482857Y-119701904D01*
X92530476Y-119797142D01*
X92578095Y-119844761D01*
X92673333Y-119892380D01*
X92863809Y-119892380D01*
X92959047Y-119844761D01*
X93006666Y-119797142D01*
X93054285Y-119701904D01*
X93054285Y-119511428D01*
X93006666Y-119416190D01*
X92959047Y-119368571D01*
X92863809Y-119320952D01*
X93673333Y-118892380D02*
X93768571Y-118892380D01*
X93863809Y-118940000D01*
X93911428Y-118987619D01*
X93959047Y-119082857D01*
X94006666Y-119273333D01*
X94006666Y-119511428D01*
X93959047Y-119701904D01*
X93911428Y-119797142D01*
X93863809Y-119844761D01*
X93768571Y-119892380D01*
X93673333Y-119892380D01*
X93578095Y-119844761D01*
X93530476Y-119797142D01*
X93482857Y-119701904D01*
X93435238Y-119511428D01*
X93435238Y-119273333D01*
X93482857Y-119082857D01*
X93530476Y-118987619D01*
X93578095Y-118940000D01*
X93673333Y-118892380D01*
X94482857Y-119892380D02*
X94673333Y-119892380D01*
X94768571Y-119844761D01*
X94816190Y-119797142D01*
X94911428Y-119654285D01*
X94959047Y-119463809D01*
X94959047Y-119082857D01*
X94911428Y-118987619D01*
X94863809Y-118940000D01*
X94768571Y-118892380D01*
X94578095Y-118892380D01*
X94482857Y-118940000D01*
X94435238Y-118987619D01*
X94387619Y-119082857D01*
X94387619Y-119320952D01*
X94435238Y-119416190D01*
X94482857Y-119463809D01*
X94578095Y-119511428D01*
X94768571Y-119511428D01*
X94863809Y-119463809D01*
X94911428Y-119416190D01*
X94959047Y-119320952D01*
X92403095Y-106592380D02*
X92403095Y-107401904D01*
X92450714Y-107497142D01*
X92498333Y-107544761D01*
X92593571Y-107592380D01*
X92784047Y-107592380D01*
X92879285Y-107544761D01*
X92926904Y-107497142D01*
X92974523Y-107401904D01*
X92974523Y-106592380D01*
X93974523Y-107592380D02*
X93403095Y-107592380D01*
X93688809Y-107592380D02*
X93688809Y-106592380D01*
X93593571Y-106735238D01*
X93498333Y-106830476D01*
X93403095Y-106878095D01*
%TO.C,U2*%
X122286666Y-116647619D02*
X122334285Y-116600000D01*
X122429523Y-116552380D01*
X122667619Y-116552380D01*
X122762857Y-116600000D01*
X122810476Y-116647619D01*
X122858095Y-116742857D01*
X122858095Y-116838095D01*
X122810476Y-116980952D01*
X122239047Y-117552380D01*
X122858095Y-117552380D01*
X123715238Y-116885714D02*
X123715238Y-117552380D01*
X123477142Y-116504761D02*
X123239047Y-117219047D01*
X123858095Y-117219047D01*
X124715238Y-117552380D02*
X124239047Y-117552380D01*
X124239047Y-116552380D01*
X125620000Y-117457142D02*
X125572380Y-117504761D01*
X125429523Y-117552380D01*
X125334285Y-117552380D01*
X125191428Y-117504761D01*
X125096190Y-117409523D01*
X125048571Y-117314285D01*
X125000952Y-117123809D01*
X125000952Y-116980952D01*
X125048571Y-116790476D01*
X125096190Y-116695238D01*
X125191428Y-116600000D01*
X125334285Y-116552380D01*
X125429523Y-116552380D01*
X125572380Y-116600000D01*
X125620000Y-116647619D01*
X126000952Y-116647619D02*
X126048571Y-116600000D01*
X126143809Y-116552380D01*
X126381904Y-116552380D01*
X126477142Y-116600000D01*
X126524761Y-116647619D01*
X126572380Y-116742857D01*
X126572380Y-116838095D01*
X126524761Y-116980952D01*
X125953333Y-117552380D01*
X126572380Y-117552380D01*
X127477142Y-116552380D02*
X127000952Y-116552380D01*
X126953333Y-117028571D01*
X127000952Y-116980952D01*
X127096190Y-116933333D01*
X127334285Y-116933333D01*
X127429523Y-116980952D01*
X127477142Y-117028571D01*
X127524761Y-117123809D01*
X127524761Y-117361904D01*
X127477142Y-117457142D01*
X127429523Y-117504761D01*
X127334285Y-117552380D01*
X127096190Y-117552380D01*
X127000952Y-117504761D01*
X126953333Y-117457142D01*
X128381904Y-116552380D02*
X128191428Y-116552380D01*
X128096190Y-116600000D01*
X128048571Y-116647619D01*
X127953333Y-116790476D01*
X127905714Y-116980952D01*
X127905714Y-117361904D01*
X127953333Y-117457142D01*
X128000952Y-117504761D01*
X128096190Y-117552380D01*
X128286666Y-117552380D01*
X128381904Y-117504761D01*
X128429523Y-117457142D01*
X128477142Y-117361904D01*
X128477142Y-117123809D01*
X128429523Y-117028571D01*
X128381904Y-116980952D01*
X128286666Y-116933333D01*
X128096190Y-116933333D01*
X128000952Y-116980952D01*
X127953333Y-117028571D01*
X127905714Y-117123809D01*
X128905714Y-117171428D02*
X129667619Y-117171428D01*
X130143809Y-117552380D02*
X130143809Y-116552380D01*
X130381904Y-117647619D02*
X131143809Y-117647619D01*
X131381904Y-117552380D02*
X131381904Y-116552380D01*
X131762857Y-116552380D01*
X131858095Y-116600000D01*
X131905714Y-116647619D01*
X131953333Y-116742857D01*
X131953333Y-116885714D01*
X131905714Y-116980952D01*
X131858095Y-117028571D01*
X131762857Y-117076190D01*
X131381904Y-117076190D01*
X126358095Y-110412380D02*
X126358095Y-111221904D01*
X126405714Y-111317142D01*
X126453333Y-111364761D01*
X126548571Y-111412380D01*
X126739047Y-111412380D01*
X126834285Y-111364761D01*
X126881904Y-111317142D01*
X126929523Y-111221904D01*
X126929523Y-110412380D01*
X127358095Y-110507619D02*
X127405714Y-110460000D01*
X127500952Y-110412380D01*
X127739047Y-110412380D01*
X127834285Y-110460000D01*
X127881904Y-110507619D01*
X127929523Y-110602857D01*
X127929523Y-110698095D01*
X127881904Y-110840952D01*
X127310476Y-111412380D01*
X127929523Y-111412380D01*
%TO.C,U3*%
X129826666Y-82305238D02*
X129826666Y-81829047D01*
X130112380Y-82400476D02*
X129112380Y-82067142D01*
X130112380Y-81733809D01*
X129112380Y-81210000D02*
X129112380Y-81114761D01*
X129160000Y-81019523D01*
X129207619Y-80971904D01*
X129302857Y-80924285D01*
X129493333Y-80876666D01*
X129731428Y-80876666D01*
X129921904Y-80924285D01*
X130017142Y-80971904D01*
X130064761Y-81019523D01*
X130112380Y-81114761D01*
X130112380Y-81210000D01*
X130064761Y-81305238D01*
X130017142Y-81352857D01*
X129921904Y-81400476D01*
X129731428Y-81448095D01*
X129493333Y-81448095D01*
X129302857Y-81400476D01*
X129207619Y-81352857D01*
X129160000Y-81305238D01*
X129112380Y-81210000D01*
X129112380Y-80257619D02*
X129112380Y-80162380D01*
X129160000Y-80067142D01*
X129207619Y-80019523D01*
X129302857Y-79971904D01*
X129493333Y-79924285D01*
X129731428Y-79924285D01*
X129921904Y-79971904D01*
X130017142Y-80019523D01*
X130064761Y-80067142D01*
X130112380Y-80162380D01*
X130112380Y-80257619D01*
X130064761Y-80352857D01*
X130017142Y-80400476D01*
X129921904Y-80448095D01*
X129731428Y-80495714D01*
X129493333Y-80495714D01*
X129302857Y-80448095D01*
X129207619Y-80400476D01*
X129160000Y-80352857D01*
X129112380Y-80257619D01*
X129112380Y-79305238D02*
X129112380Y-79210000D01*
X129160000Y-79114761D01*
X129207619Y-79067142D01*
X129302857Y-79019523D01*
X129493333Y-78971904D01*
X129731428Y-78971904D01*
X129921904Y-79019523D01*
X130017142Y-79067142D01*
X130064761Y-79114761D01*
X130112380Y-79210000D01*
X130112380Y-79305238D01*
X130064761Y-79400476D01*
X130017142Y-79448095D01*
X129921904Y-79495714D01*
X129731428Y-79543333D01*
X129493333Y-79543333D01*
X129302857Y-79495714D01*
X129207619Y-79448095D01*
X129160000Y-79400476D01*
X129112380Y-79305238D01*
X129112380Y-78352857D02*
X129112380Y-78257619D01*
X129160000Y-78162380D01*
X129207619Y-78114761D01*
X129302857Y-78067142D01*
X129493333Y-78019523D01*
X129731428Y-78019523D01*
X129921904Y-78067142D01*
X130017142Y-78114761D01*
X130064761Y-78162380D01*
X130112380Y-78257619D01*
X130112380Y-78352857D01*
X130064761Y-78448095D01*
X130017142Y-78495714D01*
X129921904Y-78543333D01*
X129731428Y-78590952D01*
X129493333Y-78590952D01*
X129302857Y-78543333D01*
X129207619Y-78495714D01*
X129160000Y-78448095D01*
X129112380Y-78352857D01*
X129112380Y-77400476D02*
X129112380Y-77305238D01*
X129160000Y-77210000D01*
X129207619Y-77162380D01*
X129302857Y-77114761D01*
X129493333Y-77067142D01*
X129731428Y-77067142D01*
X129921904Y-77114761D01*
X130017142Y-77162380D01*
X130064761Y-77210000D01*
X130112380Y-77305238D01*
X130112380Y-77400476D01*
X130064761Y-77495714D01*
X130017142Y-77543333D01*
X129921904Y-77590952D01*
X129731428Y-77638571D01*
X129493333Y-77638571D01*
X129302857Y-77590952D01*
X129207619Y-77543333D01*
X129160000Y-77495714D01*
X129112380Y-77400476D01*
X129112380Y-76162380D02*
X129112380Y-76638571D01*
X129588571Y-76686190D01*
X129540952Y-76638571D01*
X129493333Y-76543333D01*
X129493333Y-76305238D01*
X129540952Y-76210000D01*
X129588571Y-76162380D01*
X129683809Y-76114761D01*
X129921904Y-76114761D01*
X130017142Y-76162380D01*
X130064761Y-76210000D01*
X130112380Y-76305238D01*
X130112380Y-76543333D01*
X130064761Y-76638571D01*
X130017142Y-76686190D01*
X126572380Y-79971904D02*
X127381904Y-79971904D01*
X127477142Y-79924285D01*
X127524761Y-79876666D01*
X127572380Y-79781428D01*
X127572380Y-79590952D01*
X127524761Y-79495714D01*
X127477142Y-79448095D01*
X127381904Y-79400476D01*
X126572380Y-79400476D01*
X126572380Y-79019523D02*
X126572380Y-78400476D01*
X126953333Y-78733809D01*
X126953333Y-78590952D01*
X127000952Y-78495714D01*
X127048571Y-78448095D01*
X127143809Y-78400476D01*
X127381904Y-78400476D01*
X127477142Y-78448095D01*
X127524761Y-78495714D01*
X127572380Y-78590952D01*
X127572380Y-78876666D01*
X127524761Y-78971904D01*
X127477142Y-79019523D01*
%TO.C,U4*%
X142236190Y-69092380D02*
X141664761Y-69092380D01*
X141950476Y-69092380D02*
X141950476Y-68092380D01*
X141855238Y-68235238D01*
X141760000Y-68330476D01*
X141664761Y-68378095D01*
X143188571Y-69092380D02*
X142617142Y-69092380D01*
X142902857Y-69092380D02*
X142902857Y-68092380D01*
X142807619Y-68235238D01*
X142712380Y-68330476D01*
X142617142Y-68378095D01*
X143521904Y-68092380D02*
X144140952Y-68092380D01*
X143807619Y-68473333D01*
X143950476Y-68473333D01*
X144045714Y-68520952D01*
X144093333Y-68568571D01*
X144140952Y-68663809D01*
X144140952Y-68901904D01*
X144093333Y-68997142D01*
X144045714Y-69044761D01*
X143950476Y-69092380D01*
X143664761Y-69092380D01*
X143569523Y-69044761D01*
X143521904Y-68997142D01*
X144617142Y-69092380D02*
X144807619Y-69092380D01*
X144902857Y-69044761D01*
X144950476Y-68997142D01*
X145045714Y-68854285D01*
X145093333Y-68663809D01*
X145093333Y-68282857D01*
X145045714Y-68187619D01*
X144998095Y-68140000D01*
X144902857Y-68092380D01*
X144712380Y-68092380D01*
X144617142Y-68140000D01*
X144569523Y-68187619D01*
X144521904Y-68282857D01*
X144521904Y-68520952D01*
X144569523Y-68616190D01*
X144617142Y-68663809D01*
X144712380Y-68711428D01*
X144902857Y-68711428D01*
X144998095Y-68663809D01*
X145045714Y-68616190D01*
X145093333Y-68520952D01*
X145569523Y-69092380D02*
X145760000Y-69092380D01*
X145855238Y-69044761D01*
X145902857Y-68997142D01*
X145998095Y-68854285D01*
X146045714Y-68663809D01*
X146045714Y-68282857D01*
X145998095Y-68187619D01*
X145950476Y-68140000D01*
X145855238Y-68092380D01*
X145664761Y-68092380D01*
X145569523Y-68140000D01*
X145521904Y-68187619D01*
X145474285Y-68282857D01*
X145474285Y-68520952D01*
X145521904Y-68616190D01*
X145569523Y-68663809D01*
X145664761Y-68711428D01*
X145855238Y-68711428D01*
X145950476Y-68663809D01*
X145998095Y-68616190D01*
X146045714Y-68520952D01*
X146664761Y-68092380D02*
X146760000Y-68092380D01*
X146855238Y-68140000D01*
X146902857Y-68187619D01*
X146950476Y-68282857D01*
X146998095Y-68473333D01*
X146998095Y-68711428D01*
X146950476Y-68901904D01*
X146902857Y-68997142D01*
X146855238Y-69044761D01*
X146760000Y-69092380D01*
X146664761Y-69092380D01*
X146569523Y-69044761D01*
X146521904Y-68997142D01*
X146474285Y-68901904D01*
X146426666Y-68711428D01*
X146426666Y-68473333D01*
X146474285Y-68282857D01*
X146521904Y-68187619D01*
X146569523Y-68140000D01*
X146664761Y-68092380D01*
X147617142Y-68092380D02*
X147712380Y-68092380D01*
X147807619Y-68140000D01*
X147855238Y-68187619D01*
X147902857Y-68282857D01*
X147950476Y-68473333D01*
X147950476Y-68711428D01*
X147902857Y-68901904D01*
X147855238Y-68997142D01*
X147807619Y-69044761D01*
X147712380Y-69092380D01*
X147617142Y-69092380D01*
X147521904Y-69044761D01*
X147474285Y-68997142D01*
X147426666Y-68901904D01*
X147379047Y-68711428D01*
X147379047Y-68473333D01*
X147426666Y-68282857D01*
X147474285Y-68187619D01*
X147521904Y-68140000D01*
X147617142Y-68092380D01*
X148902857Y-69092380D02*
X148331428Y-69092380D01*
X148617142Y-69092380D02*
X148617142Y-68092380D01*
X148521904Y-68235238D01*
X148426666Y-68330476D01*
X148331428Y-68378095D01*
X149521904Y-68092380D02*
X149617142Y-68092380D01*
X149712380Y-68140000D01*
X149760000Y-68187619D01*
X149807619Y-68282857D01*
X149855238Y-68473333D01*
X149855238Y-68711428D01*
X149807619Y-68901904D01*
X149760000Y-68997142D01*
X149712380Y-69044761D01*
X149617142Y-69092380D01*
X149521904Y-69092380D01*
X149426666Y-69044761D01*
X149379047Y-68997142D01*
X149331428Y-68901904D01*
X149283809Y-68711428D01*
X149283809Y-68473333D01*
X149331428Y-68282857D01*
X149379047Y-68187619D01*
X149426666Y-68140000D01*
X149521904Y-68092380D01*
X145898095Y-69992380D02*
X145898095Y-70801904D01*
X145945714Y-70897142D01*
X145993333Y-70944761D01*
X146088571Y-70992380D01*
X146279047Y-70992380D01*
X146374285Y-70944761D01*
X146421904Y-70897142D01*
X146469523Y-70801904D01*
X146469523Y-69992380D01*
X147374285Y-70325714D02*
X147374285Y-70992380D01*
X147136190Y-69944761D02*
X146898095Y-70659047D01*
X147517142Y-70659047D01*
%TO.C,J1*%
X66967142Y-107058095D02*
X67014761Y-107105714D01*
X67062380Y-107248571D01*
X67062380Y-107343809D01*
X67014761Y-107486666D01*
X66919523Y-107581904D01*
X66824285Y-107629523D01*
X66633809Y-107677142D01*
X66490952Y-107677142D01*
X66300476Y-107629523D01*
X66205238Y-107581904D01*
X66110000Y-107486666D01*
X66062380Y-107343809D01*
X66062380Y-107248571D01*
X66110000Y-107105714D01*
X66157619Y-107058095D01*
X67062380Y-106486666D02*
X67014761Y-106581904D01*
X66967142Y-106629523D01*
X66871904Y-106677142D01*
X66586190Y-106677142D01*
X66490952Y-106629523D01*
X66443333Y-106581904D01*
X66395714Y-106486666D01*
X66395714Y-106343809D01*
X66443333Y-106248571D01*
X66490952Y-106200952D01*
X66586190Y-106153333D01*
X66871904Y-106153333D01*
X66967142Y-106200952D01*
X67014761Y-106248571D01*
X67062380Y-106343809D01*
X67062380Y-106486666D01*
X66395714Y-105724761D02*
X67062380Y-105724761D01*
X66490952Y-105724761D02*
X66443333Y-105677142D01*
X66395714Y-105581904D01*
X66395714Y-105439047D01*
X66443333Y-105343809D01*
X66538571Y-105296190D01*
X67062380Y-105296190D01*
X66395714Y-104820000D02*
X67062380Y-104820000D01*
X66490952Y-104820000D02*
X66443333Y-104772380D01*
X66395714Y-104677142D01*
X66395714Y-104534285D01*
X66443333Y-104439047D01*
X66538571Y-104391428D01*
X67062380Y-104391428D01*
X67157619Y-104153333D02*
X67157619Y-103391428D01*
X66062380Y-102962857D02*
X66062380Y-102867619D01*
X66110000Y-102772380D01*
X66157619Y-102724761D01*
X66252857Y-102677142D01*
X66443333Y-102629523D01*
X66681428Y-102629523D01*
X66871904Y-102677142D01*
X66967142Y-102724761D01*
X67014761Y-102772380D01*
X67062380Y-102867619D01*
X67062380Y-102962857D01*
X67014761Y-103058095D01*
X66967142Y-103105714D01*
X66871904Y-103153333D01*
X66681428Y-103200952D01*
X66443333Y-103200952D01*
X66252857Y-103153333D01*
X66157619Y-103105714D01*
X66110000Y-103058095D01*
X66062380Y-102962857D01*
X67062380Y-101677142D02*
X67062380Y-102248571D01*
X67062380Y-101962857D02*
X66062380Y-101962857D01*
X66205238Y-102058095D01*
X66300476Y-102153333D01*
X66348095Y-102248571D01*
X67062380Y-101343809D02*
X66395714Y-100820000D01*
X66395714Y-101343809D02*
X67062380Y-100820000D01*
X66062380Y-100248571D02*
X66062380Y-100153333D01*
X66110000Y-100058095D01*
X66157619Y-100010476D01*
X66252857Y-99962857D01*
X66443333Y-99915238D01*
X66681428Y-99915238D01*
X66871904Y-99962857D01*
X66967142Y-100010476D01*
X67014761Y-100058095D01*
X67062380Y-100153333D01*
X67062380Y-100248571D01*
X67014761Y-100343809D01*
X66967142Y-100391428D01*
X66871904Y-100439047D01*
X66681428Y-100486666D01*
X66443333Y-100486666D01*
X66252857Y-100439047D01*
X66157619Y-100391428D01*
X66110000Y-100343809D01*
X66062380Y-100248571D01*
X66062380Y-99581904D02*
X66062380Y-98962857D01*
X66443333Y-99296190D01*
X66443333Y-99153333D01*
X66490952Y-99058095D01*
X66538571Y-99010476D01*
X66633809Y-98962857D01*
X66871904Y-98962857D01*
X66967142Y-99010476D01*
X67014761Y-99058095D01*
X67062380Y-99153333D01*
X67062380Y-99439047D01*
X67014761Y-99534285D01*
X66967142Y-99581904D01*
X63602380Y-103653333D02*
X64316666Y-103653333D01*
X64459523Y-103700952D01*
X64554761Y-103796190D01*
X64602380Y-103939047D01*
X64602380Y-104034285D01*
X64602380Y-102653333D02*
X64602380Y-103224761D01*
X64602380Y-102939047D02*
X63602380Y-102939047D01*
X63745238Y-103034285D01*
X63840476Y-103129523D01*
X63888095Y-103224761D01*
%TO.C,D1*%
X80557142Y-63503571D02*
X80700000Y-63551190D01*
X80747619Y-63598809D01*
X80795238Y-63694047D01*
X80795238Y-63836904D01*
X80747619Y-63932142D01*
X80700000Y-63979761D01*
X80604761Y-64027380D01*
X80223809Y-64027380D01*
X80223809Y-63027380D01*
X80557142Y-63027380D01*
X80652380Y-63075000D01*
X80700000Y-63122619D01*
X80747619Y-63217857D01*
X80747619Y-63313095D01*
X80700000Y-63408333D01*
X80652380Y-63455952D01*
X80557142Y-63503571D01*
X80223809Y-63503571D01*
X81652380Y-63360714D02*
X81652380Y-64027380D01*
X81414285Y-62979761D02*
X81176190Y-63694047D01*
X81795238Y-63694047D01*
X82366666Y-63027380D02*
X82461904Y-63027380D01*
X82557142Y-63075000D01*
X82604761Y-63122619D01*
X82652380Y-63217857D01*
X82700000Y-63408333D01*
X82700000Y-63646428D01*
X82652380Y-63836904D01*
X82604761Y-63932142D01*
X82557142Y-63979761D01*
X82461904Y-64027380D01*
X82366666Y-64027380D01*
X82271428Y-63979761D01*
X82223809Y-63932142D01*
X82176190Y-63836904D01*
X82128571Y-63646428D01*
X82128571Y-63408333D01*
X82176190Y-63217857D01*
X82223809Y-63122619D01*
X82271428Y-63075000D01*
X82366666Y-63027380D01*
X83700000Y-63932142D02*
X83652380Y-63979761D01*
X83509523Y-64027380D01*
X83414285Y-64027380D01*
X83271428Y-63979761D01*
X83176190Y-63884523D01*
X83128571Y-63789285D01*
X83080952Y-63598809D01*
X83080952Y-63455952D01*
X83128571Y-63265476D01*
X83176190Y-63170238D01*
X83271428Y-63075000D01*
X83414285Y-63027380D01*
X83509523Y-63027380D01*
X83652380Y-63075000D01*
X83700000Y-63122619D01*
X84652380Y-64027380D02*
X84080952Y-64027380D01*
X84366666Y-64027380D02*
X84366666Y-63027380D01*
X84271428Y-63170238D01*
X84176190Y-63265476D01*
X84080952Y-63313095D01*
X85557142Y-63027380D02*
X85080952Y-63027380D01*
X85033333Y-63503571D01*
X85080952Y-63455952D01*
X85176190Y-63408333D01*
X85414285Y-63408333D01*
X85509523Y-63455952D01*
X85557142Y-63503571D01*
X85604761Y-63598809D01*
X85604761Y-63836904D01*
X85557142Y-63932142D01*
X85509523Y-63979761D01*
X85414285Y-64027380D01*
X85176190Y-64027380D01*
X85080952Y-63979761D01*
X85033333Y-63932142D01*
X86223809Y-63027380D02*
X86319047Y-63027380D01*
X86414285Y-63075000D01*
X86461904Y-63122619D01*
X86509523Y-63217857D01*
X86557142Y-63408333D01*
X86557142Y-63646428D01*
X86509523Y-63836904D01*
X86461904Y-63932142D01*
X86414285Y-63979761D01*
X86319047Y-64027380D01*
X86223809Y-64027380D01*
X86128571Y-63979761D01*
X86080952Y-63932142D01*
X86033333Y-63836904D01*
X85985714Y-63646428D01*
X85985714Y-63408333D01*
X86033333Y-63217857D01*
X86080952Y-63122619D01*
X86128571Y-63075000D01*
X86223809Y-63027380D01*
X87176190Y-63027380D02*
X87271428Y-63027380D01*
X87366666Y-63075000D01*
X87414285Y-63122619D01*
X87461904Y-63217857D01*
X87509523Y-63408333D01*
X87509523Y-63646428D01*
X87461904Y-63836904D01*
X87414285Y-63932142D01*
X87366666Y-63979761D01*
X87271428Y-64027380D01*
X87176190Y-64027380D01*
X87080952Y-63979761D01*
X87033333Y-63932142D01*
X86985714Y-63836904D01*
X86938095Y-63646428D01*
X86938095Y-63408333D01*
X86985714Y-63217857D01*
X87033333Y-63122619D01*
X87080952Y-63075000D01*
X87176190Y-63027380D01*
X88461904Y-63075000D02*
X88366666Y-63027380D01*
X88223809Y-63027380D01*
X88080952Y-63075000D01*
X87985714Y-63170238D01*
X87938095Y-63265476D01*
X87890476Y-63455952D01*
X87890476Y-63598809D01*
X87938095Y-63789285D01*
X87985714Y-63884523D01*
X88080952Y-63979761D01*
X88223809Y-64027380D01*
X88319047Y-64027380D01*
X88461904Y-63979761D01*
X88509523Y-63932142D01*
X88509523Y-63598809D01*
X88319047Y-63598809D01*
X88938095Y-63503571D02*
X89271428Y-63503571D01*
X89414285Y-64027380D02*
X88938095Y-64027380D01*
X88938095Y-63027380D01*
X89414285Y-63027380D01*
X90271428Y-63360714D02*
X90271428Y-64027380D01*
X90033333Y-62979761D02*
X89795238Y-63694047D01*
X90414285Y-63694047D01*
X90938095Y-63455952D02*
X90842857Y-63408333D01*
X90795238Y-63360714D01*
X90747619Y-63265476D01*
X90747619Y-63217857D01*
X90795238Y-63122619D01*
X90842857Y-63075000D01*
X90938095Y-63027380D01*
X91128571Y-63027380D01*
X91223809Y-63075000D01*
X91271428Y-63122619D01*
X91319047Y-63217857D01*
X91319047Y-63265476D01*
X91271428Y-63360714D01*
X91223809Y-63408333D01*
X91128571Y-63455952D01*
X90938095Y-63455952D01*
X90842857Y-63503571D01*
X90795238Y-63551190D01*
X90747619Y-63646428D01*
X90747619Y-63836904D01*
X90795238Y-63932142D01*
X90842857Y-63979761D01*
X90938095Y-64027380D01*
X91128571Y-64027380D01*
X91223809Y-63979761D01*
X91271428Y-63932142D01*
X91319047Y-63836904D01*
X91319047Y-63646428D01*
X91271428Y-63551190D01*
X91223809Y-63503571D01*
X91128571Y-63455952D01*
X92223809Y-63027380D02*
X91747619Y-63027380D01*
X91700000Y-63503571D01*
X91747619Y-63455952D01*
X91842857Y-63408333D01*
X92080952Y-63408333D01*
X92176190Y-63455952D01*
X92223809Y-63503571D01*
X92271428Y-63598809D01*
X92271428Y-63836904D01*
X92223809Y-63932142D01*
X92176190Y-63979761D01*
X92080952Y-64027380D01*
X91842857Y-64027380D01*
X91747619Y-63979761D01*
X91700000Y-63932142D01*
X93223809Y-64027380D02*
X92652380Y-64027380D01*
X92938095Y-64027380D02*
X92938095Y-63027380D01*
X92842857Y-63170238D01*
X92747619Y-63265476D01*
X92652380Y-63313095D01*
X86261904Y-58202380D02*
X86261904Y-57202380D01*
X86500000Y-57202380D01*
X86642857Y-57250000D01*
X86738095Y-57345238D01*
X86785714Y-57440476D01*
X86833333Y-57630952D01*
X86833333Y-57773809D01*
X86785714Y-57964285D01*
X86738095Y-58059523D01*
X86642857Y-58154761D01*
X86500000Y-58202380D01*
X86261904Y-58202380D01*
X87785714Y-58202380D02*
X87214285Y-58202380D01*
X87500000Y-58202380D02*
X87500000Y-57202380D01*
X87404761Y-57345238D01*
X87309523Y-57440476D01*
X87214285Y-57488095D01*
%TD*%
M02*
