M48
; DRILL file {KiCad (5.1.8)-1} date 03/14/21 10:01:37
; FORMAT={-:-/ absolute / inch / decimal}
; #@! TF.CreationDate,2021-03-14T10:01:37+01:00
; #@! TF.GenerationSoftware,Kicad,Pcbnew,(5.1.8)-1
; #@! TF.FileFunction,Plated,1,2,PTH
FMAT,2
INCH
T1C0.0236
T2C0.0276
T3C0.0315
T4C0.0394
T5C0.0472
T6C0.0512
T7C0.0591
T8C0.0984
%
G90
G05
T1
X5.8047Y-3.6685
X5.9047Y-3.6685
X4.4547Y-3.5185
X4.5547Y-3.5185
X4.8547Y-4.3185
X4.8547Y-4.4185
X4.8547Y-4.5185
X5.1547Y-4.2185
X5.1547Y-4.3185
X5.1547Y-4.4185
X5.1547Y-4.5185
X4.4547Y-3.9185
X4.5547Y-3.9185
X3.9047Y-3.0685
X4.0047Y-3.0685
T2
X5.3547Y-2.3685
T3
X5.4047Y-4.4685
X5.7047Y-4.4685
X5.4047Y-4.2685
X5.7047Y-4.2685
X5.5047Y-2.1185
X5.6047Y-2.1185
X4.3134Y-4.2667
X4.6134Y-4.2667
X4.0047Y-4.5685
X4.1031Y-4.5685
X3.2047Y-3.0685
X3.5047Y-3.0685
X4.5547Y-2.1185
X4.5547Y-2.4185
X5.6043Y-3.065
X5.7043Y-3.065
X5.8043Y-3.065
X5.9043Y-3.065
X5.5547Y-3.4185
X5.5547Y-3.7185
X4.8547Y-4.2185
X3.9547Y-2.3685
X4.25Y-2.3685
X5.9047Y-3.3685
X4.2547Y-2.8685
X4.2547Y-2.9685
X4.2547Y-3.0685
X4.7547Y-2.3685
X4.7547Y-2.4685
X4.7547Y-2.5685
X4.7547Y-2.6685
X4.7547Y-2.7685
X4.7547Y-2.8685
X4.7547Y-2.9685
X4.7547Y-3.0685
X4.7547Y-3.1685
X4.7547Y-3.2685
X4.7547Y-3.3685
X4.7547Y-3.4685
X4.7547Y-3.5685
X4.7547Y-3.6685
X4.7547Y-3.7685
X5.3547Y-2.4685
X5.3547Y-2.5685
X5.3547Y-2.6685
X5.3547Y-2.7685
X5.3547Y-2.8685
X5.3547Y-2.9685
X5.3547Y-3.0685
X5.3547Y-3.1685
X5.3547Y-3.2685
X5.3547Y-3.3685
X5.3547Y-3.4685
X5.3547Y-3.5685
X5.3547Y-3.6685
X5.3547Y-3.7685
X3.1642Y-2.7685
X3.7547Y-2.7685
X4.5547Y-2.6185
X4.5547Y-2.9185
X4.3134Y-4.4262
X4.6134Y-4.4262
T4
X3.3051Y-2.1654
X3.3051Y-2.3858
X3.5256Y-2.1654
X3.5256Y-2.3858
X3.5547Y-4.5685
X3.6547Y-4.5685
X3.7547Y-4.5685
T5
X2.8547Y-3.6685
X2.8547Y-4.5543
T6
X2.3996Y-3.8677
X2.3996Y-4.0677
X2.3996Y-4.2677
T7
X2.1547Y-2.4811
X2.1547Y-3.2685
X2.9421Y-2.678
X2.9421Y-3.0717
T8
X2.0472Y-2.0846
X2.0453Y-4.6053
X5.9852Y-2.0856
X5.9852Y-4.6073
T0
M30
