%TF.GenerationSoftware,KiCad,Pcbnew,(5.1.8)-1*%
%TF.CreationDate,2021-03-14T10:01:34+01:00*%
%TF.ProjectId,Telerupteur_Emetteur_RF433_V2,54656c65-7275-4707-9465-75725f456d65,rev?*%
%TF.SameCoordinates,Original*%
%TF.FileFunction,Copper,L1,Top*%
%TF.FilePolarity,Positive*%
%FSLAX46Y46*%
G04 Gerber Fmt 4.6, Leading zero omitted, Abs format (unit mm)*
G04 Created by KiCad (PCBNEW (5.1.8)-1) date 2021-03-14 10:01:34*
%MOMM*%
%LPD*%
G01*
G04 APERTURE LIST*
%TA.AperFunction,Profile*%
%ADD10C,0.050000*%
%TD*%
%TA.AperFunction,NonConductor*%
%ADD11C,0.300000*%
%TD*%
%TA.AperFunction,Profile*%
%ADD12C,0.100000*%
%TD*%
%TA.AperFunction,ComponentPad*%
%ADD13C,5.000000*%
%TD*%
%TA.AperFunction,ComponentPad*%
%ADD14R,2.000000X2.000000*%
%TD*%
%TA.AperFunction,ComponentPad*%
%ADD15C,2.000000*%
%TD*%
%TA.AperFunction,ComponentPad*%
%ADD16C,1.600000*%
%TD*%
%TA.AperFunction,ComponentPad*%
%ADD17R,1.600000X1.600000*%
%TD*%
%TA.AperFunction,ComponentPad*%
%ADD18O,3.500000X2.500000*%
%TD*%
%TA.AperFunction,ComponentPad*%
%ADD19R,1.760000X1.760000*%
%TD*%
%TA.AperFunction,ComponentPad*%
%ADD20O,1.760000X2.400000*%
%TD*%
%TA.AperFunction,ComponentPad*%
%ADD21O,2.400000X1.760000*%
%TD*%
%TA.AperFunction,ComponentPad*%
%ADD22C,3.750000*%
%TD*%
%TA.AperFunction,ComponentPad*%
%ADD23R,1.900000X2.500000*%
%TD*%
%TA.AperFunction,ComponentPad*%
%ADD24O,1.900000X2.500000*%
%TD*%
%TA.AperFunction,ComponentPad*%
%ADD25O,2.000000X1.600000*%
%TD*%
%TA.AperFunction,ComponentPad*%
%ADD26R,2.500000X1.700000*%
%TD*%
%TA.AperFunction,ComponentPad*%
%ADD27O,2.500000X1.700000*%
%TD*%
%TA.AperFunction,ComponentPad*%
%ADD28C,1.760000*%
%TD*%
%TA.AperFunction,ComponentPad*%
%ADD29R,2.600000X2.600000*%
%TD*%
%TA.AperFunction,ComponentPad*%
%ADD30C,2.600000*%
%TD*%
%TA.AperFunction,ComponentPad*%
%ADD31C,2.500000*%
%TD*%
%TA.AperFunction,ComponentPad*%
%ADD32R,2.500000X2.500000*%
%TD*%
%TA.AperFunction,Conductor*%
%ADD33C,0.500000*%
%TD*%
G04 APERTURE END LIST*
D10*
X50666666Y-49950000D02*
G75*
G03*
X50666666Y-49950000I-1666666J0D01*
G01*
X46500000Y-49950000D02*
X51500000Y-49950000D01*
X49000000Y-47450000D02*
X49000000Y-52450000D01*
D11*
X119862857Y-117758571D02*
X120720000Y-117758571D01*
X120291428Y-119258571D02*
X120291428Y-117758571D01*
X121791428Y-119187142D02*
X121648571Y-119258571D01*
X121362857Y-119258571D01*
X121220000Y-119187142D01*
X121148571Y-119044285D01*
X121148571Y-118472857D01*
X121220000Y-118330000D01*
X121362857Y-118258571D01*
X121648571Y-118258571D01*
X121791428Y-118330000D01*
X121862857Y-118472857D01*
X121862857Y-118615714D01*
X121148571Y-118758571D01*
X122720000Y-119258571D02*
X122577142Y-119187142D01*
X122505714Y-119044285D01*
X122505714Y-117758571D01*
X123862857Y-119187142D02*
X123720000Y-119258571D01*
X123434285Y-119258571D01*
X123291428Y-119187142D01*
X123220000Y-119044285D01*
X123220000Y-118472857D01*
X123291428Y-118330000D01*
X123434285Y-118258571D01*
X123720000Y-118258571D01*
X123862857Y-118330000D01*
X123934285Y-118472857D01*
X123934285Y-118615714D01*
X123220000Y-118758571D01*
X124577142Y-119258571D02*
X124577142Y-118258571D01*
X124577142Y-118544285D02*
X124648571Y-118401428D01*
X124720000Y-118330000D01*
X124862857Y-118258571D01*
X125005714Y-118258571D01*
X126148571Y-118258571D02*
X126148571Y-119258571D01*
X125505714Y-118258571D02*
X125505714Y-119044285D01*
X125577142Y-119187142D01*
X125720000Y-119258571D01*
X125934285Y-119258571D01*
X126077142Y-119187142D01*
X126148571Y-119115714D01*
X126862857Y-118258571D02*
X126862857Y-119758571D01*
X126862857Y-118330000D02*
X127005714Y-118258571D01*
X127291428Y-118258571D01*
X127434285Y-118330000D01*
X127505714Y-118401428D01*
X127577142Y-118544285D01*
X127577142Y-118972857D01*
X127505714Y-119115714D01*
X127434285Y-119187142D01*
X127291428Y-119258571D01*
X127005714Y-119258571D01*
X126862857Y-119187142D01*
X128005714Y-118258571D02*
X128577142Y-118258571D01*
X128220000Y-117758571D02*
X128220000Y-119044285D01*
X128291428Y-119187142D01*
X128434285Y-119258571D01*
X128577142Y-119258571D01*
X129648571Y-119187142D02*
X129505714Y-119258571D01*
X129220000Y-119258571D01*
X129077142Y-119187142D01*
X129005714Y-119044285D01*
X129005714Y-118472857D01*
X129077142Y-118330000D01*
X129220000Y-118258571D01*
X129505714Y-118258571D01*
X129648571Y-118330000D01*
X129720000Y-118472857D01*
X129720000Y-118615714D01*
X129005714Y-118758571D01*
X131005714Y-118258571D02*
X131005714Y-119258571D01*
X130362857Y-118258571D02*
X130362857Y-119044285D01*
X130434285Y-119187142D01*
X130577142Y-119258571D01*
X130791428Y-119258571D01*
X130934285Y-119187142D01*
X131005714Y-119115714D01*
X131720000Y-119258571D02*
X131720000Y-118258571D01*
X131720000Y-118544285D02*
X131791428Y-118401428D01*
X131862857Y-118330000D01*
X132005714Y-118258571D01*
X132148571Y-118258571D01*
X132291428Y-119401428D02*
X133434285Y-119401428D01*
X133791428Y-118472857D02*
X134291428Y-118472857D01*
X134505714Y-119258571D02*
X133791428Y-119258571D01*
X133791428Y-117758571D01*
X134505714Y-117758571D01*
X135148571Y-119258571D02*
X135148571Y-118258571D01*
X135148571Y-118401428D02*
X135220000Y-118330000D01*
X135362857Y-118258571D01*
X135577142Y-118258571D01*
X135720000Y-118330000D01*
X135791428Y-118472857D01*
X135791428Y-119258571D01*
X135791428Y-118472857D02*
X135862857Y-118330000D01*
X136005714Y-118258571D01*
X136220000Y-118258571D01*
X136362857Y-118330000D01*
X136434285Y-118472857D01*
X136434285Y-119258571D01*
X137720000Y-119187142D02*
X137577142Y-119258571D01*
X137291428Y-119258571D01*
X137148571Y-119187142D01*
X137077142Y-119044285D01*
X137077142Y-118472857D01*
X137148571Y-118330000D01*
X137291428Y-118258571D01*
X137577142Y-118258571D01*
X137720000Y-118330000D01*
X137791428Y-118472857D01*
X137791428Y-118615714D01*
X137077142Y-118758571D01*
X138220000Y-118258571D02*
X138791428Y-118258571D01*
X138434285Y-117758571D02*
X138434285Y-119044285D01*
X138505714Y-119187142D01*
X138648571Y-119258571D01*
X138791428Y-119258571D01*
X139077142Y-118258571D02*
X139648571Y-118258571D01*
X139291428Y-117758571D02*
X139291428Y-119044285D01*
X139362857Y-119187142D01*
X139505714Y-119258571D01*
X139648571Y-119258571D01*
X140720000Y-119187142D02*
X140577142Y-119258571D01*
X140291428Y-119258571D01*
X140148571Y-119187142D01*
X140077142Y-119044285D01*
X140077142Y-118472857D01*
X140148571Y-118330000D01*
X140291428Y-118258571D01*
X140577142Y-118258571D01*
X140720000Y-118330000D01*
X140791428Y-118472857D01*
X140791428Y-118615714D01*
X140077142Y-118758571D01*
X142077142Y-118258571D02*
X142077142Y-119258571D01*
X141434285Y-118258571D02*
X141434285Y-119044285D01*
X141505714Y-119187142D01*
X141648571Y-119258571D01*
X141862857Y-119258571D01*
X142005714Y-119187142D01*
X142077142Y-119115714D01*
X142791428Y-119258571D02*
X142791428Y-118258571D01*
X142791428Y-118544285D02*
X142862857Y-118401428D01*
X142934285Y-118330000D01*
X143077142Y-118258571D01*
X143220000Y-118258571D01*
X143362857Y-119401428D02*
X144505714Y-119401428D01*
X144648571Y-117758571D02*
X145148571Y-119258571D01*
X145648571Y-117758571D01*
X146077142Y-117901428D02*
X146148571Y-117830000D01*
X146291428Y-117758571D01*
X146648571Y-117758571D01*
X146791428Y-117830000D01*
X146862857Y-117901428D01*
X146934285Y-118044285D01*
X146934285Y-118187142D01*
X146862857Y-118401428D01*
X146005714Y-119258571D01*
X146934285Y-119258571D01*
D12*
X49000000Y-49950000D02*
X155000000Y-49975000D01*
D10*
X49000000Y-120000000D02*
X155000000Y-120000000D01*
X155000000Y-49975000D02*
X155000000Y-120000000D01*
D12*
X49000000Y-49950000D02*
X49000000Y-120000000D01*
D13*
%TO.P,REF4,1*%
%TO.N,N/C*%
X152025000Y-117025000D03*
%TD*%
%TO.P,REF2,1*%
%TO.N,N/C*%
X152025000Y-52975000D03*
%TD*%
%TO.P,REF3,1*%
%TO.N,N/C*%
X51950000Y-116975000D03*
%TD*%
%TO.P,REF1,1*%
%TO.N,N/C*%
X52000000Y-52950000D03*
%TD*%
D14*
%TO.P,C1,1*%
%TO.N,Net-(C1-Pad1)*%
X100450000Y-60160000D03*
D15*
%TO.P,C1,2*%
%TO.N,GND*%
X107950000Y-60160000D03*
%TD*%
%TO.P,C2,1*%
%TO.N,Net-(C1-Pad1)*%
X95370000Y-70320000D03*
%TO.P,C2,2*%
%TO.N,GND*%
X80370000Y-70320000D03*
%TD*%
D16*
%TO.P,C3,1*%
%TO.N,+9V*%
X101720000Y-116040000D03*
%TO.P,C3,2*%
%TO.N,GND*%
X104220000Y-116040000D03*
%TD*%
%TO.P,D2,2*%
%TO.N,Net-(D2-Pad2)*%
X101720000Y-77940000D03*
D17*
%TO.P,D2,1*%
%TO.N,GND*%
X99180000Y-77940000D03*
%TD*%
%TO.P,D3,1*%
%TO.N,Net-(D3-Pad1)*%
X113150000Y-89370000D03*
D16*
%TO.P,D3,2*%
%TO.N,+5V*%
X115690000Y-89370000D03*
%TD*%
%TO.P,D4,2*%
%TO.N,+5V*%
X115690000Y-99530000D03*
D17*
%TO.P,D4,1*%
%TO.N,Net-(D4-Pad1)*%
X113150000Y-99530000D03*
%TD*%
%TO.P,D5,1*%
%TO.N,GND*%
X147440000Y-93180000D03*
D16*
%TO.P,D5,2*%
%TO.N,Net-(D5-Pad2)*%
X149980000Y-93180000D03*
%TD*%
D18*
%TO.P,F1,1*%
%TO.N,Net-(F1-Pad1)*%
X72510000Y-93180000D03*
%TO.P,F1,2*%
%TO.N,Net-(F1-Pad2)*%
X72510000Y-115680000D03*
%TD*%
D19*
%TO.P,J2,1*%
%TO.N,Net-(J2-Pad1)*%
X139820000Y-53810000D03*
D20*
%TO.P,J2,2*%
%TO.N,+9V*%
X142360000Y-53810000D03*
%TD*%
D19*
%TO.P,J3,1*%
%TO.N,Net-(J3-Pad1)*%
X149980000Y-85560000D03*
%TD*%
%TO.P,J4,1*%
%TO.N,GND*%
X108070000Y-72860000D03*
D21*
%TO.P,J4,2*%
%TO.N,Net-(J4-Pad2)*%
X108070000Y-75400000D03*
%TO.P,J4,3*%
%TO.N,Net-(J4-Pad3)*%
X108070000Y-77940000D03*
%TD*%
D15*
%TO.P,R1,1*%
%TO.N,+9V*%
X81400000Y-77940000D03*
%TO.P,R1,2*%
%TO.N,Net-(D2-Pad2)*%
X89020000Y-77940000D03*
%TD*%
%TO.P,R2,2*%
%TO.N,Net-(J4-Pad2)*%
X115690000Y-53810000D03*
%TO.P,R2,1*%
%TO.N,+5V*%
X115690000Y-61430000D03*
%TD*%
%TO.P,R3,1*%
%TO.N,Net-(R3-Pad1)*%
X109560000Y-108375000D03*
%TO.P,R3,2*%
%TO.N,Net-(D3-Pad1)*%
X117180000Y-108375000D03*
%TD*%
%TO.P,R4,2*%
%TO.N,+5V*%
X115690000Y-74130000D03*
%TO.P,R4,1*%
%TO.N,Net-(J4-Pad3)*%
X115690000Y-66510000D03*
%TD*%
%TO.P,R5,1*%
%TO.N,Net-(R5-Pad1)*%
X109560000Y-112425000D03*
%TO.P,R5,2*%
%TO.N,Net-(D4-Pad1)*%
X117180000Y-112425000D03*
%TD*%
%TO.P,R6,1*%
%TO.N,SCL*%
X137280000Y-108420000D03*
%TO.P,R6,2*%
%TO.N,+5V*%
X144900000Y-108420000D03*
%TD*%
%TO.P,R7,2*%
%TO.N,+5V*%
X144900000Y-113500000D03*
%TO.P,R7,1*%
%TO.N,SDA*%
X137280000Y-113500000D03*
%TD*%
%TO.P,R8,2*%
%TO.N,Net-(D5-Pad2)*%
X141090000Y-86830000D03*
%TO.P,R8,1*%
%TO.N,Net-(R8-Pad1)*%
X141090000Y-94450000D03*
%TD*%
D22*
%TO.P,TR1,1*%
%TO.N,Net-(J1-Pad3)*%
X54730000Y-83020000D03*
%TO.P,TR1,5*%
%TO.N,Net-(F1-Pad1)*%
X54730000Y-63020000D03*
%TO.P,TR1,7*%
%TO.N,Net-(D1-Pad4)*%
X74730000Y-68020000D03*
%TO.P,TR1,9*%
%TO.N,Net-(D1-Pad2)*%
X74730000Y-78020000D03*
%TD*%
D23*
%TO.P,U1,1*%
%TO.N,Net-(C1-Pad1)*%
X90290000Y-116040000D03*
D24*
%TO.P,U1,2*%
%TO.N,GND*%
X92830000Y-116040000D03*
%TO.P,U1,3*%
%TO.N,+9V*%
X95370000Y-116040000D03*
%TD*%
D17*
%TO.P,U2,1*%
%TO.N,GND*%
X123310000Y-107150000D03*
D25*
%TO.P,U2,5*%
%TO.N,SDA*%
X130930000Y-114770000D03*
%TO.P,U2,2*%
%TO.N,GND*%
X123310000Y-109690000D03*
%TO.P,U2,6*%
%TO.N,SCL*%
X130930000Y-112230000D03*
%TO.P,U2,3*%
%TO.N,GND*%
X123310000Y-112230000D03*
%TO.P,U2,7*%
X130930000Y-109690000D03*
%TO.P,U2,4*%
X123310000Y-114770000D03*
%TO.P,U2,8*%
%TO.N,+5V*%
X130930000Y-107150000D03*
%TD*%
D26*
%TO.P,U3,1*%
%TO.N,Net-(U3-Pad1)*%
X120770000Y-60160000D03*
D27*
%TO.P,U3,17*%
%TO.N,Net-(U3-Pad17)*%
X136010000Y-93180000D03*
%TO.P,U3,2*%
%TO.N,Net-(U3-Pad2)*%
X120770000Y-62700000D03*
%TO.P,U3,18*%
%TO.N,Net-(U3-Pad18)*%
X136010000Y-90640000D03*
%TO.P,U3,3*%
%TO.N,Net-(U3-Pad3)*%
X120770000Y-65240000D03*
%TO.P,U3,19*%
%TO.N,GND*%
X136010000Y-88100000D03*
%TO.P,U3,4*%
X120770000Y-67780000D03*
%TO.P,U3,20*%
X136010000Y-85560000D03*
%TO.P,U3,5*%
%TO.N,Net-(J4-Pad2)*%
X120770000Y-70320000D03*
%TO.P,U3,21*%
%TO.N,GND*%
X136010000Y-83020000D03*
%TO.P,U3,6*%
%TO.N,Net-(R3-Pad1)*%
X120770000Y-72860000D03*
%TO.P,U3,22*%
%TO.N,GND*%
X136010000Y-80480000D03*
%TO.P,U3,7*%
X120770000Y-75400000D03*
%TO.P,U3,23*%
%TO.N,SDA*%
X136010000Y-77940000D03*
%TO.P,U3,8*%
%TO.N,Net-(J4-Pad3)*%
X120770000Y-77940000D03*
%TO.P,U3,24*%
%TO.N,SCL*%
X136010000Y-75400000D03*
%TO.P,U3,9*%
%TO.N,Net-(R5-Pad1)*%
X120770000Y-80480000D03*
%TO.P,U3,25*%
%TO.N,GND*%
X136010000Y-72860000D03*
%TO.P,U3,10*%
X120770000Y-83020000D03*
%TO.P,U3,26*%
X136010000Y-70320000D03*
%TO.P,U3,11*%
X120770000Y-85560000D03*
%TO.P,U3,27*%
%TO.N,+5V*%
X136010000Y-67780000D03*
%TO.P,U3,12*%
%TO.N,GND*%
X120770000Y-88100000D03*
%TO.P,U3,28*%
%TO.N,Net-(U3-Pad28)*%
X136010000Y-65240000D03*
%TO.P,U3,13*%
%TO.N,Net-(R8-Pad1)*%
X120770000Y-90640000D03*
%TO.P,U3,29*%
%TO.N,GND*%
X136010000Y-62700000D03*
%TO.P,U3,14*%
X120770000Y-93180000D03*
%TO.P,U3,30*%
%TO.N,Net-(J2-Pad1)*%
X136010000Y-60160000D03*
%TO.P,U3,15*%
%TO.N,Data*%
X120770000Y-95720000D03*
%TO.P,U3,16*%
%TO.N,Net-(U3-Pad16)*%
X136010000Y-95720000D03*
%TD*%
D28*
%TO.P,U4,4*%
%TO.N,Net-(J3-Pad1)*%
X149970000Y-77850000D03*
%TO.P,U4,3*%
%TO.N,Data*%
X147430000Y-77850000D03*
%TO.P,U4,2*%
%TO.N,GND*%
X144890000Y-77850000D03*
D19*
%TO.P,U4,1*%
%TO.N,+5V*%
X142350000Y-77850000D03*
%TD*%
D29*
%TO.P,J1,1*%
%TO.N,Net-(F1-Pad2)*%
X60950000Y-108400000D03*
D30*
%TO.P,J1,2*%
%TO.N,Net-(J1-Pad2)*%
X60950000Y-103320000D03*
%TO.P,J1,3*%
%TO.N,Net-(J1-Pad3)*%
X60950000Y-98240000D03*
%TD*%
D31*
%TO.P,D1,3*%
%TO.N,GND*%
X89550000Y-55000000D03*
D32*
%TO.P,D1,1*%
%TO.N,Net-(C1-Pad1)*%
X83950000Y-60600000D03*
D31*
%TO.P,D1,2*%
%TO.N,Net-(D1-Pad2)*%
X89550000Y-60600000D03*
%TO.P,D1,4*%
%TO.N,Net-(D1-Pad4)*%
X83950000Y-55000000D03*
%TD*%
D33*
%TO.N,Net-(C1-Pad1)*%
X95370000Y-70320000D02*
X104260000Y-70320000D01*
X104260000Y-70320000D02*
X104895000Y-70955000D01*
X104895000Y-70955000D02*
X104895000Y-79210000D01*
X104895000Y-79210000D02*
X106165000Y-80480000D01*
X106165000Y-80480000D02*
X106165000Y-112865000D01*
X106165000Y-112865000D02*
X105530000Y-113500000D01*
X105530000Y-113500000D02*
X90290000Y-113500000D01*
X90290000Y-113500000D02*
X90290000Y-116040000D01*
%TO.N,+9V*%
X95370000Y-116040000D02*
X95370000Y-118080000D01*
X95370000Y-118080000D02*
X94450000Y-119000000D01*
X94450000Y-119000000D02*
X80050000Y-119000000D01*
X80050000Y-119000000D02*
X78450000Y-117400000D01*
X78450000Y-80890000D02*
X81400000Y-77940000D01*
X78450000Y-117400000D02*
X78450000Y-80890000D01*
X142360000Y-53810000D02*
X142360000Y-53610000D01*
X81400000Y-74450000D02*
X81400000Y-77940000D01*
X104250000Y-51600000D02*
X81400000Y-74450000D01*
X139750000Y-51600000D02*
X141550000Y-51600000D01*
X140350000Y-51600000D02*
X139750000Y-51600000D01*
X139750000Y-51600000D02*
X104250000Y-51600000D01*
X141550000Y-51600000D02*
X142250000Y-52300000D01*
X142250000Y-53700000D02*
X142360000Y-53810000D01*
X142250000Y-52300000D02*
X142250000Y-53700000D01*
%TO.N,Net-(D3-Pad1)*%
X113150000Y-89370000D02*
X111880000Y-89370000D01*
X111880000Y-89370000D02*
X107435000Y-93815000D01*
X107435000Y-93815000D02*
X107435000Y-114770000D01*
X107435000Y-114770000D02*
X108070000Y-115405000D01*
X108070000Y-115405000D02*
X117595000Y-115405000D01*
X117595000Y-115405000D02*
X119500000Y-113500000D01*
X119500000Y-110695000D02*
X117180000Y-108375000D01*
X119500000Y-113500000D02*
X119500000Y-110695000D01*
%TO.N,+5V*%
X115690000Y-61430000D02*
X113150000Y-63970000D01*
X113150000Y-85560000D02*
X115690000Y-88100000D01*
X115690000Y-88100000D02*
X115690000Y-89370000D01*
X115690000Y-74130000D02*
X113150000Y-74130000D01*
X113150000Y-74130000D02*
X113150000Y-85560000D01*
X113150000Y-63970000D02*
X113150000Y-74130000D01*
%TO.N,Net-(R3-Pad1)*%
X109560000Y-108375000D02*
X111925000Y-108375000D01*
X111925000Y-108375000D02*
X118230000Y-102070000D01*
X118230000Y-102070000D02*
X118230000Y-74130000D01*
X118230000Y-74130000D02*
X119500000Y-72860000D01*
X119500000Y-72860000D02*
X120770000Y-72860000D01*
%TO.N,Net-(R5-Pad1)*%
X109560000Y-112425000D02*
X116105000Y-105880000D01*
X116105000Y-105880000D02*
X120770000Y-105880000D01*
X120770000Y-105880000D02*
X125850000Y-100800000D01*
X125850000Y-100800000D02*
X125850000Y-81750000D01*
X124580000Y-80480000D02*
X120770000Y-80480000D01*
X125850000Y-81750000D02*
X124580000Y-80480000D01*
%TO.N,SCL*%
X137280000Y-108420000D02*
X130930000Y-102070000D01*
X130930000Y-102070000D02*
X130930000Y-76670000D01*
X130930000Y-76670000D02*
X132200000Y-75400000D01*
X132200000Y-75400000D02*
X136010000Y-75400000D01*
%TO.N,SDA*%
X133470000Y-77940000D02*
X136010000Y-77940000D01*
X138169999Y-106769999D02*
X132200000Y-100800000D01*
X139439999Y-106769999D02*
X138169999Y-106769999D01*
X132200000Y-100800000D02*
X132200000Y-79210000D01*
X139820000Y-107150000D02*
X139439999Y-106769999D01*
X139820000Y-110960000D02*
X139820000Y-107150000D01*
X132200000Y-79210000D02*
X133470000Y-77940000D01*
X137280000Y-113500000D02*
X139820000Y-110960000D01*
%TD*%
M02*
