%TF.GenerationSoftware,KiCad,Pcbnew,(5.1.8)-1*%
%TF.CreationDate,2021-06-08T09:03:09+02:00*%
%TF.ProjectId,Telerupteur_Recepteur_RF433_V2,54656c65-7275-4707-9465-75725f526563,V2*%
%TF.SameCoordinates,Original*%
%TF.FileFunction,Soldermask,Bot*%
%TF.FilePolarity,Negative*%
%FSLAX46Y46*%
G04 Gerber Fmt 4.6, Leading zero omitted, Abs format (unit mm)*
G04 Created by KiCad (PCBNEW (5.1.8)-1) date 2021-06-08 09:03:09*
%MOMM*%
%LPD*%
G01*
G04 APERTURE LIST*
%TA.AperFunction,Profile*%
%ADD10C,0.050000*%
%TD*%
%TA.AperFunction,Profile*%
%ADD11C,0.100000*%
%TD*%
%ADD12O,1.900000X2.500000*%
%ADD13R,1.900000X2.500000*%
%ADD14O,3.500000X3.500000*%
%ADD15R,1.760000X1.760000*%
%ADD16C,1.760000*%
%ADD17O,3.500000X2.500000*%
%ADD18C,2.500000*%
%ADD19R,2.500000X2.500000*%
%ADD20O,2.500000X1.700000*%
%ADD21R,2.500000X1.700000*%
%ADD22C,1.950000*%
%ADD23R,1.950000X1.950000*%
%ADD24O,2.500000X3.500000*%
%ADD25C,2.100000*%
%ADD26O,2.200000X2.200000*%
%ADD27R,2.200000X2.200000*%
%ADD28C,5.000000*%
%ADD29C,2.000000*%
%ADD30R,2.000000X2.000000*%
%ADD31C,1.600000*%
%ADD32R,1.600000X1.600000*%
%ADD33O,1.760000X2.400000*%
%ADD34C,3.750000*%
%ADD35R,1.600000X2.400000*%
%ADD36O,1.600000X2.400000*%
G04 APERTURE END LIST*
D10*
X47566666Y-43200000D02*
G75*
G03*
X47566666Y-43200000I-1666666J0D01*
G01*
X43400000Y-43200000D02*
X48400000Y-43200000D01*
X45900000Y-40700000D02*
X45900000Y-45700000D01*
D11*
X200800000Y-43180000D02*
X200800000Y-135910000D01*
X45900000Y-43200000D02*
X200800000Y-43180000D01*
X45900000Y-135900000D02*
X45900000Y-43200000D01*
X200800000Y-135910000D02*
X45900000Y-135900000D01*
D12*
%TO.C,U1*%
X114260000Y-80190000D03*
X111720000Y-80190000D03*
D13*
X109180000Y-80190000D03*
D14*
X111720000Y-63990000D03*
%TD*%
D15*
%TO.C,U5*%
X187240000Y-120890000D03*
D16*
X189780000Y-120890000D03*
X192320000Y-120890000D03*
X194860000Y-120890000D03*
%TD*%
D17*
%TO.C,F3*%
X116120000Y-108330000D03*
X116120000Y-130830000D03*
%TD*%
D18*
%TO.C,D1*%
X62230000Y-48260000D03*
X67830000Y-53860000D03*
D19*
X62230000Y-53860000D03*
D18*
X67830000Y-48260000D03*
%TD*%
D20*
%TO.C,U3*%
X195580000Y-103110000D03*
X180340000Y-103110000D03*
X195580000Y-67550000D03*
X180340000Y-100570000D03*
X195580000Y-70090000D03*
X180340000Y-98030000D03*
X195580000Y-72630000D03*
X180340000Y-95490000D03*
X195580000Y-75170000D03*
X180340000Y-92950000D03*
X195580000Y-77710000D03*
X180340000Y-90410000D03*
X195580000Y-80250000D03*
X180340000Y-87870000D03*
X195580000Y-82790000D03*
X180340000Y-85330000D03*
X195580000Y-85330000D03*
X180340000Y-82790000D03*
X195580000Y-87870000D03*
X180340000Y-80250000D03*
X195580000Y-90410000D03*
X180340000Y-77710000D03*
X195580000Y-92950000D03*
X180340000Y-75170000D03*
X195580000Y-95490000D03*
X180340000Y-72630000D03*
X195580000Y-98030000D03*
X180340000Y-70090000D03*
X195580000Y-100570000D03*
D21*
X180340000Y-67550000D03*
%TD*%
D22*
%TO.C,J5*%
X138610000Y-123210000D03*
D23*
X143690000Y-123210000D03*
%TD*%
D22*
%TO.C,J4*%
X100510000Y-123210000D03*
D23*
X105590000Y-123210000D03*
%TD*%
D22*
%TO.C,J2*%
X62410000Y-125750000D03*
D23*
X62410000Y-130830000D03*
%TD*%
D22*
%TO.C,J1*%
X58600000Y-109120000D03*
X58600000Y-114200000D03*
D23*
X58600000Y-119280000D03*
%TD*%
D17*
%TO.C,F2*%
X76750000Y-108550000D03*
X76750000Y-131050000D03*
%TD*%
D24*
%TO.C,F1*%
X73480000Y-99080000D03*
X50980000Y-99080000D03*
%TD*%
D25*
%TO.C,K2*%
X132630000Y-113050000D03*
X125010000Y-130830000D03*
X125010000Y-123210000D03*
X125010000Y-113050000D03*
%TD*%
%TO.C,K1*%
X94160000Y-113050000D03*
X86540000Y-130830000D03*
X86540000Y-123210000D03*
X86540000Y-113050000D03*
%TD*%
D26*
%TO.C,D7*%
X147870000Y-113270000D03*
D27*
X137710000Y-113270000D03*
%TD*%
D26*
%TO.C,D6*%
X108500000Y-113270000D03*
D27*
X98340000Y-113270000D03*
%TD*%
D28*
%TO.C,REF\u002A\u002A*%
X197500000Y-132600000D03*
%TD*%
%TO.C,REF\u002A\u002A*%
X197400000Y-46100000D03*
%TD*%
%TO.C,REF\u002A\u002A*%
X48800000Y-46200000D03*
%TD*%
%TO.C,REF\u002A\u002A*%
X48800000Y-132800000D03*
%TD*%
D29*
%TO.C,R3*%
X152870000Y-116740000D03*
X152870000Y-124360000D03*
%TD*%
D30*
%TO.C,C1*%
X83200000Y-71360000D03*
D29*
X90700000Y-71360000D03*
%TD*%
%TO.C,C2*%
X77710000Y-50800000D03*
X92710000Y-50800000D03*
%TD*%
D31*
%TO.C,C3*%
X123150000Y-80010000D03*
X120650000Y-80010000D03*
%TD*%
D29*
%TO.C,C4*%
X143510000Y-50800000D03*
X128510000Y-50800000D03*
%TD*%
D31*
%TO.C,C5*%
X168910000Y-80010000D03*
X171410000Y-80010000D03*
%TD*%
D32*
%TO.C,D2*%
X130810000Y-66040000D03*
D31*
X133350000Y-66040000D03*
%TD*%
%TO.C,D3*%
X180140000Y-48500000D03*
D32*
X177600000Y-48500000D03*
%TD*%
%TO.C,D4*%
X157950000Y-120550000D03*
D31*
X160490000Y-120550000D03*
%TD*%
%TO.C,D5*%
X160020000Y-102870000D03*
D32*
X157480000Y-102870000D03*
%TD*%
D15*
%TO.C,J3*%
X194860000Y-57390000D03*
D33*
X192320000Y-57390000D03*
%TD*%
D29*
%TO.C,R1*%
X138430000Y-69850000D03*
X138430000Y-62230000D03*
%TD*%
%TO.C,R2*%
X192320000Y-51040000D03*
X184700000Y-51040000D03*
%TD*%
%TO.C,R4*%
X152400000Y-99060000D03*
X152400000Y-106680000D03*
%TD*%
%TO.C,R5*%
X159300000Y-86600000D03*
X151680000Y-86600000D03*
%TD*%
%TO.C,R6*%
X159300000Y-91440000D03*
X151680000Y-91440000D03*
%TD*%
%TO.C,R7*%
X86360000Y-93980000D03*
X86360000Y-86360000D03*
%TD*%
%TO.C,R8*%
X115570000Y-87630000D03*
X115570000Y-95250000D03*
%TD*%
D34*
%TO.C,TR1*%
X53340000Y-85090000D03*
X53340000Y-65090000D03*
X73340000Y-70090000D03*
X73340000Y-80090000D03*
%TD*%
D14*
%TO.C,U2*%
X159940000Y-63970000D03*
D13*
X157400000Y-80170000D03*
D12*
X159940000Y-80170000D03*
X162480000Y-80170000D03*
%TD*%
D35*
%TO.C,U4*%
X137710000Y-95490000D03*
D36*
X145330000Y-87870000D03*
X140250000Y-95490000D03*
X142790000Y-87870000D03*
X142790000Y-95490000D03*
X140250000Y-87870000D03*
X145330000Y-95490000D03*
X137710000Y-87870000D03*
%TD*%
%TO.C,U6*%
X91440000Y-86930000D03*
X96520000Y-94550000D03*
X93980000Y-86930000D03*
X93980000Y-94550000D03*
X96520000Y-86930000D03*
D35*
X91440000Y-94550000D03*
%TD*%
%TO.C,U7*%
X120650000Y-95250000D03*
D36*
X125730000Y-87630000D03*
X123190000Y-95250000D03*
X123190000Y-87630000D03*
X125730000Y-95250000D03*
X120650000Y-87630000D03*
%TD*%
M02*
