%TF.GenerationSoftware,KiCad,Pcbnew,(5.1.8)-1*%
%TF.CreationDate,2021-06-08T09:03:09+02:00*%
%TF.ProjectId,Telerupteur_Recepteur_RF433_V2,54656c65-7275-4707-9465-75725f526563,V2*%
%TF.SameCoordinates,Original*%
%TF.FileFunction,Other,Fab,Top*%
%FSLAX46Y46*%
G04 Gerber Fmt 4.6, Leading zero omitted, Abs format (unit mm)*
G04 Created by KiCad (PCBNEW (5.1.8)-1) date 2021-06-08 09:03:09*
%MOMM*%
%LPD*%
G01*
G04 APERTURE LIST*
%TA.AperFunction,Profile*%
%ADD10C,0.050000*%
%TD*%
%TA.AperFunction,Profile*%
%ADD11C,0.100000*%
%TD*%
%ADD12C,0.100000*%
%ADD13C,0.120000*%
%ADD14C,0.127000*%
%ADD15C,0.150000*%
%ADD16C,0.015000*%
%ADD17C,0.200000*%
G04 APERTURE END LIST*
D10*
X47566666Y-43200000D02*
G75*
G03*
X47566666Y-43200000I-1666666J0D01*
G01*
X43400000Y-43200000D02*
X48400000Y-43200000D01*
X45900000Y-40700000D02*
X45900000Y-45700000D01*
D11*
X200800000Y-43180000D02*
X200800000Y-135910000D01*
X45900000Y-43200000D02*
X200800000Y-43180000D01*
X45900000Y-135900000D02*
X45900000Y-43200000D01*
X200800000Y-135910000D02*
X45900000Y-135900000D01*
D12*
%TO.C,U1*%
X113555000Y-63965000D02*
G75*
G03*
X113555000Y-63965000I-1850000J0D01*
G01*
D13*
X106655000Y-75965000D02*
X116555000Y-75965000D01*
X106655000Y-61190000D02*
X116555000Y-61190000D01*
X106655000Y-61190000D02*
X106655000Y-75965000D01*
X116555000Y-61190000D02*
X116555000Y-75965000D01*
%TO.C,U5*%
X196420000Y-118850000D02*
X167420000Y-118850000D01*
X196420000Y-116350000D02*
X196420000Y-118850000D01*
X196420000Y-116350000D02*
X167420000Y-116350000D01*
X167420000Y-116350000D02*
X167420000Y-118850000D01*
D12*
%TO.C,F3*%
X111320000Y-130830000D02*
X120920000Y-130830000D01*
X120920000Y-130830000D02*
X120920000Y-108330000D01*
X120920000Y-108330000D02*
X111320000Y-108330000D01*
X111320000Y-108330000D02*
X111320000Y-130830000D01*
D13*
%TO.C,D1*%
X60330000Y-55360000D02*
X69130000Y-55360000D01*
X60330000Y-55360000D02*
G75*
G02*
X69130000Y-55360000I4400000J4000000D01*
G01*
D12*
%TO.C,U3*%
X184150000Y-99300000D02*
X191770000Y-99300000D01*
X191770000Y-99300000D02*
X191770000Y-109460000D01*
X191770000Y-109460000D02*
X184150000Y-109460000D01*
X184150000Y-109460000D02*
X184150000Y-99300000D01*
X196850000Y-106920000D02*
X179070000Y-106920000D01*
X179070000Y-106920000D02*
X179070000Y-65010000D01*
X179070000Y-65010000D02*
X180340000Y-63740000D01*
X180340000Y-63740000D02*
X196850000Y-63740000D01*
X196850000Y-63740000D02*
X196850000Y-106920000D01*
D14*
%TO.C,J5*%
X146230000Y-127960000D02*
X136110000Y-127960000D01*
X136110000Y-127960000D02*
X136110000Y-118460000D01*
X136110000Y-118460000D02*
X146230000Y-118460000D01*
X146230000Y-118460000D02*
X146230000Y-127960000D01*
X146230000Y-127960000D02*
X146830000Y-127960000D01*
X146830000Y-127960000D02*
X146830000Y-118460000D01*
X146830000Y-118460000D02*
X146230000Y-118460000D01*
%TO.C,J4*%
X108130000Y-127960000D02*
X98010000Y-127960000D01*
X98010000Y-127960000D02*
X98010000Y-118460000D01*
X98010000Y-118460000D02*
X108130000Y-118460000D01*
X108130000Y-118460000D02*
X108130000Y-127960000D01*
X108130000Y-127960000D02*
X108730000Y-127960000D01*
X108730000Y-127960000D02*
X108730000Y-118460000D01*
X108730000Y-118460000D02*
X108130000Y-118460000D01*
%TO.C,J2*%
X57660000Y-133370000D02*
X57660000Y-123250000D01*
X57660000Y-123250000D02*
X67160000Y-123250000D01*
X67160000Y-123250000D02*
X67160000Y-133370000D01*
X67160000Y-133370000D02*
X57660000Y-133370000D01*
X57660000Y-133370000D02*
X57660000Y-133970000D01*
X57660000Y-133970000D02*
X67160000Y-133970000D01*
X67160000Y-133970000D02*
X67160000Y-133370000D01*
%TO.C,J1*%
X53850000Y-121820000D02*
X53850000Y-106580000D01*
X53850000Y-106580000D02*
X63350000Y-106580000D01*
X63350000Y-106580000D02*
X63350000Y-121820000D01*
X63350000Y-121820000D02*
X53850000Y-121820000D01*
X53850000Y-121820000D02*
X53850000Y-122420000D01*
X53850000Y-122420000D02*
X63350000Y-122420000D01*
X63350000Y-122420000D02*
X63350000Y-121820000D01*
D12*
%TO.C,F2*%
X71950000Y-131050000D02*
X81550000Y-131050000D01*
X81550000Y-131050000D02*
X81550000Y-108550000D01*
X81550000Y-108550000D02*
X71950000Y-108550000D01*
X71950000Y-108550000D02*
X71950000Y-131050000D01*
%TO.C,F1*%
X50980000Y-94280000D02*
X50980000Y-103880000D01*
X50980000Y-103880000D02*
X73480000Y-103880000D01*
X73480000Y-103880000D02*
X73480000Y-94280000D01*
X73480000Y-94280000D02*
X50980000Y-94280000D01*
D14*
%TO.C,K2*%
X133820000Y-111940000D02*
X133820000Y-131940000D01*
X133820000Y-131940000D02*
X123820000Y-131940000D01*
X123820000Y-131940000D02*
X123820000Y-111940000D01*
X123820000Y-111940000D02*
X133820000Y-111940000D01*
%TO.C,K1*%
X85350000Y-111940000D02*
X95350000Y-111940000D01*
X85350000Y-131940000D02*
X85350000Y-111940000D01*
X95350000Y-131940000D02*
X85350000Y-131940000D01*
X95350000Y-111940000D02*
X95350000Y-131940000D01*
D12*
%TO.C,D7*%
X140190000Y-111920000D02*
X140190000Y-114620000D01*
X140190000Y-114620000D02*
X145390000Y-114620000D01*
X145390000Y-114620000D02*
X145390000Y-111920000D01*
X145390000Y-111920000D02*
X140190000Y-111920000D01*
X137710000Y-113270000D02*
X140190000Y-113270000D01*
X147870000Y-113270000D02*
X145390000Y-113270000D01*
X140970000Y-111920000D02*
X140970000Y-114620000D01*
X141070000Y-111920000D02*
X141070000Y-114620000D01*
X140870000Y-111920000D02*
X140870000Y-114620000D01*
%TO.C,D6*%
X100820000Y-111920000D02*
X100820000Y-114620000D01*
X100820000Y-114620000D02*
X106020000Y-114620000D01*
X106020000Y-114620000D02*
X106020000Y-111920000D01*
X106020000Y-111920000D02*
X100820000Y-111920000D01*
X98340000Y-113270000D02*
X100820000Y-113270000D01*
X108500000Y-113270000D02*
X106020000Y-113270000D01*
X101600000Y-111920000D02*
X101600000Y-114620000D01*
X101700000Y-111920000D02*
X101700000Y-114620000D01*
X101500000Y-111920000D02*
X101500000Y-114620000D01*
%TO.C,R3*%
X154120000Y-117400000D02*
X151620000Y-117400000D01*
X151620000Y-117400000D02*
X151620000Y-123700000D01*
X151620000Y-123700000D02*
X154120000Y-123700000D01*
X154120000Y-123700000D02*
X154120000Y-117400000D01*
X152870000Y-116740000D02*
X152870000Y-117400000D01*
X152870000Y-124360000D02*
X152870000Y-123700000D01*
%TO.C,C1*%
X95450000Y-71360000D02*
G75*
G03*
X95450000Y-71360000I-8500000J0D01*
G01*
X79643781Y-67632500D02*
X81343781Y-67632500D01*
X80493781Y-66782500D02*
X80493781Y-68482500D01*
%TO.C,C2*%
X77710000Y-50800000D02*
X79210000Y-50800000D01*
X92710000Y-50800000D02*
X91210000Y-50800000D01*
X79210000Y-55050000D02*
X91210000Y-55050000D01*
X79210000Y-46550000D02*
X79210000Y-55050000D01*
X91210000Y-46550000D02*
X79210000Y-46550000D01*
X91210000Y-55050000D02*
X91210000Y-46550000D01*
%TO.C,C3*%
X119400000Y-78760000D02*
X119400000Y-81260000D01*
X119400000Y-81260000D02*
X124400000Y-81260000D01*
X124400000Y-81260000D02*
X124400000Y-78760000D01*
X124400000Y-78760000D02*
X119400000Y-78760000D01*
%TO.C,C4*%
X142010000Y-55050000D02*
X142010000Y-46550000D01*
X142010000Y-46550000D02*
X130010000Y-46550000D01*
X130010000Y-46550000D02*
X130010000Y-55050000D01*
X130010000Y-55050000D02*
X142010000Y-55050000D01*
X143510000Y-50800000D02*
X142010000Y-50800000D01*
X128510000Y-50800000D02*
X130010000Y-50800000D01*
%TO.C,C5*%
X172660000Y-78760000D02*
X167660000Y-78760000D01*
X172660000Y-81260000D02*
X172660000Y-78760000D01*
X167660000Y-81260000D02*
X172660000Y-81260000D01*
X167660000Y-78760000D02*
X167660000Y-81260000D01*
%TO.C,D2*%
X134580000Y-66040000D02*
G75*
G03*
X134580000Y-66040000I-2500000J0D01*
G01*
X129580000Y-64570306D02*
X129580000Y-67509694D01*
X129579984Y-67509666D02*
G75*
G03*
X129580000Y-64570306I2500016J1469666D01*
G01*
%TO.C,D3*%
X176370000Y-47030306D02*
X176370000Y-49969694D01*
X181370000Y-48500000D02*
G75*
G03*
X181370000Y-48500000I-2500000J0D01*
G01*
X176369984Y-49969666D02*
G75*
G03*
X176370000Y-47030306I2500016J1469666D01*
G01*
%TO.C,D4*%
X161720000Y-120550000D02*
G75*
G03*
X161720000Y-120550000I-2500000J0D01*
G01*
X156720000Y-119080306D02*
X156720000Y-122019694D01*
X156719984Y-122019666D02*
G75*
G03*
X156720000Y-119080306I2500016J1469666D01*
G01*
%TO.C,D5*%
X156250000Y-101400306D02*
X156250000Y-104339694D01*
X161250000Y-102870000D02*
G75*
G03*
X161250000Y-102870000I-2500000J0D01*
G01*
X156249984Y-104339666D02*
G75*
G03*
X156250000Y-101400306I2500016J1469666D01*
G01*
%TO.C,J3*%
X196130000Y-56755000D02*
X196130000Y-58660000D01*
X196130000Y-58660000D02*
X191050000Y-58660000D01*
X191050000Y-58660000D02*
X191050000Y-56120000D01*
X191050000Y-56120000D02*
X195495000Y-56120000D01*
X195495000Y-56120000D02*
X196130000Y-56755000D01*
%TO.C,R1*%
X137180000Y-69190000D02*
X139680000Y-69190000D01*
X139680000Y-69190000D02*
X139680000Y-62890000D01*
X139680000Y-62890000D02*
X137180000Y-62890000D01*
X137180000Y-62890000D02*
X137180000Y-69190000D01*
X138430000Y-69850000D02*
X138430000Y-69190000D01*
X138430000Y-62230000D02*
X138430000Y-62890000D01*
%TO.C,R2*%
X191660000Y-52290000D02*
X191660000Y-49790000D01*
X191660000Y-49790000D02*
X185360000Y-49790000D01*
X185360000Y-49790000D02*
X185360000Y-52290000D01*
X185360000Y-52290000D02*
X191660000Y-52290000D01*
X192320000Y-51040000D02*
X191660000Y-51040000D01*
X184700000Y-51040000D02*
X185360000Y-51040000D01*
%TO.C,R4*%
X153650000Y-99720000D02*
X151150000Y-99720000D01*
X151150000Y-99720000D02*
X151150000Y-106020000D01*
X151150000Y-106020000D02*
X153650000Y-106020000D01*
X153650000Y-106020000D02*
X153650000Y-99720000D01*
X152400000Y-99060000D02*
X152400000Y-99720000D01*
X152400000Y-106680000D02*
X152400000Y-106020000D01*
%TO.C,R5*%
X159300000Y-86600000D02*
X158640000Y-86600000D01*
X151680000Y-86600000D02*
X152340000Y-86600000D01*
X158640000Y-85350000D02*
X152340000Y-85350000D01*
X158640000Y-87850000D02*
X158640000Y-85350000D01*
X152340000Y-87850000D02*
X158640000Y-87850000D01*
X152340000Y-85350000D02*
X152340000Y-87850000D01*
%TO.C,R6*%
X159300000Y-91440000D02*
X158640000Y-91440000D01*
X151680000Y-91440000D02*
X152340000Y-91440000D01*
X158640000Y-90190000D02*
X152340000Y-90190000D01*
X158640000Y-92690000D02*
X158640000Y-90190000D01*
X152340000Y-92690000D02*
X158640000Y-92690000D01*
X152340000Y-90190000D02*
X152340000Y-92690000D01*
%TO.C,R7*%
X86360000Y-93980000D02*
X86360000Y-93320000D01*
X86360000Y-86360000D02*
X86360000Y-87020000D01*
X87610000Y-93320000D02*
X87610000Y-87020000D01*
X85110000Y-93320000D02*
X87610000Y-93320000D01*
X85110000Y-87020000D02*
X85110000Y-93320000D01*
X87610000Y-87020000D02*
X85110000Y-87020000D01*
%TO.C,R8*%
X116820000Y-88290000D02*
X114320000Y-88290000D01*
X114320000Y-88290000D02*
X114320000Y-94590000D01*
X114320000Y-94590000D02*
X116820000Y-94590000D01*
X116820000Y-94590000D02*
X116820000Y-88290000D01*
X115570000Y-87630000D02*
X115570000Y-88290000D01*
X115570000Y-95250000D02*
X115570000Y-94590000D01*
%TO.C,TR1*%
X65340000Y-79090000D02*
X68340000Y-79090000D01*
X68340000Y-78090000D02*
X65340000Y-78090000D01*
X65340000Y-77090000D02*
X68340000Y-77090000D01*
X68340000Y-76090000D02*
X65340000Y-76090000D01*
X65340000Y-75090000D02*
X68340000Y-75090000D01*
X68340000Y-74090000D02*
X65340000Y-74090000D01*
X65340000Y-73090000D02*
X68340000Y-73090000D01*
X68340000Y-72090000D02*
X65340000Y-72090000D01*
X65340000Y-71090000D02*
X68340000Y-71090000D01*
X66340000Y-70090000D02*
X65340000Y-70090000D01*
X65340000Y-70090000D02*
X65340000Y-80090000D01*
X65340000Y-80090000D02*
X66340000Y-80090000D01*
X67340000Y-70090000D02*
X66340000Y-70090000D01*
X66340000Y-70090000D02*
X66340000Y-80090000D01*
X66340000Y-80090000D02*
X67340000Y-80090000D01*
X68340000Y-70090000D02*
X67340000Y-70090000D01*
X67340000Y-70090000D02*
X67340000Y-80090000D01*
X67340000Y-80090000D02*
X68340000Y-80090000D01*
X70340000Y-70090000D02*
X68340000Y-70090000D01*
X68340000Y-70090000D02*
X68340000Y-80090000D01*
X68340000Y-80090000D02*
X70340000Y-80090000D01*
X58340000Y-84090000D02*
X61340000Y-84090000D01*
X61340000Y-83090000D02*
X58340000Y-83090000D01*
X58340000Y-82090000D02*
X61340000Y-82090000D01*
X61340000Y-81090000D02*
X58340000Y-81090000D01*
X58340000Y-80090000D02*
X61340000Y-80090000D01*
X61340000Y-79090000D02*
X58340000Y-79090000D01*
X58340000Y-78090000D02*
X61340000Y-78090000D01*
X61340000Y-77090000D02*
X58340000Y-77090000D01*
X58340000Y-76090000D02*
X61340000Y-76090000D01*
X61340000Y-75090000D02*
X58340000Y-75090000D01*
X58340000Y-74090000D02*
X61340000Y-74090000D01*
X61340000Y-73090000D02*
X58340000Y-73090000D01*
X58340000Y-72090000D02*
X61340000Y-72090000D01*
X61340000Y-71090000D02*
X58340000Y-71090000D01*
X58340000Y-70090000D02*
X61340000Y-70090000D01*
X61340000Y-69090000D02*
X58340000Y-69090000D01*
X58340000Y-68090000D02*
X61340000Y-68090000D01*
X61340000Y-67090000D02*
X58340000Y-67090000D01*
X58340000Y-66090000D02*
X61340000Y-66090000D01*
X60340000Y-65090000D02*
X61340000Y-65090000D01*
X61340000Y-65090000D02*
X61340000Y-85090000D01*
X61340000Y-85090000D02*
X60340000Y-85090000D01*
X59340000Y-65090000D02*
X60340000Y-65090000D01*
X60340000Y-65090000D02*
X60340000Y-85090000D01*
X60340000Y-85090000D02*
X59340000Y-85090000D01*
X58340000Y-65090000D02*
X59340000Y-65090000D01*
X59340000Y-65090000D02*
X59340000Y-85090000D01*
X59340000Y-85090000D02*
X58340000Y-85090000D01*
X56340000Y-65090000D02*
X58340000Y-65090000D01*
X58340000Y-65090000D02*
X58340000Y-85090000D01*
X58340000Y-85090000D02*
X56340000Y-85090000D01*
X49840000Y-91090000D02*
X76840000Y-91090000D01*
X76840000Y-91090000D02*
X76840000Y-59090000D01*
X76840000Y-59090000D02*
X49840000Y-59090000D01*
X49840000Y-59090000D02*
X49840000Y-91090000D01*
D13*
%TO.C,U2*%
X164775000Y-61170000D02*
X164775000Y-75945000D01*
X154875000Y-61170000D02*
X154875000Y-75945000D01*
X154875000Y-61170000D02*
X164775000Y-61170000D01*
X154875000Y-75945000D02*
X164775000Y-75945000D01*
D12*
X161775000Y-63945000D02*
G75*
G03*
X161775000Y-63945000I-1850000J0D01*
G01*
%TO.C,U4*%
X136440000Y-93855000D02*
X136440000Y-88505000D01*
X136440000Y-88505000D02*
X146600000Y-88505000D01*
X146600000Y-88505000D02*
X146600000Y-94855000D01*
X146600000Y-94855000D02*
X137440000Y-94855000D01*
X137440000Y-94855000D02*
X136440000Y-93855000D01*
%TO.C,U6*%
X90170000Y-92915000D02*
X90170000Y-87565000D01*
X90170000Y-87565000D02*
X97790000Y-87565000D01*
X97790000Y-87565000D02*
X97790000Y-93915000D01*
X97790000Y-93915000D02*
X91170000Y-93915000D01*
X91170000Y-93915000D02*
X90170000Y-92915000D01*
%TO.C,U7*%
X120380000Y-94615000D02*
X119380000Y-93615000D01*
X127000000Y-94615000D02*
X120380000Y-94615000D01*
X127000000Y-88265000D02*
X127000000Y-94615000D01*
X119380000Y-88265000D02*
X127000000Y-88265000D01*
X119380000Y-93615000D02*
X119380000Y-88265000D01*
%TD*%
%TO.C,U1*%
D15*
X110134761Y-84042380D02*
X109658571Y-84042380D01*
X109658571Y-83042380D01*
X110372857Y-83042380D02*
X111039523Y-83042380D01*
X110610952Y-84042380D01*
X111563333Y-83470952D02*
X111468095Y-83423333D01*
X111420476Y-83375714D01*
X111372857Y-83280476D01*
X111372857Y-83232857D01*
X111420476Y-83137619D01*
X111468095Y-83090000D01*
X111563333Y-83042380D01*
X111753809Y-83042380D01*
X111849047Y-83090000D01*
X111896666Y-83137619D01*
X111944285Y-83232857D01*
X111944285Y-83280476D01*
X111896666Y-83375714D01*
X111849047Y-83423333D01*
X111753809Y-83470952D01*
X111563333Y-83470952D01*
X111468095Y-83518571D01*
X111420476Y-83566190D01*
X111372857Y-83661428D01*
X111372857Y-83851904D01*
X111420476Y-83947142D01*
X111468095Y-83994761D01*
X111563333Y-84042380D01*
X111753809Y-84042380D01*
X111849047Y-83994761D01*
X111896666Y-83947142D01*
X111944285Y-83851904D01*
X111944285Y-83661428D01*
X111896666Y-83566190D01*
X111849047Y-83518571D01*
X111753809Y-83470952D01*
X112896666Y-84042380D02*
X112325238Y-84042380D01*
X112610952Y-84042380D02*
X112610952Y-83042380D01*
X112515714Y-83185238D01*
X112420476Y-83280476D01*
X112325238Y-83328095D01*
X113277619Y-83137619D02*
X113325238Y-83090000D01*
X113420476Y-83042380D01*
X113658571Y-83042380D01*
X113753809Y-83090000D01*
X113801428Y-83137619D01*
X113849047Y-83232857D01*
X113849047Y-83328095D01*
X113801428Y-83470952D01*
X113230000Y-84042380D01*
X113849047Y-84042380D01*
X111293095Y-70742380D02*
X111293095Y-71551904D01*
X111340714Y-71647142D01*
X111388333Y-71694761D01*
X111483571Y-71742380D01*
X111674047Y-71742380D01*
X111769285Y-71694761D01*
X111816904Y-71647142D01*
X111864523Y-71551904D01*
X111864523Y-70742380D01*
X112864523Y-71742380D02*
X112293095Y-71742380D01*
X112578809Y-71742380D02*
X112578809Y-70742380D01*
X112483571Y-70885238D01*
X112388333Y-70980476D01*
X112293095Y-71028095D01*
%TO.C,U5*%
X171985714Y-108594761D02*
X172128571Y-108642380D01*
X172366666Y-108642380D01*
X172461904Y-108594761D01*
X172509523Y-108547142D01*
X172557142Y-108451904D01*
X172557142Y-108356666D01*
X172509523Y-108261428D01*
X172461904Y-108213809D01*
X172366666Y-108166190D01*
X172176190Y-108118571D01*
X172080952Y-108070952D01*
X172033333Y-108023333D01*
X171985714Y-107928095D01*
X171985714Y-107832857D01*
X172033333Y-107737619D01*
X172080952Y-107690000D01*
X172176190Y-107642380D01*
X172414285Y-107642380D01*
X172557142Y-107690000D01*
X173366666Y-108594761D02*
X173271428Y-108642380D01*
X173080952Y-108642380D01*
X172985714Y-108594761D01*
X172938095Y-108499523D01*
X172938095Y-108118571D01*
X172985714Y-108023333D01*
X173080952Y-107975714D01*
X173271428Y-107975714D01*
X173366666Y-108023333D01*
X173414285Y-108118571D01*
X173414285Y-108213809D01*
X172938095Y-108309047D01*
X174223809Y-108594761D02*
X174128571Y-108642380D01*
X173938095Y-108642380D01*
X173842857Y-108594761D01*
X173795238Y-108499523D01*
X173795238Y-108118571D01*
X173842857Y-108023333D01*
X173938095Y-107975714D01*
X174128571Y-107975714D01*
X174223809Y-108023333D01*
X174271428Y-108118571D01*
X174271428Y-108213809D01*
X173795238Y-108309047D01*
X175128571Y-108642380D02*
X175128571Y-107642380D01*
X175128571Y-108594761D02*
X175033333Y-108642380D01*
X174842857Y-108642380D01*
X174747619Y-108594761D01*
X174700000Y-108547142D01*
X174652380Y-108451904D01*
X174652380Y-108166190D01*
X174700000Y-108070952D01*
X174747619Y-108023333D01*
X174842857Y-107975714D01*
X175033333Y-107975714D01*
X175128571Y-108023333D01*
X175557142Y-108594761D02*
X175700000Y-108642380D01*
X175938095Y-108642380D01*
X176033333Y-108594761D01*
X176080952Y-108547142D01*
X176128571Y-108451904D01*
X176128571Y-108356666D01*
X176080952Y-108261428D01*
X176033333Y-108213809D01*
X175938095Y-108166190D01*
X175747619Y-108118571D01*
X175652380Y-108070952D01*
X175604761Y-108023333D01*
X175557142Y-107928095D01*
X175557142Y-107832857D01*
X175604761Y-107737619D01*
X175652380Y-107690000D01*
X175747619Y-107642380D01*
X175985714Y-107642380D01*
X176128571Y-107690000D01*
X176414285Y-107975714D02*
X176795238Y-107975714D01*
X176557142Y-107642380D02*
X176557142Y-108499523D01*
X176604761Y-108594761D01*
X176700000Y-108642380D01*
X176795238Y-108642380D01*
X177557142Y-107975714D02*
X177557142Y-108642380D01*
X177128571Y-107975714D02*
X177128571Y-108499523D01*
X177176190Y-108594761D01*
X177271428Y-108642380D01*
X177414285Y-108642380D01*
X177509523Y-108594761D01*
X177557142Y-108547142D01*
X178461904Y-108642380D02*
X178461904Y-107642380D01*
X178461904Y-108594761D02*
X178366666Y-108642380D01*
X178176190Y-108642380D01*
X178080952Y-108594761D01*
X178033333Y-108547142D01*
X177985714Y-108451904D01*
X177985714Y-108166190D01*
X178033333Y-108070952D01*
X178080952Y-108023333D01*
X178176190Y-107975714D01*
X178366666Y-107975714D01*
X178461904Y-108023333D01*
X178938095Y-108642380D02*
X178938095Y-107975714D01*
X178938095Y-107642380D02*
X178890476Y-107690000D01*
X178938095Y-107737619D01*
X178985714Y-107690000D01*
X178938095Y-107642380D01*
X178938095Y-107737619D01*
X179557142Y-108642380D02*
X179461904Y-108594761D01*
X179414285Y-108547142D01*
X179366666Y-108451904D01*
X179366666Y-108166190D01*
X179414285Y-108070952D01*
X179461904Y-108023333D01*
X179557142Y-107975714D01*
X179700000Y-107975714D01*
X179795238Y-108023333D01*
X179842857Y-108070952D01*
X179890476Y-108166190D01*
X179890476Y-108451904D01*
X179842857Y-108547142D01*
X179795238Y-108594761D01*
X179700000Y-108642380D01*
X179557142Y-108642380D01*
X180080952Y-108737619D02*
X180842857Y-108737619D01*
X181652380Y-108642380D02*
X181319047Y-108166190D01*
X181080952Y-108642380D02*
X181080952Y-107642380D01*
X181461904Y-107642380D01*
X181557142Y-107690000D01*
X181604761Y-107737619D01*
X181652380Y-107832857D01*
X181652380Y-107975714D01*
X181604761Y-108070952D01*
X181557142Y-108118571D01*
X181461904Y-108166190D01*
X181080952Y-108166190D01*
X182461904Y-108594761D02*
X182366666Y-108642380D01*
X182176190Y-108642380D01*
X182080952Y-108594761D01*
X182033333Y-108499523D01*
X182033333Y-108118571D01*
X182080952Y-108023333D01*
X182176190Y-107975714D01*
X182366666Y-107975714D01*
X182461904Y-108023333D01*
X182509523Y-108118571D01*
X182509523Y-108213809D01*
X182033333Y-108309047D01*
X183366666Y-108594761D02*
X183271428Y-108642380D01*
X183080952Y-108642380D01*
X182985714Y-108594761D01*
X182938095Y-108547142D01*
X182890476Y-108451904D01*
X182890476Y-108166190D01*
X182938095Y-108070952D01*
X182985714Y-108023333D01*
X183080952Y-107975714D01*
X183271428Y-107975714D01*
X183366666Y-108023333D01*
X184176190Y-108594761D02*
X184080952Y-108642380D01*
X183890476Y-108642380D01*
X183795238Y-108594761D01*
X183747619Y-108499523D01*
X183747619Y-108118571D01*
X183795238Y-108023333D01*
X183890476Y-107975714D01*
X184080952Y-107975714D01*
X184176190Y-108023333D01*
X184223809Y-108118571D01*
X184223809Y-108213809D01*
X183747619Y-108309047D01*
X184652380Y-107975714D02*
X184652380Y-108975714D01*
X184652380Y-108023333D02*
X184747619Y-107975714D01*
X184938095Y-107975714D01*
X185033333Y-108023333D01*
X185080952Y-108070952D01*
X185128571Y-108166190D01*
X185128571Y-108451904D01*
X185080952Y-108547142D01*
X185033333Y-108594761D01*
X184938095Y-108642380D01*
X184747619Y-108642380D01*
X184652380Y-108594761D01*
X185414285Y-107975714D02*
X185795238Y-107975714D01*
X185557142Y-107642380D02*
X185557142Y-108499523D01*
X185604761Y-108594761D01*
X185700000Y-108642380D01*
X185795238Y-108642380D01*
X186509523Y-108594761D02*
X186414285Y-108642380D01*
X186223809Y-108642380D01*
X186128571Y-108594761D01*
X186080952Y-108499523D01*
X186080952Y-108118571D01*
X186128571Y-108023333D01*
X186223809Y-107975714D01*
X186414285Y-107975714D01*
X186509523Y-108023333D01*
X186557142Y-108118571D01*
X186557142Y-108213809D01*
X186080952Y-108309047D01*
X187414285Y-107975714D02*
X187414285Y-108642380D01*
X186985714Y-107975714D02*
X186985714Y-108499523D01*
X187033333Y-108594761D01*
X187128571Y-108642380D01*
X187271428Y-108642380D01*
X187366666Y-108594761D01*
X187414285Y-108547142D01*
X187890476Y-108642380D02*
X187890476Y-107975714D01*
X187890476Y-108166190D02*
X187938095Y-108070952D01*
X187985714Y-108023333D01*
X188080952Y-107975714D01*
X188176190Y-107975714D01*
X188271428Y-108737619D02*
X189033333Y-108737619D01*
X189795238Y-108642380D02*
X189223809Y-108642380D01*
X189509523Y-108642380D02*
X189509523Y-107642380D01*
X189414285Y-107785238D01*
X189319047Y-107880476D01*
X189223809Y-107928095D01*
X190747619Y-108642380D02*
X190176190Y-108642380D01*
X190461904Y-108642380D02*
X190461904Y-107642380D01*
X190366666Y-107785238D01*
X190271428Y-107880476D01*
X190176190Y-107928095D01*
X191080952Y-107642380D02*
X191700000Y-107642380D01*
X191366666Y-108023333D01*
X191509523Y-108023333D01*
X191604761Y-108070952D01*
X191652380Y-108118571D01*
X191700000Y-108213809D01*
X191700000Y-108451904D01*
X191652380Y-108547142D01*
X191604761Y-108594761D01*
X191509523Y-108642380D01*
X191223809Y-108642380D01*
X191128571Y-108594761D01*
X191080952Y-108547142D01*
X192176190Y-108642380D02*
X192366666Y-108642380D01*
X192461904Y-108594761D01*
X192509523Y-108547142D01*
X192604761Y-108404285D01*
X192652380Y-108213809D01*
X192652380Y-107832857D01*
X192604761Y-107737619D01*
X192557142Y-107690000D01*
X192461904Y-107642380D01*
X192271428Y-107642380D01*
X192176190Y-107690000D01*
X192128571Y-107737619D01*
X192080952Y-107832857D01*
X192080952Y-108070952D01*
X192128571Y-108166190D01*
X192176190Y-108213809D01*
X192271428Y-108261428D01*
X192461904Y-108261428D01*
X192557142Y-108213809D01*
X192604761Y-108166190D01*
X192652380Y-108070952D01*
X193128571Y-108642380D02*
X193319047Y-108642380D01*
X193414285Y-108594761D01*
X193461904Y-108547142D01*
X193557142Y-108404285D01*
X193604761Y-108213809D01*
X193604761Y-107832857D01*
X193557142Y-107737619D01*
X193509523Y-107690000D01*
X193414285Y-107642380D01*
X193223809Y-107642380D01*
X193128571Y-107690000D01*
X193080952Y-107737619D01*
X193033333Y-107832857D01*
X193033333Y-108070952D01*
X193080952Y-108166190D01*
X193128571Y-108213809D01*
X193223809Y-108261428D01*
X193414285Y-108261428D01*
X193509523Y-108213809D01*
X193557142Y-108166190D01*
X193604761Y-108070952D01*
X194223809Y-107642380D02*
X194319047Y-107642380D01*
X194414285Y-107690000D01*
X194461904Y-107737619D01*
X194509523Y-107832857D01*
X194557142Y-108023333D01*
X194557142Y-108261428D01*
X194509523Y-108451904D01*
X194461904Y-108547142D01*
X194414285Y-108594761D01*
X194319047Y-108642380D01*
X194223809Y-108642380D01*
X194128571Y-108594761D01*
X194080952Y-108547142D01*
X194033333Y-108451904D01*
X193985714Y-108261428D01*
X193985714Y-108023333D01*
X194033333Y-107832857D01*
X194080952Y-107737619D01*
X194128571Y-107690000D01*
X194223809Y-107642380D01*
X195176190Y-107642380D02*
X195271428Y-107642380D01*
X195366666Y-107690000D01*
X195414285Y-107737619D01*
X195461904Y-107832857D01*
X195509523Y-108023333D01*
X195509523Y-108261428D01*
X195461904Y-108451904D01*
X195414285Y-108547142D01*
X195366666Y-108594761D01*
X195271428Y-108642380D01*
X195176190Y-108642380D01*
X195080952Y-108594761D01*
X195033333Y-108547142D01*
X194985714Y-108451904D01*
X194938095Y-108261428D01*
X194938095Y-108023333D01*
X194985714Y-107832857D01*
X195033333Y-107737619D01*
X195080952Y-107690000D01*
X195176190Y-107642380D01*
X196461904Y-108642380D02*
X195890476Y-108642380D01*
X196176190Y-108642380D02*
X196176190Y-107642380D01*
X196080952Y-107785238D01*
X195985714Y-107880476D01*
X195890476Y-107928095D01*
X197080952Y-107642380D02*
X197176190Y-107642380D01*
X197271428Y-107690000D01*
X197319047Y-107737619D01*
X197366666Y-107832857D01*
X197414285Y-108023333D01*
X197414285Y-108261428D01*
X197366666Y-108451904D01*
X197319047Y-108547142D01*
X197271428Y-108594761D01*
X197176190Y-108642380D01*
X197080952Y-108642380D01*
X196985714Y-108594761D01*
X196938095Y-108547142D01*
X196890476Y-108451904D01*
X196842857Y-108261428D01*
X196842857Y-108023333D01*
X196890476Y-107832857D01*
X196938095Y-107737619D01*
X196985714Y-107690000D01*
X197080952Y-107642380D01*
X173778095Y-107642380D02*
X173778095Y-108451904D01*
X173825714Y-108547142D01*
X173873333Y-108594761D01*
X173968571Y-108642380D01*
X174159047Y-108642380D01*
X174254285Y-108594761D01*
X174301904Y-108547142D01*
X174349523Y-108451904D01*
X174349523Y-107642380D01*
X175301904Y-107642380D02*
X174825714Y-107642380D01*
X174778095Y-108118571D01*
X174825714Y-108070952D01*
X174920952Y-108023333D01*
X175159047Y-108023333D01*
X175254285Y-108070952D01*
X175301904Y-108118571D01*
X175349523Y-108213809D01*
X175349523Y-108451904D01*
X175301904Y-108547142D01*
X175254285Y-108594761D01*
X175159047Y-108642380D01*
X174920952Y-108642380D01*
X174825714Y-108594761D01*
X174778095Y-108547142D01*
%TO.C,F3*%
X123122380Y-120316904D02*
X123122380Y-119697857D01*
X123503333Y-120031190D01*
X123503333Y-119888333D01*
X123550952Y-119793095D01*
X123598571Y-119745476D01*
X123693809Y-119697857D01*
X123931904Y-119697857D01*
X124027142Y-119745476D01*
X124074761Y-119793095D01*
X124122380Y-119888333D01*
X124122380Y-120174047D01*
X124074761Y-120269285D01*
X124027142Y-120316904D01*
X123836666Y-119316904D02*
X123836666Y-118840714D01*
X124122380Y-119412142D02*
X123122380Y-119078809D01*
X124122380Y-118745476D01*
X120048571Y-119913333D02*
X120048571Y-120246666D01*
X120572380Y-120246666D02*
X119572380Y-120246666D01*
X119572380Y-119770476D01*
X119572380Y-119484761D02*
X119572380Y-118865714D01*
X119953333Y-119199047D01*
X119953333Y-119056190D01*
X120000952Y-118960952D01*
X120048571Y-118913333D01*
X120143809Y-118865714D01*
X120381904Y-118865714D01*
X120477142Y-118913333D01*
X120524761Y-118960952D01*
X120572380Y-119056190D01*
X120572380Y-119341904D01*
X120524761Y-119437142D01*
X120477142Y-119484761D01*
%TO.C,D1*%
X61694285Y-56763571D02*
X61837142Y-56811190D01*
X61884761Y-56858809D01*
X61932380Y-56954047D01*
X61932380Y-57096904D01*
X61884761Y-57192142D01*
X61837142Y-57239761D01*
X61741904Y-57287380D01*
X61360952Y-57287380D01*
X61360952Y-56287380D01*
X61694285Y-56287380D01*
X61789523Y-56335000D01*
X61837142Y-56382619D01*
X61884761Y-56477857D01*
X61884761Y-56573095D01*
X61837142Y-56668333D01*
X61789523Y-56715952D01*
X61694285Y-56763571D01*
X61360952Y-56763571D01*
X62789523Y-56620714D02*
X62789523Y-57287380D01*
X62551428Y-56239761D02*
X62313333Y-56954047D01*
X62932380Y-56954047D01*
X63503809Y-56287380D02*
X63599047Y-56287380D01*
X63694285Y-56335000D01*
X63741904Y-56382619D01*
X63789523Y-56477857D01*
X63837142Y-56668333D01*
X63837142Y-56906428D01*
X63789523Y-57096904D01*
X63741904Y-57192142D01*
X63694285Y-57239761D01*
X63599047Y-57287380D01*
X63503809Y-57287380D01*
X63408571Y-57239761D01*
X63360952Y-57192142D01*
X63313333Y-57096904D01*
X63265714Y-56906428D01*
X63265714Y-56668333D01*
X63313333Y-56477857D01*
X63360952Y-56382619D01*
X63408571Y-56335000D01*
X63503809Y-56287380D01*
X64837142Y-57192142D02*
X64789523Y-57239761D01*
X64646666Y-57287380D01*
X64551428Y-57287380D01*
X64408571Y-57239761D01*
X64313333Y-57144523D01*
X64265714Y-57049285D01*
X64218095Y-56858809D01*
X64218095Y-56715952D01*
X64265714Y-56525476D01*
X64313333Y-56430238D01*
X64408571Y-56335000D01*
X64551428Y-56287380D01*
X64646666Y-56287380D01*
X64789523Y-56335000D01*
X64837142Y-56382619D01*
X65789523Y-57287380D02*
X65218095Y-57287380D01*
X65503809Y-57287380D02*
X65503809Y-56287380D01*
X65408571Y-56430238D01*
X65313333Y-56525476D01*
X65218095Y-56573095D01*
X66694285Y-56287380D02*
X66218095Y-56287380D01*
X66170476Y-56763571D01*
X66218095Y-56715952D01*
X66313333Y-56668333D01*
X66551428Y-56668333D01*
X66646666Y-56715952D01*
X66694285Y-56763571D01*
X66741904Y-56858809D01*
X66741904Y-57096904D01*
X66694285Y-57192142D01*
X66646666Y-57239761D01*
X66551428Y-57287380D01*
X66313333Y-57287380D01*
X66218095Y-57239761D01*
X66170476Y-57192142D01*
X67360952Y-56287380D02*
X67456190Y-56287380D01*
X67551428Y-56335000D01*
X67599047Y-56382619D01*
X67646666Y-56477857D01*
X67694285Y-56668333D01*
X67694285Y-56906428D01*
X67646666Y-57096904D01*
X67599047Y-57192142D01*
X67551428Y-57239761D01*
X67456190Y-57287380D01*
X67360952Y-57287380D01*
X67265714Y-57239761D01*
X67218095Y-57192142D01*
X67170476Y-57096904D01*
X67122857Y-56906428D01*
X67122857Y-56668333D01*
X67170476Y-56477857D01*
X67218095Y-56382619D01*
X67265714Y-56335000D01*
X67360952Y-56287380D01*
X68313333Y-56287380D02*
X68408571Y-56287380D01*
X68503809Y-56335000D01*
X68551428Y-56382619D01*
X68599047Y-56477857D01*
X68646666Y-56668333D01*
X68646666Y-56906428D01*
X68599047Y-57096904D01*
X68551428Y-57192142D01*
X68503809Y-57239761D01*
X68408571Y-57287380D01*
X68313333Y-57287380D01*
X68218095Y-57239761D01*
X68170476Y-57192142D01*
X68122857Y-57096904D01*
X68075238Y-56906428D01*
X68075238Y-56668333D01*
X68122857Y-56477857D01*
X68170476Y-56382619D01*
X68218095Y-56335000D01*
X68313333Y-56287380D01*
X64541904Y-51462380D02*
X64541904Y-50462380D01*
X64780000Y-50462380D01*
X64922857Y-50510000D01*
X65018095Y-50605238D01*
X65065714Y-50700476D01*
X65113333Y-50890952D01*
X65113333Y-51033809D01*
X65065714Y-51224285D01*
X65018095Y-51319523D01*
X64922857Y-51414761D01*
X64780000Y-51462380D01*
X64541904Y-51462380D01*
X66065714Y-51462380D02*
X65494285Y-51462380D01*
X65780000Y-51462380D02*
X65780000Y-50462380D01*
X65684761Y-50605238D01*
X65589523Y-50700476D01*
X65494285Y-50748095D01*
%TO.C,U3*%
X189396666Y-89695238D02*
X189396666Y-89219047D01*
X189682380Y-89790476D02*
X188682380Y-89457142D01*
X189682380Y-89123809D01*
X188682380Y-88600000D02*
X188682380Y-88504761D01*
X188730000Y-88409523D01*
X188777619Y-88361904D01*
X188872857Y-88314285D01*
X189063333Y-88266666D01*
X189301428Y-88266666D01*
X189491904Y-88314285D01*
X189587142Y-88361904D01*
X189634761Y-88409523D01*
X189682380Y-88504761D01*
X189682380Y-88600000D01*
X189634761Y-88695238D01*
X189587142Y-88742857D01*
X189491904Y-88790476D01*
X189301428Y-88838095D01*
X189063333Y-88838095D01*
X188872857Y-88790476D01*
X188777619Y-88742857D01*
X188730000Y-88695238D01*
X188682380Y-88600000D01*
X188682380Y-87647619D02*
X188682380Y-87552380D01*
X188730000Y-87457142D01*
X188777619Y-87409523D01*
X188872857Y-87361904D01*
X189063333Y-87314285D01*
X189301428Y-87314285D01*
X189491904Y-87361904D01*
X189587142Y-87409523D01*
X189634761Y-87457142D01*
X189682380Y-87552380D01*
X189682380Y-87647619D01*
X189634761Y-87742857D01*
X189587142Y-87790476D01*
X189491904Y-87838095D01*
X189301428Y-87885714D01*
X189063333Y-87885714D01*
X188872857Y-87838095D01*
X188777619Y-87790476D01*
X188730000Y-87742857D01*
X188682380Y-87647619D01*
X188682380Y-86695238D02*
X188682380Y-86600000D01*
X188730000Y-86504761D01*
X188777619Y-86457142D01*
X188872857Y-86409523D01*
X189063333Y-86361904D01*
X189301428Y-86361904D01*
X189491904Y-86409523D01*
X189587142Y-86457142D01*
X189634761Y-86504761D01*
X189682380Y-86600000D01*
X189682380Y-86695238D01*
X189634761Y-86790476D01*
X189587142Y-86838095D01*
X189491904Y-86885714D01*
X189301428Y-86933333D01*
X189063333Y-86933333D01*
X188872857Y-86885714D01*
X188777619Y-86838095D01*
X188730000Y-86790476D01*
X188682380Y-86695238D01*
X188682380Y-85742857D02*
X188682380Y-85647619D01*
X188730000Y-85552380D01*
X188777619Y-85504761D01*
X188872857Y-85457142D01*
X189063333Y-85409523D01*
X189301428Y-85409523D01*
X189491904Y-85457142D01*
X189587142Y-85504761D01*
X189634761Y-85552380D01*
X189682380Y-85647619D01*
X189682380Y-85742857D01*
X189634761Y-85838095D01*
X189587142Y-85885714D01*
X189491904Y-85933333D01*
X189301428Y-85980952D01*
X189063333Y-85980952D01*
X188872857Y-85933333D01*
X188777619Y-85885714D01*
X188730000Y-85838095D01*
X188682380Y-85742857D01*
X188682380Y-84790476D02*
X188682380Y-84695238D01*
X188730000Y-84600000D01*
X188777619Y-84552380D01*
X188872857Y-84504761D01*
X189063333Y-84457142D01*
X189301428Y-84457142D01*
X189491904Y-84504761D01*
X189587142Y-84552380D01*
X189634761Y-84600000D01*
X189682380Y-84695238D01*
X189682380Y-84790476D01*
X189634761Y-84885714D01*
X189587142Y-84933333D01*
X189491904Y-84980952D01*
X189301428Y-85028571D01*
X189063333Y-85028571D01*
X188872857Y-84980952D01*
X188777619Y-84933333D01*
X188730000Y-84885714D01*
X188682380Y-84790476D01*
X188682380Y-83552380D02*
X188682380Y-84028571D01*
X189158571Y-84076190D01*
X189110952Y-84028571D01*
X189063333Y-83933333D01*
X189063333Y-83695238D01*
X189110952Y-83600000D01*
X189158571Y-83552380D01*
X189253809Y-83504761D01*
X189491904Y-83504761D01*
X189587142Y-83552380D01*
X189634761Y-83600000D01*
X189682380Y-83695238D01*
X189682380Y-83933333D01*
X189634761Y-84028571D01*
X189587142Y-84076190D01*
X186142380Y-87361904D02*
X186951904Y-87361904D01*
X187047142Y-87314285D01*
X187094761Y-87266666D01*
X187142380Y-87171428D01*
X187142380Y-86980952D01*
X187094761Y-86885714D01*
X187047142Y-86838095D01*
X186951904Y-86790476D01*
X186142380Y-86790476D01*
X186142380Y-86409523D02*
X186142380Y-85790476D01*
X186523333Y-86123809D01*
X186523333Y-85980952D01*
X186570952Y-85885714D01*
X186618571Y-85838095D01*
X186713809Y-85790476D01*
X186951904Y-85790476D01*
X187047142Y-85838095D01*
X187094761Y-85885714D01*
X187142380Y-85980952D01*
X187142380Y-86266666D01*
X187094761Y-86361904D01*
X187047142Y-86409523D01*
%TO.C,J5*%
D16*
X137121904Y-117567142D02*
X137074285Y-117614761D01*
X136931428Y-117662380D01*
X136836190Y-117662380D01*
X136693333Y-117614761D01*
X136598095Y-117519523D01*
X136550476Y-117424285D01*
X136502857Y-117233809D01*
X136502857Y-117090952D01*
X136550476Y-116900476D01*
X136598095Y-116805238D01*
X136693333Y-116710000D01*
X136836190Y-116662380D01*
X136931428Y-116662380D01*
X137074285Y-116710000D01*
X137121904Y-116757619D01*
X137693333Y-117662380D02*
X137598095Y-117614761D01*
X137550476Y-117567142D01*
X137502857Y-117471904D01*
X137502857Y-117186190D01*
X137550476Y-117090952D01*
X137598095Y-117043333D01*
X137693333Y-116995714D01*
X137836190Y-116995714D01*
X137931428Y-117043333D01*
X137979047Y-117090952D01*
X138026666Y-117186190D01*
X138026666Y-117471904D01*
X137979047Y-117567142D01*
X137931428Y-117614761D01*
X137836190Y-117662380D01*
X137693333Y-117662380D01*
X138455238Y-116995714D02*
X138455238Y-117662380D01*
X138455238Y-117090952D02*
X138502857Y-117043333D01*
X138598095Y-116995714D01*
X138740952Y-116995714D01*
X138836190Y-117043333D01*
X138883809Y-117138571D01*
X138883809Y-117662380D01*
X139360000Y-116995714D02*
X139360000Y-117662380D01*
X139360000Y-117090952D02*
X139407619Y-117043333D01*
X139502857Y-116995714D01*
X139645714Y-116995714D01*
X139740952Y-117043333D01*
X139788571Y-117138571D01*
X139788571Y-117662380D01*
X140026666Y-117757619D02*
X140788571Y-117757619D01*
X141217142Y-116662380D02*
X141312380Y-116662380D01*
X141407619Y-116710000D01*
X141455238Y-116757619D01*
X141502857Y-116852857D01*
X141550476Y-117043333D01*
X141550476Y-117281428D01*
X141502857Y-117471904D01*
X141455238Y-117567142D01*
X141407619Y-117614761D01*
X141312380Y-117662380D01*
X141217142Y-117662380D01*
X141121904Y-117614761D01*
X141074285Y-117567142D01*
X141026666Y-117471904D01*
X140979047Y-117281428D01*
X140979047Y-117043333D01*
X141026666Y-116852857D01*
X141074285Y-116757619D01*
X141121904Y-116710000D01*
X141217142Y-116662380D01*
X142502857Y-117662380D02*
X141931428Y-117662380D01*
X142217142Y-117662380D02*
X142217142Y-116662380D01*
X142121904Y-116805238D01*
X142026666Y-116900476D01*
X141931428Y-116948095D01*
X142836190Y-117662380D02*
X143360000Y-116995714D01*
X142836190Y-116995714D02*
X143360000Y-117662380D01*
X143931428Y-116662380D02*
X144026666Y-116662380D01*
X144121904Y-116710000D01*
X144169523Y-116757619D01*
X144217142Y-116852857D01*
X144264761Y-117043333D01*
X144264761Y-117281428D01*
X144217142Y-117471904D01*
X144169523Y-117567142D01*
X144121904Y-117614761D01*
X144026666Y-117662380D01*
X143931428Y-117662380D01*
X143836190Y-117614761D01*
X143788571Y-117567142D01*
X143740952Y-117471904D01*
X143693333Y-117281428D01*
X143693333Y-117043333D01*
X143740952Y-116852857D01*
X143788571Y-116757619D01*
X143836190Y-116710000D01*
X143931428Y-116662380D01*
X144645714Y-116757619D02*
X144693333Y-116710000D01*
X144788571Y-116662380D01*
X145026666Y-116662380D01*
X145121904Y-116710000D01*
X145169523Y-116757619D01*
X145217142Y-116852857D01*
X145217142Y-116948095D01*
X145169523Y-117090952D01*
X144598095Y-117662380D01*
X145217142Y-117662380D01*
%TO.C,J4*%
X99021904Y-117567142D02*
X98974285Y-117614761D01*
X98831428Y-117662380D01*
X98736190Y-117662380D01*
X98593333Y-117614761D01*
X98498095Y-117519523D01*
X98450476Y-117424285D01*
X98402857Y-117233809D01*
X98402857Y-117090952D01*
X98450476Y-116900476D01*
X98498095Y-116805238D01*
X98593333Y-116710000D01*
X98736190Y-116662380D01*
X98831428Y-116662380D01*
X98974285Y-116710000D01*
X99021904Y-116757619D01*
X99593333Y-117662380D02*
X99498095Y-117614761D01*
X99450476Y-117567142D01*
X99402857Y-117471904D01*
X99402857Y-117186190D01*
X99450476Y-117090952D01*
X99498095Y-117043333D01*
X99593333Y-116995714D01*
X99736190Y-116995714D01*
X99831428Y-117043333D01*
X99879047Y-117090952D01*
X99926666Y-117186190D01*
X99926666Y-117471904D01*
X99879047Y-117567142D01*
X99831428Y-117614761D01*
X99736190Y-117662380D01*
X99593333Y-117662380D01*
X100355238Y-116995714D02*
X100355238Y-117662380D01*
X100355238Y-117090952D02*
X100402857Y-117043333D01*
X100498095Y-116995714D01*
X100640952Y-116995714D01*
X100736190Y-117043333D01*
X100783809Y-117138571D01*
X100783809Y-117662380D01*
X101260000Y-116995714D02*
X101260000Y-117662380D01*
X101260000Y-117090952D02*
X101307619Y-117043333D01*
X101402857Y-116995714D01*
X101545714Y-116995714D01*
X101640952Y-117043333D01*
X101688571Y-117138571D01*
X101688571Y-117662380D01*
X101926666Y-117757619D02*
X102688571Y-117757619D01*
X103117142Y-116662380D02*
X103212380Y-116662380D01*
X103307619Y-116710000D01*
X103355238Y-116757619D01*
X103402857Y-116852857D01*
X103450476Y-117043333D01*
X103450476Y-117281428D01*
X103402857Y-117471904D01*
X103355238Y-117567142D01*
X103307619Y-117614761D01*
X103212380Y-117662380D01*
X103117142Y-117662380D01*
X103021904Y-117614761D01*
X102974285Y-117567142D01*
X102926666Y-117471904D01*
X102879047Y-117281428D01*
X102879047Y-117043333D01*
X102926666Y-116852857D01*
X102974285Y-116757619D01*
X103021904Y-116710000D01*
X103117142Y-116662380D01*
X104402857Y-117662380D02*
X103831428Y-117662380D01*
X104117142Y-117662380D02*
X104117142Y-116662380D01*
X104021904Y-116805238D01*
X103926666Y-116900476D01*
X103831428Y-116948095D01*
X104736190Y-117662380D02*
X105260000Y-116995714D01*
X104736190Y-116995714D02*
X105260000Y-117662380D01*
X105831428Y-116662380D02*
X105926666Y-116662380D01*
X106021904Y-116710000D01*
X106069523Y-116757619D01*
X106117142Y-116852857D01*
X106164761Y-117043333D01*
X106164761Y-117281428D01*
X106117142Y-117471904D01*
X106069523Y-117567142D01*
X106021904Y-117614761D01*
X105926666Y-117662380D01*
X105831428Y-117662380D01*
X105736190Y-117614761D01*
X105688571Y-117567142D01*
X105640952Y-117471904D01*
X105593333Y-117281428D01*
X105593333Y-117043333D01*
X105640952Y-116852857D01*
X105688571Y-116757619D01*
X105736190Y-116710000D01*
X105831428Y-116662380D01*
X106545714Y-116757619D02*
X106593333Y-116710000D01*
X106688571Y-116662380D01*
X106926666Y-116662380D01*
X107021904Y-116710000D01*
X107069523Y-116757619D01*
X107117142Y-116852857D01*
X107117142Y-116948095D01*
X107069523Y-117090952D01*
X106498095Y-117662380D01*
X107117142Y-117662380D01*
%TO.C,J2*%
X68767142Y-131738095D02*
X68814761Y-131785714D01*
X68862380Y-131928571D01*
X68862380Y-132023809D01*
X68814761Y-132166666D01*
X68719523Y-132261904D01*
X68624285Y-132309523D01*
X68433809Y-132357142D01*
X68290952Y-132357142D01*
X68100476Y-132309523D01*
X68005238Y-132261904D01*
X67910000Y-132166666D01*
X67862380Y-132023809D01*
X67862380Y-131928571D01*
X67910000Y-131785714D01*
X67957619Y-131738095D01*
X68862380Y-131166666D02*
X68814761Y-131261904D01*
X68767142Y-131309523D01*
X68671904Y-131357142D01*
X68386190Y-131357142D01*
X68290952Y-131309523D01*
X68243333Y-131261904D01*
X68195714Y-131166666D01*
X68195714Y-131023809D01*
X68243333Y-130928571D01*
X68290952Y-130880952D01*
X68386190Y-130833333D01*
X68671904Y-130833333D01*
X68767142Y-130880952D01*
X68814761Y-130928571D01*
X68862380Y-131023809D01*
X68862380Y-131166666D01*
X68195714Y-130404761D02*
X68862380Y-130404761D01*
X68290952Y-130404761D02*
X68243333Y-130357142D01*
X68195714Y-130261904D01*
X68195714Y-130119047D01*
X68243333Y-130023809D01*
X68338571Y-129976190D01*
X68862380Y-129976190D01*
X68195714Y-129500000D02*
X68862380Y-129500000D01*
X68290952Y-129500000D02*
X68243333Y-129452380D01*
X68195714Y-129357142D01*
X68195714Y-129214285D01*
X68243333Y-129119047D01*
X68338571Y-129071428D01*
X68862380Y-129071428D01*
X68957619Y-128833333D02*
X68957619Y-128071428D01*
X67862380Y-127642857D02*
X67862380Y-127547619D01*
X67910000Y-127452380D01*
X67957619Y-127404761D01*
X68052857Y-127357142D01*
X68243333Y-127309523D01*
X68481428Y-127309523D01*
X68671904Y-127357142D01*
X68767142Y-127404761D01*
X68814761Y-127452380D01*
X68862380Y-127547619D01*
X68862380Y-127642857D01*
X68814761Y-127738095D01*
X68767142Y-127785714D01*
X68671904Y-127833333D01*
X68481428Y-127880952D01*
X68243333Y-127880952D01*
X68052857Y-127833333D01*
X67957619Y-127785714D01*
X67910000Y-127738095D01*
X67862380Y-127642857D01*
X68862380Y-126357142D02*
X68862380Y-126928571D01*
X68862380Y-126642857D02*
X67862380Y-126642857D01*
X68005238Y-126738095D01*
X68100476Y-126833333D01*
X68148095Y-126928571D01*
X68862380Y-126023809D02*
X68195714Y-125500000D01*
X68195714Y-126023809D02*
X68862380Y-125500000D01*
X67862380Y-124928571D02*
X67862380Y-124833333D01*
X67910000Y-124738095D01*
X67957619Y-124690476D01*
X68052857Y-124642857D01*
X68243333Y-124595238D01*
X68481428Y-124595238D01*
X68671904Y-124642857D01*
X68767142Y-124690476D01*
X68814761Y-124738095D01*
X68862380Y-124833333D01*
X68862380Y-124928571D01*
X68814761Y-125023809D01*
X68767142Y-125071428D01*
X68671904Y-125119047D01*
X68481428Y-125166666D01*
X68243333Y-125166666D01*
X68052857Y-125119047D01*
X67957619Y-125071428D01*
X67910000Y-125023809D01*
X67862380Y-124928571D01*
X67957619Y-124214285D02*
X67910000Y-124166666D01*
X67862380Y-124071428D01*
X67862380Y-123833333D01*
X67910000Y-123738095D01*
X67957619Y-123690476D01*
X68052857Y-123642857D01*
X68148095Y-123642857D01*
X68290952Y-123690476D01*
X68862380Y-124261904D01*
X68862380Y-123642857D01*
%TO.C,J1*%
X64622142Y-111633095D02*
X64669761Y-111680714D01*
X64717380Y-111823571D01*
X64717380Y-111918809D01*
X64669761Y-112061666D01*
X64574523Y-112156904D01*
X64479285Y-112204523D01*
X64288809Y-112252142D01*
X64145952Y-112252142D01*
X63955476Y-112204523D01*
X63860238Y-112156904D01*
X63765000Y-112061666D01*
X63717380Y-111918809D01*
X63717380Y-111823571D01*
X63765000Y-111680714D01*
X63812619Y-111633095D01*
X64717380Y-111061666D02*
X64669761Y-111156904D01*
X64622142Y-111204523D01*
X64526904Y-111252142D01*
X64241190Y-111252142D01*
X64145952Y-111204523D01*
X64098333Y-111156904D01*
X64050714Y-111061666D01*
X64050714Y-110918809D01*
X64098333Y-110823571D01*
X64145952Y-110775952D01*
X64241190Y-110728333D01*
X64526904Y-110728333D01*
X64622142Y-110775952D01*
X64669761Y-110823571D01*
X64717380Y-110918809D01*
X64717380Y-111061666D01*
X64050714Y-110299761D02*
X64717380Y-110299761D01*
X64145952Y-110299761D02*
X64098333Y-110252142D01*
X64050714Y-110156904D01*
X64050714Y-110014047D01*
X64098333Y-109918809D01*
X64193571Y-109871190D01*
X64717380Y-109871190D01*
X64050714Y-109395000D02*
X64717380Y-109395000D01*
X64145952Y-109395000D02*
X64098333Y-109347380D01*
X64050714Y-109252142D01*
X64050714Y-109109285D01*
X64098333Y-109014047D01*
X64193571Y-108966428D01*
X64717380Y-108966428D01*
X64812619Y-108728333D02*
X64812619Y-107966428D01*
X63717380Y-107537857D02*
X63717380Y-107442619D01*
X63765000Y-107347380D01*
X63812619Y-107299761D01*
X63907857Y-107252142D01*
X64098333Y-107204523D01*
X64336428Y-107204523D01*
X64526904Y-107252142D01*
X64622142Y-107299761D01*
X64669761Y-107347380D01*
X64717380Y-107442619D01*
X64717380Y-107537857D01*
X64669761Y-107633095D01*
X64622142Y-107680714D01*
X64526904Y-107728333D01*
X64336428Y-107775952D01*
X64098333Y-107775952D01*
X63907857Y-107728333D01*
X63812619Y-107680714D01*
X63765000Y-107633095D01*
X63717380Y-107537857D01*
X64717380Y-106252142D02*
X64717380Y-106823571D01*
X64717380Y-106537857D02*
X63717380Y-106537857D01*
X63860238Y-106633095D01*
X63955476Y-106728333D01*
X64003095Y-106823571D01*
X64717380Y-105918809D02*
X64050714Y-105395000D01*
X64050714Y-105918809D02*
X64717380Y-105395000D01*
X63717380Y-104823571D02*
X63717380Y-104728333D01*
X63765000Y-104633095D01*
X63812619Y-104585476D01*
X63907857Y-104537857D01*
X64098333Y-104490238D01*
X64336428Y-104490238D01*
X64526904Y-104537857D01*
X64622142Y-104585476D01*
X64669761Y-104633095D01*
X64717380Y-104728333D01*
X64717380Y-104823571D01*
X64669761Y-104918809D01*
X64622142Y-104966428D01*
X64526904Y-105014047D01*
X64336428Y-105061666D01*
X64098333Y-105061666D01*
X63907857Y-105014047D01*
X63812619Y-104966428D01*
X63765000Y-104918809D01*
X63717380Y-104823571D01*
X63717380Y-104156904D02*
X63717380Y-103537857D01*
X64098333Y-103871190D01*
X64098333Y-103728333D01*
X64145952Y-103633095D01*
X64193571Y-103585476D01*
X64288809Y-103537857D01*
X64526904Y-103537857D01*
X64622142Y-103585476D01*
X64669761Y-103633095D01*
X64717380Y-103728333D01*
X64717380Y-104014047D01*
X64669761Y-104109285D01*
X64622142Y-104156904D01*
%TO.C,F2*%
D15*
X83752380Y-120536904D02*
X83752380Y-119917857D01*
X84133333Y-120251190D01*
X84133333Y-120108333D01*
X84180952Y-120013095D01*
X84228571Y-119965476D01*
X84323809Y-119917857D01*
X84561904Y-119917857D01*
X84657142Y-119965476D01*
X84704761Y-120013095D01*
X84752380Y-120108333D01*
X84752380Y-120394047D01*
X84704761Y-120489285D01*
X84657142Y-120536904D01*
X84466666Y-119536904D02*
X84466666Y-119060714D01*
X84752380Y-119632142D02*
X83752380Y-119298809D01*
X84752380Y-118965476D01*
X80678571Y-120133333D02*
X80678571Y-120466666D01*
X81202380Y-120466666D02*
X80202380Y-120466666D01*
X80202380Y-119990476D01*
X80297619Y-119657142D02*
X80250000Y-119609523D01*
X80202380Y-119514285D01*
X80202380Y-119276190D01*
X80250000Y-119180952D01*
X80297619Y-119133333D01*
X80392857Y-119085714D01*
X80488095Y-119085714D01*
X80630952Y-119133333D01*
X81202380Y-119704761D01*
X81202380Y-119085714D01*
%TO.C,F1*%
X59921666Y-106177619D02*
X59969285Y-106130000D01*
X60064523Y-106082380D01*
X60302619Y-106082380D01*
X60397857Y-106130000D01*
X60445476Y-106177619D01*
X60493095Y-106272857D01*
X60493095Y-106368095D01*
X60445476Y-106510952D01*
X59874047Y-107082380D01*
X60493095Y-107082380D01*
X61397857Y-106082380D02*
X60921666Y-106082380D01*
X60874047Y-106558571D01*
X60921666Y-106510952D01*
X61016904Y-106463333D01*
X61255000Y-106463333D01*
X61350238Y-106510952D01*
X61397857Y-106558571D01*
X61445476Y-106653809D01*
X61445476Y-106891904D01*
X61397857Y-106987142D01*
X61350238Y-107034761D01*
X61255000Y-107082380D01*
X61016904Y-107082380D01*
X60921666Y-107034761D01*
X60874047Y-106987142D01*
X62064523Y-106082380D02*
X62159761Y-106082380D01*
X62255000Y-106130000D01*
X62302619Y-106177619D01*
X62350238Y-106272857D01*
X62397857Y-106463333D01*
X62397857Y-106701428D01*
X62350238Y-106891904D01*
X62302619Y-106987142D01*
X62255000Y-107034761D01*
X62159761Y-107082380D01*
X62064523Y-107082380D01*
X61969285Y-107034761D01*
X61921666Y-106987142D01*
X61874047Y-106891904D01*
X61826428Y-106701428D01*
X61826428Y-106463333D01*
X61874047Y-106272857D01*
X61921666Y-106177619D01*
X61969285Y-106130000D01*
X62064523Y-106082380D01*
X62826428Y-107082380D02*
X62826428Y-106415714D01*
X62826428Y-106510952D02*
X62874047Y-106463333D01*
X62969285Y-106415714D01*
X63112142Y-106415714D01*
X63207380Y-106463333D01*
X63255000Y-106558571D01*
X63255000Y-107082380D01*
X63255000Y-106558571D02*
X63302619Y-106463333D01*
X63397857Y-106415714D01*
X63540714Y-106415714D01*
X63635952Y-106463333D01*
X63683571Y-106558571D01*
X63683571Y-107082380D01*
X64112142Y-106796666D02*
X64588333Y-106796666D01*
X64016904Y-107082380D02*
X64350238Y-106082380D01*
X64683571Y-107082380D01*
X61896666Y-103008571D02*
X61563333Y-103008571D01*
X61563333Y-103532380D02*
X61563333Y-102532380D01*
X62039523Y-102532380D01*
X62944285Y-103532380D02*
X62372857Y-103532380D01*
X62658571Y-103532380D02*
X62658571Y-102532380D01*
X62563333Y-102675238D01*
X62468095Y-102770476D01*
X62372857Y-102818095D01*
%TO.C,K2*%
D16*
X122871666Y-122155238D02*
X122871666Y-121679047D01*
X123157380Y-122250476D02*
X122157380Y-121917142D01*
X123157380Y-121583809D01*
X123157380Y-120774285D02*
X123157380Y-121250476D01*
X122157380Y-121250476D01*
X123252619Y-119774285D02*
X123205000Y-119869523D01*
X123109761Y-119964761D01*
X122966904Y-120107619D01*
X122919285Y-120202857D01*
X122919285Y-120298095D01*
X123157380Y-120250476D02*
X123109761Y-120345714D01*
X123014523Y-120440952D01*
X122824047Y-120488571D01*
X122490714Y-120488571D01*
X122300238Y-120440952D01*
X122205000Y-120345714D01*
X122157380Y-120250476D01*
X122157380Y-120060000D01*
X122205000Y-119964761D01*
X122300238Y-119869523D01*
X122490714Y-119821904D01*
X122824047Y-119821904D01*
X123014523Y-119869523D01*
X123109761Y-119964761D01*
X123157380Y-120060000D01*
X123157380Y-120250476D01*
X122157380Y-119488571D02*
X122157380Y-118869523D01*
X122538333Y-119202857D01*
X122538333Y-119060000D01*
X122585952Y-118964761D01*
X122633571Y-118917142D01*
X122728809Y-118869523D01*
X122966904Y-118869523D01*
X123062142Y-118917142D01*
X123109761Y-118964761D01*
X123157380Y-119060000D01*
X123157380Y-119345714D01*
X123109761Y-119440952D01*
X123062142Y-119488571D01*
X123157380Y-117917142D02*
X123157380Y-118488571D01*
X123157380Y-118202857D02*
X122157380Y-118202857D01*
X122300238Y-118298095D01*
X122395476Y-118393333D01*
X122443095Y-118488571D01*
X122252619Y-117536190D02*
X122205000Y-117488571D01*
X122157380Y-117393333D01*
X122157380Y-117155238D01*
X122205000Y-117060000D01*
X122252619Y-117012380D01*
X122347857Y-116964761D01*
X122443095Y-116964761D01*
X122585952Y-117012380D01*
X123157380Y-117583809D01*
X123157380Y-116964761D01*
%TO.C,K1*%
X84401666Y-122155238D02*
X84401666Y-121679047D01*
X84687380Y-122250476D02*
X83687380Y-121917142D01*
X84687380Y-121583809D01*
X84687380Y-120774285D02*
X84687380Y-121250476D01*
X83687380Y-121250476D01*
X84782619Y-119774285D02*
X84735000Y-119869523D01*
X84639761Y-119964761D01*
X84496904Y-120107619D01*
X84449285Y-120202857D01*
X84449285Y-120298095D01*
X84687380Y-120250476D02*
X84639761Y-120345714D01*
X84544523Y-120440952D01*
X84354047Y-120488571D01*
X84020714Y-120488571D01*
X83830238Y-120440952D01*
X83735000Y-120345714D01*
X83687380Y-120250476D01*
X83687380Y-120060000D01*
X83735000Y-119964761D01*
X83830238Y-119869523D01*
X84020714Y-119821904D01*
X84354047Y-119821904D01*
X84544523Y-119869523D01*
X84639761Y-119964761D01*
X84687380Y-120060000D01*
X84687380Y-120250476D01*
X83687380Y-119488571D02*
X83687380Y-118869523D01*
X84068333Y-119202857D01*
X84068333Y-119060000D01*
X84115952Y-118964761D01*
X84163571Y-118917142D01*
X84258809Y-118869523D01*
X84496904Y-118869523D01*
X84592142Y-118917142D01*
X84639761Y-118964761D01*
X84687380Y-119060000D01*
X84687380Y-119345714D01*
X84639761Y-119440952D01*
X84592142Y-119488571D01*
X84687380Y-117917142D02*
X84687380Y-118488571D01*
X84687380Y-118202857D02*
X83687380Y-118202857D01*
X83830238Y-118298095D01*
X83925476Y-118393333D01*
X83973095Y-118488571D01*
X83782619Y-117536190D02*
X83735000Y-117488571D01*
X83687380Y-117393333D01*
X83687380Y-117155238D01*
X83735000Y-117060000D01*
X83782619Y-117012380D01*
X83877857Y-116964761D01*
X83973095Y-116964761D01*
X84115952Y-117012380D01*
X84687380Y-117583809D01*
X84687380Y-116964761D01*
%TO.C,D7*%
D15*
X139377142Y-116092380D02*
X138805714Y-116092380D01*
X139091428Y-116092380D02*
X139091428Y-115092380D01*
X138996190Y-115235238D01*
X138900952Y-115330476D01*
X138805714Y-115378095D01*
X139805714Y-116092380D02*
X139805714Y-115092380D01*
X140377142Y-116092380D01*
X140377142Y-115092380D01*
X141281904Y-115425714D02*
X141281904Y-116092380D01*
X141043809Y-115044761D02*
X140805714Y-115759047D01*
X141424761Y-115759047D01*
X141996190Y-115092380D02*
X142091428Y-115092380D01*
X142186666Y-115140000D01*
X142234285Y-115187619D01*
X142281904Y-115282857D01*
X142329523Y-115473333D01*
X142329523Y-115711428D01*
X142281904Y-115901904D01*
X142234285Y-115997142D01*
X142186666Y-116044761D01*
X142091428Y-116092380D01*
X141996190Y-116092380D01*
X141900952Y-116044761D01*
X141853333Y-115997142D01*
X141805714Y-115901904D01*
X141758095Y-115711428D01*
X141758095Y-115473333D01*
X141805714Y-115282857D01*
X141853333Y-115187619D01*
X141900952Y-115140000D01*
X141996190Y-115092380D01*
X142948571Y-115092380D02*
X143043809Y-115092380D01*
X143139047Y-115140000D01*
X143186666Y-115187619D01*
X143234285Y-115282857D01*
X143281904Y-115473333D01*
X143281904Y-115711428D01*
X143234285Y-115901904D01*
X143186666Y-115997142D01*
X143139047Y-116044761D01*
X143043809Y-116092380D01*
X142948571Y-116092380D01*
X142853333Y-116044761D01*
X142805714Y-115997142D01*
X142758095Y-115901904D01*
X142710476Y-115711428D01*
X142710476Y-115473333D01*
X142758095Y-115282857D01*
X142805714Y-115187619D01*
X142853333Y-115140000D01*
X142948571Y-115092380D01*
X143615238Y-115092380D02*
X144281904Y-115092380D01*
X143853333Y-116092380D01*
X137448095Y-111622380D02*
X137448095Y-110622380D01*
X138019523Y-111622380D02*
X137590952Y-111050952D01*
X138019523Y-110622380D02*
X137448095Y-111193809D01*
X140781904Y-113722380D02*
X140781904Y-112722380D01*
X141020000Y-112722380D01*
X141162857Y-112770000D01*
X141258095Y-112865238D01*
X141305714Y-112960476D01*
X141353333Y-113150952D01*
X141353333Y-113293809D01*
X141305714Y-113484285D01*
X141258095Y-113579523D01*
X141162857Y-113674761D01*
X141020000Y-113722380D01*
X140781904Y-113722380D01*
X141686666Y-112722380D02*
X142353333Y-112722380D01*
X141924761Y-113722380D01*
%TO.C,D6*%
X100007142Y-116092380D02*
X99435714Y-116092380D01*
X99721428Y-116092380D02*
X99721428Y-115092380D01*
X99626190Y-115235238D01*
X99530952Y-115330476D01*
X99435714Y-115378095D01*
X100435714Y-116092380D02*
X100435714Y-115092380D01*
X101007142Y-116092380D01*
X101007142Y-115092380D01*
X101911904Y-115425714D02*
X101911904Y-116092380D01*
X101673809Y-115044761D02*
X101435714Y-115759047D01*
X102054761Y-115759047D01*
X102626190Y-115092380D02*
X102721428Y-115092380D01*
X102816666Y-115140000D01*
X102864285Y-115187619D01*
X102911904Y-115282857D01*
X102959523Y-115473333D01*
X102959523Y-115711428D01*
X102911904Y-115901904D01*
X102864285Y-115997142D01*
X102816666Y-116044761D01*
X102721428Y-116092380D01*
X102626190Y-116092380D01*
X102530952Y-116044761D01*
X102483333Y-115997142D01*
X102435714Y-115901904D01*
X102388095Y-115711428D01*
X102388095Y-115473333D01*
X102435714Y-115282857D01*
X102483333Y-115187619D01*
X102530952Y-115140000D01*
X102626190Y-115092380D01*
X103578571Y-115092380D02*
X103673809Y-115092380D01*
X103769047Y-115140000D01*
X103816666Y-115187619D01*
X103864285Y-115282857D01*
X103911904Y-115473333D01*
X103911904Y-115711428D01*
X103864285Y-115901904D01*
X103816666Y-115997142D01*
X103769047Y-116044761D01*
X103673809Y-116092380D01*
X103578571Y-116092380D01*
X103483333Y-116044761D01*
X103435714Y-115997142D01*
X103388095Y-115901904D01*
X103340476Y-115711428D01*
X103340476Y-115473333D01*
X103388095Y-115282857D01*
X103435714Y-115187619D01*
X103483333Y-115140000D01*
X103578571Y-115092380D01*
X104245238Y-115092380D02*
X104911904Y-115092380D01*
X104483333Y-116092380D01*
X98078095Y-111622380D02*
X98078095Y-110622380D01*
X98649523Y-111622380D02*
X98220952Y-111050952D01*
X98649523Y-110622380D02*
X98078095Y-111193809D01*
X101411904Y-113722380D02*
X101411904Y-112722380D01*
X101650000Y-112722380D01*
X101792857Y-112770000D01*
X101888095Y-112865238D01*
X101935714Y-112960476D01*
X101983333Y-113150952D01*
X101983333Y-113293809D01*
X101935714Y-113484285D01*
X101888095Y-113579523D01*
X101792857Y-113674761D01*
X101650000Y-113722380D01*
X101411904Y-113722380D01*
X102840476Y-112722380D02*
X102650000Y-112722380D01*
X102554761Y-112770000D01*
X102507142Y-112817619D01*
X102411904Y-112960476D01*
X102364285Y-113150952D01*
X102364285Y-113531904D01*
X102411904Y-113627142D01*
X102459523Y-113674761D01*
X102554761Y-113722380D01*
X102745238Y-113722380D01*
X102840476Y-113674761D01*
X102888095Y-113627142D01*
X102935714Y-113531904D01*
X102935714Y-113293809D01*
X102888095Y-113198571D01*
X102840476Y-113150952D01*
X102745238Y-113103333D01*
X102554761Y-113103333D01*
X102459523Y-113150952D01*
X102411904Y-113198571D01*
X102364285Y-113293809D01*
%TO.C,REF\u002A\u002A*%
X188023809Y-136552380D02*
X188023809Y-135552380D01*
X188357142Y-136266666D01*
X188690476Y-135552380D01*
X188690476Y-136552380D01*
X189309523Y-136552380D02*
X189214285Y-136504761D01*
X189166666Y-136457142D01*
X189119047Y-136361904D01*
X189119047Y-136076190D01*
X189166666Y-135980952D01*
X189214285Y-135933333D01*
X189309523Y-135885714D01*
X189452380Y-135885714D01*
X189547619Y-135933333D01*
X189595238Y-135980952D01*
X189642857Y-136076190D01*
X189642857Y-136361904D01*
X189595238Y-136457142D01*
X189547619Y-136504761D01*
X189452380Y-136552380D01*
X189309523Y-136552380D01*
X190500000Y-135885714D02*
X190500000Y-136552380D01*
X190071428Y-135885714D02*
X190071428Y-136409523D01*
X190119047Y-136504761D01*
X190214285Y-136552380D01*
X190357142Y-136552380D01*
X190452380Y-136504761D01*
X190500000Y-136457142D01*
X190976190Y-135885714D02*
X190976190Y-136552380D01*
X190976190Y-135980952D02*
X191023809Y-135933333D01*
X191119047Y-135885714D01*
X191261904Y-135885714D01*
X191357142Y-135933333D01*
X191404761Y-136028571D01*
X191404761Y-136552380D01*
X191738095Y-135885714D02*
X192119047Y-135885714D01*
X191880952Y-135552380D02*
X191880952Y-136409523D01*
X191928571Y-136504761D01*
X192023809Y-136552380D01*
X192119047Y-136552380D01*
X192452380Y-136552380D02*
X192452380Y-135885714D01*
X192452380Y-135552380D02*
X192404761Y-135600000D01*
X192452380Y-135647619D01*
X192500000Y-135600000D01*
X192452380Y-135552380D01*
X192452380Y-135647619D01*
X192928571Y-135885714D02*
X192928571Y-136552380D01*
X192928571Y-135980952D02*
X192976190Y-135933333D01*
X193071428Y-135885714D01*
X193214285Y-135885714D01*
X193309523Y-135933333D01*
X193357142Y-136028571D01*
X193357142Y-136552380D01*
X194261904Y-135885714D02*
X194261904Y-136695238D01*
X194214285Y-136790476D01*
X194166666Y-136838095D01*
X194071428Y-136885714D01*
X193928571Y-136885714D01*
X193833333Y-136838095D01*
X194261904Y-136504761D02*
X194166666Y-136552380D01*
X193976190Y-136552380D01*
X193880952Y-136504761D01*
X193833333Y-136457142D01*
X193785714Y-136361904D01*
X193785714Y-136076190D01*
X193833333Y-135980952D01*
X193880952Y-135933333D01*
X193976190Y-135885714D01*
X194166666Y-135885714D01*
X194261904Y-135933333D01*
X194738095Y-136552380D02*
X194738095Y-135552380D01*
X194738095Y-136028571D02*
X195309523Y-136028571D01*
X195309523Y-136552380D02*
X195309523Y-135552380D01*
X195928571Y-136552380D02*
X195833333Y-136504761D01*
X195785714Y-136457142D01*
X195738095Y-136361904D01*
X195738095Y-136076190D01*
X195785714Y-135980952D01*
X195833333Y-135933333D01*
X195928571Y-135885714D01*
X196071428Y-135885714D01*
X196166666Y-135933333D01*
X196214285Y-135980952D01*
X196261904Y-136076190D01*
X196261904Y-136361904D01*
X196214285Y-136457142D01*
X196166666Y-136504761D01*
X196071428Y-136552380D01*
X195928571Y-136552380D01*
X196833333Y-136552380D02*
X196738095Y-136504761D01*
X196690476Y-136409523D01*
X196690476Y-135552380D01*
X197595238Y-136504761D02*
X197500000Y-136552380D01*
X197309523Y-136552380D01*
X197214285Y-136504761D01*
X197166666Y-136409523D01*
X197166666Y-136028571D01*
X197214285Y-135933333D01*
X197309523Y-135885714D01*
X197500000Y-135885714D01*
X197595238Y-135933333D01*
X197642857Y-136028571D01*
X197642857Y-136123809D01*
X197166666Y-136219047D01*
X197833333Y-136647619D02*
X198595238Y-136647619D01*
X198785714Y-135647619D02*
X198833333Y-135600000D01*
X198928571Y-135552380D01*
X199166666Y-135552380D01*
X199261904Y-135600000D01*
X199309523Y-135647619D01*
X199357142Y-135742857D01*
X199357142Y-135838095D01*
X199309523Y-135980952D01*
X198738095Y-136552380D01*
X199357142Y-136552380D01*
X199785714Y-136457142D02*
X199833333Y-136504761D01*
X199785714Y-136552380D01*
X199738095Y-136504761D01*
X199785714Y-136457142D01*
X199785714Y-136552380D01*
X200738095Y-135552380D02*
X200261904Y-135552380D01*
X200214285Y-136028571D01*
X200261904Y-135980952D01*
X200357142Y-135933333D01*
X200595238Y-135933333D01*
X200690476Y-135980952D01*
X200738095Y-136028571D01*
X200785714Y-136123809D01*
X200785714Y-136361904D01*
X200738095Y-136457142D01*
X200690476Y-136504761D01*
X200595238Y-136552380D01*
X200357142Y-136552380D01*
X200261904Y-136504761D01*
X200214285Y-136457142D01*
X201214285Y-136552380D02*
X201214285Y-135885714D01*
X201214285Y-135980952D02*
X201261904Y-135933333D01*
X201357142Y-135885714D01*
X201500000Y-135885714D01*
X201595238Y-135933333D01*
X201642857Y-136028571D01*
X201642857Y-136552380D01*
X201642857Y-136028571D02*
X201690476Y-135933333D01*
X201785714Y-135885714D01*
X201928571Y-135885714D01*
X202023809Y-135933333D01*
X202071428Y-136028571D01*
X202071428Y-136552380D01*
X202547619Y-136552380D02*
X202547619Y-135885714D01*
X202547619Y-135980952D02*
X202595238Y-135933333D01*
X202690476Y-135885714D01*
X202833333Y-135885714D01*
X202928571Y-135933333D01*
X202976190Y-136028571D01*
X202976190Y-136552380D01*
X202976190Y-136028571D02*
X203023809Y-135933333D01*
X203119047Y-135885714D01*
X203261904Y-135885714D01*
X203357142Y-135933333D01*
X203404761Y-136028571D01*
X203404761Y-136552380D01*
X203642857Y-136647619D02*
X204404761Y-136647619D01*
X204642857Y-136552380D02*
X204642857Y-135552380D01*
X205023809Y-135552380D01*
X205119047Y-135600000D01*
X205166666Y-135647619D01*
X205214285Y-135742857D01*
X205214285Y-135885714D01*
X205166666Y-135980952D01*
X205119047Y-136028571D01*
X205023809Y-136076190D01*
X204642857Y-136076190D01*
X206071428Y-136552380D02*
X206071428Y-136028571D01*
X206023809Y-135933333D01*
X205928571Y-135885714D01*
X205738095Y-135885714D01*
X205642857Y-135933333D01*
X206071428Y-136504761D02*
X205976190Y-136552380D01*
X205738095Y-136552380D01*
X205642857Y-136504761D01*
X205595238Y-136409523D01*
X205595238Y-136314285D01*
X205642857Y-136219047D01*
X205738095Y-136171428D01*
X205976190Y-136171428D01*
X206071428Y-136123809D01*
X206976190Y-136552380D02*
X206976190Y-135552380D01*
X206976190Y-136504761D02*
X206880952Y-136552380D01*
X206690476Y-136552380D01*
X206595238Y-136504761D01*
X206547619Y-136457142D01*
X206500000Y-136361904D01*
X206500000Y-136076190D01*
X206547619Y-135980952D01*
X206595238Y-135933333D01*
X206690476Y-135885714D01*
X206880952Y-135885714D01*
X206976190Y-135933333D01*
X196466666Y-133052380D02*
X196133333Y-132576190D01*
X195895238Y-133052380D02*
X195895238Y-132052380D01*
X196276190Y-132052380D01*
X196371428Y-132100000D01*
X196419047Y-132147619D01*
X196466666Y-132242857D01*
X196466666Y-132385714D01*
X196419047Y-132480952D01*
X196371428Y-132528571D01*
X196276190Y-132576190D01*
X195895238Y-132576190D01*
X196895238Y-132528571D02*
X197228571Y-132528571D01*
X197371428Y-133052380D02*
X196895238Y-133052380D01*
X196895238Y-132052380D01*
X197371428Y-132052380D01*
X198133333Y-132528571D02*
X197800000Y-132528571D01*
X197800000Y-133052380D02*
X197800000Y-132052380D01*
X198276190Y-132052380D01*
X198800000Y-132052380D02*
X198800000Y-132290476D01*
X198561904Y-132195238D02*
X198800000Y-132290476D01*
X199038095Y-132195238D01*
X198657142Y-132480952D02*
X198800000Y-132290476D01*
X198942857Y-132480952D01*
X199561904Y-132052380D02*
X199561904Y-132290476D01*
X199323809Y-132195238D02*
X199561904Y-132290476D01*
X199800000Y-132195238D01*
X199419047Y-132480952D02*
X199561904Y-132290476D01*
X199704761Y-132480952D01*
X187923809Y-50052380D02*
X187923809Y-49052380D01*
X188257142Y-49766666D01*
X188590476Y-49052380D01*
X188590476Y-50052380D01*
X189209523Y-50052380D02*
X189114285Y-50004761D01*
X189066666Y-49957142D01*
X189019047Y-49861904D01*
X189019047Y-49576190D01*
X189066666Y-49480952D01*
X189114285Y-49433333D01*
X189209523Y-49385714D01*
X189352380Y-49385714D01*
X189447619Y-49433333D01*
X189495238Y-49480952D01*
X189542857Y-49576190D01*
X189542857Y-49861904D01*
X189495238Y-49957142D01*
X189447619Y-50004761D01*
X189352380Y-50052380D01*
X189209523Y-50052380D01*
X190400000Y-49385714D02*
X190400000Y-50052380D01*
X189971428Y-49385714D02*
X189971428Y-49909523D01*
X190019047Y-50004761D01*
X190114285Y-50052380D01*
X190257142Y-50052380D01*
X190352380Y-50004761D01*
X190400000Y-49957142D01*
X190876190Y-49385714D02*
X190876190Y-50052380D01*
X190876190Y-49480952D02*
X190923809Y-49433333D01*
X191019047Y-49385714D01*
X191161904Y-49385714D01*
X191257142Y-49433333D01*
X191304761Y-49528571D01*
X191304761Y-50052380D01*
X191638095Y-49385714D02*
X192019047Y-49385714D01*
X191780952Y-49052380D02*
X191780952Y-49909523D01*
X191828571Y-50004761D01*
X191923809Y-50052380D01*
X192019047Y-50052380D01*
X192352380Y-50052380D02*
X192352380Y-49385714D01*
X192352380Y-49052380D02*
X192304761Y-49100000D01*
X192352380Y-49147619D01*
X192400000Y-49100000D01*
X192352380Y-49052380D01*
X192352380Y-49147619D01*
X192828571Y-49385714D02*
X192828571Y-50052380D01*
X192828571Y-49480952D02*
X192876190Y-49433333D01*
X192971428Y-49385714D01*
X193114285Y-49385714D01*
X193209523Y-49433333D01*
X193257142Y-49528571D01*
X193257142Y-50052380D01*
X194161904Y-49385714D02*
X194161904Y-50195238D01*
X194114285Y-50290476D01*
X194066666Y-50338095D01*
X193971428Y-50385714D01*
X193828571Y-50385714D01*
X193733333Y-50338095D01*
X194161904Y-50004761D02*
X194066666Y-50052380D01*
X193876190Y-50052380D01*
X193780952Y-50004761D01*
X193733333Y-49957142D01*
X193685714Y-49861904D01*
X193685714Y-49576190D01*
X193733333Y-49480952D01*
X193780952Y-49433333D01*
X193876190Y-49385714D01*
X194066666Y-49385714D01*
X194161904Y-49433333D01*
X194638095Y-50052380D02*
X194638095Y-49052380D01*
X194638095Y-49528571D02*
X195209523Y-49528571D01*
X195209523Y-50052380D02*
X195209523Y-49052380D01*
X195828571Y-50052380D02*
X195733333Y-50004761D01*
X195685714Y-49957142D01*
X195638095Y-49861904D01*
X195638095Y-49576190D01*
X195685714Y-49480952D01*
X195733333Y-49433333D01*
X195828571Y-49385714D01*
X195971428Y-49385714D01*
X196066666Y-49433333D01*
X196114285Y-49480952D01*
X196161904Y-49576190D01*
X196161904Y-49861904D01*
X196114285Y-49957142D01*
X196066666Y-50004761D01*
X195971428Y-50052380D01*
X195828571Y-50052380D01*
X196733333Y-50052380D02*
X196638095Y-50004761D01*
X196590476Y-49909523D01*
X196590476Y-49052380D01*
X197495238Y-50004761D02*
X197400000Y-50052380D01*
X197209523Y-50052380D01*
X197114285Y-50004761D01*
X197066666Y-49909523D01*
X197066666Y-49528571D01*
X197114285Y-49433333D01*
X197209523Y-49385714D01*
X197400000Y-49385714D01*
X197495238Y-49433333D01*
X197542857Y-49528571D01*
X197542857Y-49623809D01*
X197066666Y-49719047D01*
X197733333Y-50147619D02*
X198495238Y-50147619D01*
X198685714Y-49147619D02*
X198733333Y-49100000D01*
X198828571Y-49052380D01*
X199066666Y-49052380D01*
X199161904Y-49100000D01*
X199209523Y-49147619D01*
X199257142Y-49242857D01*
X199257142Y-49338095D01*
X199209523Y-49480952D01*
X198638095Y-50052380D01*
X199257142Y-50052380D01*
X199685714Y-49957142D02*
X199733333Y-50004761D01*
X199685714Y-50052380D01*
X199638095Y-50004761D01*
X199685714Y-49957142D01*
X199685714Y-50052380D01*
X200638095Y-49052380D02*
X200161904Y-49052380D01*
X200114285Y-49528571D01*
X200161904Y-49480952D01*
X200257142Y-49433333D01*
X200495238Y-49433333D01*
X200590476Y-49480952D01*
X200638095Y-49528571D01*
X200685714Y-49623809D01*
X200685714Y-49861904D01*
X200638095Y-49957142D01*
X200590476Y-50004761D01*
X200495238Y-50052380D01*
X200257142Y-50052380D01*
X200161904Y-50004761D01*
X200114285Y-49957142D01*
X201114285Y-50052380D02*
X201114285Y-49385714D01*
X201114285Y-49480952D02*
X201161904Y-49433333D01*
X201257142Y-49385714D01*
X201400000Y-49385714D01*
X201495238Y-49433333D01*
X201542857Y-49528571D01*
X201542857Y-50052380D01*
X201542857Y-49528571D02*
X201590476Y-49433333D01*
X201685714Y-49385714D01*
X201828571Y-49385714D01*
X201923809Y-49433333D01*
X201971428Y-49528571D01*
X201971428Y-50052380D01*
X202447619Y-50052380D02*
X202447619Y-49385714D01*
X202447619Y-49480952D02*
X202495238Y-49433333D01*
X202590476Y-49385714D01*
X202733333Y-49385714D01*
X202828571Y-49433333D01*
X202876190Y-49528571D01*
X202876190Y-50052380D01*
X202876190Y-49528571D02*
X202923809Y-49433333D01*
X203019047Y-49385714D01*
X203161904Y-49385714D01*
X203257142Y-49433333D01*
X203304761Y-49528571D01*
X203304761Y-50052380D01*
X203542857Y-50147619D02*
X204304761Y-50147619D01*
X204542857Y-50052380D02*
X204542857Y-49052380D01*
X204923809Y-49052380D01*
X205019047Y-49100000D01*
X205066666Y-49147619D01*
X205114285Y-49242857D01*
X205114285Y-49385714D01*
X205066666Y-49480952D01*
X205019047Y-49528571D01*
X204923809Y-49576190D01*
X204542857Y-49576190D01*
X205971428Y-50052380D02*
X205971428Y-49528571D01*
X205923809Y-49433333D01*
X205828571Y-49385714D01*
X205638095Y-49385714D01*
X205542857Y-49433333D01*
X205971428Y-50004761D02*
X205876190Y-50052380D01*
X205638095Y-50052380D01*
X205542857Y-50004761D01*
X205495238Y-49909523D01*
X205495238Y-49814285D01*
X205542857Y-49719047D01*
X205638095Y-49671428D01*
X205876190Y-49671428D01*
X205971428Y-49623809D01*
X206876190Y-50052380D02*
X206876190Y-49052380D01*
X206876190Y-50004761D02*
X206780952Y-50052380D01*
X206590476Y-50052380D01*
X206495238Y-50004761D01*
X206447619Y-49957142D01*
X206400000Y-49861904D01*
X206400000Y-49576190D01*
X206447619Y-49480952D01*
X206495238Y-49433333D01*
X206590476Y-49385714D01*
X206780952Y-49385714D01*
X206876190Y-49433333D01*
X196366666Y-46552380D02*
X196033333Y-46076190D01*
X195795238Y-46552380D02*
X195795238Y-45552380D01*
X196176190Y-45552380D01*
X196271428Y-45600000D01*
X196319047Y-45647619D01*
X196366666Y-45742857D01*
X196366666Y-45885714D01*
X196319047Y-45980952D01*
X196271428Y-46028571D01*
X196176190Y-46076190D01*
X195795238Y-46076190D01*
X196795238Y-46028571D02*
X197128571Y-46028571D01*
X197271428Y-46552380D02*
X196795238Y-46552380D01*
X196795238Y-45552380D01*
X197271428Y-45552380D01*
X198033333Y-46028571D02*
X197700000Y-46028571D01*
X197700000Y-46552380D02*
X197700000Y-45552380D01*
X198176190Y-45552380D01*
X198700000Y-45552380D02*
X198700000Y-45790476D01*
X198461904Y-45695238D02*
X198700000Y-45790476D01*
X198938095Y-45695238D01*
X198557142Y-45980952D02*
X198700000Y-45790476D01*
X198842857Y-45980952D01*
X199461904Y-45552380D02*
X199461904Y-45790476D01*
X199223809Y-45695238D02*
X199461904Y-45790476D01*
X199700000Y-45695238D01*
X199319047Y-45980952D02*
X199461904Y-45790476D01*
X199604761Y-45980952D01*
X39323809Y-50152380D02*
X39323809Y-49152380D01*
X39657142Y-49866666D01*
X39990476Y-49152380D01*
X39990476Y-50152380D01*
X40609523Y-50152380D02*
X40514285Y-50104761D01*
X40466666Y-50057142D01*
X40419047Y-49961904D01*
X40419047Y-49676190D01*
X40466666Y-49580952D01*
X40514285Y-49533333D01*
X40609523Y-49485714D01*
X40752380Y-49485714D01*
X40847619Y-49533333D01*
X40895238Y-49580952D01*
X40942857Y-49676190D01*
X40942857Y-49961904D01*
X40895238Y-50057142D01*
X40847619Y-50104761D01*
X40752380Y-50152380D01*
X40609523Y-50152380D01*
X41800000Y-49485714D02*
X41800000Y-50152380D01*
X41371428Y-49485714D02*
X41371428Y-50009523D01*
X41419047Y-50104761D01*
X41514285Y-50152380D01*
X41657142Y-50152380D01*
X41752380Y-50104761D01*
X41800000Y-50057142D01*
X42276190Y-49485714D02*
X42276190Y-50152380D01*
X42276190Y-49580952D02*
X42323809Y-49533333D01*
X42419047Y-49485714D01*
X42561904Y-49485714D01*
X42657142Y-49533333D01*
X42704761Y-49628571D01*
X42704761Y-50152380D01*
X43038095Y-49485714D02*
X43419047Y-49485714D01*
X43180952Y-49152380D02*
X43180952Y-50009523D01*
X43228571Y-50104761D01*
X43323809Y-50152380D01*
X43419047Y-50152380D01*
X43752380Y-50152380D02*
X43752380Y-49485714D01*
X43752380Y-49152380D02*
X43704761Y-49200000D01*
X43752380Y-49247619D01*
X43800000Y-49200000D01*
X43752380Y-49152380D01*
X43752380Y-49247619D01*
X44228571Y-49485714D02*
X44228571Y-50152380D01*
X44228571Y-49580952D02*
X44276190Y-49533333D01*
X44371428Y-49485714D01*
X44514285Y-49485714D01*
X44609523Y-49533333D01*
X44657142Y-49628571D01*
X44657142Y-50152380D01*
X45561904Y-49485714D02*
X45561904Y-50295238D01*
X45514285Y-50390476D01*
X45466666Y-50438095D01*
X45371428Y-50485714D01*
X45228571Y-50485714D01*
X45133333Y-50438095D01*
X45561904Y-50104761D02*
X45466666Y-50152380D01*
X45276190Y-50152380D01*
X45180952Y-50104761D01*
X45133333Y-50057142D01*
X45085714Y-49961904D01*
X45085714Y-49676190D01*
X45133333Y-49580952D01*
X45180952Y-49533333D01*
X45276190Y-49485714D01*
X45466666Y-49485714D01*
X45561904Y-49533333D01*
X46038095Y-50152380D02*
X46038095Y-49152380D01*
X46038095Y-49628571D02*
X46609523Y-49628571D01*
X46609523Y-50152380D02*
X46609523Y-49152380D01*
X47228571Y-50152380D02*
X47133333Y-50104761D01*
X47085714Y-50057142D01*
X47038095Y-49961904D01*
X47038095Y-49676190D01*
X47085714Y-49580952D01*
X47133333Y-49533333D01*
X47228571Y-49485714D01*
X47371428Y-49485714D01*
X47466666Y-49533333D01*
X47514285Y-49580952D01*
X47561904Y-49676190D01*
X47561904Y-49961904D01*
X47514285Y-50057142D01*
X47466666Y-50104761D01*
X47371428Y-50152380D01*
X47228571Y-50152380D01*
X48133333Y-50152380D02*
X48038095Y-50104761D01*
X47990476Y-50009523D01*
X47990476Y-49152380D01*
X48895238Y-50104761D02*
X48800000Y-50152380D01*
X48609523Y-50152380D01*
X48514285Y-50104761D01*
X48466666Y-50009523D01*
X48466666Y-49628571D01*
X48514285Y-49533333D01*
X48609523Y-49485714D01*
X48800000Y-49485714D01*
X48895238Y-49533333D01*
X48942857Y-49628571D01*
X48942857Y-49723809D01*
X48466666Y-49819047D01*
X49133333Y-50247619D02*
X49895238Y-50247619D01*
X50085714Y-49247619D02*
X50133333Y-49200000D01*
X50228571Y-49152380D01*
X50466666Y-49152380D01*
X50561904Y-49200000D01*
X50609523Y-49247619D01*
X50657142Y-49342857D01*
X50657142Y-49438095D01*
X50609523Y-49580952D01*
X50038095Y-50152380D01*
X50657142Y-50152380D01*
X51085714Y-50057142D02*
X51133333Y-50104761D01*
X51085714Y-50152380D01*
X51038095Y-50104761D01*
X51085714Y-50057142D01*
X51085714Y-50152380D01*
X52038095Y-49152380D02*
X51561904Y-49152380D01*
X51514285Y-49628571D01*
X51561904Y-49580952D01*
X51657142Y-49533333D01*
X51895238Y-49533333D01*
X51990476Y-49580952D01*
X52038095Y-49628571D01*
X52085714Y-49723809D01*
X52085714Y-49961904D01*
X52038095Y-50057142D01*
X51990476Y-50104761D01*
X51895238Y-50152380D01*
X51657142Y-50152380D01*
X51561904Y-50104761D01*
X51514285Y-50057142D01*
X52514285Y-50152380D02*
X52514285Y-49485714D01*
X52514285Y-49580952D02*
X52561904Y-49533333D01*
X52657142Y-49485714D01*
X52799999Y-49485714D01*
X52895238Y-49533333D01*
X52942857Y-49628571D01*
X52942857Y-50152380D01*
X52942857Y-49628571D02*
X52990476Y-49533333D01*
X53085714Y-49485714D01*
X53228571Y-49485714D01*
X53323809Y-49533333D01*
X53371428Y-49628571D01*
X53371428Y-50152380D01*
X53847619Y-50152380D02*
X53847619Y-49485714D01*
X53847619Y-49580952D02*
X53895238Y-49533333D01*
X53990476Y-49485714D01*
X54133333Y-49485714D01*
X54228571Y-49533333D01*
X54276190Y-49628571D01*
X54276190Y-50152380D01*
X54276190Y-49628571D02*
X54323809Y-49533333D01*
X54419047Y-49485714D01*
X54561904Y-49485714D01*
X54657142Y-49533333D01*
X54704761Y-49628571D01*
X54704761Y-50152380D01*
X54942857Y-50247619D02*
X55704761Y-50247619D01*
X55942857Y-50152380D02*
X55942857Y-49152380D01*
X56323809Y-49152380D01*
X56419047Y-49200000D01*
X56466666Y-49247619D01*
X56514285Y-49342857D01*
X56514285Y-49485714D01*
X56466666Y-49580952D01*
X56419047Y-49628571D01*
X56323809Y-49676190D01*
X55942857Y-49676190D01*
X57371428Y-50152380D02*
X57371428Y-49628571D01*
X57323809Y-49533333D01*
X57228571Y-49485714D01*
X57038095Y-49485714D01*
X56942857Y-49533333D01*
X57371428Y-50104761D02*
X57276190Y-50152380D01*
X57038095Y-50152380D01*
X56942857Y-50104761D01*
X56895238Y-50009523D01*
X56895238Y-49914285D01*
X56942857Y-49819047D01*
X57038095Y-49771428D01*
X57276190Y-49771428D01*
X57371428Y-49723809D01*
X58276190Y-50152380D02*
X58276190Y-49152380D01*
X58276190Y-50104761D02*
X58180952Y-50152380D01*
X57990476Y-50152380D01*
X57895238Y-50104761D01*
X57847619Y-50057142D01*
X57799999Y-49961904D01*
X57799999Y-49676190D01*
X57847619Y-49580952D01*
X57895238Y-49533333D01*
X57990476Y-49485714D01*
X58180952Y-49485714D01*
X58276190Y-49533333D01*
X47766666Y-46652380D02*
X47433333Y-46176190D01*
X47195238Y-46652380D02*
X47195238Y-45652380D01*
X47576190Y-45652380D01*
X47671428Y-45700000D01*
X47719047Y-45747619D01*
X47766666Y-45842857D01*
X47766666Y-45985714D01*
X47719047Y-46080952D01*
X47671428Y-46128571D01*
X47576190Y-46176190D01*
X47195238Y-46176190D01*
X48195238Y-46128571D02*
X48528571Y-46128571D01*
X48671428Y-46652380D02*
X48195238Y-46652380D01*
X48195238Y-45652380D01*
X48671428Y-45652380D01*
X49433333Y-46128571D02*
X49100000Y-46128571D01*
X49100000Y-46652380D02*
X49100000Y-45652380D01*
X49576190Y-45652380D01*
X50100000Y-45652380D02*
X50100000Y-45890476D01*
X49861904Y-45795238D02*
X50100000Y-45890476D01*
X50338095Y-45795238D01*
X49957142Y-46080952D02*
X50100000Y-45890476D01*
X50242857Y-46080952D01*
X50861904Y-45652380D02*
X50861904Y-45890476D01*
X50623809Y-45795238D02*
X50861904Y-45890476D01*
X51100000Y-45795238D01*
X50719047Y-46080952D02*
X50861904Y-45890476D01*
X51004761Y-46080952D01*
X39323809Y-136752380D02*
X39323809Y-135752380D01*
X39657142Y-136466666D01*
X39990476Y-135752380D01*
X39990476Y-136752380D01*
X40609523Y-136752380D02*
X40514285Y-136704761D01*
X40466666Y-136657142D01*
X40419047Y-136561904D01*
X40419047Y-136276190D01*
X40466666Y-136180952D01*
X40514285Y-136133333D01*
X40609523Y-136085714D01*
X40752380Y-136085714D01*
X40847619Y-136133333D01*
X40895238Y-136180952D01*
X40942857Y-136276190D01*
X40942857Y-136561904D01*
X40895238Y-136657142D01*
X40847619Y-136704761D01*
X40752380Y-136752380D01*
X40609523Y-136752380D01*
X41800000Y-136085714D02*
X41800000Y-136752380D01*
X41371428Y-136085714D02*
X41371428Y-136609523D01*
X41419047Y-136704761D01*
X41514285Y-136752380D01*
X41657142Y-136752380D01*
X41752380Y-136704761D01*
X41800000Y-136657142D01*
X42276190Y-136085714D02*
X42276190Y-136752380D01*
X42276190Y-136180952D02*
X42323809Y-136133333D01*
X42419047Y-136085714D01*
X42561904Y-136085714D01*
X42657142Y-136133333D01*
X42704761Y-136228571D01*
X42704761Y-136752380D01*
X43038095Y-136085714D02*
X43419047Y-136085714D01*
X43180952Y-135752380D02*
X43180952Y-136609523D01*
X43228571Y-136704761D01*
X43323809Y-136752380D01*
X43419047Y-136752380D01*
X43752380Y-136752380D02*
X43752380Y-136085714D01*
X43752380Y-135752380D02*
X43704761Y-135800000D01*
X43752380Y-135847619D01*
X43800000Y-135800000D01*
X43752380Y-135752380D01*
X43752380Y-135847619D01*
X44228571Y-136085714D02*
X44228571Y-136752380D01*
X44228571Y-136180952D02*
X44276190Y-136133333D01*
X44371428Y-136085714D01*
X44514285Y-136085714D01*
X44609523Y-136133333D01*
X44657142Y-136228571D01*
X44657142Y-136752380D01*
X45561904Y-136085714D02*
X45561904Y-136895238D01*
X45514285Y-136990476D01*
X45466666Y-137038095D01*
X45371428Y-137085714D01*
X45228571Y-137085714D01*
X45133333Y-137038095D01*
X45561904Y-136704761D02*
X45466666Y-136752380D01*
X45276190Y-136752380D01*
X45180952Y-136704761D01*
X45133333Y-136657142D01*
X45085714Y-136561904D01*
X45085714Y-136276190D01*
X45133333Y-136180952D01*
X45180952Y-136133333D01*
X45276190Y-136085714D01*
X45466666Y-136085714D01*
X45561904Y-136133333D01*
X46038095Y-136752380D02*
X46038095Y-135752380D01*
X46038095Y-136228571D02*
X46609523Y-136228571D01*
X46609523Y-136752380D02*
X46609523Y-135752380D01*
X47228571Y-136752380D02*
X47133333Y-136704761D01*
X47085714Y-136657142D01*
X47038095Y-136561904D01*
X47038095Y-136276190D01*
X47085714Y-136180952D01*
X47133333Y-136133333D01*
X47228571Y-136085714D01*
X47371428Y-136085714D01*
X47466666Y-136133333D01*
X47514285Y-136180952D01*
X47561904Y-136276190D01*
X47561904Y-136561904D01*
X47514285Y-136657142D01*
X47466666Y-136704761D01*
X47371428Y-136752380D01*
X47228571Y-136752380D01*
X48133333Y-136752380D02*
X48038095Y-136704761D01*
X47990476Y-136609523D01*
X47990476Y-135752380D01*
X48895238Y-136704761D02*
X48800000Y-136752380D01*
X48609523Y-136752380D01*
X48514285Y-136704761D01*
X48466666Y-136609523D01*
X48466666Y-136228571D01*
X48514285Y-136133333D01*
X48609523Y-136085714D01*
X48800000Y-136085714D01*
X48895238Y-136133333D01*
X48942857Y-136228571D01*
X48942857Y-136323809D01*
X48466666Y-136419047D01*
X49133333Y-136847619D02*
X49895238Y-136847619D01*
X50085714Y-135847619D02*
X50133333Y-135800000D01*
X50228571Y-135752380D01*
X50466666Y-135752380D01*
X50561904Y-135800000D01*
X50609523Y-135847619D01*
X50657142Y-135942857D01*
X50657142Y-136038095D01*
X50609523Y-136180952D01*
X50038095Y-136752380D01*
X50657142Y-136752380D01*
X51085714Y-136657142D02*
X51133333Y-136704761D01*
X51085714Y-136752380D01*
X51038095Y-136704761D01*
X51085714Y-136657142D01*
X51085714Y-136752380D01*
X52038095Y-135752380D02*
X51561904Y-135752380D01*
X51514285Y-136228571D01*
X51561904Y-136180952D01*
X51657142Y-136133333D01*
X51895238Y-136133333D01*
X51990476Y-136180952D01*
X52038095Y-136228571D01*
X52085714Y-136323809D01*
X52085714Y-136561904D01*
X52038095Y-136657142D01*
X51990476Y-136704761D01*
X51895238Y-136752380D01*
X51657142Y-136752380D01*
X51561904Y-136704761D01*
X51514285Y-136657142D01*
X52514285Y-136752380D02*
X52514285Y-136085714D01*
X52514285Y-136180952D02*
X52561904Y-136133333D01*
X52657142Y-136085714D01*
X52799999Y-136085714D01*
X52895238Y-136133333D01*
X52942857Y-136228571D01*
X52942857Y-136752380D01*
X52942857Y-136228571D02*
X52990476Y-136133333D01*
X53085714Y-136085714D01*
X53228571Y-136085714D01*
X53323809Y-136133333D01*
X53371428Y-136228571D01*
X53371428Y-136752380D01*
X53847619Y-136752380D02*
X53847619Y-136085714D01*
X53847619Y-136180952D02*
X53895238Y-136133333D01*
X53990476Y-136085714D01*
X54133333Y-136085714D01*
X54228571Y-136133333D01*
X54276190Y-136228571D01*
X54276190Y-136752380D01*
X54276190Y-136228571D02*
X54323809Y-136133333D01*
X54419047Y-136085714D01*
X54561904Y-136085714D01*
X54657142Y-136133333D01*
X54704761Y-136228571D01*
X54704761Y-136752380D01*
X54942857Y-136847619D02*
X55704761Y-136847619D01*
X55942857Y-136752380D02*
X55942857Y-135752380D01*
X56323809Y-135752380D01*
X56419047Y-135800000D01*
X56466666Y-135847619D01*
X56514285Y-135942857D01*
X56514285Y-136085714D01*
X56466666Y-136180952D01*
X56419047Y-136228571D01*
X56323809Y-136276190D01*
X55942857Y-136276190D01*
X57371428Y-136752380D02*
X57371428Y-136228571D01*
X57323809Y-136133333D01*
X57228571Y-136085714D01*
X57038095Y-136085714D01*
X56942857Y-136133333D01*
X57371428Y-136704761D02*
X57276190Y-136752380D01*
X57038095Y-136752380D01*
X56942857Y-136704761D01*
X56895238Y-136609523D01*
X56895238Y-136514285D01*
X56942857Y-136419047D01*
X57038095Y-136371428D01*
X57276190Y-136371428D01*
X57371428Y-136323809D01*
X58276190Y-136752380D02*
X58276190Y-135752380D01*
X58276190Y-136704761D02*
X58180952Y-136752380D01*
X57990476Y-136752380D01*
X57895238Y-136704761D01*
X57847619Y-136657142D01*
X57799999Y-136561904D01*
X57799999Y-136276190D01*
X57847619Y-136180952D01*
X57895238Y-136133333D01*
X57990476Y-136085714D01*
X58180952Y-136085714D01*
X58276190Y-136133333D01*
X47766666Y-133252380D02*
X47433333Y-132776190D01*
X47195238Y-133252380D02*
X47195238Y-132252380D01*
X47576190Y-132252380D01*
X47671428Y-132300000D01*
X47719047Y-132347619D01*
X47766666Y-132442857D01*
X47766666Y-132585714D01*
X47719047Y-132680952D01*
X47671428Y-132728571D01*
X47576190Y-132776190D01*
X47195238Y-132776190D01*
X48195238Y-132728571D02*
X48528571Y-132728571D01*
X48671428Y-133252380D02*
X48195238Y-133252380D01*
X48195238Y-132252380D01*
X48671428Y-132252380D01*
X49433333Y-132728571D02*
X49100000Y-132728571D01*
X49100000Y-133252380D02*
X49100000Y-132252380D01*
X49576190Y-132252380D01*
X50100000Y-132252380D02*
X50100000Y-132490476D01*
X49861904Y-132395238D02*
X50100000Y-132490476D01*
X50338095Y-132395238D01*
X49957142Y-132680952D02*
X50100000Y-132490476D01*
X50242857Y-132680952D01*
X50861904Y-132252380D02*
X50861904Y-132490476D01*
X50623809Y-132395238D02*
X50861904Y-132490476D01*
X51100000Y-132395238D01*
X50719047Y-132680952D02*
X50861904Y-132490476D01*
X51004761Y-132680952D01*
%TO.C,R3*%
X150047619Y-123216666D02*
X150000000Y-123169047D01*
X149952380Y-123073809D01*
X149952380Y-122835714D01*
X150000000Y-122740476D01*
X150047619Y-122692857D01*
X150142857Y-122645238D01*
X150238095Y-122645238D01*
X150380952Y-122692857D01*
X150952380Y-123264285D01*
X150952380Y-122645238D01*
X149952380Y-122026190D02*
X149952380Y-121930952D01*
X150000000Y-121835714D01*
X150047619Y-121788095D01*
X150142857Y-121740476D01*
X150333333Y-121692857D01*
X150571428Y-121692857D01*
X150761904Y-121740476D01*
X150857142Y-121788095D01*
X150904761Y-121835714D01*
X150952380Y-121930952D01*
X150952380Y-122026190D01*
X150904761Y-122121428D01*
X150857142Y-122169047D01*
X150761904Y-122216666D01*
X150571428Y-122264285D01*
X150333333Y-122264285D01*
X150142857Y-122216666D01*
X150047619Y-122169047D01*
X150000000Y-122121428D01*
X149952380Y-122026190D01*
X149952380Y-121073809D02*
X149952380Y-120978571D01*
X150000000Y-120883333D01*
X150047619Y-120835714D01*
X150142857Y-120788095D01*
X150333333Y-120740476D01*
X150571428Y-120740476D01*
X150761904Y-120788095D01*
X150857142Y-120835714D01*
X150904761Y-120883333D01*
X150952380Y-120978571D01*
X150952380Y-121073809D01*
X150904761Y-121169047D01*
X150857142Y-121216666D01*
X150761904Y-121264285D01*
X150571428Y-121311904D01*
X150333333Y-121311904D01*
X150142857Y-121264285D01*
X150047619Y-121216666D01*
X150000000Y-121169047D01*
X149952380Y-121073809D01*
X150952380Y-119026190D02*
X150952380Y-119597619D01*
X150952380Y-119311904D02*
X149952380Y-119311904D01*
X150095238Y-119407142D01*
X150190476Y-119502380D01*
X150238095Y-119597619D01*
X150952380Y-118645238D02*
X149952380Y-117883333D01*
X149952380Y-118502380D02*
X150000000Y-118407142D01*
X150095238Y-118359523D01*
X150190476Y-118407142D01*
X150238095Y-118502380D01*
X150190476Y-118597619D01*
X150095238Y-118645238D01*
X150000000Y-118597619D01*
X149952380Y-118502380D01*
X150904761Y-117930952D02*
X150809523Y-117883333D01*
X150714285Y-117930952D01*
X150666666Y-118026190D01*
X150714285Y-118121428D01*
X150809523Y-118169047D01*
X150904761Y-118121428D01*
X150952380Y-118026190D01*
X150904761Y-117930952D01*
X153322380Y-120716666D02*
X152846190Y-121050000D01*
X153322380Y-121288095D02*
X152322380Y-121288095D01*
X152322380Y-120907142D01*
X152370000Y-120811904D01*
X152417619Y-120764285D01*
X152512857Y-120716666D01*
X152655714Y-120716666D01*
X152750952Y-120764285D01*
X152798571Y-120811904D01*
X152846190Y-120907142D01*
X152846190Y-121288095D01*
X152322380Y-120383333D02*
X152322380Y-119764285D01*
X152703333Y-120097619D01*
X152703333Y-119954761D01*
X152750952Y-119859523D01*
X152798571Y-119811904D01*
X152893809Y-119764285D01*
X153131904Y-119764285D01*
X153227142Y-119811904D01*
X153274761Y-119859523D01*
X153322380Y-119954761D01*
X153322380Y-120240476D01*
X153274761Y-120335714D01*
X153227142Y-120383333D01*
%TO.C,C1*%
X84497619Y-80657619D02*
X84545238Y-80610000D01*
X84640476Y-80562380D01*
X84878571Y-80562380D01*
X84973809Y-80610000D01*
X85021428Y-80657619D01*
X85069047Y-80752857D01*
X85069047Y-80848095D01*
X85021428Y-80990952D01*
X84450000Y-81562380D01*
X85069047Y-81562380D01*
X85450000Y-80657619D02*
X85497619Y-80610000D01*
X85592857Y-80562380D01*
X85830952Y-80562380D01*
X85926190Y-80610000D01*
X85973809Y-80657619D01*
X86021428Y-80752857D01*
X86021428Y-80848095D01*
X85973809Y-80990952D01*
X85402380Y-81562380D01*
X86021428Y-81562380D01*
X86640476Y-80562380D02*
X86735714Y-80562380D01*
X86830952Y-80610000D01*
X86878571Y-80657619D01*
X86926190Y-80752857D01*
X86973809Y-80943333D01*
X86973809Y-81181428D01*
X86926190Y-81371904D01*
X86878571Y-81467142D01*
X86830952Y-81514761D01*
X86735714Y-81562380D01*
X86640476Y-81562380D01*
X86545238Y-81514761D01*
X86497619Y-81467142D01*
X86450000Y-81371904D01*
X86402380Y-81181428D01*
X86402380Y-80943333D01*
X86450000Y-80752857D01*
X86497619Y-80657619D01*
X86545238Y-80610000D01*
X86640476Y-80562380D01*
X87592857Y-80562380D02*
X87688095Y-80562380D01*
X87783333Y-80610000D01*
X87830952Y-80657619D01*
X87878571Y-80752857D01*
X87926190Y-80943333D01*
X87926190Y-81181428D01*
X87878571Y-81371904D01*
X87830952Y-81467142D01*
X87783333Y-81514761D01*
X87688095Y-81562380D01*
X87592857Y-81562380D01*
X87497619Y-81514761D01*
X87450000Y-81467142D01*
X87402380Y-81371904D01*
X87354761Y-81181428D01*
X87354761Y-80943333D01*
X87402380Y-80752857D01*
X87450000Y-80657619D01*
X87497619Y-80610000D01*
X87592857Y-80562380D01*
X88783333Y-80895714D02*
X88783333Y-81562380D01*
X88354761Y-80895714D02*
X88354761Y-81419523D01*
X88402380Y-81514761D01*
X88497619Y-81562380D01*
X88640476Y-81562380D01*
X88735714Y-81514761D01*
X88783333Y-81467142D01*
X89116666Y-80895714D02*
X89497619Y-80895714D01*
X89259523Y-81562380D02*
X89259523Y-80705238D01*
X89307142Y-80610000D01*
X89402380Y-80562380D01*
X89497619Y-80562380D01*
X86783333Y-71717142D02*
X86735714Y-71764761D01*
X86592857Y-71812380D01*
X86497619Y-71812380D01*
X86354761Y-71764761D01*
X86259523Y-71669523D01*
X86211904Y-71574285D01*
X86164285Y-71383809D01*
X86164285Y-71240952D01*
X86211904Y-71050476D01*
X86259523Y-70955238D01*
X86354761Y-70860000D01*
X86497619Y-70812380D01*
X86592857Y-70812380D01*
X86735714Y-70860000D01*
X86783333Y-70907619D01*
X87735714Y-71812380D02*
X87164285Y-71812380D01*
X87450000Y-71812380D02*
X87450000Y-70812380D01*
X87354761Y-70955238D01*
X87259523Y-71050476D01*
X87164285Y-71098095D01*
%TO.C,C2*%
X83186190Y-44882380D02*
X83805238Y-44882380D01*
X83471904Y-45263333D01*
X83614761Y-45263333D01*
X83710000Y-45310952D01*
X83757619Y-45358571D01*
X83805238Y-45453809D01*
X83805238Y-45691904D01*
X83757619Y-45787142D01*
X83710000Y-45834761D01*
X83614761Y-45882380D01*
X83329047Y-45882380D01*
X83233809Y-45834761D01*
X83186190Y-45787142D01*
X84138571Y-44882380D02*
X84757619Y-44882380D01*
X84424285Y-45263333D01*
X84567142Y-45263333D01*
X84662380Y-45310952D01*
X84710000Y-45358571D01*
X84757619Y-45453809D01*
X84757619Y-45691904D01*
X84710000Y-45787142D01*
X84662380Y-45834761D01*
X84567142Y-45882380D01*
X84281428Y-45882380D01*
X84186190Y-45834761D01*
X84138571Y-45787142D01*
X85376666Y-44882380D02*
X85471904Y-44882380D01*
X85567142Y-44930000D01*
X85614761Y-44977619D01*
X85662380Y-45072857D01*
X85710000Y-45263333D01*
X85710000Y-45501428D01*
X85662380Y-45691904D01*
X85614761Y-45787142D01*
X85567142Y-45834761D01*
X85471904Y-45882380D01*
X85376666Y-45882380D01*
X85281428Y-45834761D01*
X85233809Y-45787142D01*
X85186190Y-45691904D01*
X85138571Y-45501428D01*
X85138571Y-45263333D01*
X85186190Y-45072857D01*
X85233809Y-44977619D01*
X85281428Y-44930000D01*
X85376666Y-44882380D01*
X86138571Y-45215714D02*
X86138571Y-45882380D01*
X86138571Y-45310952D02*
X86186190Y-45263333D01*
X86281428Y-45215714D01*
X86424285Y-45215714D01*
X86519523Y-45263333D01*
X86567142Y-45358571D01*
X86567142Y-45882380D01*
X86900476Y-45215714D02*
X87281428Y-45215714D01*
X87043333Y-45882380D02*
X87043333Y-45025238D01*
X87090952Y-44930000D01*
X87186190Y-44882380D01*
X87281428Y-44882380D01*
X85043333Y-51157142D02*
X84995714Y-51204761D01*
X84852857Y-51252380D01*
X84757619Y-51252380D01*
X84614761Y-51204761D01*
X84519523Y-51109523D01*
X84471904Y-51014285D01*
X84424285Y-50823809D01*
X84424285Y-50680952D01*
X84471904Y-50490476D01*
X84519523Y-50395238D01*
X84614761Y-50300000D01*
X84757619Y-50252380D01*
X84852857Y-50252380D01*
X84995714Y-50300000D01*
X85043333Y-50347619D01*
X85424285Y-50347619D02*
X85471904Y-50300000D01*
X85567142Y-50252380D01*
X85805238Y-50252380D01*
X85900476Y-50300000D01*
X85948095Y-50347619D01*
X85995714Y-50442857D01*
X85995714Y-50538095D01*
X85948095Y-50680952D01*
X85376666Y-51252380D01*
X85995714Y-51252380D01*
%TO.C,C3*%
X120495238Y-82962380D02*
X119923809Y-82962380D01*
X120209523Y-82962380D02*
X120209523Y-81962380D01*
X120114285Y-82105238D01*
X120019047Y-82200476D01*
X119923809Y-82248095D01*
X121114285Y-81962380D02*
X121209523Y-81962380D01*
X121304761Y-82010000D01*
X121352380Y-82057619D01*
X121400000Y-82152857D01*
X121447619Y-82343333D01*
X121447619Y-82581428D01*
X121400000Y-82771904D01*
X121352380Y-82867142D01*
X121304761Y-82914761D01*
X121209523Y-82962380D01*
X121114285Y-82962380D01*
X121019047Y-82914761D01*
X120971428Y-82867142D01*
X120923809Y-82771904D01*
X120876190Y-82581428D01*
X120876190Y-82343333D01*
X120923809Y-82152857D01*
X120971428Y-82057619D01*
X121019047Y-82010000D01*
X121114285Y-81962380D01*
X122066666Y-81962380D02*
X122161904Y-81962380D01*
X122257142Y-82010000D01*
X122304761Y-82057619D01*
X122352380Y-82152857D01*
X122400000Y-82343333D01*
X122400000Y-82581428D01*
X122352380Y-82771904D01*
X122304761Y-82867142D01*
X122257142Y-82914761D01*
X122161904Y-82962380D01*
X122066666Y-82962380D01*
X121971428Y-82914761D01*
X121923809Y-82867142D01*
X121876190Y-82771904D01*
X121828571Y-82581428D01*
X121828571Y-82343333D01*
X121876190Y-82152857D01*
X121923809Y-82057619D01*
X121971428Y-82010000D01*
X122066666Y-81962380D01*
X122828571Y-82295714D02*
X122828571Y-82962380D01*
X122828571Y-82390952D02*
X122876190Y-82343333D01*
X122971428Y-82295714D01*
X123114285Y-82295714D01*
X123209523Y-82343333D01*
X123257142Y-82438571D01*
X123257142Y-82962380D01*
X123590476Y-82295714D02*
X123971428Y-82295714D01*
X123733333Y-82962380D02*
X123733333Y-82105238D01*
X123780952Y-82010000D01*
X123876190Y-81962380D01*
X123971428Y-81962380D01*
X121733333Y-80367142D02*
X121685714Y-80414761D01*
X121542857Y-80462380D01*
X121447619Y-80462380D01*
X121304761Y-80414761D01*
X121209523Y-80319523D01*
X121161904Y-80224285D01*
X121114285Y-80033809D01*
X121114285Y-79890952D01*
X121161904Y-79700476D01*
X121209523Y-79605238D01*
X121304761Y-79510000D01*
X121447619Y-79462380D01*
X121542857Y-79462380D01*
X121685714Y-79510000D01*
X121733333Y-79557619D01*
X122066666Y-79462380D02*
X122685714Y-79462380D01*
X122352380Y-79843333D01*
X122495238Y-79843333D01*
X122590476Y-79890952D01*
X122638095Y-79938571D01*
X122685714Y-80033809D01*
X122685714Y-80271904D01*
X122638095Y-80367142D01*
X122590476Y-80414761D01*
X122495238Y-80462380D01*
X122209523Y-80462380D01*
X122114285Y-80414761D01*
X122066666Y-80367142D01*
%TO.C,C4*%
X133986190Y-44882380D02*
X134605238Y-44882380D01*
X134271904Y-45263333D01*
X134414761Y-45263333D01*
X134510000Y-45310952D01*
X134557619Y-45358571D01*
X134605238Y-45453809D01*
X134605238Y-45691904D01*
X134557619Y-45787142D01*
X134510000Y-45834761D01*
X134414761Y-45882380D01*
X134129047Y-45882380D01*
X134033809Y-45834761D01*
X133986190Y-45787142D01*
X134938571Y-44882380D02*
X135557619Y-44882380D01*
X135224285Y-45263333D01*
X135367142Y-45263333D01*
X135462380Y-45310952D01*
X135510000Y-45358571D01*
X135557619Y-45453809D01*
X135557619Y-45691904D01*
X135510000Y-45787142D01*
X135462380Y-45834761D01*
X135367142Y-45882380D01*
X135081428Y-45882380D01*
X134986190Y-45834761D01*
X134938571Y-45787142D01*
X136176666Y-44882380D02*
X136271904Y-44882380D01*
X136367142Y-44930000D01*
X136414761Y-44977619D01*
X136462380Y-45072857D01*
X136510000Y-45263333D01*
X136510000Y-45501428D01*
X136462380Y-45691904D01*
X136414761Y-45787142D01*
X136367142Y-45834761D01*
X136271904Y-45882380D01*
X136176666Y-45882380D01*
X136081428Y-45834761D01*
X136033809Y-45787142D01*
X135986190Y-45691904D01*
X135938571Y-45501428D01*
X135938571Y-45263333D01*
X135986190Y-45072857D01*
X136033809Y-44977619D01*
X136081428Y-44930000D01*
X136176666Y-44882380D01*
X136938571Y-45215714D02*
X136938571Y-45882380D01*
X136938571Y-45310952D02*
X136986190Y-45263333D01*
X137081428Y-45215714D01*
X137224285Y-45215714D01*
X137319523Y-45263333D01*
X137367142Y-45358571D01*
X137367142Y-45882380D01*
X137700476Y-45215714D02*
X138081428Y-45215714D01*
X137843333Y-45882380D02*
X137843333Y-45025238D01*
X137890952Y-44930000D01*
X137986190Y-44882380D01*
X138081428Y-44882380D01*
X135843333Y-51157142D02*
X135795714Y-51204761D01*
X135652857Y-51252380D01*
X135557619Y-51252380D01*
X135414761Y-51204761D01*
X135319523Y-51109523D01*
X135271904Y-51014285D01*
X135224285Y-50823809D01*
X135224285Y-50680952D01*
X135271904Y-50490476D01*
X135319523Y-50395238D01*
X135414761Y-50300000D01*
X135557619Y-50252380D01*
X135652857Y-50252380D01*
X135795714Y-50300000D01*
X135843333Y-50347619D01*
X136700476Y-50585714D02*
X136700476Y-51252380D01*
X136462380Y-50204761D02*
X136224285Y-50919047D01*
X136843333Y-50919047D01*
%TO.C,C5*%
X168755238Y-82962380D02*
X168183809Y-82962380D01*
X168469523Y-82962380D02*
X168469523Y-81962380D01*
X168374285Y-82105238D01*
X168279047Y-82200476D01*
X168183809Y-82248095D01*
X169374285Y-81962380D02*
X169469523Y-81962380D01*
X169564761Y-82010000D01*
X169612380Y-82057619D01*
X169660000Y-82152857D01*
X169707619Y-82343333D01*
X169707619Y-82581428D01*
X169660000Y-82771904D01*
X169612380Y-82867142D01*
X169564761Y-82914761D01*
X169469523Y-82962380D01*
X169374285Y-82962380D01*
X169279047Y-82914761D01*
X169231428Y-82867142D01*
X169183809Y-82771904D01*
X169136190Y-82581428D01*
X169136190Y-82343333D01*
X169183809Y-82152857D01*
X169231428Y-82057619D01*
X169279047Y-82010000D01*
X169374285Y-81962380D01*
X170326666Y-81962380D02*
X170421904Y-81962380D01*
X170517142Y-82010000D01*
X170564761Y-82057619D01*
X170612380Y-82152857D01*
X170660000Y-82343333D01*
X170660000Y-82581428D01*
X170612380Y-82771904D01*
X170564761Y-82867142D01*
X170517142Y-82914761D01*
X170421904Y-82962380D01*
X170326666Y-82962380D01*
X170231428Y-82914761D01*
X170183809Y-82867142D01*
X170136190Y-82771904D01*
X170088571Y-82581428D01*
X170088571Y-82343333D01*
X170136190Y-82152857D01*
X170183809Y-82057619D01*
X170231428Y-82010000D01*
X170326666Y-81962380D01*
X171088571Y-82295714D02*
X171088571Y-82962380D01*
X171088571Y-82390952D02*
X171136190Y-82343333D01*
X171231428Y-82295714D01*
X171374285Y-82295714D01*
X171469523Y-82343333D01*
X171517142Y-82438571D01*
X171517142Y-82962380D01*
X171850476Y-82295714D02*
X172231428Y-82295714D01*
X171993333Y-82962380D02*
X171993333Y-82105238D01*
X172040952Y-82010000D01*
X172136190Y-81962380D01*
X172231428Y-81962380D01*
X169993333Y-80367142D02*
X169945714Y-80414761D01*
X169802857Y-80462380D01*
X169707619Y-80462380D01*
X169564761Y-80414761D01*
X169469523Y-80319523D01*
X169421904Y-80224285D01*
X169374285Y-80033809D01*
X169374285Y-79890952D01*
X169421904Y-79700476D01*
X169469523Y-79605238D01*
X169564761Y-79510000D01*
X169707619Y-79462380D01*
X169802857Y-79462380D01*
X169945714Y-79510000D01*
X169993333Y-79557619D01*
X170898095Y-79462380D02*
X170421904Y-79462380D01*
X170374285Y-79938571D01*
X170421904Y-79890952D01*
X170517142Y-79843333D01*
X170755238Y-79843333D01*
X170850476Y-79890952D01*
X170898095Y-79938571D01*
X170945714Y-80033809D01*
X170945714Y-80271904D01*
X170898095Y-80367142D01*
X170850476Y-80414761D01*
X170755238Y-80462380D01*
X170517142Y-80462380D01*
X170421904Y-80414761D01*
X170374285Y-80367142D01*
%TO.C,D2*%
X130508571Y-69452380D02*
X130841904Y-70452380D01*
X131175238Y-69452380D01*
X132222857Y-69547619D02*
X132270476Y-69500000D01*
X132365714Y-69452380D01*
X132603809Y-69452380D01*
X132699047Y-69500000D01*
X132746666Y-69547619D01*
X132794285Y-69642857D01*
X132794285Y-69738095D01*
X132746666Y-69880952D01*
X132175238Y-70452380D01*
X132794285Y-70452380D01*
X133127619Y-69785714D02*
X133365714Y-70452380D01*
X133603809Y-69785714D01*
D17*
X131469523Y-66401904D02*
X131469523Y-65601904D01*
X131660000Y-65601904D01*
X131774285Y-65640000D01*
X131850476Y-65716190D01*
X131888571Y-65792380D01*
X131926666Y-65944761D01*
X131926666Y-66059047D01*
X131888571Y-66211428D01*
X131850476Y-66287619D01*
X131774285Y-66363809D01*
X131660000Y-66401904D01*
X131469523Y-66401904D01*
X132231428Y-65678095D02*
X132269523Y-65640000D01*
X132345714Y-65601904D01*
X132536190Y-65601904D01*
X132612380Y-65640000D01*
X132650476Y-65678095D01*
X132688571Y-65754285D01*
X132688571Y-65830476D01*
X132650476Y-65944761D01*
X132193333Y-66401904D01*
X132688571Y-66401904D01*
%TO.C,D3*%
D15*
X177298571Y-51912380D02*
X177631904Y-52912380D01*
X177965238Y-51912380D01*
X179012857Y-52007619D02*
X179060476Y-51960000D01*
X179155714Y-51912380D01*
X179393809Y-51912380D01*
X179489047Y-51960000D01*
X179536666Y-52007619D01*
X179584285Y-52102857D01*
X179584285Y-52198095D01*
X179536666Y-52340952D01*
X178965238Y-52912380D01*
X179584285Y-52912380D01*
X179917619Y-52245714D02*
X180155714Y-52912380D01*
X180393809Y-52245714D01*
D17*
X178259523Y-48861904D02*
X178259523Y-48061904D01*
X178450000Y-48061904D01*
X178564285Y-48100000D01*
X178640476Y-48176190D01*
X178678571Y-48252380D01*
X178716666Y-48404761D01*
X178716666Y-48519047D01*
X178678571Y-48671428D01*
X178640476Y-48747619D01*
X178564285Y-48823809D01*
X178450000Y-48861904D01*
X178259523Y-48861904D01*
X178983333Y-48061904D02*
X179478571Y-48061904D01*
X179211904Y-48366666D01*
X179326190Y-48366666D01*
X179402380Y-48404761D01*
X179440476Y-48442857D01*
X179478571Y-48519047D01*
X179478571Y-48709523D01*
X179440476Y-48785714D01*
X179402380Y-48823809D01*
X179326190Y-48861904D01*
X179097619Y-48861904D01*
X179021428Y-48823809D01*
X178983333Y-48785714D01*
%TO.C,D4*%
D15*
X158291428Y-124962380D02*
X157958095Y-124486190D01*
X157720000Y-124962380D02*
X157720000Y-123962380D01*
X158100952Y-123962380D01*
X158196190Y-124010000D01*
X158243809Y-124057619D01*
X158291428Y-124152857D01*
X158291428Y-124295714D01*
X158243809Y-124390952D01*
X158196190Y-124438571D01*
X158100952Y-124486190D01*
X157720000Y-124486190D01*
X159434285Y-124057619D02*
X159481904Y-124010000D01*
X159577142Y-123962380D01*
X159815238Y-123962380D01*
X159910476Y-124010000D01*
X159958095Y-124057619D01*
X160005714Y-124152857D01*
X160005714Y-124248095D01*
X159958095Y-124390952D01*
X159386666Y-124962380D01*
X160005714Y-124962380D01*
X160339047Y-124295714D02*
X160577142Y-124962380D01*
X160815238Y-124295714D01*
D17*
X158609523Y-120911904D02*
X158609523Y-120111904D01*
X158800000Y-120111904D01*
X158914285Y-120150000D01*
X158990476Y-120226190D01*
X159028571Y-120302380D01*
X159066666Y-120454761D01*
X159066666Y-120569047D01*
X159028571Y-120721428D01*
X158990476Y-120797619D01*
X158914285Y-120873809D01*
X158800000Y-120911904D01*
X158609523Y-120911904D01*
X159752380Y-120378571D02*
X159752380Y-120911904D01*
X159561904Y-120073809D02*
X159371428Y-120645238D01*
X159866666Y-120645238D01*
%TO.C,D5*%
D15*
X157821428Y-107282380D02*
X157488095Y-106806190D01*
X157250000Y-107282380D02*
X157250000Y-106282380D01*
X157630952Y-106282380D01*
X157726190Y-106330000D01*
X157773809Y-106377619D01*
X157821428Y-106472857D01*
X157821428Y-106615714D01*
X157773809Y-106710952D01*
X157726190Y-106758571D01*
X157630952Y-106806190D01*
X157250000Y-106806190D01*
X158964285Y-106377619D02*
X159011904Y-106330000D01*
X159107142Y-106282380D01*
X159345238Y-106282380D01*
X159440476Y-106330000D01*
X159488095Y-106377619D01*
X159535714Y-106472857D01*
X159535714Y-106568095D01*
X159488095Y-106710952D01*
X158916666Y-107282380D01*
X159535714Y-107282380D01*
X159869047Y-106615714D02*
X160107142Y-107282380D01*
X160345238Y-106615714D01*
D17*
X158139523Y-103231904D02*
X158139523Y-102431904D01*
X158330000Y-102431904D01*
X158444285Y-102470000D01*
X158520476Y-102546190D01*
X158558571Y-102622380D01*
X158596666Y-102774761D01*
X158596666Y-102889047D01*
X158558571Y-103041428D01*
X158520476Y-103117619D01*
X158444285Y-103193809D01*
X158330000Y-103231904D01*
X158139523Y-103231904D01*
X159320476Y-102431904D02*
X158939523Y-102431904D01*
X158901428Y-102812857D01*
X158939523Y-102774761D01*
X159015714Y-102736666D01*
X159206190Y-102736666D01*
X159282380Y-102774761D01*
X159320476Y-102812857D01*
X159358571Y-102889047D01*
X159358571Y-103079523D01*
X159320476Y-103155714D01*
X159282380Y-103193809D01*
X159206190Y-103231904D01*
X159015714Y-103231904D01*
X158939523Y-103193809D01*
X158901428Y-103155714D01*
%TO.C,J3*%
D15*
X190442380Y-67032857D02*
X189442380Y-67032857D01*
X189442380Y-66651904D01*
X189490000Y-66556666D01*
X189537619Y-66509047D01*
X189632857Y-66461428D01*
X189775714Y-66461428D01*
X189870952Y-66509047D01*
X189918571Y-66556666D01*
X189966190Y-66651904D01*
X189966190Y-67032857D01*
X190442380Y-66032857D02*
X189775714Y-66032857D01*
X189442380Y-66032857D02*
X189490000Y-66080476D01*
X189537619Y-66032857D01*
X189490000Y-65985238D01*
X189442380Y-66032857D01*
X189537619Y-66032857D01*
X189775714Y-65556666D02*
X190442380Y-65556666D01*
X189870952Y-65556666D02*
X189823333Y-65509047D01*
X189775714Y-65413809D01*
X189775714Y-65270952D01*
X189823333Y-65175714D01*
X189918571Y-65128095D01*
X190442380Y-65128095D01*
X190442380Y-64651904D02*
X189442380Y-64651904D01*
X189918571Y-64651904D02*
X189918571Y-64080476D01*
X190442380Y-64080476D02*
X189442380Y-64080476D01*
X190394761Y-63223333D02*
X190442380Y-63318571D01*
X190442380Y-63509047D01*
X190394761Y-63604285D01*
X190299523Y-63651904D01*
X189918571Y-63651904D01*
X189823333Y-63604285D01*
X189775714Y-63509047D01*
X189775714Y-63318571D01*
X189823333Y-63223333D01*
X189918571Y-63175714D01*
X190013809Y-63175714D01*
X190109047Y-63651904D01*
X190442380Y-62318571D02*
X189918571Y-62318571D01*
X189823333Y-62366190D01*
X189775714Y-62461428D01*
X189775714Y-62651904D01*
X189823333Y-62747142D01*
X190394761Y-62318571D02*
X190442380Y-62413809D01*
X190442380Y-62651904D01*
X190394761Y-62747142D01*
X190299523Y-62794761D01*
X190204285Y-62794761D01*
X190109047Y-62747142D01*
X190061428Y-62651904D01*
X190061428Y-62413809D01*
X190013809Y-62318571D01*
X190442380Y-61413809D02*
X189442380Y-61413809D01*
X190394761Y-61413809D02*
X190442380Y-61509047D01*
X190442380Y-61699523D01*
X190394761Y-61794761D01*
X190347142Y-61842380D01*
X190251904Y-61890000D01*
X189966190Y-61890000D01*
X189870952Y-61842380D01*
X189823333Y-61794761D01*
X189775714Y-61699523D01*
X189775714Y-61509047D01*
X189823333Y-61413809D01*
X190394761Y-60556666D02*
X190442380Y-60651904D01*
X190442380Y-60842380D01*
X190394761Y-60937619D01*
X190299523Y-60985238D01*
X189918571Y-60985238D01*
X189823333Y-60937619D01*
X189775714Y-60842380D01*
X189775714Y-60651904D01*
X189823333Y-60556666D01*
X189918571Y-60509047D01*
X190013809Y-60509047D01*
X190109047Y-60985238D01*
X190442380Y-60080476D02*
X189775714Y-60080476D01*
X189966190Y-60080476D02*
X189870952Y-60032857D01*
X189823333Y-59985238D01*
X189775714Y-59890000D01*
X189775714Y-59794761D01*
X190537619Y-59699523D02*
X190537619Y-58937619D01*
X190442380Y-58175714D02*
X190442380Y-58747142D01*
X190442380Y-58461428D02*
X189442380Y-58461428D01*
X189585238Y-58556666D01*
X189680476Y-58651904D01*
X189728095Y-58747142D01*
X190442380Y-57842380D02*
X189775714Y-57318571D01*
X189775714Y-57842380D02*
X190442380Y-57318571D01*
X189442380Y-56747142D02*
X189442380Y-56651904D01*
X189490000Y-56556666D01*
X189537619Y-56509047D01*
X189632857Y-56461428D01*
X189823333Y-56413809D01*
X190061428Y-56413809D01*
X190251904Y-56461428D01*
X190347142Y-56509047D01*
X190394761Y-56556666D01*
X190442380Y-56651904D01*
X190442380Y-56747142D01*
X190394761Y-56842380D01*
X190347142Y-56890000D01*
X190251904Y-56937619D01*
X190061428Y-56985238D01*
X189823333Y-56985238D01*
X189632857Y-56937619D01*
X189537619Y-56890000D01*
X189490000Y-56842380D01*
X189442380Y-56747142D01*
X189537619Y-56032857D02*
X189490000Y-55985238D01*
X189442380Y-55890000D01*
X189442380Y-55651904D01*
X189490000Y-55556666D01*
X189537619Y-55509047D01*
X189632857Y-55461428D01*
X189728095Y-55461428D01*
X189870952Y-55509047D01*
X190442380Y-56080476D01*
X190442380Y-55461428D01*
X190537619Y-55270952D02*
X190537619Y-54509047D01*
X190442380Y-54270952D02*
X189442380Y-54270952D01*
X189442380Y-53890000D01*
X189490000Y-53794761D01*
X189537619Y-53747142D01*
X189632857Y-53699523D01*
X189775714Y-53699523D01*
X189870952Y-53747142D01*
X189918571Y-53794761D01*
X189966190Y-53890000D01*
X189966190Y-54270952D01*
X189537619Y-53318571D02*
X189490000Y-53270952D01*
X189442380Y-53175714D01*
X189442380Y-52937619D01*
X189490000Y-52842380D01*
X189537619Y-52794761D01*
X189632857Y-52747142D01*
X189728095Y-52747142D01*
X189870952Y-52794761D01*
X190442380Y-53366190D01*
X190442380Y-52747142D01*
X190347142Y-52318571D02*
X190394761Y-52270952D01*
X190442380Y-52318571D01*
X190394761Y-52366190D01*
X190347142Y-52318571D01*
X190442380Y-52318571D01*
X189442380Y-51366190D02*
X189442380Y-51842380D01*
X189918571Y-51890000D01*
X189870952Y-51842380D01*
X189823333Y-51747142D01*
X189823333Y-51509047D01*
X189870952Y-51413809D01*
X189918571Y-51366190D01*
X190013809Y-51318571D01*
X190251904Y-51318571D01*
X190347142Y-51366190D01*
X190394761Y-51413809D01*
X190442380Y-51509047D01*
X190442380Y-51747142D01*
X190394761Y-51842380D01*
X190347142Y-51890000D01*
X189775714Y-50461428D02*
X190442380Y-50461428D01*
X189394761Y-50699523D02*
X190109047Y-50937619D01*
X190109047Y-50318571D01*
X190442380Y-49937619D02*
X189775714Y-49937619D01*
X189870952Y-49937619D02*
X189823333Y-49890000D01*
X189775714Y-49794761D01*
X189775714Y-49651904D01*
X189823333Y-49556666D01*
X189918571Y-49509047D01*
X190442380Y-49509047D01*
X189918571Y-49509047D02*
X189823333Y-49461428D01*
X189775714Y-49366190D01*
X189775714Y-49223333D01*
X189823333Y-49128095D01*
X189918571Y-49080476D01*
X190442380Y-49080476D01*
X190442380Y-48604285D02*
X189775714Y-48604285D01*
X189870952Y-48604285D02*
X189823333Y-48556666D01*
X189775714Y-48461428D01*
X189775714Y-48318571D01*
X189823333Y-48223333D01*
X189918571Y-48175714D01*
X190442380Y-48175714D01*
X189918571Y-48175714D02*
X189823333Y-48128095D01*
X189775714Y-48032857D01*
X189775714Y-47890000D01*
X189823333Y-47794761D01*
X189918571Y-47747142D01*
X190442380Y-47747142D01*
X193256666Y-56842380D02*
X193256666Y-57556666D01*
X193209047Y-57699523D01*
X193113809Y-57794761D01*
X192970952Y-57842380D01*
X192875714Y-57842380D01*
X193637619Y-56842380D02*
X194256666Y-56842380D01*
X193923333Y-57223333D01*
X194066190Y-57223333D01*
X194161428Y-57270952D01*
X194209047Y-57318571D01*
X194256666Y-57413809D01*
X194256666Y-57651904D01*
X194209047Y-57747142D01*
X194161428Y-57794761D01*
X194066190Y-57842380D01*
X193780476Y-57842380D01*
X193685238Y-57794761D01*
X193637619Y-57747142D01*
%TO.C,R1*%
X141252380Y-67682857D02*
X141252380Y-68254285D01*
X141252380Y-67968571D02*
X140252380Y-67968571D01*
X140395238Y-68063809D01*
X140490476Y-68159047D01*
X140538095Y-68254285D01*
X141252380Y-67254285D02*
X140252380Y-67254285D01*
X141252380Y-66682857D02*
X140680952Y-67111428D01*
X140252380Y-66682857D02*
X140823809Y-67254285D01*
X141252380Y-64968571D02*
X141252380Y-65540000D01*
X141252380Y-65254285D02*
X140252380Y-65254285D01*
X140395238Y-65349523D01*
X140490476Y-65444761D01*
X140538095Y-65540000D01*
X141252380Y-64587619D02*
X140252380Y-63825714D01*
X140252380Y-64444761D02*
X140300000Y-64349523D01*
X140395238Y-64301904D01*
X140490476Y-64349523D01*
X140538095Y-64444761D01*
X140490476Y-64540000D01*
X140395238Y-64587619D01*
X140300000Y-64540000D01*
X140252380Y-64444761D01*
X141204761Y-63873333D02*
X141109523Y-63825714D01*
X141014285Y-63873333D01*
X140966666Y-63968571D01*
X141014285Y-64063809D01*
X141109523Y-64111428D01*
X141204761Y-64063809D01*
X141252380Y-63968571D01*
X141204761Y-63873333D01*
X138882380Y-66206666D02*
X138406190Y-66540000D01*
X138882380Y-66778095D02*
X137882380Y-66778095D01*
X137882380Y-66397142D01*
X137930000Y-66301904D01*
X137977619Y-66254285D01*
X138072857Y-66206666D01*
X138215714Y-66206666D01*
X138310952Y-66254285D01*
X138358571Y-66301904D01*
X138406190Y-66397142D01*
X138406190Y-66778095D01*
X138882380Y-65254285D02*
X138882380Y-65825714D01*
X138882380Y-65540000D02*
X137882380Y-65540000D01*
X138025238Y-65635238D01*
X138120476Y-65730476D01*
X138168095Y-65825714D01*
%TO.C,R2*%
X185795714Y-48122380D02*
X186462380Y-48122380D01*
X186033809Y-49122380D01*
X187319523Y-48122380D02*
X186843333Y-48122380D01*
X186795714Y-48598571D01*
X186843333Y-48550952D01*
X186938571Y-48503333D01*
X187176666Y-48503333D01*
X187271904Y-48550952D01*
X187319523Y-48598571D01*
X187367142Y-48693809D01*
X187367142Y-48931904D01*
X187319523Y-49027142D01*
X187271904Y-49074761D01*
X187176666Y-49122380D01*
X186938571Y-49122380D01*
X186843333Y-49074761D01*
X186795714Y-49027142D01*
X187986190Y-48122380D02*
X188081428Y-48122380D01*
X188176666Y-48170000D01*
X188224285Y-48217619D01*
X188271904Y-48312857D01*
X188319523Y-48503333D01*
X188319523Y-48741428D01*
X188271904Y-48931904D01*
X188224285Y-49027142D01*
X188176666Y-49074761D01*
X188081428Y-49122380D01*
X187986190Y-49122380D01*
X187890952Y-49074761D01*
X187843333Y-49027142D01*
X187795714Y-48931904D01*
X187748095Y-48741428D01*
X187748095Y-48503333D01*
X187795714Y-48312857D01*
X187843333Y-48217619D01*
X187890952Y-48170000D01*
X187986190Y-48122380D01*
X190033809Y-49122380D02*
X189462380Y-49122380D01*
X189748095Y-49122380D02*
X189748095Y-48122380D01*
X189652857Y-48265238D01*
X189557619Y-48360476D01*
X189462380Y-48408095D01*
X190414761Y-49122380D02*
X191176666Y-48122380D01*
X190557619Y-48122380D02*
X190652857Y-48170000D01*
X190700476Y-48265238D01*
X190652857Y-48360476D01*
X190557619Y-48408095D01*
X190462380Y-48360476D01*
X190414761Y-48265238D01*
X190462380Y-48170000D01*
X190557619Y-48122380D01*
X191129047Y-49074761D02*
X191176666Y-48979523D01*
X191129047Y-48884285D01*
X191033809Y-48836666D01*
X190938571Y-48884285D01*
X190890952Y-48979523D01*
X190938571Y-49074761D01*
X191033809Y-49122380D01*
X191129047Y-49074761D01*
X188343333Y-51492380D02*
X188010000Y-51016190D01*
X187771904Y-51492380D02*
X187771904Y-50492380D01*
X188152857Y-50492380D01*
X188248095Y-50540000D01*
X188295714Y-50587619D01*
X188343333Y-50682857D01*
X188343333Y-50825714D01*
X188295714Y-50920952D01*
X188248095Y-50968571D01*
X188152857Y-51016190D01*
X187771904Y-51016190D01*
X188724285Y-50587619D02*
X188771904Y-50540000D01*
X188867142Y-50492380D01*
X189105238Y-50492380D01*
X189200476Y-50540000D01*
X189248095Y-50587619D01*
X189295714Y-50682857D01*
X189295714Y-50778095D01*
X189248095Y-50920952D01*
X188676666Y-51492380D01*
X189295714Y-51492380D01*
%TO.C,R4*%
X149577619Y-105536666D02*
X149530000Y-105489047D01*
X149482380Y-105393809D01*
X149482380Y-105155714D01*
X149530000Y-105060476D01*
X149577619Y-105012857D01*
X149672857Y-104965238D01*
X149768095Y-104965238D01*
X149910952Y-105012857D01*
X150482380Y-105584285D01*
X150482380Y-104965238D01*
X149482380Y-104346190D02*
X149482380Y-104250952D01*
X149530000Y-104155714D01*
X149577619Y-104108095D01*
X149672857Y-104060476D01*
X149863333Y-104012857D01*
X150101428Y-104012857D01*
X150291904Y-104060476D01*
X150387142Y-104108095D01*
X150434761Y-104155714D01*
X150482380Y-104250952D01*
X150482380Y-104346190D01*
X150434761Y-104441428D01*
X150387142Y-104489047D01*
X150291904Y-104536666D01*
X150101428Y-104584285D01*
X149863333Y-104584285D01*
X149672857Y-104536666D01*
X149577619Y-104489047D01*
X149530000Y-104441428D01*
X149482380Y-104346190D01*
X149482380Y-103393809D02*
X149482380Y-103298571D01*
X149530000Y-103203333D01*
X149577619Y-103155714D01*
X149672857Y-103108095D01*
X149863333Y-103060476D01*
X150101428Y-103060476D01*
X150291904Y-103108095D01*
X150387142Y-103155714D01*
X150434761Y-103203333D01*
X150482380Y-103298571D01*
X150482380Y-103393809D01*
X150434761Y-103489047D01*
X150387142Y-103536666D01*
X150291904Y-103584285D01*
X150101428Y-103631904D01*
X149863333Y-103631904D01*
X149672857Y-103584285D01*
X149577619Y-103536666D01*
X149530000Y-103489047D01*
X149482380Y-103393809D01*
X150482380Y-101346190D02*
X150482380Y-101917619D01*
X150482380Y-101631904D02*
X149482380Y-101631904D01*
X149625238Y-101727142D01*
X149720476Y-101822380D01*
X149768095Y-101917619D01*
X150482380Y-100965238D02*
X149482380Y-100203333D01*
X149482380Y-100822380D02*
X149530000Y-100727142D01*
X149625238Y-100679523D01*
X149720476Y-100727142D01*
X149768095Y-100822380D01*
X149720476Y-100917619D01*
X149625238Y-100965238D01*
X149530000Y-100917619D01*
X149482380Y-100822380D01*
X150434761Y-100250952D02*
X150339523Y-100203333D01*
X150244285Y-100250952D01*
X150196666Y-100346190D01*
X150244285Y-100441428D01*
X150339523Y-100489047D01*
X150434761Y-100441428D01*
X150482380Y-100346190D01*
X150434761Y-100250952D01*
X152852380Y-103036666D02*
X152376190Y-103370000D01*
X152852380Y-103608095D02*
X151852380Y-103608095D01*
X151852380Y-103227142D01*
X151900000Y-103131904D01*
X151947619Y-103084285D01*
X152042857Y-103036666D01*
X152185714Y-103036666D01*
X152280952Y-103084285D01*
X152328571Y-103131904D01*
X152376190Y-103227142D01*
X152376190Y-103608095D01*
X152185714Y-102179523D02*
X152852380Y-102179523D01*
X151804761Y-102417619D02*
X152519047Y-102655714D01*
X152519047Y-102036666D01*
%TO.C,R5*%
X154561428Y-88755714D02*
X154561428Y-89422380D01*
X154323333Y-88374761D02*
X154085238Y-89089047D01*
X154704285Y-89089047D01*
X155085238Y-89327142D02*
X155132857Y-89374761D01*
X155085238Y-89422380D01*
X155037619Y-89374761D01*
X155085238Y-89327142D01*
X155085238Y-89422380D01*
X155466190Y-88422380D02*
X156132857Y-88422380D01*
X155704285Y-89422380D01*
X156513809Y-89422380D02*
X156513809Y-88422380D01*
X156609047Y-89041428D02*
X156894761Y-89422380D01*
X156894761Y-88755714D02*
X156513809Y-89136666D01*
X155323333Y-87052380D02*
X154990000Y-86576190D01*
X154751904Y-87052380D02*
X154751904Y-86052380D01*
X155132857Y-86052380D01*
X155228095Y-86100000D01*
X155275714Y-86147619D01*
X155323333Y-86242857D01*
X155323333Y-86385714D01*
X155275714Y-86480952D01*
X155228095Y-86528571D01*
X155132857Y-86576190D01*
X154751904Y-86576190D01*
X156228095Y-86052380D02*
X155751904Y-86052380D01*
X155704285Y-86528571D01*
X155751904Y-86480952D01*
X155847142Y-86433333D01*
X156085238Y-86433333D01*
X156180476Y-86480952D01*
X156228095Y-86528571D01*
X156275714Y-86623809D01*
X156275714Y-86861904D01*
X156228095Y-86957142D01*
X156180476Y-87004761D01*
X156085238Y-87052380D01*
X155847142Y-87052380D01*
X155751904Y-87004761D01*
X155704285Y-86957142D01*
%TO.C,R6*%
X154561428Y-93595714D02*
X154561428Y-94262380D01*
X154323333Y-93214761D02*
X154085238Y-93929047D01*
X154704285Y-93929047D01*
X155085238Y-94167142D02*
X155132857Y-94214761D01*
X155085238Y-94262380D01*
X155037619Y-94214761D01*
X155085238Y-94167142D01*
X155085238Y-94262380D01*
X155466190Y-93262380D02*
X156132857Y-93262380D01*
X155704285Y-94262380D01*
X156513809Y-94262380D02*
X156513809Y-93262380D01*
X156609047Y-93881428D02*
X156894761Y-94262380D01*
X156894761Y-93595714D02*
X156513809Y-93976666D01*
X155323333Y-91892380D02*
X154990000Y-91416190D01*
X154751904Y-91892380D02*
X154751904Y-90892380D01*
X155132857Y-90892380D01*
X155228095Y-90940000D01*
X155275714Y-90987619D01*
X155323333Y-91082857D01*
X155323333Y-91225714D01*
X155275714Y-91320952D01*
X155228095Y-91368571D01*
X155132857Y-91416190D01*
X154751904Y-91416190D01*
X156180476Y-90892380D02*
X155990000Y-90892380D01*
X155894761Y-90940000D01*
X155847142Y-90987619D01*
X155751904Y-91130476D01*
X155704285Y-91320952D01*
X155704285Y-91701904D01*
X155751904Y-91797142D01*
X155799523Y-91844761D01*
X155894761Y-91892380D01*
X156085238Y-91892380D01*
X156180476Y-91844761D01*
X156228095Y-91797142D01*
X156275714Y-91701904D01*
X156275714Y-91463809D01*
X156228095Y-91368571D01*
X156180476Y-91320952D01*
X156085238Y-91273333D01*
X155894761Y-91273333D01*
X155799523Y-91320952D01*
X155751904Y-91368571D01*
X155704285Y-91463809D01*
%TO.C,R7*%
X83537619Y-92836666D02*
X83490000Y-92789047D01*
X83442380Y-92693809D01*
X83442380Y-92455714D01*
X83490000Y-92360476D01*
X83537619Y-92312857D01*
X83632857Y-92265238D01*
X83728095Y-92265238D01*
X83870952Y-92312857D01*
X84442380Y-92884285D01*
X84442380Y-92265238D01*
X83442380Y-91360476D02*
X83442380Y-91836666D01*
X83918571Y-91884285D01*
X83870952Y-91836666D01*
X83823333Y-91741428D01*
X83823333Y-91503333D01*
X83870952Y-91408095D01*
X83918571Y-91360476D01*
X84013809Y-91312857D01*
X84251904Y-91312857D01*
X84347142Y-91360476D01*
X84394761Y-91408095D01*
X84442380Y-91503333D01*
X84442380Y-91741428D01*
X84394761Y-91836666D01*
X84347142Y-91884285D01*
X83442380Y-90408095D02*
X83442380Y-90884285D01*
X83918571Y-90931904D01*
X83870952Y-90884285D01*
X83823333Y-90789047D01*
X83823333Y-90550952D01*
X83870952Y-90455714D01*
X83918571Y-90408095D01*
X84013809Y-90360476D01*
X84251904Y-90360476D01*
X84347142Y-90408095D01*
X84394761Y-90455714D01*
X84442380Y-90550952D01*
X84442380Y-90789047D01*
X84394761Y-90884285D01*
X84347142Y-90931904D01*
X84442380Y-88646190D02*
X84442380Y-89217619D01*
X84442380Y-88931904D02*
X83442380Y-88931904D01*
X83585238Y-89027142D01*
X83680476Y-89122380D01*
X83728095Y-89217619D01*
X84442380Y-88265238D02*
X83442380Y-87503333D01*
X83442380Y-88122380D02*
X83490000Y-88027142D01*
X83585238Y-87979523D01*
X83680476Y-88027142D01*
X83728095Y-88122380D01*
X83680476Y-88217619D01*
X83585238Y-88265238D01*
X83490000Y-88217619D01*
X83442380Y-88122380D01*
X84394761Y-87550952D02*
X84299523Y-87503333D01*
X84204285Y-87550952D01*
X84156666Y-87646190D01*
X84204285Y-87741428D01*
X84299523Y-87789047D01*
X84394761Y-87741428D01*
X84442380Y-87646190D01*
X84394761Y-87550952D01*
X86812380Y-90336666D02*
X86336190Y-90670000D01*
X86812380Y-90908095D02*
X85812380Y-90908095D01*
X85812380Y-90527142D01*
X85860000Y-90431904D01*
X85907619Y-90384285D01*
X86002857Y-90336666D01*
X86145714Y-90336666D01*
X86240952Y-90384285D01*
X86288571Y-90431904D01*
X86336190Y-90527142D01*
X86336190Y-90908095D01*
X85812380Y-90003333D02*
X85812380Y-89336666D01*
X86812380Y-89765238D01*
%TO.C,R8*%
X112747619Y-94106666D02*
X112700000Y-94059047D01*
X112652380Y-93963809D01*
X112652380Y-93725714D01*
X112700000Y-93630476D01*
X112747619Y-93582857D01*
X112842857Y-93535238D01*
X112938095Y-93535238D01*
X113080952Y-93582857D01*
X113652380Y-94154285D01*
X113652380Y-93535238D01*
X112652380Y-92630476D02*
X112652380Y-93106666D01*
X113128571Y-93154285D01*
X113080952Y-93106666D01*
X113033333Y-93011428D01*
X113033333Y-92773333D01*
X113080952Y-92678095D01*
X113128571Y-92630476D01*
X113223809Y-92582857D01*
X113461904Y-92582857D01*
X113557142Y-92630476D01*
X113604761Y-92678095D01*
X113652380Y-92773333D01*
X113652380Y-93011428D01*
X113604761Y-93106666D01*
X113557142Y-93154285D01*
X112652380Y-91678095D02*
X112652380Y-92154285D01*
X113128571Y-92201904D01*
X113080952Y-92154285D01*
X113033333Y-92059047D01*
X113033333Y-91820952D01*
X113080952Y-91725714D01*
X113128571Y-91678095D01*
X113223809Y-91630476D01*
X113461904Y-91630476D01*
X113557142Y-91678095D01*
X113604761Y-91725714D01*
X113652380Y-91820952D01*
X113652380Y-92059047D01*
X113604761Y-92154285D01*
X113557142Y-92201904D01*
X113652380Y-89916190D02*
X113652380Y-90487619D01*
X113652380Y-90201904D02*
X112652380Y-90201904D01*
X112795238Y-90297142D01*
X112890476Y-90392380D01*
X112938095Y-90487619D01*
X113652380Y-89535238D02*
X112652380Y-88773333D01*
X112652380Y-89392380D02*
X112700000Y-89297142D01*
X112795238Y-89249523D01*
X112890476Y-89297142D01*
X112938095Y-89392380D01*
X112890476Y-89487619D01*
X112795238Y-89535238D01*
X112700000Y-89487619D01*
X112652380Y-89392380D01*
X113604761Y-88820952D02*
X113509523Y-88773333D01*
X113414285Y-88820952D01*
X113366666Y-88916190D01*
X113414285Y-89011428D01*
X113509523Y-89059047D01*
X113604761Y-89011428D01*
X113652380Y-88916190D01*
X113604761Y-88820952D01*
X116022380Y-91606666D02*
X115546190Y-91940000D01*
X116022380Y-92178095D02*
X115022380Y-92178095D01*
X115022380Y-91797142D01*
X115070000Y-91701904D01*
X115117619Y-91654285D01*
X115212857Y-91606666D01*
X115355714Y-91606666D01*
X115450952Y-91654285D01*
X115498571Y-91701904D01*
X115546190Y-91797142D01*
X115546190Y-92178095D01*
X115450952Y-91035238D02*
X115403333Y-91130476D01*
X115355714Y-91178095D01*
X115260476Y-91225714D01*
X115212857Y-91225714D01*
X115117619Y-91178095D01*
X115070000Y-91130476D01*
X115022380Y-91035238D01*
X115022380Y-90844761D01*
X115070000Y-90749523D01*
X115117619Y-90701904D01*
X115212857Y-90654285D01*
X115260476Y-90654285D01*
X115355714Y-90701904D01*
X115403333Y-90749523D01*
X115450952Y-90844761D01*
X115450952Y-91035238D01*
X115498571Y-91130476D01*
X115546190Y-91178095D01*
X115641428Y-91225714D01*
X115831904Y-91225714D01*
X115927142Y-91178095D01*
X115974761Y-91130476D01*
X116022380Y-91035238D01*
X116022380Y-90844761D01*
X115974761Y-90749523D01*
X115927142Y-90701904D01*
X115831904Y-90654285D01*
X115641428Y-90654285D01*
X115546190Y-90701904D01*
X115498571Y-90749523D01*
X115450952Y-90844761D01*
%TO.C,TR1*%
X63268571Y-79470952D02*
X63316190Y-79328095D01*
X63363809Y-79280476D01*
X63459047Y-79232857D01*
X63601904Y-79232857D01*
X63697142Y-79280476D01*
X63744761Y-79328095D01*
X63792380Y-79423333D01*
X63792380Y-79804285D01*
X62792380Y-79804285D01*
X62792380Y-79470952D01*
X62840000Y-79375714D01*
X62887619Y-79328095D01*
X62982857Y-79280476D01*
X63078095Y-79280476D01*
X63173333Y-79328095D01*
X63220952Y-79375714D01*
X63268571Y-79470952D01*
X63268571Y-79804285D01*
X62792380Y-78947142D02*
X63792380Y-78613809D01*
X62792380Y-78280476D01*
X63268571Y-77947142D02*
X63268571Y-77613809D01*
X63792380Y-77470952D02*
X63792380Y-77947142D01*
X62792380Y-77947142D01*
X62792380Y-77470952D01*
X63792380Y-77042380D02*
X62792380Y-77042380D01*
X62792380Y-76661428D02*
X62792380Y-76042380D01*
X63173333Y-76375714D01*
X63173333Y-76232857D01*
X63220952Y-76137619D01*
X63268571Y-76090000D01*
X63363809Y-76042380D01*
X63601904Y-76042380D01*
X63697142Y-76090000D01*
X63744761Y-76137619D01*
X63792380Y-76232857D01*
X63792380Y-76518571D01*
X63744761Y-76613809D01*
X63697142Y-76661428D01*
X62792380Y-75423333D02*
X62792380Y-75328095D01*
X62840000Y-75232857D01*
X62887619Y-75185238D01*
X62982857Y-75137619D01*
X63173333Y-75090000D01*
X63411428Y-75090000D01*
X63601904Y-75137619D01*
X63697142Y-75185238D01*
X63744761Y-75232857D01*
X63792380Y-75328095D01*
X63792380Y-75423333D01*
X63744761Y-75518571D01*
X63697142Y-75566190D01*
X63601904Y-75613809D01*
X63411428Y-75661428D01*
X63173333Y-75661428D01*
X62982857Y-75613809D01*
X62887619Y-75566190D01*
X62840000Y-75518571D01*
X62792380Y-75423333D01*
X62792380Y-74756666D02*
X62792380Y-74137619D01*
X63173333Y-74470952D01*
X63173333Y-74328095D01*
X63220952Y-74232857D01*
X63268571Y-74185238D01*
X63363809Y-74137619D01*
X63601904Y-74137619D01*
X63697142Y-74185238D01*
X63744761Y-74232857D01*
X63792380Y-74328095D01*
X63792380Y-74613809D01*
X63744761Y-74709047D01*
X63697142Y-74756666D01*
X62887619Y-73756666D02*
X62840000Y-73709047D01*
X62792380Y-73613809D01*
X62792380Y-73375714D01*
X62840000Y-73280476D01*
X62887619Y-73232857D01*
X62982857Y-73185238D01*
X63078095Y-73185238D01*
X63220952Y-73232857D01*
X63792380Y-73804285D01*
X63792380Y-73185238D01*
X62792380Y-72566190D02*
X62792380Y-72470952D01*
X62840000Y-72375714D01*
X62887619Y-72328095D01*
X62982857Y-72280476D01*
X63173333Y-72232857D01*
X63411428Y-72232857D01*
X63601904Y-72280476D01*
X63697142Y-72328095D01*
X63744761Y-72375714D01*
X63792380Y-72470952D01*
X63792380Y-72566190D01*
X63744761Y-72661428D01*
X63697142Y-72709047D01*
X63601904Y-72756666D01*
X63411428Y-72804285D01*
X63173333Y-72804285D01*
X62982857Y-72756666D01*
X62887619Y-72709047D01*
X62840000Y-72661428D01*
X62792380Y-72566190D01*
X63792380Y-71280476D02*
X63792380Y-71851904D01*
X63792380Y-71566190D02*
X62792380Y-71566190D01*
X62935238Y-71661428D01*
X63030476Y-71756666D01*
X63078095Y-71851904D01*
X62887619Y-70899523D02*
X62840000Y-70851904D01*
X62792380Y-70756666D01*
X62792380Y-70518571D01*
X62840000Y-70423333D01*
X62887619Y-70375714D01*
X62982857Y-70328095D01*
X63078095Y-70328095D01*
X63220952Y-70375714D01*
X63792380Y-70947142D01*
X63792380Y-70328095D01*
X69792380Y-81280476D02*
X69792380Y-81090000D01*
X69744761Y-80994761D01*
X69697142Y-80947142D01*
X69554285Y-80851904D01*
X69363809Y-80804285D01*
X68982857Y-80804285D01*
X68887619Y-80851904D01*
X68840000Y-80899523D01*
X68792380Y-80994761D01*
X68792380Y-81185238D01*
X68840000Y-81280476D01*
X68887619Y-81328095D01*
X68982857Y-81375714D01*
X69220952Y-81375714D01*
X69316190Y-81328095D01*
X69363809Y-81280476D01*
X69411428Y-81185238D01*
X69411428Y-80994761D01*
X69363809Y-80899523D01*
X69316190Y-80851904D01*
X69220952Y-80804285D01*
X68792380Y-69423333D02*
X68792380Y-68756666D01*
X69792380Y-69185238D01*
X55792380Y-62851904D02*
X55792380Y-63328095D01*
X56268571Y-63375714D01*
X56220952Y-63328095D01*
X56173333Y-63232857D01*
X56173333Y-62994761D01*
X56220952Y-62899523D01*
X56268571Y-62851904D01*
X56363809Y-62804285D01*
X56601904Y-62804285D01*
X56697142Y-62851904D01*
X56744761Y-62899523D01*
X56792380Y-62994761D01*
X56792380Y-63232857D01*
X56744761Y-63328095D01*
X56697142Y-63375714D01*
X62078095Y-60042380D02*
X62649523Y-60042380D01*
X62363809Y-61042380D02*
X62363809Y-60042380D01*
X63554285Y-61042380D02*
X63220952Y-60566190D01*
X62982857Y-61042380D02*
X62982857Y-60042380D01*
X63363809Y-60042380D01*
X63459047Y-60090000D01*
X63506666Y-60137619D01*
X63554285Y-60232857D01*
X63554285Y-60375714D01*
X63506666Y-60470952D01*
X63459047Y-60518571D01*
X63363809Y-60566190D01*
X62982857Y-60566190D01*
X64506666Y-61042380D02*
X63935238Y-61042380D01*
X64220952Y-61042380D02*
X64220952Y-60042380D01*
X64125714Y-60185238D01*
X64030476Y-60280476D01*
X63935238Y-60328095D01*
%TO.C,U2*%
X158354761Y-84022380D02*
X157878571Y-84022380D01*
X157878571Y-83022380D01*
X158592857Y-83022380D02*
X159259523Y-83022380D01*
X158830952Y-84022380D01*
X159783333Y-83450952D02*
X159688095Y-83403333D01*
X159640476Y-83355714D01*
X159592857Y-83260476D01*
X159592857Y-83212857D01*
X159640476Y-83117619D01*
X159688095Y-83070000D01*
X159783333Y-83022380D01*
X159973809Y-83022380D01*
X160069047Y-83070000D01*
X160116666Y-83117619D01*
X160164285Y-83212857D01*
X160164285Y-83260476D01*
X160116666Y-83355714D01*
X160069047Y-83403333D01*
X159973809Y-83450952D01*
X159783333Y-83450952D01*
X159688095Y-83498571D01*
X159640476Y-83546190D01*
X159592857Y-83641428D01*
X159592857Y-83831904D01*
X159640476Y-83927142D01*
X159688095Y-83974761D01*
X159783333Y-84022380D01*
X159973809Y-84022380D01*
X160069047Y-83974761D01*
X160116666Y-83927142D01*
X160164285Y-83831904D01*
X160164285Y-83641428D01*
X160116666Y-83546190D01*
X160069047Y-83498571D01*
X159973809Y-83450952D01*
X160783333Y-83022380D02*
X160878571Y-83022380D01*
X160973809Y-83070000D01*
X161021428Y-83117619D01*
X161069047Y-83212857D01*
X161116666Y-83403333D01*
X161116666Y-83641428D01*
X161069047Y-83831904D01*
X161021428Y-83927142D01*
X160973809Y-83974761D01*
X160878571Y-84022380D01*
X160783333Y-84022380D01*
X160688095Y-83974761D01*
X160640476Y-83927142D01*
X160592857Y-83831904D01*
X160545238Y-83641428D01*
X160545238Y-83403333D01*
X160592857Y-83212857D01*
X160640476Y-83117619D01*
X160688095Y-83070000D01*
X160783333Y-83022380D01*
X161592857Y-84022380D02*
X161783333Y-84022380D01*
X161878571Y-83974761D01*
X161926190Y-83927142D01*
X162021428Y-83784285D01*
X162069047Y-83593809D01*
X162069047Y-83212857D01*
X162021428Y-83117619D01*
X161973809Y-83070000D01*
X161878571Y-83022380D01*
X161688095Y-83022380D01*
X161592857Y-83070000D01*
X161545238Y-83117619D01*
X161497619Y-83212857D01*
X161497619Y-83450952D01*
X161545238Y-83546190D01*
X161592857Y-83593809D01*
X161688095Y-83641428D01*
X161878571Y-83641428D01*
X161973809Y-83593809D01*
X162021428Y-83546190D01*
X162069047Y-83450952D01*
X159513095Y-70722380D02*
X159513095Y-71531904D01*
X159560714Y-71627142D01*
X159608333Y-71674761D01*
X159703571Y-71722380D01*
X159894047Y-71722380D01*
X159989285Y-71674761D01*
X160036904Y-71627142D01*
X160084523Y-71531904D01*
X160084523Y-70722380D01*
X160513095Y-70817619D02*
X160560714Y-70770000D01*
X160655952Y-70722380D01*
X160894047Y-70722380D01*
X160989285Y-70770000D01*
X161036904Y-70817619D01*
X161084523Y-70912857D01*
X161084523Y-71008095D01*
X161036904Y-71150952D01*
X160465476Y-71722380D01*
X161084523Y-71722380D01*
%TO.C,U4*%
X147207619Y-96513333D02*
X147160000Y-96465714D01*
X147112380Y-96370476D01*
X147112380Y-96132380D01*
X147160000Y-96037142D01*
X147207619Y-95989523D01*
X147302857Y-95941904D01*
X147398095Y-95941904D01*
X147540952Y-95989523D01*
X148112380Y-96560952D01*
X148112380Y-95941904D01*
X147445714Y-95084761D02*
X148112380Y-95084761D01*
X147064761Y-95322857D02*
X147779047Y-95560952D01*
X147779047Y-94941904D01*
X148112380Y-94084761D02*
X148112380Y-94560952D01*
X147112380Y-94560952D01*
X148017142Y-93180000D02*
X148064761Y-93227619D01*
X148112380Y-93370476D01*
X148112380Y-93465714D01*
X148064761Y-93608571D01*
X147969523Y-93703809D01*
X147874285Y-93751428D01*
X147683809Y-93799047D01*
X147540952Y-93799047D01*
X147350476Y-93751428D01*
X147255238Y-93703809D01*
X147160000Y-93608571D01*
X147112380Y-93465714D01*
X147112380Y-93370476D01*
X147160000Y-93227619D01*
X147207619Y-93180000D01*
X147207619Y-92799047D02*
X147160000Y-92751428D01*
X147112380Y-92656190D01*
X147112380Y-92418095D01*
X147160000Y-92322857D01*
X147207619Y-92275238D01*
X147302857Y-92227619D01*
X147398095Y-92227619D01*
X147540952Y-92275238D01*
X148112380Y-92846666D01*
X148112380Y-92227619D01*
X147112380Y-91322857D02*
X147112380Y-91799047D01*
X147588571Y-91846666D01*
X147540952Y-91799047D01*
X147493333Y-91703809D01*
X147493333Y-91465714D01*
X147540952Y-91370476D01*
X147588571Y-91322857D01*
X147683809Y-91275238D01*
X147921904Y-91275238D01*
X148017142Y-91322857D01*
X148064761Y-91370476D01*
X148112380Y-91465714D01*
X148112380Y-91703809D01*
X148064761Y-91799047D01*
X148017142Y-91846666D01*
X147112380Y-90418095D02*
X147112380Y-90608571D01*
X147160000Y-90703809D01*
X147207619Y-90751428D01*
X147350476Y-90846666D01*
X147540952Y-90894285D01*
X147921904Y-90894285D01*
X148017142Y-90846666D01*
X148064761Y-90799047D01*
X148112380Y-90703809D01*
X148112380Y-90513333D01*
X148064761Y-90418095D01*
X148017142Y-90370476D01*
X147921904Y-90322857D01*
X147683809Y-90322857D01*
X147588571Y-90370476D01*
X147540952Y-90418095D01*
X147493333Y-90513333D01*
X147493333Y-90703809D01*
X147540952Y-90799047D01*
X147588571Y-90846666D01*
X147683809Y-90894285D01*
X147731428Y-89894285D02*
X147731428Y-89132380D01*
X148112380Y-88656190D02*
X147112380Y-88656190D01*
X148207619Y-88418095D02*
X148207619Y-87656190D01*
X148112380Y-87418095D02*
X147112380Y-87418095D01*
X147112380Y-87037142D01*
X147160000Y-86941904D01*
X147207619Y-86894285D01*
X147302857Y-86846666D01*
X147445714Y-86846666D01*
X147540952Y-86894285D01*
X147588571Y-86941904D01*
X147636190Y-87037142D01*
X147636190Y-87418095D01*
X140972380Y-92441904D02*
X141781904Y-92441904D01*
X141877142Y-92394285D01*
X141924761Y-92346666D01*
X141972380Y-92251428D01*
X141972380Y-92060952D01*
X141924761Y-91965714D01*
X141877142Y-91918095D01*
X141781904Y-91870476D01*
X140972380Y-91870476D01*
X141305714Y-90965714D02*
X141972380Y-90965714D01*
X140924761Y-91203809D02*
X141639047Y-91441904D01*
X141639047Y-90822857D01*
%TO.C,U6*%
X98635714Y-92025714D02*
X99302380Y-92025714D01*
X98254761Y-92263809D02*
X98969047Y-92501904D01*
X98969047Y-91882857D01*
X99302380Y-91501904D02*
X98302380Y-91501904D01*
X99302380Y-90930476D01*
X98302380Y-90930476D01*
X98302380Y-90549523D02*
X98302380Y-89930476D01*
X98683333Y-90263809D01*
X98683333Y-90120952D01*
X98730952Y-90025714D01*
X98778571Y-89978095D01*
X98873809Y-89930476D01*
X99111904Y-89930476D01*
X99207142Y-89978095D01*
X99254761Y-90025714D01*
X99302380Y-90120952D01*
X99302380Y-90406666D01*
X99254761Y-90501904D01*
X99207142Y-90549523D01*
X98302380Y-89025714D02*
X98302380Y-89501904D01*
X98778571Y-89549523D01*
X98730952Y-89501904D01*
X98683333Y-89406666D01*
X98683333Y-89168571D01*
X98730952Y-89073333D01*
X98778571Y-89025714D01*
X98873809Y-88978095D01*
X99111904Y-88978095D01*
X99207142Y-89025714D01*
X99254761Y-89073333D01*
X99302380Y-89168571D01*
X99302380Y-89406666D01*
X99254761Y-89501904D01*
X99207142Y-89549523D01*
X93432380Y-91501904D02*
X94241904Y-91501904D01*
X94337142Y-91454285D01*
X94384761Y-91406666D01*
X94432380Y-91311428D01*
X94432380Y-91120952D01*
X94384761Y-91025714D01*
X94337142Y-90978095D01*
X94241904Y-90930476D01*
X93432380Y-90930476D01*
X93432380Y-90025714D02*
X93432380Y-90216190D01*
X93480000Y-90311428D01*
X93527619Y-90359047D01*
X93670476Y-90454285D01*
X93860952Y-90501904D01*
X94241904Y-90501904D01*
X94337142Y-90454285D01*
X94384761Y-90406666D01*
X94432380Y-90311428D01*
X94432380Y-90120952D01*
X94384761Y-90025714D01*
X94337142Y-89978095D01*
X94241904Y-89930476D01*
X94003809Y-89930476D01*
X93908571Y-89978095D01*
X93860952Y-90025714D01*
X93813333Y-90120952D01*
X93813333Y-90311428D01*
X93860952Y-90406666D01*
X93908571Y-90454285D01*
X94003809Y-90501904D01*
%TO.C,U7*%
X127845714Y-92725714D02*
X128512380Y-92725714D01*
X127464761Y-92963809D02*
X128179047Y-93201904D01*
X128179047Y-92582857D01*
X128512380Y-92201904D02*
X127512380Y-92201904D01*
X128512380Y-91630476D01*
X127512380Y-91630476D01*
X127512380Y-91249523D02*
X127512380Y-90630476D01*
X127893333Y-90963809D01*
X127893333Y-90820952D01*
X127940952Y-90725714D01*
X127988571Y-90678095D01*
X128083809Y-90630476D01*
X128321904Y-90630476D01*
X128417142Y-90678095D01*
X128464761Y-90725714D01*
X128512380Y-90820952D01*
X128512380Y-91106666D01*
X128464761Y-91201904D01*
X128417142Y-91249523D01*
X127512380Y-89725714D02*
X127512380Y-90201904D01*
X127988571Y-90249523D01*
X127940952Y-90201904D01*
X127893333Y-90106666D01*
X127893333Y-89868571D01*
X127940952Y-89773333D01*
X127988571Y-89725714D01*
X128083809Y-89678095D01*
X128321904Y-89678095D01*
X128417142Y-89725714D01*
X128464761Y-89773333D01*
X128512380Y-89868571D01*
X128512380Y-90106666D01*
X128464761Y-90201904D01*
X128417142Y-90249523D01*
X122642380Y-92201904D02*
X123451904Y-92201904D01*
X123547142Y-92154285D01*
X123594761Y-92106666D01*
X123642380Y-92011428D01*
X123642380Y-91820952D01*
X123594761Y-91725714D01*
X123547142Y-91678095D01*
X123451904Y-91630476D01*
X122642380Y-91630476D01*
X122642380Y-91249523D02*
X122642380Y-90582857D01*
X123642380Y-91011428D01*
%TD*%
M02*
