%TF.GenerationSoftware,KiCad,Pcbnew,(5.1.8)-1*%
%TF.CreationDate,2021-06-08T09:03:09+02:00*%
%TF.ProjectId,Telerupteur_Recepteur_RF433_V2,54656c65-7275-4707-9465-75725f526563,V2*%
%TF.SameCoordinates,Original*%
%TF.FileFunction,Other,User*%
%FSLAX46Y46*%
G04 Gerber Fmt 4.6, Leading zero omitted, Abs format (unit mm)*
G04 Created by KiCad (PCBNEW (5.1.8)-1) date 2021-06-08 09:03:09*
%MOMM*%
%LPD*%
G01*
G04 APERTURE LIST*
%TA.AperFunction,Profile*%
%ADD10C,0.050000*%
%TD*%
%TA.AperFunction,Profile*%
%ADD11C,0.100000*%
%TD*%
%ADD12C,0.050000*%
%ADD13C,0.120000*%
G04 APERTURE END LIST*
D10*
X47566666Y-43200000D02*
G75*
G03*
X47566666Y-43200000I-1666666J0D01*
G01*
X43400000Y-43200000D02*
X48400000Y-43200000D01*
X45900000Y-40700000D02*
X45900000Y-45700000D01*
D11*
X200800000Y-43180000D02*
X200800000Y-135910000D01*
X45900000Y-43200000D02*
X200800000Y-43180000D01*
X45900000Y-135900000D02*
X45900000Y-43200000D01*
X200800000Y-135910000D02*
X45900000Y-135900000D01*
D12*
X146520000Y-76730000D02*
X146520000Y-45630000D01*
X173220000Y-76730000D02*
X146520000Y-76730000D01*
X173220000Y-45530000D02*
X173220000Y-76730000D01*
X146520000Y-45630000D02*
X173220000Y-45530000D01*
X98580000Y-76430000D02*
X98580000Y-45730000D01*
X125180000Y-76430000D02*
X98580000Y-76430000D01*
X125180000Y-45730000D02*
X125180000Y-76430000D01*
X98580000Y-45730000D02*
X125180000Y-45730000D01*
D13*
%TO.C,U1*%
X106305000Y-76265000D02*
X106305000Y-60790000D01*
X116855000Y-76315000D02*
X106305000Y-76315000D01*
X116905000Y-60790000D02*
X116905000Y-76315000D01*
X106330000Y-60790000D02*
X116880000Y-60790000D01*
%TO.C,U5*%
X196920000Y-115950000D02*
X166920000Y-115950000D01*
X166920000Y-115950000D02*
X166920000Y-119350000D01*
X196920000Y-115950000D02*
X196920000Y-119350000D01*
X166920000Y-119350000D02*
X196920000Y-119350000D01*
D12*
%TO.C,F3*%
X121170000Y-132580000D02*
X111070000Y-132580000D01*
X121170000Y-106580000D02*
X121170000Y-132580000D01*
X111070000Y-132580000D02*
X111070000Y-106580000D01*
X111070000Y-106580000D02*
X121170000Y-106580000D01*
D13*
%TO.C,D1*%
X60344724Y-55770280D02*
X69205000Y-55760000D01*
X60344723Y-55770280D02*
G75*
G02*
X69205000Y-55760000I4425009J4426479D01*
G01*
D12*
%TO.C,U3*%
X178810000Y-63490000D02*
X197090000Y-63490000D01*
X178810000Y-63490000D02*
X178810000Y-109710000D01*
X197090000Y-109710000D02*
X197090000Y-63490000D01*
X197090000Y-109710000D02*
X178810000Y-109710000D01*
%TO.C,J5*%
X147080000Y-128210000D02*
X135860000Y-128210000D01*
X135860000Y-128210000D02*
X135860000Y-118210000D01*
X135860000Y-118210000D02*
X147080000Y-118210000D01*
X147080000Y-118210000D02*
X147080000Y-128210000D01*
%TO.C,J4*%
X108980000Y-128210000D02*
X97760000Y-128210000D01*
X97760000Y-128210000D02*
X97760000Y-118210000D01*
X97760000Y-118210000D02*
X108980000Y-118210000D01*
X108980000Y-118210000D02*
X108980000Y-128210000D01*
%TO.C,J2*%
X57410000Y-134220000D02*
X57410000Y-123000000D01*
X57410000Y-123000000D02*
X67410000Y-123000000D01*
X67410000Y-123000000D02*
X67410000Y-134220000D01*
X67410000Y-134220000D02*
X57410000Y-134220000D01*
%TO.C,J1*%
X53600000Y-122670000D02*
X53600000Y-106330000D01*
X53600000Y-106330000D02*
X63600000Y-106330000D01*
X63600000Y-106330000D02*
X63600000Y-122670000D01*
X63600000Y-122670000D02*
X53600000Y-122670000D01*
%TO.C,F2*%
X81800000Y-132800000D02*
X71700000Y-132800000D01*
X81800000Y-106800000D02*
X81800000Y-132800000D01*
X71700000Y-132800000D02*
X71700000Y-106800000D01*
X71700000Y-106800000D02*
X81800000Y-106800000D01*
%TO.C,F1*%
X49230000Y-104130000D02*
X49230000Y-94030000D01*
X75230000Y-104130000D02*
X49230000Y-104130000D01*
X49230000Y-94030000D02*
X75230000Y-94030000D01*
X75230000Y-94030000D02*
X75230000Y-104130000D01*
%TO.C,K2*%
X134070000Y-111690000D02*
X134070000Y-132190000D01*
X134070000Y-132190000D02*
X123570000Y-132190000D01*
X123570000Y-132190000D02*
X123570000Y-111690000D01*
X123570000Y-111690000D02*
X134070000Y-111690000D01*
%TO.C,K1*%
X85100000Y-111690000D02*
X95600000Y-111690000D01*
X85100000Y-132190000D02*
X85100000Y-111690000D01*
X95600000Y-132190000D02*
X85100000Y-132190000D01*
X95600000Y-111690000D02*
X95600000Y-132190000D01*
%TO.C,D7*%
X136360000Y-111670000D02*
X136360000Y-114870000D01*
X136360000Y-114870000D02*
X149220000Y-114870000D01*
X149220000Y-114870000D02*
X149220000Y-111670000D01*
X149220000Y-111670000D02*
X136360000Y-111670000D01*
%TO.C,D6*%
X96990000Y-111670000D02*
X96990000Y-114870000D01*
X96990000Y-114870000D02*
X109850000Y-114870000D01*
X109850000Y-114870000D02*
X109850000Y-111670000D01*
X109850000Y-111670000D02*
X96990000Y-111670000D01*
%TO.C,REF\u002A\u002A*%
X200250000Y-132600000D02*
G75*
G03*
X200250000Y-132600000I-2750000J0D01*
G01*
X200150000Y-46100000D02*
G75*
G03*
X200150000Y-46100000I-2750000J0D01*
G01*
X51550000Y-46200000D02*
G75*
G03*
X51550000Y-46200000I-2750000J0D01*
G01*
X51550000Y-132800000D02*
G75*
G03*
X51550000Y-132800000I-2750000J0D01*
G01*
%TO.C,R3*%
X154370000Y-115690000D02*
X151370000Y-115690000D01*
X151370000Y-115690000D02*
X151370000Y-125410000D01*
X151370000Y-125410000D02*
X154370000Y-125410000D01*
X154370000Y-125410000D02*
X154370000Y-115690000D01*
%TO.C,C1*%
X95700000Y-71360000D02*
G75*
G03*
X95700000Y-71360000I-8750000J0D01*
G01*
%TO.C,C2*%
X76660000Y-55300000D02*
X93760000Y-55300000D01*
X76660000Y-46300000D02*
X76660000Y-55300000D01*
X93760000Y-46300000D02*
X76660000Y-46300000D01*
X93760000Y-55300000D02*
X93760000Y-46300000D01*
%TO.C,C3*%
X119150000Y-78510000D02*
X119150000Y-81510000D01*
X119150000Y-81510000D02*
X124650000Y-81510000D01*
X124650000Y-81510000D02*
X124650000Y-78510000D01*
X124650000Y-78510000D02*
X119150000Y-78510000D01*
%TO.C,C4*%
X144560000Y-55300000D02*
X144560000Y-46300000D01*
X144560000Y-46300000D02*
X127460000Y-46300000D01*
X127460000Y-46300000D02*
X127460000Y-55300000D01*
X127460000Y-55300000D02*
X144560000Y-55300000D01*
%TO.C,C5*%
X172910000Y-78510000D02*
X167410000Y-78510000D01*
X172910000Y-81510000D02*
X172910000Y-78510000D01*
X167410000Y-81510000D02*
X172910000Y-81510000D01*
X167410000Y-78510000D02*
X167410000Y-81510000D01*
%TO.C,D2*%
X128860000Y-62790000D02*
X128860000Y-69290000D01*
X128860000Y-69290000D02*
X135310000Y-69290000D01*
X135310000Y-69290000D02*
X135310000Y-62790000D01*
X135310000Y-62790000D02*
X128860000Y-62790000D01*
%TO.C,D3*%
X182100000Y-45250000D02*
X175650000Y-45250000D01*
X182100000Y-51750000D02*
X182100000Y-45250000D01*
X175650000Y-51750000D02*
X182100000Y-51750000D01*
X175650000Y-45250000D02*
X175650000Y-51750000D01*
%TO.C,D4*%
X156000000Y-117300000D02*
X156000000Y-123800000D01*
X156000000Y-123800000D02*
X162450000Y-123800000D01*
X162450000Y-123800000D02*
X162450000Y-117300000D01*
X162450000Y-117300000D02*
X156000000Y-117300000D01*
%TO.C,D5*%
X161980000Y-99620000D02*
X155530000Y-99620000D01*
X161980000Y-106120000D02*
X161980000Y-99620000D01*
X155530000Y-106120000D02*
X161980000Y-106120000D01*
X155530000Y-99620000D02*
X155530000Y-106120000D01*
%TO.C,J3*%
X196660000Y-55590000D02*
X190510000Y-55590000D01*
X190510000Y-55590000D02*
X190510000Y-59190000D01*
X190510000Y-59190000D02*
X196660000Y-59190000D01*
X196660000Y-59190000D02*
X196660000Y-55590000D01*
%TO.C,R1*%
X136930000Y-70900000D02*
X139930000Y-70900000D01*
X139930000Y-70900000D02*
X139930000Y-61180000D01*
X139930000Y-61180000D02*
X136930000Y-61180000D01*
X136930000Y-61180000D02*
X136930000Y-70900000D01*
%TO.C,R2*%
X193370000Y-52540000D02*
X193370000Y-49540000D01*
X193370000Y-49540000D02*
X183650000Y-49540000D01*
X183650000Y-49540000D02*
X183650000Y-52540000D01*
X183650000Y-52540000D02*
X193370000Y-52540000D01*
%TO.C,R4*%
X153900000Y-98010000D02*
X150900000Y-98010000D01*
X150900000Y-98010000D02*
X150900000Y-107730000D01*
X150900000Y-107730000D02*
X153900000Y-107730000D01*
X153900000Y-107730000D02*
X153900000Y-98010000D01*
%TO.C,R5*%
X160350000Y-85100000D02*
X150630000Y-85100000D01*
X160350000Y-88100000D02*
X160350000Y-85100000D01*
X150630000Y-88100000D02*
X160350000Y-88100000D01*
X150630000Y-85100000D02*
X150630000Y-88100000D01*
%TO.C,R6*%
X160350000Y-89940000D02*
X150630000Y-89940000D01*
X160350000Y-92940000D02*
X160350000Y-89940000D01*
X150630000Y-92940000D02*
X160350000Y-92940000D01*
X150630000Y-89940000D02*
X150630000Y-92940000D01*
%TO.C,R7*%
X87860000Y-95030000D02*
X87860000Y-85310000D01*
X84860000Y-95030000D02*
X87860000Y-95030000D01*
X84860000Y-85310000D02*
X84860000Y-95030000D01*
X87860000Y-85310000D02*
X84860000Y-85310000D01*
%TO.C,R8*%
X117070000Y-86580000D02*
X114070000Y-86580000D01*
X114070000Y-86580000D02*
X114070000Y-96300000D01*
X114070000Y-96300000D02*
X117070000Y-96300000D01*
X117070000Y-96300000D02*
X117070000Y-86580000D01*
%TO.C,TR1*%
X49590000Y-58840000D02*
X77090000Y-58840000D01*
X49590000Y-58840000D02*
X49590000Y-91340000D01*
X77090000Y-91340000D02*
X77090000Y-58840000D01*
X77090000Y-91340000D02*
X49590000Y-91340000D01*
D13*
%TO.C,U2*%
X154550000Y-60770000D02*
X165100000Y-60770000D01*
X165125000Y-60770000D02*
X165125000Y-76295000D01*
X165075000Y-76295000D02*
X154525000Y-76295000D01*
X154525000Y-76245000D02*
X154525000Y-60770000D01*
D12*
%TO.C,U4*%
X136160000Y-96940000D02*
X146860000Y-96940000D01*
X146860000Y-96940000D02*
X146860000Y-86390000D01*
X146860000Y-86390000D02*
X136160000Y-86390000D01*
X136160000Y-86390000D02*
X136160000Y-96940000D01*
%TO.C,U6*%
X89890000Y-96000000D02*
X98040000Y-96000000D01*
X98040000Y-96000000D02*
X98040000Y-85450000D01*
X98040000Y-85450000D02*
X89890000Y-85450000D01*
X89890000Y-85450000D02*
X89890000Y-96000000D01*
%TO.C,U7*%
X119100000Y-86150000D02*
X119100000Y-96700000D01*
X127250000Y-86150000D02*
X119100000Y-86150000D01*
X127250000Y-96700000D02*
X127250000Y-86150000D01*
X119100000Y-96700000D02*
X127250000Y-96700000D01*
%TD*%
M02*
