%TF.GenerationSoftware,KiCad,Pcbnew,(5.1.8)-1*%
%TF.CreationDate,2021-06-08T09:03:09+02:00*%
%TF.ProjectId,Telerupteur_Recepteur_RF433_V2,54656c65-7275-4707-9465-75725f526563,V2*%
%TF.SameCoordinates,Original*%
%TF.FileFunction,OtherDrawing,Comment*%
%FSLAX46Y46*%
G04 Gerber Fmt 4.6, Leading zero omitted, Abs format (unit mm)*
G04 Created by KiCad (PCBNEW (5.1.8)-1) date 2021-06-08 09:03:09*
%MOMM*%
%LPD*%
G01*
G04 APERTURE LIST*
%ADD10C,0.150000*%
%TA.AperFunction,Profile*%
%ADD11C,0.050000*%
%TD*%
%TA.AperFunction,Profile*%
%ADD12C,0.100000*%
%TD*%
G04 APERTURE END LIST*
D10*
X119302380Y-142052380D02*
X118730952Y-142052380D01*
X119016666Y-142052380D02*
X119016666Y-141052380D01*
X118921428Y-141195238D01*
X118826190Y-141290476D01*
X118730952Y-141338095D01*
X120207142Y-141052380D02*
X119730952Y-141052380D01*
X119683333Y-141528571D01*
X119730952Y-141480952D01*
X119826190Y-141433333D01*
X120064285Y-141433333D01*
X120159523Y-141480952D01*
X120207142Y-141528571D01*
X120254761Y-141623809D01*
X120254761Y-141861904D01*
X120207142Y-141957142D01*
X120159523Y-142004761D01*
X120064285Y-142052380D01*
X119826190Y-142052380D01*
X119730952Y-142004761D01*
X119683333Y-141957142D01*
X121159523Y-141052380D02*
X120683333Y-141052380D01*
X120635714Y-141528571D01*
X120683333Y-141480952D01*
X120778571Y-141433333D01*
X121016666Y-141433333D01*
X121111904Y-141480952D01*
X121159523Y-141528571D01*
X121207142Y-141623809D01*
X121207142Y-141861904D01*
X121159523Y-141957142D01*
X121111904Y-142004761D01*
X121016666Y-142052380D01*
X120778571Y-142052380D01*
X120683333Y-142004761D01*
X120635714Y-141957142D01*
X121683333Y-142004761D02*
X121683333Y-142052380D01*
X121635714Y-142147619D01*
X121588095Y-142195238D01*
X122635714Y-142052380D02*
X122064285Y-142052380D01*
X122350000Y-142052380D02*
X122350000Y-141052380D01*
X122254761Y-141195238D01*
X122159523Y-141290476D01*
X122064285Y-141338095D01*
X123254761Y-141052380D02*
X123350000Y-141052380D01*
X123445238Y-141100000D01*
X123492857Y-141147619D01*
X123540476Y-141242857D01*
X123588095Y-141433333D01*
X123588095Y-141671428D01*
X123540476Y-141861904D01*
X123492857Y-141957142D01*
X123445238Y-142004761D01*
X123350000Y-142052380D01*
X123254761Y-142052380D01*
X123159523Y-142004761D01*
X123111904Y-141957142D01*
X123064285Y-141861904D01*
X123016666Y-141671428D01*
X123016666Y-141433333D01*
X123064285Y-141242857D01*
X123111904Y-141147619D01*
X123159523Y-141100000D01*
X123254761Y-141052380D01*
X124207142Y-141052380D02*
X124302380Y-141052380D01*
X124397619Y-141100000D01*
X124445238Y-141147619D01*
X124492857Y-141242857D01*
X124540476Y-141433333D01*
X124540476Y-141671428D01*
X124492857Y-141861904D01*
X124445238Y-141957142D01*
X124397619Y-142004761D01*
X124302380Y-142052380D01*
X124207142Y-142052380D01*
X124111904Y-142004761D01*
X124064285Y-141957142D01*
X124016666Y-141861904D01*
X123969047Y-141671428D01*
X123969047Y-141433333D01*
X124016666Y-141242857D01*
X124064285Y-141147619D01*
X124111904Y-141100000D01*
X124207142Y-141052380D01*
X125730952Y-142052380D02*
X125730952Y-141385714D01*
X125730952Y-141480952D02*
X125778571Y-141433333D01*
X125873809Y-141385714D01*
X126016666Y-141385714D01*
X126111904Y-141433333D01*
X126159523Y-141528571D01*
X126159523Y-142052380D01*
X126159523Y-141528571D02*
X126207142Y-141433333D01*
X126302380Y-141385714D01*
X126445238Y-141385714D01*
X126540476Y-141433333D01*
X126588095Y-141528571D01*
X126588095Y-142052380D01*
X127064285Y-142052380D02*
X127064285Y-141385714D01*
X127064285Y-141480952D02*
X127111904Y-141433333D01*
X127207142Y-141385714D01*
X127350000Y-141385714D01*
X127445238Y-141433333D01*
X127492857Y-141528571D01*
X127492857Y-142052380D01*
X127492857Y-141528571D02*
X127540476Y-141433333D01*
X127635714Y-141385714D01*
X127778571Y-141385714D01*
X127873809Y-141433333D01*
X127921428Y-141528571D01*
X127921428Y-142052380D01*
X45800000Y-140300000D02*
X200900000Y-140300000D01*
X45800000Y-140300000D02*
X45800000Y-140886421D01*
X200900000Y-140300000D02*
X200900000Y-140886421D01*
X200900000Y-140300000D02*
X199773496Y-140886421D01*
X200900000Y-140300000D02*
X199773496Y-139713579D01*
X45800000Y-140300000D02*
X46926504Y-140886421D01*
X45800000Y-140300000D02*
X46926504Y-139713579D01*
X207447619Y-85452380D02*
X207447619Y-85642857D01*
X207495238Y-85738095D01*
X207542857Y-85785714D01*
X207685714Y-85880952D01*
X207876190Y-85928571D01*
X208257142Y-85928571D01*
X208352380Y-85880952D01*
X208400000Y-85833333D01*
X208447619Y-85738095D01*
X208447619Y-85547619D01*
X208400000Y-85452380D01*
X208352380Y-85404761D01*
X208257142Y-85357142D01*
X208019047Y-85357142D01*
X207923809Y-85404761D01*
X207876190Y-85452380D01*
X207828571Y-85547619D01*
X207828571Y-85738095D01*
X207876190Y-85833333D01*
X207923809Y-85880952D01*
X208019047Y-85928571D01*
X208352380Y-86309523D02*
X208400000Y-86357142D01*
X208447619Y-86452380D01*
X208447619Y-86690476D01*
X208400000Y-86785714D01*
X208352380Y-86833333D01*
X208257142Y-86880952D01*
X208161904Y-86880952D01*
X208019047Y-86833333D01*
X207447619Y-86261904D01*
X207447619Y-86880952D01*
X207495238Y-87357142D02*
X207447619Y-87357142D01*
X207352380Y-87309523D01*
X207304761Y-87261904D01*
X208019047Y-87928571D02*
X208066666Y-87833333D01*
X208114285Y-87785714D01*
X208209523Y-87738095D01*
X208257142Y-87738095D01*
X208352380Y-87785714D01*
X208400000Y-87833333D01*
X208447619Y-87928571D01*
X208447619Y-88119047D01*
X208400000Y-88214285D01*
X208352380Y-88261904D01*
X208257142Y-88309523D01*
X208209523Y-88309523D01*
X208114285Y-88261904D01*
X208066666Y-88214285D01*
X208019047Y-88119047D01*
X208019047Y-87928571D01*
X207971428Y-87833333D01*
X207923809Y-87785714D01*
X207828571Y-87738095D01*
X207638095Y-87738095D01*
X207542857Y-87785714D01*
X207495238Y-87833333D01*
X207447619Y-87928571D01*
X207447619Y-88119047D01*
X207495238Y-88214285D01*
X207542857Y-88261904D01*
X207638095Y-88309523D01*
X207828571Y-88309523D01*
X207923809Y-88261904D01*
X207971428Y-88214285D01*
X208019047Y-88119047D01*
X208447619Y-88928571D02*
X208447619Y-89023809D01*
X208400000Y-89119047D01*
X208352380Y-89166666D01*
X208257142Y-89214285D01*
X208066666Y-89261904D01*
X207828571Y-89261904D01*
X207638095Y-89214285D01*
X207542857Y-89166666D01*
X207495238Y-89119047D01*
X207447619Y-89023809D01*
X207447619Y-88928571D01*
X207495238Y-88833333D01*
X207542857Y-88785714D01*
X207638095Y-88738095D01*
X207828571Y-88690476D01*
X208066666Y-88690476D01*
X208257142Y-88738095D01*
X208352380Y-88785714D01*
X208400000Y-88833333D01*
X208447619Y-88928571D01*
X208447619Y-89880952D02*
X208447619Y-89976190D01*
X208400000Y-90071428D01*
X208352380Y-90119047D01*
X208257142Y-90166666D01*
X208066666Y-90214285D01*
X207828571Y-90214285D01*
X207638095Y-90166666D01*
X207542857Y-90119047D01*
X207495238Y-90071428D01*
X207447619Y-89976190D01*
X207447619Y-89880952D01*
X207495238Y-89785714D01*
X207542857Y-89738095D01*
X207638095Y-89690476D01*
X207828571Y-89642857D01*
X208066666Y-89642857D01*
X208257142Y-89690476D01*
X208352380Y-89738095D01*
X208400000Y-89785714D01*
X208447619Y-89880952D01*
X207447619Y-91404761D02*
X208114285Y-91404761D01*
X208019047Y-91404761D02*
X208066666Y-91452380D01*
X208114285Y-91547619D01*
X208114285Y-91690476D01*
X208066666Y-91785714D01*
X207971428Y-91833333D01*
X207447619Y-91833333D01*
X207971428Y-91833333D02*
X208066666Y-91880952D01*
X208114285Y-91976190D01*
X208114285Y-92119047D01*
X208066666Y-92214285D01*
X207971428Y-92261904D01*
X207447619Y-92261904D01*
X207447619Y-92738095D02*
X208114285Y-92738095D01*
X208019047Y-92738095D02*
X208066666Y-92785714D01*
X208114285Y-92880952D01*
X208114285Y-93023809D01*
X208066666Y-93119047D01*
X207971428Y-93166666D01*
X207447619Y-93166666D01*
X207971428Y-93166666D02*
X208066666Y-93214285D01*
X208114285Y-93309523D01*
X208114285Y-93452380D01*
X208066666Y-93547619D01*
X207971428Y-93595238D01*
X207447619Y-93595238D01*
X206600000Y-43100000D02*
X206600000Y-135900000D01*
X206300000Y-43100000D02*
X207186421Y-43100000D01*
X206300000Y-135900000D02*
X207186421Y-135900000D01*
X206600000Y-135900000D02*
X206013579Y-134773496D01*
X206600000Y-135900000D02*
X207186421Y-134773496D01*
X206600000Y-43100000D02*
X206013579Y-44226504D01*
X206600000Y-43100000D02*
X207186421Y-44226504D01*
D11*
X47566666Y-43200000D02*
G75*
G03*
X47566666Y-43200000I-1666666J0D01*
G01*
X43400000Y-43200000D02*
X48400000Y-43200000D01*
X45900000Y-40700000D02*
X45900000Y-45700000D01*
D12*
X200800000Y-43180000D02*
X200800000Y-135910000D01*
X45900000Y-43200000D02*
X200800000Y-43180000D01*
X45900000Y-135900000D02*
X45900000Y-43200000D01*
X200800000Y-135910000D02*
X45900000Y-135900000D01*
M02*
