%TF.GenerationSoftware,KiCad,Pcbnew,(5.1.8)-1*%
%TF.CreationDate,2021-06-08T09:03:09+02:00*%
%TF.ProjectId,Telerupteur_Recepteur_RF433_V2,54656c65-7275-4707-9465-75725f526563,V2*%
%TF.SameCoordinates,Original*%
%TF.FileFunction,Copper,L1,Top*%
%TF.FilePolarity,Positive*%
%FSLAX46Y46*%
G04 Gerber Fmt 4.6, Leading zero omitted, Abs format (unit mm)*
G04 Created by KiCad (PCBNEW (5.1.8)-1) date 2021-06-08 09:03:09*
%MOMM*%
%LPD*%
G01*
G04 APERTURE LIST*
%TA.AperFunction,Profile*%
%ADD10C,0.050000*%
%TD*%
%TA.AperFunction,Profile*%
%ADD11C,0.100000*%
%TD*%
%TA.AperFunction,ComponentPad*%
%ADD12O,1.900000X2.500000*%
%TD*%
%TA.AperFunction,ComponentPad*%
%ADD13R,1.900000X2.500000*%
%TD*%
%TA.AperFunction,ComponentPad*%
%ADD14R,1.760000X1.760000*%
%TD*%
%TA.AperFunction,ComponentPad*%
%ADD15C,1.760000*%
%TD*%
%TA.AperFunction,ComponentPad*%
%ADD16O,3.500000X2.500000*%
%TD*%
%TA.AperFunction,ComponentPad*%
%ADD17C,2.500000*%
%TD*%
%TA.AperFunction,ComponentPad*%
%ADD18R,2.500000X2.500000*%
%TD*%
%TA.AperFunction,ComponentPad*%
%ADD19O,2.500000X1.700000*%
%TD*%
%TA.AperFunction,ComponentPad*%
%ADD20R,2.500000X1.700000*%
%TD*%
%TA.AperFunction,ComponentPad*%
%ADD21C,1.950000*%
%TD*%
%TA.AperFunction,ComponentPad*%
%ADD22R,1.950000X1.950000*%
%TD*%
%TA.AperFunction,ComponentPad*%
%ADD23O,2.500000X3.500000*%
%TD*%
%TA.AperFunction,ComponentPad*%
%ADD24C,2.100000*%
%TD*%
%TA.AperFunction,ComponentPad*%
%ADD25O,2.200000X2.200000*%
%TD*%
%TA.AperFunction,ComponentPad*%
%ADD26R,2.200000X2.200000*%
%TD*%
%TA.AperFunction,ComponentPad*%
%ADD27C,5.000000*%
%TD*%
%TA.AperFunction,ComponentPad*%
%ADD28C,2.000000*%
%TD*%
%TA.AperFunction,ComponentPad*%
%ADD29R,2.000000X2.000000*%
%TD*%
%TA.AperFunction,ComponentPad*%
%ADD30C,1.600000*%
%TD*%
%TA.AperFunction,ComponentPad*%
%ADD31R,1.600000X1.600000*%
%TD*%
%TA.AperFunction,ComponentPad*%
%ADD32O,1.760000X2.400000*%
%TD*%
%TA.AperFunction,ComponentPad*%
%ADD33C,3.750000*%
%TD*%
%TA.AperFunction,ComponentPad*%
%ADD34R,1.600000X2.400000*%
%TD*%
%TA.AperFunction,ComponentPad*%
%ADD35O,1.600000X2.400000*%
%TD*%
%TA.AperFunction,Conductor*%
%ADD36C,0.500000*%
%TD*%
G04 APERTURE END LIST*
D10*
X47566666Y-43200000D02*
G75*
G03*
X47566666Y-43200000I-1666666J0D01*
G01*
X43400000Y-43200000D02*
X48400000Y-43200000D01*
X45900000Y-40700000D02*
X45900000Y-45700000D01*
D11*
X200800000Y-43180000D02*
X200800000Y-135910000D01*
X45900000Y-43200000D02*
X200800000Y-43180000D01*
X45900000Y-135900000D02*
X45900000Y-43200000D01*
X200800000Y-135910000D02*
X45900000Y-135900000D01*
D12*
%TO.P,U1,3*%
%TO.N,+12V*%
X114260000Y-80190000D03*
%TO.P,U1,2*%
%TO.N,GND*%
X111720000Y-80190000D03*
D13*
%TO.P,U1,1*%
%TO.N,Net-(C1-Pad1)*%
X109180000Y-80190000D03*
%TD*%
D14*
%TO.P,U5,1*%
%TO.N,+5V*%
X187240000Y-120890000D03*
D15*
%TO.P,U5,2*%
%TO.N,Data*%
X189780000Y-120890000D03*
%TO.P,U5,3*%
%TO.N,Net-(U5-Pad3)*%
X192320000Y-120890000D03*
%TO.P,U5,4*%
%TO.N,GND*%
X194860000Y-120890000D03*
%TD*%
D16*
%TO.P,F3,2*%
%TO.N,Phase*%
X116120000Y-108330000D03*
%TO.P,F3,1*%
%TO.N,Net-(F3-Pad1)*%
X116120000Y-130830000D03*
%TD*%
D17*
%TO.P,D1,4*%
%TO.N,Net-(D1-Pad4)*%
X62230000Y-48260000D03*
%TO.P,D1,2*%
%TO.N,Net-(D1-Pad2)*%
X67830000Y-53860000D03*
D18*
%TO.P,D1,1*%
%TO.N,Net-(C1-Pad1)*%
X62230000Y-53860000D03*
D17*
%TO.P,D1,3*%
%TO.N,GND*%
X67830000Y-48260000D03*
%TD*%
D19*
%TO.P,U3,16*%
%TO.N,GND*%
X195580000Y-103110000D03*
%TO.P,U3,15*%
%TO.N,Net-(U3-Pad15)*%
X180340000Y-103110000D03*
%TO.P,U3,30*%
%TO.N,Net-(J3-Pad1)*%
X195580000Y-67550000D03*
%TO.P,U3,14*%
%TO.N,Data*%
X180340000Y-100570000D03*
%TO.P,U3,29*%
%TO.N,GND*%
X195580000Y-70090000D03*
%TO.P,U3,13*%
%TO.N,Net-(U3-Pad13)*%
X180340000Y-98030000D03*
%TO.P,U3,28*%
%TO.N,Net-(U3-Pad28)*%
X195580000Y-72630000D03*
%TO.P,U3,12*%
%TO.N,GND*%
X180340000Y-95490000D03*
%TO.P,U3,27*%
%TO.N,+5V*%
X195580000Y-75170000D03*
%TO.P,U3,11*%
%TO.N,GND*%
X180340000Y-92950000D03*
%TO.P,U3,26*%
X195580000Y-77710000D03*
%TO.P,U3,10*%
%TO.N,K2*%
X180340000Y-90410000D03*
%TO.P,U3,25*%
%TO.N,GND*%
X195580000Y-80250000D03*
%TO.P,U3,9*%
%TO.N,Net-(R4-Pad1)*%
X180340000Y-87870000D03*
%TO.P,U3,24*%
%TO.N,SCL*%
X195580000Y-82790000D03*
%TO.P,U3,8*%
%TO.N,GND*%
X180340000Y-85330000D03*
%TO.P,U3,23*%
%TO.N,SDA*%
X195580000Y-85330000D03*
%TO.P,U3,7*%
%TO.N,GND*%
X180340000Y-82790000D03*
%TO.P,U3,22*%
X195580000Y-87870000D03*
%TO.P,U3,6*%
%TO.N,K1*%
X180340000Y-80250000D03*
%TO.P,U3,21*%
%TO.N,GND*%
X195580000Y-90410000D03*
%TO.P,U3,5*%
%TO.N,Net-(R3-Pad1)*%
X180340000Y-77710000D03*
%TO.P,U3,20*%
%TO.N,GND*%
X195580000Y-92950000D03*
%TO.P,U3,4*%
X180340000Y-75170000D03*
%TO.P,U3,19*%
X195580000Y-95490000D03*
%TO.P,U3,3*%
%TO.N,Net-(U3-Pad3)*%
X180340000Y-72630000D03*
%TO.P,U3,18*%
%TO.N,Net-(U3-Pad18)*%
X195580000Y-98030000D03*
%TO.P,U3,2*%
%TO.N,Net-(U3-Pad2)*%
X180340000Y-70090000D03*
%TO.P,U3,17*%
%TO.N,Net-(U3-Pad17)*%
X195580000Y-100570000D03*
D20*
%TO.P,U3,1*%
%TO.N,Net-(U3-Pad1)*%
X180340000Y-67550000D03*
%TD*%
D21*
%TO.P,J5,2*%
%TO.N,Net-(J5-Pad1)*%
X138610000Y-123210000D03*
D22*
%TO.P,J5,1*%
X143690000Y-123210000D03*
%TD*%
D21*
%TO.P,J4,2*%
%TO.N,Net-(J4-Pad1)*%
X100510000Y-123210000D03*
D22*
%TO.P,J4,1*%
X105590000Y-123210000D03*
%TD*%
D21*
%TO.P,J2,2*%
%TO.N,Phase*%
X62410000Y-125750000D03*
D22*
%TO.P,J2,1*%
X62410000Y-130830000D03*
%TD*%
D21*
%TO.P,J1,3*%
%TO.N,Net-(J1-Pad1)*%
X58600000Y-109120000D03*
%TO.P,J1,2*%
X58600000Y-114200000D03*
D22*
%TO.P,J1,1*%
X58600000Y-119280000D03*
%TD*%
D16*
%TO.P,F2,2*%
%TO.N,Phase*%
X76750000Y-108550000D03*
%TO.P,F2,1*%
%TO.N,Net-(F2-Pad1)*%
X76750000Y-131050000D03*
%TD*%
D23*
%TO.P,F1,2*%
%TO.N,Phase*%
X73480000Y-99080000D03*
%TO.P,F1,1*%
%TO.N,Net-(F1-Pad1)*%
X50980000Y-99080000D03*
%TD*%
D24*
%TO.P,K2,C2*%
%TO.N,Net-(D7-Pad2)*%
X132630000Y-113050000D03*
%TO.P,K2,NO*%
%TO.N,Net-(J5-Pad1)*%
X125010000Y-130830000D03*
%TO.P,K2,COM*%
%TO.N,Net-(F3-Pad1)*%
X125010000Y-123210000D03*
%TO.P,K2,C1*%
%TO.N,+12V*%
X125010000Y-113050000D03*
%TD*%
%TO.P,K1,C2*%
%TO.N,Net-(D6-Pad2)*%
X94160000Y-113050000D03*
%TO.P,K1,NO*%
%TO.N,Net-(J4-Pad1)*%
X86540000Y-130830000D03*
%TO.P,K1,COM*%
%TO.N,Net-(F2-Pad1)*%
X86540000Y-123210000D03*
%TO.P,K1,C1*%
%TO.N,+12V*%
X86540000Y-113050000D03*
%TD*%
D25*
%TO.P,D7,2*%
%TO.N,Net-(D7-Pad2)*%
X147870000Y-113270000D03*
D26*
%TO.P,D7,1*%
%TO.N,+12V*%
X137710000Y-113270000D03*
%TD*%
D25*
%TO.P,D6,2*%
%TO.N,Net-(D6-Pad2)*%
X108500000Y-113270000D03*
D26*
%TO.P,D6,1*%
%TO.N,+12V*%
X98340000Y-113270000D03*
%TD*%
D27*
%TO.P,REF\u002A\u002A,1*%
%TO.N,N/C*%
X197500000Y-132600000D03*
%TD*%
%TO.P,REF\u002A\u002A,1*%
%TO.N,N/C*%
X197400000Y-46100000D03*
%TD*%
%TO.P,REF\u002A\u002A,1*%
%TO.N,N/C*%
X48800000Y-46200000D03*
%TD*%
%TO.P,REF\u002A\u002A,1*%
%TO.N,N/C*%
X48800000Y-132800000D03*
%TD*%
D28*
%TO.P,R3,1*%
%TO.N,Net-(R3-Pad1)*%
X152870000Y-116740000D03*
%TO.P,R3,2*%
%TO.N,Net-(D4-Pad1)*%
X152870000Y-124360000D03*
%TD*%
D29*
%TO.P,C1,1*%
%TO.N,Net-(C1-Pad1)*%
X83200000Y-71360000D03*
D28*
%TO.P,C1,2*%
%TO.N,GND*%
X90700000Y-71360000D03*
%TD*%
%TO.P,C2,2*%
%TO.N,GND*%
X77710000Y-50800000D03*
%TO.P,C2,1*%
%TO.N,Net-(C1-Pad1)*%
X92710000Y-50800000D03*
%TD*%
D30*
%TO.P,C3,2*%
%TO.N,GND*%
X123150000Y-80010000D03*
%TO.P,C3,1*%
%TO.N,+12V*%
X120650000Y-80010000D03*
%TD*%
D28*
%TO.P,C4,1*%
%TO.N,Net-(C1-Pad1)*%
X143510000Y-50800000D03*
%TO.P,C4,2*%
%TO.N,GND*%
X128510000Y-50800000D03*
%TD*%
D30*
%TO.P,C5,1*%
%TO.N,+9V*%
X168910000Y-80010000D03*
%TO.P,C5,2*%
%TO.N,GND*%
X171410000Y-80010000D03*
%TD*%
D31*
%TO.P,D2,1*%
%TO.N,GND*%
X130810000Y-66040000D03*
D30*
%TO.P,D2,2*%
%TO.N,Net-(D2-Pad2)*%
X133350000Y-66040000D03*
%TD*%
%TO.P,D3,2*%
%TO.N,Net-(D3-Pad2)*%
X180140000Y-48500000D03*
D31*
%TO.P,D3,1*%
%TO.N,GND*%
X177600000Y-48500000D03*
%TD*%
%TO.P,D4,1*%
%TO.N,Net-(D4-Pad1)*%
X157950000Y-120550000D03*
D30*
%TO.P,D4,2*%
%TO.N,+5V*%
X160490000Y-120550000D03*
%TD*%
%TO.P,D5,2*%
%TO.N,+5V*%
X160020000Y-102870000D03*
D31*
%TO.P,D5,1*%
%TO.N,Net-(D5-Pad1)*%
X157480000Y-102870000D03*
%TD*%
D14*
%TO.P,J3,1*%
%TO.N,Net-(J3-Pad1)*%
X194860000Y-57390000D03*
D32*
%TO.P,J3,2*%
%TO.N,+9V*%
X192320000Y-57390000D03*
%TD*%
D28*
%TO.P,R1,1*%
%TO.N,+12V*%
X138430000Y-69850000D03*
%TO.P,R1,2*%
%TO.N,Net-(D2-Pad2)*%
X138430000Y-62230000D03*
%TD*%
%TO.P,R2,1*%
%TO.N,+9V*%
X192320000Y-51040000D03*
%TO.P,R2,2*%
%TO.N,Net-(D3-Pad2)*%
X184700000Y-51040000D03*
%TD*%
%TO.P,R4,1*%
%TO.N,Net-(R4-Pad1)*%
X152400000Y-99060000D03*
%TO.P,R4,2*%
%TO.N,Net-(D5-Pad1)*%
X152400000Y-106680000D03*
%TD*%
%TO.P,R5,2*%
%TO.N,+5V*%
X159300000Y-86600000D03*
%TO.P,R5,1*%
%TO.N,SCL*%
X151680000Y-86600000D03*
%TD*%
%TO.P,R6,2*%
%TO.N,+5V*%
X159300000Y-91440000D03*
%TO.P,R6,1*%
%TO.N,SDA*%
X151680000Y-91440000D03*
%TD*%
%TO.P,R7,2*%
%TO.N,+5V*%
X86360000Y-93980000D03*
%TO.P,R7,1*%
%TO.N,Net-(R7-Pad1)*%
X86360000Y-86360000D03*
%TD*%
%TO.P,R8,1*%
%TO.N,Net-(R8-Pad1)*%
X115570000Y-87630000D03*
%TO.P,R8,2*%
%TO.N,+5V*%
X115570000Y-95250000D03*
%TD*%
D33*
%TO.P,TR1,1*%
%TO.N,Net-(J1-Pad1)*%
X53340000Y-85090000D03*
%TO.P,TR1,5*%
%TO.N,Net-(F1-Pad1)*%
X53340000Y-65090000D03*
%TO.P,TR1,7*%
%TO.N,Net-(D1-Pad4)*%
X73340000Y-70090000D03*
%TO.P,TR1,9*%
%TO.N,Net-(D1-Pad2)*%
X73340000Y-80090000D03*
%TD*%
D13*
%TO.P,U2,1*%
%TO.N,Net-(C1-Pad1)*%
X157400000Y-80170000D03*
D12*
%TO.P,U2,2*%
%TO.N,GND*%
X159940000Y-80170000D03*
%TO.P,U2,3*%
%TO.N,+9V*%
X162480000Y-80170000D03*
%TD*%
D34*
%TO.P,U4,1*%
%TO.N,GND*%
X137710000Y-95490000D03*
D35*
%TO.P,U4,5*%
%TO.N,SDA*%
X145330000Y-87870000D03*
%TO.P,U4,2*%
%TO.N,GND*%
X140250000Y-95490000D03*
%TO.P,U4,6*%
%TO.N,SCL*%
X142790000Y-87870000D03*
%TO.P,U4,3*%
%TO.N,GND*%
X142790000Y-95490000D03*
%TO.P,U4,7*%
X140250000Y-87870000D03*
%TO.P,U4,4*%
X145330000Y-95490000D03*
%TO.P,U4,8*%
%TO.N,+5V*%
X137710000Y-87870000D03*
%TD*%
%TO.P,U6,6*%
%TO.N,Net-(U6-Pad6)*%
X91440000Y-86930000D03*
%TO.P,U6,3*%
%TO.N,Net-(U6-Pad3)*%
X96520000Y-94550000D03*
%TO.P,U6,5*%
%TO.N,Net-(D6-Pad2)*%
X93980000Y-86930000D03*
%TO.P,U6,2*%
%TO.N,K1*%
X93980000Y-94550000D03*
%TO.P,U6,4*%
%TO.N,GND*%
X96520000Y-86930000D03*
D34*
%TO.P,U6,1*%
%TO.N,Net-(R7-Pad1)*%
X91440000Y-94550000D03*
%TD*%
%TO.P,U7,1*%
%TO.N,Net-(R8-Pad1)*%
X120650000Y-95250000D03*
D35*
%TO.P,U7,4*%
%TO.N,GND*%
X125730000Y-87630000D03*
%TO.P,U7,2*%
%TO.N,K2*%
X123190000Y-95250000D03*
%TO.P,U7,5*%
%TO.N,Net-(D7-Pad2)*%
X123190000Y-87630000D03*
%TO.P,U7,3*%
%TO.N,Net-(U7-Pad3)*%
X125730000Y-95250000D03*
%TO.P,U7,6*%
%TO.N,Net-(U7-Pad6)*%
X120650000Y-87630000D03*
%TD*%
D36*
%TO.N,Net-(C1-Pad1)*%
X83200000Y-71360000D02*
X83200000Y-74000000D01*
X83200000Y-74000000D02*
X89390000Y-80190000D01*
X89390000Y-80190000D02*
X109180000Y-80190000D01*
%TO.N,+12V*%
X114260000Y-80190000D02*
X114260000Y-82110000D01*
X114260000Y-82110000D02*
X112310000Y-84060000D01*
X112310000Y-84060000D02*
X112310000Y-98030000D01*
X112310000Y-98030000D02*
X113580000Y-99300000D01*
X113580000Y-99300000D02*
X118660000Y-99300000D01*
X125010000Y-105650000D02*
X125010000Y-113050000D01*
X118660000Y-99300000D02*
X125010000Y-105650000D01*
X98190000Y-113420000D02*
X98340000Y-113270000D01*
X98190000Y-115510000D02*
X98190000Y-113420000D01*
X98190000Y-115510000D02*
X125010000Y-115510000D01*
X125010000Y-115510000D02*
X125010000Y-113050000D01*
X125010000Y-115510000D02*
X136510000Y-115510000D01*
X137710000Y-114310000D02*
X137710000Y-113270000D01*
X136510000Y-115510000D02*
X137710000Y-114310000D01*
X98190000Y-115510000D02*
X87210000Y-115510000D01*
X86540000Y-114840000D02*
X86540000Y-113050000D01*
X87210000Y-115510000D02*
X86540000Y-114840000D01*
%TO.N,+9V*%
X168750000Y-80170000D02*
X168910000Y-80010000D01*
X168910000Y-80010000D02*
X169700000Y-80010000D01*
X169700000Y-79573998D02*
X171563998Y-77710000D01*
X169700000Y-80010000D02*
X169700000Y-79573998D01*
X171563998Y-77710000D02*
X173270000Y-77710000D01*
X173270000Y-77710000D02*
X174540000Y-76440000D01*
X174540000Y-76440000D02*
X174540000Y-62470000D01*
X179620000Y-57390000D02*
X192320000Y-57390000D01*
X174540000Y-62470000D02*
X179620000Y-57390000D01*
%TO.N,Net-(D1-Pad4)*%
X62230000Y-48260000D02*
X59450000Y-51040000D01*
X59450000Y-51040000D02*
X59450000Y-61990000D01*
X67550000Y-70090000D02*
X73340000Y-70090000D01*
X59450000Y-61990000D02*
X67550000Y-70090000D01*
%TO.N,+5V*%
X160020000Y-120080000D02*
X160490000Y-120550000D01*
X195580000Y-75170000D02*
X197400000Y-75170000D01*
X197400000Y-75170000D02*
X198670000Y-76440000D01*
X198670000Y-76440000D02*
X198670000Y-109460000D01*
X198670000Y-109460000D02*
X194860000Y-113270000D01*
X194860000Y-113270000D02*
X188510000Y-113270000D01*
X187240000Y-114540000D02*
X187240000Y-120890000D01*
X188510000Y-113270000D02*
X187240000Y-114540000D01*
X160330000Y-91440000D02*
X159300000Y-91440000D01*
X161840000Y-92950000D02*
X160330000Y-91440000D01*
X161840000Y-101050000D02*
X161840000Y-92950000D01*
X160020000Y-102870000D02*
X161840000Y-101050000D01*
X115570000Y-95250000D02*
X117390000Y-93430000D01*
X117390000Y-93430000D02*
X117390000Y-86600000D01*
X117390000Y-86600000D02*
X118660000Y-85330000D01*
X135170000Y-85330000D02*
X137710000Y-87870000D01*
X118660000Y-85330000D02*
X135170000Y-85330000D01*
%TO.N,Net-(D6-Pad2)*%
X102150000Y-90410000D02*
X94530000Y-90410000D01*
X112310000Y-100570000D02*
X102150000Y-90410000D01*
X117390000Y-100570000D02*
X112310000Y-100570000D01*
X122500000Y-105680000D02*
X117390000Y-100570000D01*
X122500000Y-113100000D02*
X122500000Y-105680000D01*
X94530000Y-90410000D02*
X93980000Y-89860000D01*
X121400000Y-114200000D02*
X122500000Y-113100000D01*
X93980000Y-89860000D02*
X93980000Y-86930000D01*
X112400000Y-114200000D02*
X121400000Y-114200000D01*
X111470000Y-113270000D02*
X112400000Y-114200000D01*
X108500000Y-113270000D02*
X111470000Y-113270000D01*
%TO.N,Net-(R3-Pad1)*%
X185970000Y-81590000D02*
X182090000Y-77710000D01*
X152870000Y-116740000D02*
X178690000Y-116740000D01*
X178690000Y-116740000D02*
X185970000Y-109460000D01*
X185970000Y-109460000D02*
X185970000Y-81590000D01*
X182090000Y-77710000D02*
X180340000Y-77710000D01*
%TO.N,SCL*%
X142790000Y-87870000D02*
X142790000Y-90410000D01*
X142790000Y-90410000D02*
X144060000Y-91680000D01*
X146600000Y-91680000D02*
X151680000Y-86600000D01*
X144060000Y-91680000D02*
X146600000Y-91680000D01*
X192320000Y-71362806D02*
X192320000Y-81280000D01*
X193220009Y-70462797D02*
X192320000Y-71362806D01*
X193220009Y-68450009D02*
X193220009Y-70462797D01*
X185970000Y-61200000D02*
X193220009Y-68450009D01*
X178347193Y-61200000D02*
X185970000Y-61200000D01*
X192320000Y-81280000D02*
X193830000Y-82790000D01*
X175810000Y-63737193D02*
X178347193Y-61200000D01*
X193830000Y-82790000D02*
X195580000Y-82790000D01*
X175810000Y-81520000D02*
X175810000Y-63737193D01*
X174540000Y-82790000D02*
X175810000Y-81520000D01*
X142790000Y-82790000D02*
X174540000Y-82790000D01*
X142790000Y-87870000D02*
X142790000Y-82790000D01*
%TO.N,SDA*%
X153980000Y-89140000D02*
X151680000Y-91440000D01*
X177080000Y-63740000D02*
X177080000Y-82792807D01*
X178350000Y-62470000D02*
X177080000Y-63740000D01*
X191050000Y-68820000D02*
X184700000Y-62470000D01*
X184700000Y-62470000D02*
X178350000Y-62470000D01*
X191050000Y-84060000D02*
X191050000Y-68820000D01*
X192320000Y-85330000D02*
X191050000Y-84060000D01*
X170732807Y-89140000D02*
X153980000Y-89140000D01*
X177080000Y-82792807D02*
X170732807Y-89140000D01*
X195580000Y-85330000D02*
X192320000Y-85330000D01*
%TO.N,Net-(R7-Pad1)*%
X86360000Y-89470000D02*
X91440000Y-94550000D01*
X86360000Y-86360000D02*
X86360000Y-89470000D01*
%TO.N,K2*%
X123190000Y-95250000D02*
X123190000Y-97480000D01*
X123190000Y-97480000D02*
X126280000Y-100570000D01*
X126280000Y-100570000D02*
X144060000Y-100570000D01*
X144060000Y-100570000D02*
X147870000Y-104380000D01*
X147870000Y-104380000D02*
X147870000Y-109460000D01*
X147870000Y-109460000D02*
X150410000Y-112000000D01*
X150410000Y-112000000D02*
X161840000Y-112000000D01*
X161840000Y-112000000D02*
X173270000Y-100570000D01*
X173270000Y-100570000D02*
X173270000Y-92950000D01*
X175810000Y-90410000D02*
X180340000Y-90410000D01*
X173270000Y-92950000D02*
X175810000Y-90410000D01*
%TD*%
M02*
