M48
; DRILL file {KiCad (5.1.8)-1} date 06/08/21 09:03:14
; FORMAT={-:-/ absolute / inch / decimal}
; #@! TF.CreationDate,2021-06-08T09:03:14+02:00
; #@! TF.GenerationSoftware,Kicad,Pcbnew,(5.1.8)-1
; #@! TF.FileFunction,Plated,1,2,PTH
FMAT,2
INCH
T1C0.0236
T2C0.0276
T3C0.0315
T4C0.0394
T5C0.0433
T6C0.0472
T7C0.0512
T8C0.0551
T9C0.0591
T10C0.0984
%
G90
G05
T1
X5.15Y-2.6
X5.25Y-2.6
X6.2185Y-4.7461
X6.3185Y-4.7461
X6.9921Y-1.9094
X7.0921Y-1.9094
X6.2Y-4.05
X6.3Y-4.05
T2
X7.7Y-2.6594
T3
X4.75Y-3.15
X4.8484Y-3.15
X6.0Y-3.9
X6.0Y-4.2
X7.2717Y-2.0094
X7.5717Y-2.0094
X3.2756Y-2.8094
X3.5709Y-2.8094
X5.9717Y-3.4094
X6.2717Y-3.4094
X3.6Y-3.4224
X3.6Y-3.7224
X3.7Y-3.4224
X3.7Y-3.7224
X3.8Y-3.4224
X3.8Y-3.7224
X7.1Y-2.6594
X7.1Y-2.7594
X7.1Y-2.8594
X7.1Y-2.9594
X7.1Y-3.0594
X7.1Y-3.1594
X7.1Y-3.2594
X7.1Y-3.3594
X7.1Y-3.4594
X7.1Y-3.5594
X7.1Y-3.6594
X7.1Y-3.7594
X7.1Y-3.8594
X7.1Y-3.9594
X7.1Y-4.0594
X7.7Y-2.7594
X7.7Y-2.8594
X7.7Y-2.9594
X7.7Y-3.0594
X7.7Y-3.1594
X7.7Y-3.2594
X7.7Y-3.3594
X7.7Y-3.4594
X7.7Y-3.5594
X7.7Y-3.6594
X7.7Y-3.7594
X7.7Y-3.8594
X7.7Y-3.9594
X7.7Y-4.0594
X4.75Y-3.45
X4.75Y-3.75
X4.85Y-3.45
X4.85Y-3.75
X4.95Y-3.45
X4.95Y-3.75
X7.3717Y-4.7594
X7.4717Y-4.7594
X7.5717Y-4.7594
X7.6717Y-4.7594
X6.0185Y-4.5961
X6.0185Y-4.8961
X4.55Y-3.45
X4.55Y-3.75
X5.45Y-2.45
X5.45Y-2.75
X3.0594Y-2.0
X3.65Y-2.0
X7.5717Y-2.2594
X7.6717Y-2.2594
X5.9717Y-3.6
X6.2717Y-3.6
X5.4217Y-3.4594
X5.4217Y-3.7594
X5.5217Y-3.4594
X5.5217Y-3.7594
X5.6217Y-3.4594
X5.6217Y-3.7594
X5.7217Y-3.4594
X5.7217Y-3.7594
X3.4Y-3.4
X3.4Y-3.7
X6.65Y-3.15
X6.7484Y-3.15
X5.0594Y-2.0
X5.65Y-2.0
T4
X6.1969Y-3.1563
X6.2969Y-3.1563
X6.3969Y-3.1563
X4.2984Y-3.1571
X4.3984Y-3.1571
X4.4984Y-3.1571
X2.45Y-1.9
X2.45Y-2.1205
X2.6705Y-1.9
X2.6705Y-2.1205
T5
X5.4217Y-4.4594
X5.8217Y-4.4594
X3.8717Y-4.4594
X4.2717Y-4.4594
T6
X2.0071Y-3.9008
X2.8929Y-3.9008
X4.5717Y-4.265
X4.5717Y-5.1508
X3.0217Y-4.2736
X3.0217Y-5.1594
T7
X2.3071Y-4.2961
X2.3071Y-4.4961
X2.3071Y-4.6961
X2.4571Y-4.9508
X2.4571Y-5.1508
X5.4571Y-4.8508
X5.6571Y-4.8508
X3.9571Y-4.8508
X4.1571Y-4.8508
T8
X4.9217Y-4.4508
X4.9217Y-4.8508
X4.9217Y-5.1508
X5.2217Y-4.4508
X3.4071Y-4.4508
X3.4071Y-4.8508
X3.4071Y-5.1508
X3.7071Y-4.4508
T9
X2.1Y-2.5626
X2.1Y-3.35
X2.8874Y-2.7594
X2.8874Y-3.1531
T10
X1.9213Y-5.2283
X1.9213Y-1.8189
X7.7717Y-1.815
X7.7756Y-5.2205
T0
M30
